<svg width="349" height="432" viewBox="0 0 349 432" fill="none" xmlns="http://www.w3.org/2000/svg">
<path d="M123 252H225.6V366.9H123V252Z" fill="#FFD18D"/>
<path d="M225.6 257V269.6C210.4 278.3 193 283.3 174.3 283.3C163.8 283.3 153.5 281.7 143.9 278.6C139.4 277.2 134.8 280.5 134.8 285.3V319.6H123V257C137.7 266.9 155.4 272.7 174.3 272.7C193.3 272.6 210.9 266.9 225.6 257Z" fill="#E6BC7F"/>
<path d="M248.8 311.6L323.3 337.1C338.8 342.4 348.8 356.3 348.8 372.8V416.8C348.8 425 342.1 431.7 333.9 431.7H14.9C6.70001 431.7 0 425 0 416.8V372.8C0 356.4 9.9 342.4 25.5 337.1L100 311.6L175.7 319.1L248.8 311.6Z" fill="#ECEAEC"/>
<path d="M174 430.5L248.8 311.7L174.3 318L99.8 311.7L174 430.5Z" fill="#1BADDE"/>
<path d="M162.3 0H186.3C239.6 0 283.2 43.6 283.2 96.9V138.5C283.2 168.9 258.3 193.8 227.9 193.8H120.7C90.3 193.8 65.4 168.9 65.4 138.5V96.9C65.4 43.6 108.9 0 162.3 0Z" fill="#4E3D4D"/>
<path d="M73.7 147.7H81.3C88.6 147.7 93.6 141.7 94.4 134.6V114C94.4 108.6 99.5 104.9 104.7 106.6C129 114.5 168.6 117.4 202 77.8998C205 74.2998 210.2 74.0998 213.5 77.2998C222 85.6998 237.2 95.6998 248.6 99.6998C251.8 100.8 253.9 103.6 253.9 107.1V134.7C253.9 142 259.8 147.8 267 147.8H274.6C285 147.8 293.5 156.3 293.5 166.7C293.5 177.1 285 185.6 274.6 185.6H266.4C263.7 234 223.1 272.9 174 272.9C125.2 272.9 84.5 234.4 81.6 185.6H73.4C63 185.6 54.5 177.1 54.5 166.7C54.9 156.2 63.4 147.7 73.7 147.7Z" fill="#FFD18D"/>
<path d="M200.9 318.3L193.4 355.8C192.8 358.8 191.1 361.3 188.7 362.9L195.5 396.4L174 430.4L153.3 397.1L160.2 362.8C157.9 361.1 156.3 358.7 155.5 355.7L145.7 318.2L200.9 318.3Z" fill="#736572"/>
<path d="M144.7 211.8C141.5 209.6 140.6 205.5 142.7 202.2C144.9 199 149 198 152.4 200.2C159.9 205.1 167.3 207.8 174.6 208.1C181.7 208.2 188.8 205.8 196.2 200.5C199.3 198.2 203.6 198.8 205.9 201.9C208.2 205 207.6 209.3 204.5 211.6C194.6 219 184.5 222.2 174.4 222C164.2 221.7 154.4 218.1 144.7 211.8Z" fill="#E29A6C"/>
<path d="M278 374.5C284.1 374.5 289.7 377 293.8 381.1C297.7 385.2 300.3 390.7 300.3 396.8C300.3 402.9 297.8 408.5 293.8 412.5C289.7 416.6 284.2 419.1 278 419.1C271.9 419.1 266.3 416.6 262.3 412.5C258.2 408.4 255.8 402.9 255.8 396.8C255.8 390.7 258.3 385.1 262.3 381.1C266.2 377 271.9 374.5 278 374.5ZM283.8 390.9C282.2 389.3 280.2 388.5 277.9 388.5C275.6 388.5 273.6 389.5 272 390.9C270.6 392.5 269.6 394.5 269.6 396.8C269.6 399.1 270.6 401.2 272 402.7C273.6 404.3 275.6 405.1 277.9 405.1C280.2 405.1 282.3 404.1 283.8 402.7C285.2 401.3 286.2 399.1 286.2 396.8C286.2 394.5 285.3 392.4 283.8 390.9Z" fill="#736572"/>
<path d="M284.9 381.5C284.9 385.3 281.8 388.4 278 388.4C274.2 388.4 271.1 385.3 271.1 381.5V322.1C271.1 318.3 274.2 315.2 278 315.2C281.8 315.2 284.9 318.3 284.9 322.1V381.5Z" fill="#736572"/>
<path d="M51.4 410.6C51.4 414.4 48.3 417.5 44.5 417.5C40.7 417.5 37.6 414.4 37.6 410.6V387.5C37.6 380.6 40.5 374.4 45 369.8C49.5 365.2 55.8 362.4 62.7 362.4C69.6 362.4 75.8 365.3 80.4 369.8C85 374.3 87.7 380.6 87.7 387.5V410.6C87.7 414.4 84.6 417.5 80.8 417.5C77 417.5 73.9 414.4 73.9 410.6V387.5C73.9 384.5 72.6 381.6 70.7 379.7C68.7 377.7 65.9 376.5 62.8 376.5C59.8 376.5 56.9 377.8 55 379.7C53 381.7 51.8 384.5 51.8 387.5L51.4 410.6Z" fill="#736572"/>
<path d="M55.6 324.4C55.6 320.6 58.7 317.5 62.5 317.5C66.3 317.5 69.4 320.6 69.4 324.4V369.5C69.4 373.3 66.3 376.4 62.5 376.4C58.7 376.4 55.6 373.3 55.6 369.5V324.4Z" fill="#736572"/>
<path d="M224.5 123.7C228.3 123.7 231.4 126.8 231.4 130.6C231.4 134.4 228.3 137.5 224.5 137.5H207.2C203.4 137.5 200.3 134.4 200.3 130.6C200.3 126.8 203.4 123.7 207.2 123.7H224.5Z" fill="#4E3D4D"/>
<path d="M141.5 123.7C145.3 123.7 148.4 126.8 148.4 130.6C148.4 134.4 145.3 137.5 141.5 137.5H124.2C120.4 137.5 117.3 134.4 117.3 130.6C117.3 126.8 120.4 123.7 124.2 123.7H141.5Z" fill="#4E3D4D"/>
<path d="M125.8 153.4C125.8 149.6 128.9 146.5 132.7 146.5C136.5 146.5 139.6 149.6 139.6 153.4V162.8C139.6 166.6 136.5 169.7 132.7 169.7C128.9 169.7 125.8 166.6 125.8 162.8V153.4Z" fill="#4E3D4D"/>
<path d="M208.9 153.4C208.9 149.6 212 146.5 215.8 146.5C219.6 146.5 222.7 149.6 222.7 153.4V162.8C222.7 166.6 219.6 169.7 215.8 169.7C212 169.7 208.9 166.6 208.9 162.8V153.4Z" fill="#4E3D4D"/>
<path d="M99.9 311.6L122.1 347.3C124.7 351.4 131.1 352.1 134.9 349.1L174.3 317.9L122.5 289.9C117.7 287.3 111.7 289.1 109.2 293.8L99.9 311.6Z" fill="#DBD8DB"/>
<path d="M248.8 311.6L226.6 347.5C224 351.6 217.6 352.3 213.8 349.3L174.4 318L226.2 290C231 287.4 237 289.2 239.5 293.9L248.8 311.6Z" fill="#DBD8DB"/>
<path d="M109.7 192.7V108C108 107.5 106.5 107 104.9 106.6C99.8 104.9 94.6 108.8 94.6 114V134.6C93.8 141.8 88.7 147.7 81.5 147.7H73.9C71.3 147.7 68.9 148.3 66.6 149.1C59.8 152 55 158.7 55 166.4C55 176.8 63.5 185.3 73.9 185.3H82.1C83.8 215.2 99.8 241.2 123.2 256.9C137.9 266.8 155.6 272.6 174.5 272.6C175.5 272.6 176.5 272.6 177.6 272.6C159.3 271.9 142.8 264.2 130.6 252C117.8 239.2 109.8 221.6 109.8 202.2L109.7 192.7Z" fill="#E6BC7F"/>
<path d="M94.6 134.6V114C94.6 108.6 99.7 104.9 104.9 106.6C106.5 107.1 108 107.6 109.7 108V15.7002C83.2 33.0002 65.5 63.0002 65.5 97.0002V138.6C65.5 142.3 65.9 145.8 66.6 149.2C68.9 148.2 71.3 147.8 73.9 147.8H81.5C88.6 147.7 93.8 141.8 94.6 134.6Z" fill="#463745"/>
<path d="M40.1 342.8L55.6 337.5V326.7L25.5 337C10 342.3 0 356.2 0 372.7V416.7C0 424.9 6.70001 431.6 14.9 431.6H17.8C15.8 429.1 14.7 425.9 14.7 422.4V378.4C14.6 362.1 24.6 348.2 40.1 342.8Z" fill="#D4D3D4"/>
<path d="M69.5 324.4V332.8L105.4 320.6L99.9 311.8L69.2 322.3C69.4 322.9 69.5 323.6 69.5 324.4Z" fill="#D4D3D4"/>
</svg>
