<svg width="488" height="488" viewBox="0 0 488 488" fill="none" xmlns="http://www.w3.org/2000/svg">
<path d="M266.875 419.375H327.875V465.125H266.875V419.375Z" fill="#FFC477"/>
<path d="M22.875 419.375H83.875V465.125H22.875V419.375Z" fill="#FFC477"/>
<path d="M266.875 419.375V465.125H83.875V419.375H22.875V365.085C22.8646 352.092 27.0107 339.437 34.7072 328.969C42.4036 318.502 53.2467 310.77 65.6513 306.906L118.035 290.512C129.625 297.375 144.875 305 144.875 305L175.375 366L205.875 305C205.875 305 221.125 297.375 232.715 290.512L285.099 306.906C297.503 310.77 308.346 318.502 316.043 328.969C323.739 339.437 327.885 352.092 327.875 365.085V419.375H266.875Z" fill="#3D9AE2"/>
<path d="M205.875 237.595V305L175.375 366L144.875 305V237.595H205.875Z" fill="#FFC477"/>
<path d="M144.875 305V335.5C144.875 331.455 143.268 327.577 140.408 324.717C137.548 321.857 133.67 320.25 129.625 320.25C125.58 320.25 121.702 321.857 118.842 324.717C115.982 327.577 114.375 331.455 114.375 335.5V305C114.375 296.911 117.588 289.153 123.308 283.433C129.028 277.713 136.786 274.5 144.875 274.5V305Z" fill="#1E81CE"/>
<path d="M205.875 274.5C213.964 274.5 221.722 277.713 227.442 283.433C233.162 289.153 236.375 296.911 236.375 305V335.5C236.375 331.455 234.768 327.577 231.908 324.717C229.048 321.857 225.17 320.25 221.125 320.25C217.08 320.25 213.202 321.857 210.342 324.717C207.482 327.577 205.875 331.455 205.875 335.5V274.5Z" fill="#1E81CE"/>
<path d="M106.75 137.25V183H91.5C85.4332 183 79.6148 180.59 75.3249 176.3C71.035 172.01 68.625 166.192 68.625 160.125C68.625 154.058 71.035 148.24 75.3249 143.95C79.6148 139.66 85.4332 137.25 91.5 137.25H106.75Z" fill="#FFB655"/>
<path d="M205.875 237.595V268.095C196.262 272.319 185.875 274.5 175.375 274.5C164.875 274.5 154.488 272.319 144.875 268.095V237.595H205.875Z" fill="#FFB655"/>
<path d="M251.625 137.25V183C251.625 203.223 243.592 222.617 229.292 236.917C214.992 251.217 195.598 259.25 175.375 259.25C155.152 259.25 135.758 251.217 121.458 236.917C107.158 222.617 99.125 203.223 99.125 183V122C99.1371 117.959 100.748 114.087 103.605 111.23C106.462 108.373 110.334 106.762 114.375 106.75H236.375C240.416 106.762 244.288 108.373 247.145 111.23C250.002 114.087 251.613 117.959 251.625 122V137.25Z" fill="#FFC477"/>
<path d="M253.836 103.547C256.206 103.918 258.456 104.842 260.401 106.246C262.347 107.649 263.934 109.492 265.034 111.624C266.133 113.756 266.714 116.118 266.729 118.517C266.745 120.916 266.194 123.285 265.121 125.431L264.359 127.032C262.872 129.978 260.472 132.365 257.518 133.836C254.563 135.306 251.212 135.781 247.965 135.191L191.769 124.973C180.93 122.991 169.821 122.991 158.981 124.973L102.785 135.191C99.538 135.781 96.187 135.306 93.2323 133.836C90.2777 132.365 87.8779 129.978 86.3913 127.032L85.6288 125.431C84.5564 123.285 84.0054 120.916 84.0206 118.517C84.0359 116.118 84.6168 113.756 85.7164 111.624C86.8159 109.492 88.403 107.649 90.3486 106.246C92.2943 104.842 94.5436 103.918 96.9138 103.547L99.125 103.242L156.846 94.3207C169.131 92.4908 181.619 92.4908 193.904 94.3207L251.625 103.242L253.836 103.547Z" fill="#5AAAE7"/>
<path d="M251.625 99.1248V103.242L193.904 94.321C181.619 92.4911 169.131 92.4911 156.846 94.321L99.125 103.242V63.1348C99.1307 56.0822 101.58 49.2495 106.057 43.7997C110.533 38.35 116.76 34.62 123.677 33.2448L124.059 33.1685L163.404 25.2385C171.312 23.7135 179.438 23.7135 187.346 25.2385L226.691 33.1685L227.073 33.2448C233.99 34.62 240.217 38.35 244.693 43.7997C249.17 49.2495 251.619 56.0822 251.625 63.1348V99.1248Z" fill="#3D9AE2"/>
<path d="M396.5 434.625C400.535 434.655 404.397 436.271 407.25 439.125C410.104 441.978 411.72 445.84 411.75 449.875C411.738 453.916 410.127 457.788 407.27 460.645C404.413 463.502 400.541 465.113 396.5 465.125H320.25C316.215 465.095 312.353 463.479 309.5 460.625C306.646 457.772 305.03 453.91 305 449.875C305.012 445.834 306.623 441.962 309.48 439.105C312.337 436.248 316.209 434.637 320.25 434.625H396.5Z" fill="#ACABB1"/>
<path d="M335.5 404.125H381.25V434.625H335.5V404.125Z" fill="#C6C5CA"/>
<path d="M259.25 137.25C265.317 137.25 271.135 139.66 275.425 143.95C279.715 148.24 282.125 154.058 282.125 160.125C282.125 166.192 279.715 172.01 275.425 176.3C271.135 180.59 265.317 183 259.25 183H244V137.25H259.25Z" fill="#FFB655"/>
<path d="M335.5 404.125H381.25V419.375H335.5V404.125Z" fill="#ACABB1"/>
<path d="M144.875 175.375C141.859 175.375 138.91 174.481 136.403 172.805C133.895 171.129 131.94 168.748 130.786 165.961C129.632 163.174 129.33 160.108 129.918 157.15C130.506 154.192 131.959 151.474 134.092 149.342C136.224 147.209 138.942 145.756 141.9 145.168C144.858 144.58 147.924 144.882 150.711 146.036C153.498 147.19 155.879 149.145 157.555 151.653C159.231 154.16 160.125 157.109 160.125 160.125C160.125 164.17 158.518 168.048 155.658 170.908C152.798 173.768 148.92 175.375 144.875 175.375Z" fill="#EE8700"/>
<path d="M205.875 175.375C202.859 175.375 199.91 174.481 197.403 172.805C194.895 171.129 192.94 168.748 191.786 165.961C190.632 163.174 190.33 160.108 190.918 157.15C191.506 154.192 192.959 151.474 195.092 149.342C197.224 147.209 199.942 145.756 202.9 145.168C205.858 144.58 208.924 144.882 211.711 146.036C214.498 147.19 216.879 149.145 218.555 151.653C220.231 154.16 221.125 157.109 221.125 160.125C221.125 164.17 219.518 168.048 216.658 170.908C213.798 173.768 209.92 175.375 205.875 175.375Z" fill="#EE8700"/>
<path d="M175.375 221.125C166.089 221.129 157.121 217.739 150.159 211.594L160.247 200.156C164.479 203.728 169.838 205.687 175.375 205.687C180.912 205.687 186.271 203.728 190.503 200.156L200.591 211.594C193.629 217.739 184.661 221.129 175.375 221.125Z" fill="#EE8700"/>
<path d="M76.25 373.625H91.5V465.125H76.25V373.625Z" fill="#1E81CE"/>
<path d="M259.25 373.625H274.5V465.125H259.25V373.625Z" fill="#1E81CE"/>
<path d="M465.125 251.625V388.875C465.113 392.916 463.502 396.788 460.645 399.645C457.788 402.502 453.916 404.113 449.875 404.125H266.875C262.834 404.113 258.962 402.502 256.105 399.645C253.248 396.788 251.637 392.916 251.625 388.875V251.625C251.637 247.584 253.248 243.712 256.105 240.855C258.962 237.998 262.834 236.387 266.875 236.375H449.875C453.916 236.387 457.788 237.998 460.645 240.855C463.502 243.712 465.113 247.584 465.125 251.625Z" fill="#5AAAE7"/>
<path d="M434.625 327.875V343.125L417.774 347.319C416.726 351.184 415.189 354.9 413.199 358.375L422.12 373.244L411.369 383.995L396.5 375.074C393.025 377.064 389.309 378.601 385.444 379.649L381.25 396.5H366L361.806 379.649C357.941 378.601 354.225 377.064 350.75 375.074L335.881 383.995L325.13 373.244L334.051 358.375C332.061 354.9 330.524 351.184 329.476 347.319L312.625 343.125V327.875L329.476 323.681C330.524 319.816 332.061 316.1 334.051 312.625L325.13 297.756L335.881 287.005L350.75 295.926C354.225 293.936 357.941 292.399 361.806 291.351L366 274.5H381.25L385.444 291.351C389.309 292.399 393.025 293.936 396.5 295.926L411.369 287.005L422.12 297.756L413.199 312.625C415.189 316.1 416.726 319.816 417.774 323.681L434.625 327.875Z" fill="#3D9AE2"/>
<path d="M419.375 312.625V327.875L402.524 332.069C401.476 335.934 399.939 339.65 397.949 343.125L406.87 357.994L396.119 368.745L381.25 359.824C377.775 361.814 374.059 363.351 370.194 364.399L366 381.25H350.75L346.556 364.399C342.691 363.351 338.975 361.814 335.5 359.824L320.631 368.745L309.88 357.994L318.801 343.125C316.811 339.65 315.274 335.934 314.226 332.069L297.375 327.875V312.625L314.226 308.431C315.274 304.566 316.811 300.85 318.801 297.375L309.88 282.506L320.631 271.755L335.5 280.676C338.975 278.686 342.691 277.149 346.556 276.101L350.75 259.25H366L370.194 276.101C374.059 277.149 377.775 278.686 381.25 280.676L396.119 271.755L406.87 282.506L397.949 297.375C399.939 300.85 401.476 304.566 402.524 308.431L419.375 312.625Z" fill="#FF9811"/>
<path d="M358.375 343.125C371.009 343.125 381.25 332.884 381.25 320.25C381.25 307.616 371.009 297.375 358.375 297.375C345.742 297.375 335.5 307.616 335.5 320.25C335.5 332.884 345.742 343.125 358.375 343.125Z" fill="#EE8700"/>
</svg>
