<?xml version="1.0" encoding="utf-8"?>
<!-- Generator: Adobe Illustrator 18.1.1, SVG Export Plug-In . SVG Version: 6.00 Build 0)  -->
<svg version="1.1" id="Layer_1" xmlns="http://www.w3.org/2000/svg" xmlns:xlink="http://www.w3.org/1999/xlink" x="0px" y="0px"
	 viewBox="-165 174 280 446" enable-background="new -165 174 280 446" xml:space="preserve">
<path fill="#2F4959" d="M-137.3,440c-5.2,13.5-13.3,25.8-23.6,36.5c-3.1,3.2-4.5,7.3-4.1,11.7c0.5,4.5,2.7,8.1,6.5,10.5
	c32.7,21.4,78.6,34.8,129.5,34.8c54.2,0,102.9-15.1,135.7-39.2c3.7-2.6,5.6-6.5,5.9-11c0.3-4.5-1.3-8.5-4.8-11.6
	c-12.8-11.7-22.6-25.9-28.6-41.6V319.6c0-36.9-30.2-67.2-67.2-67.2h-82.5c-36.9,0-67.2,30.2-67.2,67.2L-137.3,440z"/>
<path fill="#2CBFAE" d="M77.5,207.3c-85.4-43.6-121.6-43.6-207.1,0l28.7,80.2c21.7-10.1,47.3-15.9,74.8-15.9s53.3,5.9,74.9,15.9
	L77.5,207.3z"/>
<path fill="#E4E3FF" d="M-165,619.4h280V563c0-55.2-46.4-100.4-103.1-100.4h-73.9c-56.7,0-103.1,45.2-103.1,100.4V619.4z"/>
<path fill="#FFE0CC" d="M-66.6,380.8h83.2v81.1c0,22.9-18.7,41.6-41.6,41.6s-41.6-18.7-41.6-41.6V380.8z"/>
<path fill="#F2C3A4" d="M-66.6,380.8h83.2v60.8c-13.5,7.3-29,11.6-45.5,11.6c-13.5,0-26.1-2.7-37.6-7.7V380.8z"/>
<path fill="#2CBFAE" d="M-66.6,447.3L-25,589.7l41.6-142.3l36.1,18l-20.8,31l22.8,26L7.1,619.4c-21.3,0-42.5,0-63.8,0l-47.6-96.9
	l22.7-26l-20.8-31L-66.6,447.3z"/>
<path fill="#FFE0CC" d="M48.6,336.1c1.1,5.4,1.7,11,1.7,16.8c0,45.3-35.5,82.2-79.2,82.2c-43.7,0-79.2-36.8-79.2-82.2
	c0-12.8,2.9-25,7.9-35.7c4.1-8.7,11.3-14.6,20.5-16.7c9.3-2.3,18.3-0.2,25.9,5.8C-26,328.2,15.6,336.7,48.6,336.1z"/>
<path fill="#E5E6E7" d="M-2.3,218.1H-20v-17.6h-12.5v17.6h-17.6v12.5h17.6v17.6H-20v-17.6h17.6V218.1z"/>
<path fill="#C9CEED" d="M-25,503.3c-11,0-21.1-4.4-28.5-11.4l12.1,41.3l16.4,56.3l16.5-56.7l12-40.8C-3.9,499-14,503.3-25,503.3z"/>
<g>
	<path fill="#E29A6C" d="M-51.2,407.9c-2.3-1.6-3-4.6-1.5-7c1.6-2.3,4.6-3.1,7.1-1.5c5.5,3.6,10.9,5.6,16.2,5.8
		c5.2,0.1,10.4-1.7,15.8-5.6c2.3-1.7,5.4-1.2,7.1,1c1.7,2.3,1.2,5.4-1,7.1c-7.2,5.4-14.6,7.7-22,7.6
		C-36.9,415.2-44.1,412.5-51.2,407.9z"/>
	<path fill="#4E3D4D" d="M7.1,343.5c2.8,0,5,2.3,5,5c0,2.8-2.3,5-5,5H-5.5c-2.8,0-5-2.3-5-5c0-2.8,2.3-5,5-5H7.1z"/>
	<path fill="#4E3D4D" d="M-53.5,343.5c2.8,0,5,2.3,5,5c0,2.8-2.3,5-5,5h-12.6c-2.8,0-5-2.3-5-5c0-2.8,2.3-5,5-5H-53.5z"/>
	<path fill="#4E3D4D" d="M-65,365.2c0-2.8,2.3-5,5-5s5,2.3,5,5v6.9c0,2.8-2.3,5-5,5s-5-2.3-5-5V365.2z"/>
	<path fill="#4E3D4D" d="M-4.3,365.2c0-2.8,2.3-5,5-5s5,2.3,5,5v6.9c0,2.8-2.3,5-5,5s-5-2.3-5-5V365.2z"/>
</g>
</svg>
