<?xml version="1.0" encoding="utf-8"?>
<!-- Generator: Adobe Illustrator 18.1.1, SVG Export Plug-In . SVG Version: 6.00 Build 0)  -->
<svg version="1.1" id="Layer_1" xmlns="http://www.w3.org/2000/svg" xmlns:xlink="http://www.w3.org/1999/xlink" x="0px" y="0px"
	 viewBox="-66 188 478 418" enable-background="new -66 188 478 418" xml:space="preserve">
<g>
	<defs>
		<rect id="SVGID_1_" x="-66" y="188" width="478" height="478"/>
	</defs>
	<clipPath id="SVGID_2_">
		<use xlink:href="#SVGID_1_"  overflow="visible"/>
	</clipPath>
	<g clip-path="url(#SVGID_2_)">
		<path fill="#5A4146" d="M280.9,400v5.4c0,6.6,1.1,13.2,3.2,19.5l12.3,36.8h23.1v-84.8h-15.4C291.3,376.9,280.9,387.2,280.9,400z"
			/>
		<path fill="#694B4B" d="M386.5,416l-13,45.7l-61.7-54c-8.5,0-15.4-6.9-15.4-15.4c0-12.8,10.4-23.1,23.1-23.1h54
			c8.5,0,15.4,6.9,15.4,15.4v14.5C388.9,404.8,388.1,410.5,386.5,416z"/>
		<path fill="#E6AF78" d="M358,484.8h-46.3v34.1H358V484.8z"/>
		<path fill="#D29B6E" d="M311.8,499c7.2,2.9,14.9,4.5,23.1,4.5c8.2,0,16-1.6,23.1-4.5v-14.2h-46.3V499z"/>
		<path fill="#D5DCED" d="M395.2,514.2L358,503.5l-23.1,15.3l-23.1-15.3l-37.2,10.6c-9.9,2.8-16.8,11.9-16.8,22.2v56.4
			c0,4.3,3.5,7.7,7.7,7.7h138.8c4.3,0,7.7-3.5,7.7-7.7v-56.4C412,526.1,405.2,517,395.2,514.2z"/>
		<path fill="#AFB9D2" d="M342.6,600.5h-15.4l3.9-81.5h7.7L342.6,600.5z"/>
		<path fill="#F0C087" d="M334.9,492.5c-25.5,0-46.3-20.7-46.3-46.3v-9c0-4.1,1.6-8,4.5-10.9l14-14c3-3,7-4.7,11.2-4.5
			c24.6,0.8,46.5,6.1,58.4,17.7c2.9,2.9,4.4,6.8,4.4,10.9v9.8C381.2,471.8,360.5,492.5,334.9,492.5z"/>
		<path fill="#E6AF78" d="M311.8,439.2c0-8.9,7.5-16,16.3-15.4c15.6,1,38.7,3.6,52.8,10.4c-0.5-3.3-1.9-6.3-4.2-8.6
			c-11.9-11.6-33.7-16.9-58.4-17.7l0,0c-4.2-0.1-8.2,1.6-11.2,4.5l-14,14c-2.9,2.9-4.5,6.8-4.5,10.9v9c0,21.1,14.1,38.9,33.4,44.4
			c-6.4-7.9-10.3-18-10.3-29L311.8,439.2z"/>
		<path fill="#C7CFE2" d="M381.2,559.4c0-6.1,2.4-12,6.8-16.4l19.8-19.8c2.7,3.8,4.2,8.4,4.2,13.2v56.4c0,4.3-3.5,7.7-7.7,7.7h-23.1
			V559.4z"/>
		<path fill="#959CB5" d="M338.8,534.4H331c-2.1,0-3.9-1.7-3.9-3.9v-11.6h15.4v11.6C342.6,532.6,340.9,534.4,338.8,534.4z"/>
		<path fill="#C7CFE2" d="M334.9,518.9l-13.1,10c-2.3,1.7-5.5,1-6.9-1.5L303.2,506l4.7-7.2c1-1.6,3.3-1.9,4.7-0.6L334.9,518.9z"/>
		<path fill="#C7CFE2" d="M334.9,518.9l13.1,10c2.3,1.7,5.5,1,6.9-1.5l11.7-21.4l-4.7-7.2c-1-1.6-3.3-1.9-4.7-0.6L334.9,518.9z"/>
		<path fill="#5A4146" d="M72,489.3c-6.6-17.5-11.8-47.5-12.9-63.1c-2.1-29.7-24.6-54-54.8-54c-30.3,0-52.7,24.2-54.8,54
			c-1.1,15.6-6.4,45.6-12.9,63.1c-1.5,3.8,0.2,8.1,4,9.8c7.1,3.2,22.1,9.5,40.3,11.9h47c18.1-2.4,33.2-8.7,40.3-11.9
			C71.8,497.4,73.5,493.2,72,489.3z"/>
		<path fill="#694B4B" d="M68,499.1c3.8-1.7,5.5-6,4-9.8c-6.6-17.5-11.8-47.5-12.9-63.1c-2.1-29.7-24.6-54-54.8-54
			c-0.1,0-0.2,0-0.2,0c-23.2,0.1-31.5,31.8-11.4,43.6c1.2,0.7,2,1.1,2,1.1L12,511h15.7C45.8,508.6,61,502.3,68,499.1z"/>
		<path fill="#E6AF78" d="M60,526.5L35,514c-5.2-2.6-8.5-8-8.5-13.8l0-23.1h-46.3v23.1c0,5.8-3.3,11.2-8.5,13.8l-24.9,12.5
			c-7.8,3.9-12.8,11.9-12.8,20.7v45.6c0,4.3,3.5,7.7,7.7,7.7H65.1c4.3,0,7.7-3.5,7.7-7.7v-45.6C72.8,538.4,67.8,530.4,60,526.5z"/>
		<path fill="#D29B6E" d="M3.4,508c8.3,0,16.3-1.7,23.5-4.8c-0.2-1-0.4-1.9-0.4-3l0-23.1h-46.3v23.1c0,1-0.2,2-0.4,3
			C-12.9,506.2-4.9,508,3.4,508z"/>
		<path fill="#D5DCED" d="M60,526.5l-17.8-8.9c-8.2,12.7-22.5,21.2-38.8,21.2s-30.6-8.4-38.8-21.2l-17.8,8.9
			c-7.8,3.9-12.8,11.9-12.8,20.7v45.6c0,4.3,3.5,7.7,7.7,7.7H65.1c4.3,0,7.7-3.5,7.7-7.7v-45.6C72.8,538.4,67.8,530.4,60,526.5z"/>
		<path fill="#F0C087" d="M3.4,492.5c-23.5,0-42.9-17.6-45.9-40.3c-0.4-3.3,1.2-6.5,4.1-8c3.5-1.8,8.7-4.8,13.6-9.2
			c5.5-4.9,8.7-10.1,10.5-13.9c1.6-3.3,5.2-5.1,8.7-4.2c27.1,6.9,45.6,21,52.3,26.8c1.8,1.5,2.8,3.8,2.7,6.2
			C47.6,473.8,27.7,492.5,3.4,492.5z"/>
		<path fill="#E6AF78" d="M46.9,443.7c-6.7-5.8-25.2-19.9-52.3-26.8c-3.5-0.9-7.1,1-8.7,4.2c-1.4,2.9-3.7,6.5-7,10.3c0,0,0,0,0,0
			c-1.1,1.2-2.2,2.4-3.5,3.6c-4.9,4.4-10.1,7.4-13.6,9.2c-3,1.5-4.5,4.7-4.1,8c2.6,20.4,18.6,36.6,38.9,39.7
			c-9.2-6.3-16.1-14.9-16.1-30.3v-11c1.8-1.3,3.5-2.6,5.3-4.2c4.3-3.8,8-8.2,11-13c20.8,6.5,34.8,17.3,40.2,21.9
			c1.5,1.3,5.1,4.6,9.3,8.6c1.8-4.4,3-9.1,3.4-14.1C49.7,447.6,48.7,445.3,46.9,443.7z"/>
		<path fill="#C7CFE2" d="M-61.3,533.3c-3,3.9-4.7,8.8-4.7,13.9v45.6c0,4.3,3.5,7.7,7.7,7.7h23.1v-38.8c0-4.7-2.1-9.1-5.8-12
			L-61.3,533.3z"/>
		<path fill="#FF507D" d="M283.8,516l-64.5-23.5L173,508l-46.3-15.4L62.2,516c-12.2,4.4-20.3,16-20.3,29v47.8c0,4.3,3.5,7.7,7.7,7.7
			h246.7c4.3,0,7.7-3.5,7.7-7.7V545C304.1,532,296,520.4,283.8,516z"/>
		<path fill="#707487" d="M164.9,523.4l-7.3,77.1h30.8l-7.3-77.1H164.9z"/>
		<path fill="#5B5D6E" d="M181.1,534h-16.2c-3,0-5.4-2.4-5.4-5.4V508h27v20.6C186.5,531.5,184.1,534,181.1,534z"/>
		<path fill="#D23C69" d="M295.8,524c5.2,5.6,8.3,13,8.3,21v47.8c0,4.3-3.5,7.7-7.7,7.7h-38.5v-25.8c0-8.2,3.2-16,9-21.8L295.8,524z
			"/>
		<path fill="#5A4146" d="M257.8,333.5V269c0-8.5-6.9-15.4-15.4-15.4h-92.5c-34.1,0-61.7,27.6-61.7,61.7v18.3c0,8.3,1.3,16.5,4,24.4
			l2.6,7.7c0.8,2.4,1.2,4.8,1.2,7.3v4h154.2v-4c0-2.5,0.4-5,1.2-7.3l2.6-7.7C256.5,350.1,257.8,341.8,257.8,333.5z"/>
		<path fill="#694B4B" d="M126.7,284.9c0,17.3,14,31.3,31.3,31.3h4.3l2.1,60.7h85.6v-4c0-2.5,0.4-5,1.2-7.3l2.6-7.7
			c2.6-7.9,4-16.1,4-24.4V269c0-8.5-6.9-15.4-15.4-15.4h-84.3C140.8,253.5,126.7,267.6,126.7,284.9z"/>
		<path fill="#E6AF78" d="M219.3,438.6h-92.5V508h92.5V438.6z"/>
		<path fill="#D29B6E" d="M126.7,464.6c13.6,7.9,29.4,12.5,46.3,12.5s32.6-4.6,46.3-12.5v-26.1h-92.5L126.7,464.6z"/>
		<path fill="#D23C69" d="M173,508l-24.6,24.6c-3.3,3.3-8.8,2.9-11.6-0.8l-25.5-33.6l6.7-14.1c2-4.1,7.1-5.7,11-3.3L173,508z"/>
		<path fill="#D23C69" d="M173,508l24.6,24.6c3.3,3.3,8.8,2.9,11.6-0.8l25.5-33.6l-6.7-14.1c-2-4.1-7.1-5.7-11-3.3L173,508z"/>
		<path fill="#F0C087" d="M173,461.7c-42.6,0-77.1-34.5-77.1-77.1v-9c0-4.1,1.6-8,4.5-10.9l6.4-6.4c2.9-2.9,4.5-6.8,4.5-10.9v-18.5
			c0-3.6,2.4-6.7,5.9-7.5c18.2-4.3,75-14.5,113.6,13.9c2.5,1.8,3.9,4.9,3.9,8v4.1c0,4.1,1.6,8,4.5,10.9l6.4,6.4
			c2.9,2.9,4.5,6.8,4.5,10.9v9C250.1,427.2,215.6,461.7,173,461.7z"/>
		<path fill="#E6AF78" d="M230.8,335.3c-27.2-20-63.2-20.8-88.6-18.1c-10.7,1.2-19.6,2.9-25,4.2c-3.5,0.8-5.9,3.9-5.9,7.5v18.5
			c0,4.1-1.6,8-4.5,10.9l-6.4,6.4c-2.9,2.9-4.5,6.8-4.5,10.9v9c0,39.4,29.6,71.9,67.8,76.5c-13.3-13.9-21.5-32.6-21.5-53.4v-56.4
			c0-7.8,5.8-14.3,13.6-15.3c18.5-2.3,52.4-3.7,79,11.3v-4.1C234.7,340.2,233.3,337.1,230.8,335.3z"/>
		<path fill="#D23C69" d="M50.2,524c-5.2,5.6-8.3,13-8.3,21v47.8c0,4.3,3.5,7.7,7.7,7.7h38.5v-25.8c0-8.2-3.2-16-9-21.8L50.2,524z"
			/>
	</g>
</g>
<path fill="#E29A6C" d="M147.7,433.6c-2.8-1.9-3.6-5.5-1.7-8.3c1.9-2.8,5.5-3.6,8.4-1.7c6.5,4.2,12.9,6.6,19.2,6.8
	c6.2,0.1,12.3-2,18.7-6.6c2.7-2,6.4-1.5,8.4,1.2c2,2.7,1.5,6.4-1.2,8.4c-8.6,6.4-17.3,9.2-26.1,9C164.6,442.2,156.1,439,147.7,433.6
	z"/>
<path fill="#4E3D4D" d="M216.8,357.3c3.3,0,6,2.7,6,6c0,3.3-2.7,6-6,6h-15c-3.3,0-6-2.7-6-6c0-3.3,2.7-6,6-6H216.8z"/>
<path fill="#4E3D4D" d="M144.9,357.3c3.3,0,6,2.7,6,6c0,3.3-2.7,6-6,6h-15c-3.3,0-6-2.7-6-6c0-3.3,2.7-6,6-6H144.9z"/>
<path fill="#4E3D4D" d="M131.3,383c0-3.3,2.7-6,6-6c3.3,0,6,2.7,6,6v8.1c0,3.3-2.7,6-6,6c-3.3,0-6-2.7-6-6V383z"/>
<path fill="#4E3D4D" d="M203.3,383c0-3.3,2.7-6,6-6c3.3,0,6,2.7,6,6v8.1c0,3.3-2.7,6-6,6c-3.3,0-6-2.7-6-6V383z"/>
<g>
	<path fill="#E29A6C" d="M-9.2,477.8c-1.4-1-1.8-2.7-0.9-4.2c1-1.4,2.7-1.8,4.2-0.9c3.3,2.1,6.5,3.3,9.7,3.4c3.1,0,6.2-1,9.4-3.3
		c1.3-1,3.2-0.7,4.2,0.6c1,1.3,0.7,3.2-0.6,4.2c-4.3,3.2-8.7,4.6-13.1,4.5C-0.7,482.1-5,480.5-9.2,477.8z"/>
	<path fill="#4E3D4D" d="M25.5,439.5c1.7,0,3,1.3,3,3s-1.3,3-3,3H18c-1.7,0-3-1.3-3-3s1.3-3,3-3H25.5z"/>
	<path fill="#4E3D4D" d="M-10.6,439.5c1.7,0,3,1.3,3,3s-1.3,3-3,3h-7.5c-1.7,0-3-1.3-3-3s1.3-3,3-3H-10.6z"/>
	<path fill="#4E3D4D" d="M-17.4,452.4c0-1.7,1.3-3,3-3s3,1.3,3,3v4.1c0,1.7-1.3,3-3,3s-3-1.3-3-3V452.4z"/>
	<path fill="#4E3D4D" d="M18.7,452.4c0-1.7,1.3-3,3-3c1.7,0,3,1.3,3,3v4.1c0,1.7-1.3,3-3,3c-1.7,0-3-1.3-3-3V452.4z"/>
</g>
<g>
	<path fill="#E29A6C" d="M320.8,474.3c-1.6-1.1-2.1-3.2-1-4.9c1.1-1.6,3.2-2.1,4.9-1c3.8,2.5,7.6,3.9,11.3,4c3.6,0.1,7.2-1.2,11-3.9
		c1.6-1.2,3.8-0.9,4.9,0.7c1.2,1.6,0.9,3.8-0.7,4.9c-5.1,3.8-10.2,5.4-15.4,5.3C330.7,479.4,325.7,477.5,320.8,474.3z"/>
	<path fill="#4E3D4D" d="M361.5,429.4c1.9,0,3.5,1.6,3.5,3.5s-1.6,3.5-3.5,3.5h-8.8c-1.9,0-3.5-1.6-3.5-3.5s1.6-3.5,3.5-3.5H361.5z"
		/>
	<path fill="#4E3D4D" d="M319.2,429.4c1.9,0,3.5,1.6,3.5,3.5s-1.6,3.5-3.5,3.5h-8.8c-1.9,0-3.5-1.6-3.5-3.5s1.6-3.5,3.5-3.5H319.2z"
		/>
	<path fill="#4E3D4D" d="M311.2,444.5c0-1.9,1.6-3.5,3.5-3.5s3.5,1.6,3.5,3.5v4.8c0,1.9-1.6,3.5-3.5,3.5s-3.5-1.6-3.5-3.5V444.5z"/>
	<path fill="#4E3D4D" d="M353.5,444.5c0-1.9,1.6-3.5,3.5-3.5s3.5,1.6,3.5,3.5v4.8c0,1.9-1.6,3.5-3.5,3.5s-3.5-1.6-3.5-3.5V444.5z"/>
</g>
</svg>
