<?xml version="1.0" encoding="utf-8"?>
<!-- Generator: Adobe Illustrator 18.1.1, SVG Export Plug-In . SVG Version: 6.00 Build 0)  -->
<svg version="1.1" id="Layer_1" xmlns="http://www.w3.org/2000/svg" xmlns:xlink="http://www.w3.org/1999/xlink" x="0px" y="0px"
	 width="650px" height="580px" viewBox="19 107 650 580" enable-background="new 19 107 650 580" xml:space="preserve">
<path fill="#002F65" d="M611.2,335.5h-52.9c-8.2,0-15.5-5.2-18.3-12.8c-1.7-4.7-3.6-9.5-5.8-13.9c-3.3-7.4-1.9-16.2,3.8-21.9
	l37.4-37.4c7.6-7.6,7.6-19.9,0-27.5L516,162.6c-7.6-7.6-19.9-7.6-27.5,0L451.1,200c-5.8,5.8-14.5,7.3-21.9,3.8
	c-4.6-2.1-9.2-3.9-13.9-5.8c-7.6-2.8-12.8-10.1-12.8-18.1v-52.9c0-10.7-8.7-19.4-19.4-19.4H299c-10.7,0-19.4,8.7-19.4,19.4v52.9
	c0,8.2-5.2,15.5-12.8,18.3c-4.7,1.7-9.3,3.6-13.9,5.8c-7.4,3.5-16.2,1.9-21.9-3.8l-37.4-37.4c-7.6-7.6-19.9-7.6-27.5,0l-59.5,59.5
	c-7.6,7.6-7.6,19.9,0,27.5l37.4,37.4c5.8,5.8,7.3,14.5,3.8,21.9c-2.1,4.6-3.9,9.2-5.8,13.9c-2.8,7.6-10.1,12.8-18.3,12.8H71.1
	c-10.7,0-19.4,8.7-19.4,19.4v84.1c0,10.7,8.7,19.4,19.4,19.4h52.9c8.2,0,15.5,5.2,18.3,12.8c1.7,4.7,3.6,9.5,5.8,13.9
	c3.5,7.4,1.9,16.2-3.8,21.9l-37.4,37.4c-7.6,7.6-7.6,19.9,0,27.5l59.5,59.5c7.6,7.6,19.9,7.6,27.5,0l37.4-37.4
	c5.8-5.8,14.5-7.3,21.9-3.8c4.6,2.1,9.2,3.9,13.9,5.8c7.6,2.8,12.8,10.1,12.8,18.1v52.9c0,10.7,8.7,19.4,19.4,19.4h84.1
	c10.7,0,19.4-8.7,19.4-19.4v-52.9c0-8.2,5.2-15.5,12.8-18.1c4.7-1.7,9.3-3.6,13.9-5.8c7.4-3.5,16.2-1.9,21.9,3.8l37.4,37.4
	c7.6,7.6,19.9,7.6,27.5,0l59.5-59.5c7.6-7.6,7.6-19.9,0-27.5l-37.4-37.4c-5.7-5.8-7.3-14.5-3.8-21.9c2.1-4.6,3.9-9.2,5.8-14
	c2.8-7.6,10.1-12.8,18.3-12.8h52.9c10.7,0,19.4-8.7,19.4-19.4v-84.1C630.6,344.1,622,335.5,611.2,335.5z M341.1,571
	C244.9,571,167,493.1,167,396.8s77.9-174.2,174.2-174.2s174.2,77.9,174.2,174.2S437.2,571,341.1,571z"/>
<g>
	<circle fill="#39B4FF" cx="341.1" cy="304.2" r="30.9"/>
	<path fill="#39B4FF" d="M343.7,512.3h-5.2c-15.6,0-28.2-12.6-28.2-28.2V374.3c0-15.6,12.6-28.2,28.2-28.2h5.2
		c15.6,0,28.2,12.6,28.2,28.2v109.8C371.9,499.7,359.3,512.3,343.7,512.3z"/>
</g>
</svg>
