<?xml version="1.0" encoding="utf-8"?>
<!-- Generator: Adobe Illustrator 18.1.1, SVG Export Plug-In . SVG Version: 6.00 Build 0)  -->
<svg version="1.1" id="Layer_1" xmlns="http://www.w3.org/2000/svg" xmlns:xlink="http://www.w3.org/1999/xlink" x="0px" y="0px"
	 width="650px" height="580px" viewBox="19 107 650 580" enable-background="new 19 107 650 580" xml:space="preserve">
<g id="Layer_1_1_">
	<g id="Multi_model_audit_" transform="translate(-456 -520)">
		<g id="Group_408" transform="translate(6.951)">
			<path id="Path_607" fill="#002F64" d="M645.5,690.9c8.1,0,59.8-5,65.2-6.3c5.4-1.8,10.4-31.7,18.6-32.1
				c7.2,0.5,14.5,2.7,21.3,5.9c0,0,4.1,25.4,14,26.3c10,0.9,56.1,0,56.1,0s10.9,47.1,6.3,48.4c-7.2,4.1-14.5,8.6-21.3,13.6H636.9
				L645.5,690.9z"/>
			<g id="noun_check-list_30441" transform="translate(430 515)">
				<g id="Group_404" transform="translate(28.298 27.179)">
					<g id="Group_394">
						<g id="Group_392">
							<path fill="#002F64" d="M234.3,287.2l-38.5,38.5c-1.8,1.8-4.1,2.7-6.8,2.7s-5-0.9-6.8-2.7l-19.5-19.5c-3.6-4.1-3.6-10,0-14
								c4.1-3.6,10-3.6,14,0l12.3,12.2l31.7-31.7c3.6-3.6,10-3.6,13.6,0C237.9,277.2,237.9,283.1,234.3,287.2z"/>
						</g>
						<g id="Group_393" transform="translate(12.977 2.368)">
							<path fill="#002F64" d="M387.8,296.9c0,5.4-4.5,10-9.5,10H261.9c-5.4,0-10-4.5-10-10s4.5-10,10-10h116.3
								C383.7,287.4,387.8,291.5,387.8,296.9z"/>
						</g>
					</g>
					<g id="Group_397" transform="translate(0 20.527)">
						<g id="Group_395">
							<path fill="#002F64" d="M234.3,433.8l-38.5,38.5c-1.8,1.8-4.1,2.7-6.8,2.7s-5-0.9-6.8-2.7l-19.9-19.5c-3.6-3.6-3.6-10,0-14
								c4.1-3.6,10-3.6,14,0l12.2,12.2l31.7-31.7c3.6-3.6,10-3.6,13.6,0C237.9,423.4,237.9,429.8,234.3,433.8z"/>
						</g>
						<g id="Group_396" transform="translate(12.977 2.367)">
							<path fill="#002F64" d="M387.8,443.5c0,5.4-4.5,10-9.5,10H261.9c-5.4,0-10-4.5-10-10s4.5-10,10-10h116.3
								C383.7,434,387.8,438.1,387.8,443.5z"/>
						</g>
					</g>
					<g id="Group_400" transform="translate(0 30.791)">
						<g id="Group_398">
							<path fill="#002F64" d="M234.3,507.2l-38.5,38.5c-1.8,1.8-4.5,2.7-6.8,2.7c-2.7,0-5-0.9-6.8-2.7l-19.5-19.5
								c-3.6-3.6-3.6-10,0-13.6c4.1-4.1,10-4.1,14,0l12.2,12.2l31.7-31.7c3.6-3.6,10-3.6,13.6,0
								C237.9,496.7,237.9,503.1,234.3,507.2z"/>
						</g>
						<g id="Group_399" transform="translate(12.977 2.366)">
							<path fill="#002F64" d="M387.8,516.9c0,5.4-4.5,10-9.5,10H261.9c-5.4,0-10-4.5-10-10c0-5.4,4.5-10,10-10h116.3
								C383.7,506.9,387.8,511.4,387.8,516.9z"/>
						</g>
					</g>
					<g id="Group_403" transform="translate(0 10.263)">
						<g id="Group_401">
							<path fill="#002F64" d="M234.3,360.5L195.8,399c-1.8,1.8-4.5,2.7-6.8,2.7c-2.7,0-5-0.9-6.8-2.7l-19.5-19.5
								c-3.6-3.6-3.6-10,0-14c4.1-3.6,10-3.6,14,0l12.2,12.2l31.7-31.7c3.6-3.6,10-3.6,13.6,0C237.9,350.5,237.9,356.4,234.3,360.5z
								"/>
						</g>
						<g id="Group_402" transform="translate(12.977 2.369)">
							<path fill="#002F64" d="M387.8,370.2c0,5.4-4.5,9.5-9.5,9.5H261.9c-5.4,0-10-4.5-10-9.5c0-5.4,4.5-10,10-10h116.3
								C383.7,360.7,387.8,364.8,387.8,370.2z"/>
						</g>
					</g>
				</g>
				<g id="Group_407" transform="translate(19.049 5)">
					<g id="Group_405">
						<path id="Path_606" fill="#002F64" d="M466,446.2c0.5,0.5,0.9,0.5,1.4,0.5s0.9,0,0.9-0.5c5.4-2.7,11.3-5.4,17.2-7.2V196.3
							c0-7.2-5.9-13.1-13.1-13.1h-71.5c-1.4-19.9-18.1-35.8-38-35.8h-37.1c0-19.9-16.3-36.2-36.2-36.2c-19.9,0-36.2,16.3-36.2,36.2
							h-37.1c-19.9,0-36.7,15.4-38,35.8h-71.7c-7.2,0-13.1,5.9-13.1,13.1v472.6c0,7.2,5.9,13.1,13.1,13.1l0,0h365.8
							c7.2,0,13.1-5.9,13.1-12.7l0,0v-39.8c-5.9-1.8-11.8-4.5-17.2-7.2c-0.5-0.5-0.5-0.5-0.9-0.5s-0.9,0-1.4,0.5l-6.3,6.3v27.6h-340
							V209.4h58.4v16.3c0,7.2,5.9,13.1,12.7,13.1l0,0h197.4c7.2,0,13.1-5.9,13.1-13.1v-16.3h58.4v230.4L466,446.2z M375,213H203.9
							v-26.7c0-6.8,5.4-12.2,12.2-12.2h40.7c12.7,0,22.6-10,22.6-22.6v-3.2c0-5.4,4.1-10.4,10-10.4c5.4,0,10.4,4.1,10.4,10v3.6
							c0,12.7,10,22.6,22.6,22.6h40.7c6.8,0,12.2,5.4,12.2,12.2V213L375,213L375,213z"/>
					</g>
					<g id="Group_406" transform="translate(22.537 7.791)">
						<circle id="Ellipse_32" fill="#002F64" cx="267.1" cy="180.3" r="12.7"/>
					</g>
				</g>
			</g>
		</g>
	</g>
</g>
<g id="Layer_2">
	<g>
		<path fill="#002F64" d="M650.1,507.6h-24.9c-5,0-9.1-3.2-10.4-7.7c-1.8-5.9-4.1-11.3-6.8-16.8c-2.3-4.5-1.8-9.5,1.8-13.1
			l15.8-15.8c5.9-6.3,5.9-13.1,1.8-17.2L617,426.6c-4.1-4.1-11.3-4.1-15.4,0L584,444.2c-3.6,3.6-8.6,4.1-13.1,1.8
			c-5.4-2.7-10.9-5-16.8-6.8c-4.5-1.4-8.1-5.4-8.1-10.4v-25.4c0-5.9-5-10.9-10.9-10.9h-14.5c-5.9,0-10.9,5-10.9,10.9v25.4
			c0,5-3.2,9.1-8.1,10.4c-1.4,0.5-2.3,0.9-3.6,1.4c-4.5,1.4-9.1,3.6-13.1,5.9c-4.5,2.3-9.5,1.8-13.1-1.8L456,428.9
			c-6.3-6.3-13.1-6.3-17.2-1.8l-10.5,10.3c-4.5,4.5-4.5,11.3,0,15.4l17.7,17.7c3.6,3.6,4.1,8.6,1.8,13.1c-2.7,5.4-5,10.9-6.8,16.8
			c-1.4,4.5-5.4,8.1-10.4,8.1h-25.4c-5.9,0-10.9,5-10.9,10.9v14.5c0,5.9,5,10.9,10.9,10.9h25.4c5,0,9.1,3.2,10.4,8.1
			c1.8,5.9,4.1,11.3,6.8,16.8c2.3,4.5,1.8,9.5-1.8,13.1l-15.8,15.8c-6.3,6.3-5.9,13.1-1.8,17.2l10.4,10.4c4.5,4.1,11.3,4.1,15.4,0
			l18.1-18.1c3.6-3.6,8.6-4.1,13.1-1.8c4.1,2.3,8.6,4.1,13.1,5.9c1.4,0.5,2.3,0.9,3.6,1.4c4.5,1.4,7.7,5.4,7.7,10.4v25.4
			c0,5.9,5,10.9,10.9,10.9h14.5c5.9,0,10.9-5,10.9-10.9V624c0-5,3.2-9.1,7.7-10.4c5.9-1.8,11.3-4.1,16.8-6.8
			c4.1-2.3,9.5-1.8,13.1,1.8l15.8,15.8c6.3,6.3,13.1,5.9,17.2,1.8l10.4-10.4c4.5-4.1,4.5-11.3,0-15.4l-17.7-17.7
			c-3.6-3.6-4.1-8.6-1.8-13.1c2.7-5.4,5-10.9,6.8-16.8c1.4-4.5,5.4-7.7,10.4-7.7h25.4c5.9,0,10.9-5,10.9-10.9v-14.5
			C661,512.5,656,507.6,650.1,507.6z M578.6,543.8c-0.5,1.8-1.4,3.2-1.8,5c-5.4,11.3-14.5,20.4-25.8,25.8c-1.4,0.9-3.2,1.4-5,1.8
			c-5.9,2.3-11.8,3.2-18.1,3.2c-6.3,0-12.7-1.4-18.1-3.2c-1.8-0.5-3.6-1.4-5-1.8c-2.3-0.9-4.5-2.3-6.3-3.6
			c-8.1-5.4-14.9-13.1-19-22.2c-0.9-1.8-1.4-3.2-1.8-5c-2.3-5.9-3.2-11.8-3.2-18.1s1.4-12.7,3.2-18.1c0.5-1.8,1.4-3.2,1.8-5
			c4.1-9.1,10.9-16.8,19-22.2c2.3-1.4,4.5-2.7,6.8-3.6c1.8-0.9,3.2-1.4,5-1.8c5.9-2.3,11.8-3.2,18.1-3.2c6.3,0,12.7,1.4,18.1,3.2
			c1.8,0.5,3.2,1.4,5,1.8c11.3,5.4,20.4,14.5,25.8,25.8c0.5,1.8,1.4,3.2,1.8,5c2.3,5.9,3.2,11.8,3.2,18.1
			C581.7,532,580.4,538.3,578.6,543.8z"/>
	</g>
</g>
</svg>
