<svg xmlns="http://www.w3.org/2000/svg" width="53.229" height="53" viewBox="0 0 53.229 53">
  <g id="Access_request" data-name="Access request" transform="translate(-7.825 -5)">
    <g id="Group_269" data-name="Group 269" transform="translate(7.825 8)">
      <g id="Group_270" data-name="Group 270" transform="translate(0 -3)">
        <path id="Path_370" data-name="Path 370" d="M26.289,42.594h5.434v2.65a2.65,2.65,0,1,0,5.3,0v-2.65h2.65v5.3a2.65,2.65,0,0,0,5.3,0v-7.95a2.65,2.65,0,0,0-2.65-2.65H25.493a9.28,9.28,0,1,0,.8,5.3ZM13.173,41.269a3.975,3.975,0,1,1,3.975,3.975A3.975,3.975,0,0,1,13.173,41.269Z" transform="translate(-7.825 -16.094)" fill="#004a9f"/>
        <path id="Path_371" data-name="Path 371" d="M37.976,8a26.241,26.241,0,0,0-16.227,5.577A2.65,2.65,0,1,0,25,17.764,20.98,20.98,0,0,1,37.976,13.3a21.2,21.2,0,0,1,0,42.4A20.987,20.987,0,0,1,22.545,49a2.65,2.65,0,1,0-3.861,3.631A26.235,26.235,0,0,0,37.976,61a26.5,26.5,0,1,0,0-53Z" transform="translate(-11.247 -8)" fill="#5fc2ff"/>
      </g>
    </g>
  </g>
</svg>
