<?xml version="1.0" encoding="utf-8"?>
<!-- Generator: Adobe Illustrator 18.1.1, SVG Export Plug-In . SVG Version: 6.00 Build 0)  -->
<svg version="1.1" id="Layer_1" xmlns="http://www.w3.org/2000/svg" xmlns:xlink="http://www.w3.org/1999/xlink" x="0px" y="0px"
	 viewBox="-479 483.8 65 58.2" enable-background="new -479 483.8 65 58.2" xml:space="preserve">
<g>
	<g>
		<g>
			<path fill="#5FC2FF" d="M-462.6,510.4l9.7-7.5l4.1,3.7c0.6,0.5,1.4,0.5,2,0.1l8.2-6.4l-0.2,1.8c-0.1,0.4,0.3,0.8,0.7,0.9
				c0.4,0.1,0.8-0.3,0.9-0.7c0.4-3.5,0.5-3.7,0.5-3.8c0-0.5-0.4-0.8-0.8-0.8h-3.9c-0.4,0-0.8,0.4-0.8,0.8s0.4,0.8,0.8,0.8h1.5
				l-7.9,6.1l-4.1-3.7c-0.6-0.5-1.4-0.5-2-0.1l-9.8,7.6c-0.4,0.3-0.4,0.8-0.1,1.1C-463.4,510.6-462.9,510.7-462.6,510.4
				L-462.6,510.4z"/>
			<path fill="#5FC2FF" d="M-435.4,519.5h-1.2v-13.1c0-1.1-1.2-1.7-2.1-1l-2.2,1.7c-0.3,0.2-0.5,0.6-0.5,0.9v11.5h-2.8V512
				c0-1-1.1-1.5-1.9-0.9l-2.4,1.9c-0.3,0.2-0.5,0.6-0.5,0.9v5.6h-2.8v-10.1c0-1-1.1-1.5-1.9-0.9l-2.4,1.8c-0.3,0.2-0.5,0.6-0.5,0.9
				v2.3c0,0.4,0.4,0.8,0.8,0.8s0.8-0.4,0.8-0.8v-2.1l1.5-1.1v9.2h-1.5v-2.1c0-0.4-0.4-0.8-0.8-0.8s-0.8,0.4-0.8,0.8v2.1h-2.8v-4.3
				c0-1-1.1-1.5-1.9-0.9l-2.4,1.9c-0.3,0.2-0.4,0.6-0.4,0.9v2.4h-1.2c-0.4,0-0.8,0.4-0.8,0.8c0,0.4,0.4,0.8,0.8,0.8h29.6
				c0.4,0,0.8-0.4,0.8-0.8C-434.6,519.8-435,519.5-435.4,519.5L-435.4,519.5z M-439.8,508.2l1.5-1.2v12.4h-1.5V508.2z M-447.3,514.1
				l1.5-1.2v6.6h-1.5V514.1z M-462.2,517.3l1.5-1.2v3.4h-1.5V517.3z"/>
			<path fill="#5FC2FF" d="M-456.8,525.3h-8.3c-0.4,0-0.8,0.4-0.8,0.8c0,0.4,0.4,0.8,0.8,0.8h8.3c0.4,0,0.8-0.4,0.8-0.8
				C-456,525.6-456.4,525.3-456.8,525.3L-456.8,525.3z"/>
			<path fill="#5FC2FF" d="M-456.8,529h-8.3c-0.4,0-0.8,0.4-0.8,0.8c0,0.4,0.4,0.8,0.8,0.8h8.3c0.4,0,0.8-0.4,0.8-0.8
				C-456,529.4-456.4,529-456.8,529L-456.8,529z"/>
			<path fill="#002F64" stroke="#002F64" stroke-miterlimit="10" d="M-428.3,490.6h-1.3v-1.7c0-1.7-1.4-3.1-3.1-3.1h-25.8
				c-0.9,0-1.7,0.4-2.2,0.9c-0.2,0.2,1.2-1.2-7.5,7.5c-0.5,0.6-0.9,1.3-0.9,2.2V533c0,1.7,1.4,3.1,3.1,3.1h1.3v1.7
				c0,1.7,1.4,3.1,3.1,3.1h33.2c1.7,0,3.1-1.4,3.1-3.1v-44.1C-425.1,492-426.5,490.6-428.3,490.6z M-460.2,488.5v5c0,0.6-0.5,1-1,1
				h-5L-460.2,488.5z M-426.7,537.9c0,0.8-0.7,1.5-1.5,1.5h-33.2c-0.8,0-1.5-0.7-1.5-1.5v-1.7h30.3c1.7,0,3.1-1.4,3.1-3.1v-3
				c0-0.4-0.4-0.8-0.8-0.8s-0.8,0.4-0.8,0.8v3c0,0.8-0.7,1.5-1.5,1.5h-33.2c-0.8,0-1.5-0.7-1.5-1.5v-36.7c0-0.1,0-0.1,0-0.2h6.1
				c1.5,0,2.7-1.2,2.7-2.7v-6.1c0.1,0-1.1,0,25.9,0c0.8,0,1.5,0.7,1.5,1.5v37.4c0,0.4,0.4,0.8,0.8,0.8s0.8-0.4,0.8-0.8v-34h1.3
				c0.8,0,1.5,0.7,1.5,1.5L-426.7,537.9L-426.7,537.9z"/>
		</g>
	</g>
</g>
</svg>
