<?xml version="1.0" encoding="utf-8"?>
<!-- Generator: Adobe Illustrator 18.1.1, SVG Export Plug-In . SVG Version: 6.00 Build 0)  -->
<svg version="1.1" id="Layer_1" xmlns="http://www.w3.org/2000/svg" xmlns:xlink="http://www.w3.org/1999/xlink" x="0px" y="0px"
	 width="66px" height="65px" viewBox="-272 364 66 65" enable-background="new -272 364 66 65" xml:space="preserve">
<g>
	<circle fill="#5FC2FF" cx="-225" cy="406.6" r="1"/>
	<circle fill="#5FC2FF" cx="-223" cy="423.6" r="1"/>
	<circle fill="#5FC2FF" cx="-248" cy="415.6" r="1"/>
	<circle fill="#5FC2FF" cx="-232" cy="409.6" r="1"/>
	<circle fill="#5FC2FF" cx="-217" cy="414.6" r="1"/>
	<circle fill="#5FC2FF" cx="-254" cy="423.6" r="1"/>
	<path fill="#5FC2FF" d="M-229,402.6c0-2.2-1.8-4-4-4s-4,1.8-4,4c0,2.2,1.8,4,4,4S-229,404.8-229,402.6z M-235,402.6
		c0-1.1,0.9-2,2-2c1.1,0,2,0.9,2,2c0,1.1-0.9,2-2,2C-234.1,404.6-235,403.7-235,402.6z"/>
	<path fill="#5FC2FF" d="M-240,406.6c-2.2,0-4,1.8-4,4c0,2.2,1.8,4,4,4s4-1.8,4-4C-236,408.4-237.8,406.6-240,406.6z M-240,412.6
		c-1.1,0-2-0.9-2-2s0.9-2,2-2c1.1,0,2,0.9,2,2S-238.9,412.6-240,412.6z"/>
	<path fill="#5FC2FF" d="M-230,412.6c-2.2,0-4,1.8-4,4c0,2.2,1.8,4,4,4s4-1.8,4-4C-226,414.4-227.8,412.6-230,412.6z M-230,418.6
		c-1.1,0-2-0.9-2-2c0-1.1,0.9-2,2-2s2,0.9,2,2C-228,417.7-228.9,418.6-230,418.6z"/>
	<path fill="#5FC2FF" d="M-240,417.6c-2.2,0-4,1.8-4,4c0,2.2,1.8,4,4,4s4-1.8,4-4C-236,419.4-237.8,417.6-240,417.6z M-240,423.6
		c-1.1,0-2-0.9-2-2c0-1.1,0.9-2,2-2c1.1,0,2,0.9,2,2C-238,422.7-238.9,423.6-240,423.6z"/>
	<g transform="translate(128 128) scale(0.72 0.72)">
		<g transform="translate(-175.05 -175.05000000000004) scale(3.89 3.89)">
			<path fill="#004A9F" stroke="#004A9F" stroke-width="0.5" stroke-miterlimit="10" d="M-81.2,146h-9.6c-0.1,0-0.3-0.1-0.3-0.3
				v-4.4c0-1.8,1.5-3.3,3.3-3.3h3.6c1.8,0,3.3,1.5,3.3,3.3v4.4C-81,145.9-81.1,146-81.2,146z M-90.6,145.5h9.1v-4.1
				c0-1.5-1.2-2.7-2.7-2.7h-3.6c-1.5,0-2.7,1.2-2.7,2.7L-90.6,145.5L-90.6,145.5z"/>
			<path fill="#004A9F" stroke="#004A9F" stroke-width="0.5" stroke-miterlimit="10" d="M-88.3,146c-0.1,0-0.3-0.1-0.3-0.3V142
				c0-0.1,0.1-0.3,0.3-0.3c0.2,0,0.3,0.1,0.3,0.3v3.7C-88.1,145.9-88.2,146-88.3,146z"/>
			<path fill="#004A9F" stroke="#004A9F" stroke-width="0.5" stroke-miterlimit="10" d="M-83.8,146c-0.1,0-0.3-0.1-0.3-0.3V142
				c0-0.1,0.1-0.3,0.3-0.3c0.2,0,0.3,0.1,0.3,0.3v3.7C-83.5,145.9-83.6,146-83.8,146z"/>
			<path fill="#004A9F" stroke="#004A9F" stroke-width="0.5" stroke-miterlimit="10" d="M-85.9,137.1h-0.3c-1.6,0-2.8-1.2-2.8-2.8
				v-1.2c0-1.6,1.2-2.8,2.8-2.8h0.3c1.6,0,2.8,1.2,2.8,2.8v1.2C-83.1,135.8-84.4,137.1-85.9,137.1z M-86.2,130.8
				c-1.3,0-2.3,1-2.3,2.3v1.2c0,1.3,1,2.3,2.3,2.3h0.3c1.3,0,2.3-1,2.3-2.3v-1.2c0-1.3-1-2.3-2.3-2.3H-86.2z"/>
			<path fill="#5FC2FF" stroke="#5FC2FF" stroke-width="0.5" stroke-miterlimit="10" d="M-75,143.1h-4.7c-0.1,0-0.3-0.1-0.3-0.3
				c0-0.1,0.1-0.3,0.3-0.3h4.4v-3.3c0-1.2-0.9-2.1-2.1-2.1h-2.9c-0.6,0-1,0.2-1.4,0.6c-0.1,0.1-0.3,0.1-0.4,0
				c-0.1-0.1-0.1-0.3,0-0.4c0.5-0.4,1.1-0.7,1.8-0.7h2.9c1.5,0,2.7,1.2,2.7,2.7v3.5C-74.8,143-74.9,143.1-75,143.1z"/>
			<path fill="#5FC2FF" stroke="#5FC2FF" stroke-width="0.5" stroke-miterlimit="10" d="M-77,143.1c-0.1,0-0.3-0.1-0.3-0.3v-3
				c0-0.1,0.1-0.3,0.3-0.3c0.1,0,0.3,0.1,0.3,0.3v3C-76.8,143-76.9,143.1-77,143.1z"/>
			<path fill="#5FC2FF" stroke="#5FC2FF" stroke-width="0.5" stroke-miterlimit="10" d="M-78.8,135.9H-79c-1.3,0-2.3-1-2.3-2.3v-0.9
				c0-1.3,1-2.3,2.3-2.3h0.2c1.3,0,2.3,1,2.3,2.3v0.9C-76.5,134.9-77.5,135.9-78.8,135.9z M-79,130.8c-1,0-1.8,0.8-1.8,1.8v0.9
				c0,1,0.8,1.8,1.8,1.8h0.2c1,0,1.8-0.8,1.8-1.8v-0.9c0-1-0.8-1.8-1.8-1.8H-79z"/>
			<path fill="#5FC2FF" stroke="#5FC2FF" stroke-width="0.5" stroke-miterlimit="10" d="M-92.4,143.1h-4.7c-0.1,0-0.3-0.1-0.3-0.3
				v-3.5c0-1.5,1.2-2.7,2.7-2.7h2.9c0.7,0,1.2,0.2,1.8,0.7c0.1,0.1,0.1,0.3,0,0.4c-0.1,0.1-0.3,0.1-0.4,0c-0.4-0.4-0.9-0.6-1.4-0.6
				h-2.9c-1.2,0-2.1,0.9-2.1,2.1v3.3h4.4c0.1,0,0.3,0.1,0.3,0.3C-92.1,143-92.2,143.1-92.4,143.1z"/>
			<path fill="#5FC2FF" stroke="#5FC2FF" stroke-width="0.5" stroke-miterlimit="10" d="M-95,143.1c-0.1,0-0.3-0.1-0.3-0.3v-3
				c0-0.1,0.1-0.3,0.3-0.3c0.2,0,0.3,0.1,0.3,0.3v3C-94.7,143-94.9,143.1-95,143.1z"/>
			<path fill="#5FC2FF" stroke="#5FC2FF" stroke-width="0.5" stroke-miterlimit="10" d="M-93.1,135.9h-0.2c-1.3,0-2.3-1-2.3-2.3
				v-0.9c0-1.3,1-2.3,2.3-2.3h0.2c1.3,0,2.3,1,2.3,2.3v0.9C-90.7,134.9-91.8,135.9-93.1,135.9z M-93.3,130.8c-1,0-1.8,0.8-1.8,1.8
				v0.9c0,1,0.8,1.8,1.8,1.8h0.2c1,0,1.8-0.8,1.8-1.8v-0.9c0-1-0.8-1.8-1.8-1.8C-93.1,130.8-93.3,130.8-93.3,130.8z"/>
		</g>
	</g>
</g>
</svg>
