<?xml version="1.0" encoding="utf-8"?>
<!-- Generator: Adobe Illustrator 18.1.1, SVG Export Plug-In . SVG Version: 6.00 Build 0)  -->
<svg version="1.1" id="Layer_1" xmlns="http://www.w3.org/2000/svg" xmlns:xlink="http://www.w3.org/1999/xlink" x="0px" y="0px"
	 width="650px" height="580px" viewBox="19 107 650 580" enable-background="new 19 107 650 580" xml:space="preserve">
<g>
	<g>
		<path fill="#002F64" d="M284.3,280c-39.5,0-71.7,32.2-71.7,71.7s32.2,71.7,71.7,71.7s71.7-32.2,71.7-71.7
			C355.9,312.2,323.8,280,284.3,280z M284.3,399.5c-26.4,0-47.8-21.4-47.8-47.8c0-26.4,21.4-47.8,47.8-47.8s47.8,21.4,47.8,47.8
			C332,378.1,310.6,399.5,284.3,399.5z"/>
	</g>
</g>
<g>
	<g>
		<path fill="#002F64" d="M338.3,341.3c-0.7-3.5-1.6-6.8-2.9-10c-1.3-3.2-3.1-6.4-5-9.2c-2-2.9-4.3-5.7-6.7-8.2
			c-2.4-2.4-5.2-4.7-8.2-6.7c-2.8-1.9-6-3.6-9.2-5c-3.2-1.3-6.6-2.3-10-2.9c-6.8-1.5-13.9-1.5-20.9,0c-3.3,0.7-6.8,1.6-10,2.9
			s-6.3,3.1-9.2,5c-2.9,2-5.6,4.3-8.2,6.7c-2.4,2.4-4.7,5.2-6.6,8.2c-2,2.8-3.6,6-5,9.2c-1.3,3.2-2.4,6.6-3.1,10
			c-0.7,3.3-1.1,7-1.1,10.4c0,3.5,0.4,7,1.1,10.4c0.7,3.3,1.7,6.8,3.1,10c1.3,3.2,2.9,6.3,5,9.2c1.9,2.9,4.1,5.6,6.6,8
			c2.5,2.5,5.2,4.8,8.2,6.7c2.9,2,6,3.6,9.2,5c3.2,1.3,6.7,2.4,10,3.1c3.5,0.7,7,1.1,10.4,1.1c3.5,0,7.1-0.4,10.4-1.1
			c3.5-0.7,6.8-1.7,10-3.1c3.2-1.3,6.4-2.9,9.2-5c2.9-1.9,5.8-4.1,8.2-6.7c2.4-2.4,4.7-5.1,6.7-8c1.9-2.9,3.6-6,5-9.2
			c1.3-3.2,2.3-6.7,2.9-10c0.8-3.5,1.1-7,1.1-10.4C339.4,348.3,339.2,344.7,338.3,341.3z"/>
	</g>
</g>
<g>
	<g>
		<path fill="#002F64" d="M414.7,477.7c-0.3-1.8-0.8-3.6-1.5-5.3c-0.7-1.7-1.6-3.4-2.6-4.8c-1.1-1.5-2.2-3-3.5-4.3s-2.7-2.5-4.3-3.5
			c-1.5-1-3.2-1.9-4.8-2.6c-1.7-0.7-3.4-1.2-5.3-1.5c-3.6-0.8-7.3-0.8-10.9,0c-1.8,0.3-3.6,0.8-5.3,1.5c-1.7,0.7-3.3,1.6-4.8,2.6
			s-2.9,2.2-4.3,3.5c-1.3,1.3-2.5,2.7-3.4,4.3c-1.1,1.5-1.9,3.2-2.6,4.8c-0.7,1.7-1.3,3.4-1.6,5.3c-0.4,1.8-0.6,3.6-0.6,5.5
			c0,1.8,0.2,3.6,0.6,5.5c0.3,1.8,0.9,3.6,1.6,5.3c0.7,1.7,1.5,3.3,2.6,4.8c1,1.5,2.2,2.9,3.4,4.2c1.3,1.3,2.7,2.5,4.3,3.5
			c1.5,1.1,3.2,1.9,4.8,2.6c1.7,0.7,3.5,1.3,5.3,1.6c1.8,0.3,3.6,0.6,5.5,0.6c1.8,0,3.7-0.2,5.5-0.6c1.8-0.3,3.6-0.9,5.3-1.6
			c1.7-0.7,3.4-1.5,4.8-2.6c1.5-1,3-2.2,4.3-3.5s2.5-2.7,3.5-4.2s1.9-3.2,2.6-4.8c0.7-1.7,1.2-3.5,1.5-5.3c0.4-1.8,0.6-3.6,0.6-5.5
			C415.3,481.4,415.1,479.5,414.7,477.7z"/>
	</g>
</g>
<g>
	<g>
		<path fill="#002F64" d="M387.2,435.4c-26.4,0-47.8,21.4-47.8,47.8s21.4,47.8,47.8,47.8s47.8-21.4,47.8-47.8
			S413.6,435.4,387.2,435.4z M387.2,507.1c-13.2,0-23.9-10.7-23.9-23.9c0-13.2,10.7-23.9,23.9-23.9s23.9,10.7,23.9,23.9
			S400.4,507.1,387.2,507.1z"/>
	</g>
</g>
<g>
	<g>
		<path fill="#002F64" d="M244.9,259.6c-0.5-0.5-1.2-1-1.8-1.5c-0.6-0.4-1.3-0.8-2.1-1.1c-0.7-0.3-1.5-0.5-2.2-0.7
			c-1.5-0.3-3.1-0.3-4.7,0c-0.8,0.1-1.5,0.4-2.2,0.7s-1.4,0.7-2.1,1.1c-0.7,0.4-1.3,1-1.8,1.5c-2.2,2.2-3.5,5.3-3.5,8.5
			c0,0.8,0.1,1.6,0.2,2.3c0.1,0.7,0.4,1.5,0.7,2.2s0.7,1.4,1.1,2.1c0.4,0.7,0.9,1.3,1.5,1.8c2.2,2.2,5.3,3.5,8.5,3.5
			c3.1,0,6.2-1.3,8.5-3.5c0.5-0.6,1-1.2,1.5-1.8c0.4-0.7,0.8-1.3,1.1-2.1c0.3-0.7,0.5-1.5,0.7-2.2c0.2-0.8,0.2-1.6,0.2-2.3
			C248.4,264.9,247.1,261.9,244.9,259.6z"/>
	</g>
</g>
<g>
	<g>
		<path fill="#002F64" d="M340.5,235.7c-2.2-2.2-5.3-3.5-8.5-3.5c-3.1,0-6.2,1.3-8.5,3.5c-2.2,2.2-3.5,5.3-3.5,8.5
			c0,0.8,0.1,1.6,0.2,2.3s0.4,1.5,0.7,2.2c0.3,0.7,0.7,1.4,1.1,2.1c0.4,0.7,0.9,1.3,1.5,1.8c2.2,2.2,5.3,3.5,8.5,3.5
			c0.8,0,1.6-0.1,2.3-0.2c0.8-0.1,1.5-0.4,2.2-0.7s1.4-0.7,2.1-1.1c0.7-0.4,1.3-0.9,1.8-1.5c0.5-0.5,1-1.1,1.5-1.8
			c0.4-0.7,0.8-1.3,1.1-2.1c0.3-0.7,0.5-1.5,0.7-2.2c0.2-0.8,0.2-1.6,0.2-2.3C344,241.1,342.7,238,340.5,235.7z"/>
	</g>
</g>
<g>
	<g>
		<path fill="#002F64" d="M424.1,259.6c-0.5-0.5-1.2-1-1.8-1.5c-0.6-0.4-1.3-0.8-2.1-1.1c-0.7-0.3-1.5-0.5-2.2-0.7
			c-3.9-0.8-8,0.5-10.8,3.3c-2.2,2.2-3.5,5.3-3.5,8.5c0,0.8,0.1,1.6,0.2,2.3c0.1,0.7,0.4,1.5,0.7,2.2c0.3,0.7,0.7,1.4,1.1,2.1
			s0.9,1.3,1.5,1.8c2.2,2.2,5.3,3.5,8.5,3.5c0.8,0,1.6-0.1,2.3-0.2c0.8-0.1,1.5-0.4,2.2-0.7c0.7-0.3,1.4-0.7,2.1-1.1
			c0.7-0.4,1.3-0.9,1.8-1.5c0.5-0.6,1-1.2,1.5-1.8c0.4-0.7,0.8-1.3,1.1-2.1c0.3-0.7,0.5-1.5,0.7-2.2c0.2-0.8,0.2-1.6,0.2-2.3
			C427.6,264.9,426.4,261.9,424.1,259.6z"/>
	</g>
</g>
<g>
	<g>
		<path fill="#002F64" d="M403.5,325.5c-0.1-0.8-0.4-1.5-0.7-2.2c-0.3-0.7-0.7-1.4-1.1-2.1s-1-1.3-1.5-1.8s-1.2-1-1.8-1.5
			c-0.6-0.4-1.3-0.8-2.1-1.1c-0.7-0.3-1.5-0.5-2.2-0.7c-1.5-0.3-3.1-0.3-4.7,0c-0.7,0.1-1.5,0.4-2.2,0.7s-1.4,0.7-2.1,1.1
			s-1.3,1-1.8,1.5s-1,1.2-1.5,1.8c-0.4,0.6-0.8,1.3-1.1,2.1c-0.3,0.7-0.5,1.5-0.7,2.2s-0.2,1.6-0.2,2.3c0,0.8,0.1,1.6,0.2,2.3
			s0.4,1.5,0.7,2.2c0.3,0.7,0.7,1.4,1.1,2.1c0.4,0.7,0.9,1.3,1.5,1.8c0.6,0.6,1.2,1.1,1.8,1.5c0.7,0.4,1.3,0.8,2.1,1.1
			c0.7,0.3,1.5,0.5,2.2,0.7c0.8,0.1,1.6,0.2,2.3,0.2c0.8,0,1.6-0.1,2.3-0.2c0.8-0.1,1.5-0.4,2.2-0.7s1.4-0.7,2.1-1.1
			c0.7-0.4,1.3-0.9,1.8-1.5c0.5-0.5,1-1.1,1.5-1.8c0.4-0.7,0.8-1.3,1.1-2.1c0.3-0.7,0.5-1.5,0.7-2.2c0.2-0.8,0.2-1.6,0.2-2.3
			C403.7,327.1,403.7,326.3,403.5,325.5z"/>
	</g>
</g>
<g>
	<g>
		<path fill="#002F64" d="M483.9,307.4c-0.5-0.6-1.2-1-1.8-1.5c-0.6-0.4-1.3-0.8-2.1-1.1c-0.7-0.3-1.5-0.5-2.2-0.7
			c-1.5-0.3-3.1-0.3-4.7,0c-0.8,0.2-1.5,0.4-2.2,0.7s-1.4,0.7-2.1,1.1s-1.3,0.9-1.8,1.5c-2.2,2.2-3.5,5.3-3.5,8.5
			c0,3.1,1.3,6.2,3.5,8.5c2.2,2.2,5.3,3.5,8.5,3.5c0.8,0,1.6-0.1,2.3-0.2c0.8-0.1,1.5-0.4,2.2-0.7s1.4-0.7,2.1-1.1s1.3-0.9,1.8-1.5
			c2.2-2.2,3.5-5.3,3.5-8.5C487.4,312.7,486.1,309.7,483.9,307.4z"/>
	</g>
</g>
<g>
	<g>
		<path fill="#002F64" d="M439.4,385.3c-0.1-0.8-0.4-1.5-0.7-2.2c-0.3-0.7-0.7-1.4-1.1-2.1s-1-1.3-1.5-1.8
			c-2.8-2.8-6.9-4.1-10.8-3.3c-0.8,0.1-1.5,0.4-2.2,0.7c-0.7,0.3-1.4,0.7-2.1,1.1s-1.3,1-1.8,1.5s-1,1.2-1.5,1.8
			c-0.4,0.6-0.8,1.3-1.1,2.1c-0.3,0.7-0.5,1.5-0.7,2.2s-0.2,1.6-0.2,2.3c0,3.1,1.3,6.2,3.5,8.4c2.2,2.2,5.3,3.5,8.5,3.5
			c0.8,0,1.6-0.1,2.3-0.2c0.8-0.2,1.5-0.4,2.2-0.7c0.7-0.3,1.4-0.7,2.1-1.1s1.3-0.9,1.8-1.5c0.5-0.5,1-1.1,1.5-1.8
			c0.4-0.7,0.8-1.3,1.1-2.1c0.3-0.7,0.5-1.5,0.7-2.2c0.2-0.8,0.2-1.6,0.2-2.3C439.6,386.8,439.5,386,439.4,385.3z"/>
	</g>
</g>
<g>
	<g>
		<path fill="#002F64" d="M511,397.2c-0.1-0.8-0.4-1.5-0.7-2.2c-0.3-0.7-0.7-1.4-1.1-2.1s-1-1.3-1.5-1.8s-1.2-1-1.8-1.5
			c-0.6-0.4-1.3-0.8-2.1-1.1c-0.7-0.3-1.5-0.5-2.2-0.7c-1.5-0.3-3.1-0.3-4.7,0c-0.8,0.1-1.5,0.4-2.2,0.7c-0.7,0.3-1.4,0.7-2.1,1.1
			s-1.3,1-1.8,1.5s-1,1.2-1.5,1.8c-0.4,0.6-0.8,1.3-1.1,2.1c-0.3,0.7-0.5,1.5-0.7,2.2s-0.2,1.6-0.2,2.3c0,0.8,0.1,1.6,0.2,2.3
			c0.1,0.7,0.4,1.5,0.7,2.2c0.3,0.7,0.7,1.4,1.1,2.1s0.9,1.3,1.5,1.8s1.2,1,1.8,1.5c0.7,0.4,1.3,0.8,2.1,1.1
			c0.7,0.3,1.5,0.5,2.2,0.7c0.8,0.1,1.6,0.2,2.3,0.2c0.8,0,1.6-0.1,2.3-0.2c0.8-0.2,1.5-0.4,2.2-0.7c0.7-0.3,1.4-0.7,2.1-1.1
			s1.3-0.9,1.8-1.5s1-1.2,1.5-1.8c0.4-0.7,0.8-1.3,1.1-2.1c0.3-0.7,0.5-1.5,0.7-2.2c0.2-0.8,0.2-1.6,0.2-2.3
			C511.3,398.8,511.2,398,511,397.2z"/>
	</g>
</g>
<g>
	<g>
		<path fill="#002F64" d="M499.1,480.9c-0.2-0.8-0.4-1.5-0.7-2.2c-0.3-0.7-0.7-1.4-1.1-2.1s-1-1.3-1.5-1.8
			c-2.8-2.8-6.9-4.1-10.8-3.3c-0.7,0.2-1.5,0.4-2.2,0.7c-0.7,0.3-1.4,0.7-2.1,1.1s-1.3,0.9-1.8,1.5c-0.5,0.5-1,1.2-1.5,1.8
			c-0.4,0.6-0.8,1.3-1.1,2.1c-0.3,0.7-0.5,1.5-0.7,2.2s-0.2,1.6-0.2,2.3c0,3.1,1.3,6.2,3.5,8.4c0.6,0.6,1.2,1.1,1.8,1.5
			c0.7,0.4,1.3,0.8,2.1,1.1c0.7,0.3,1.5,0.5,2.2,0.7c0.8,0.1,1.6,0.2,2.3,0.2c3.2,0,6.2-1.3,8.5-3.5c2.2-2.2,3.5-5.3,3.5-8.4
			C499.3,482.4,499.3,481.6,499.1,480.9z"/>
	</g>
</g>
<g>
	<g>
		<path fill="#002F64" d="M280.8,462.8c-0.5-0.5-1.2-1-1.8-1.5c-0.6-0.4-1.3-0.8-2.1-1.1c-0.7-0.3-1.5-0.5-2.2-0.7
			c-3.9-0.8-8,0.5-10.8,3.3c-2.2,2.2-3.5,5.3-3.5,8.5c0,3.1,1.3,6.2,3.5,8.4c0.6,0.6,1.2,1.1,1.8,1.5c0.7,0.4,1.3,0.8,2.1,1.1
			c0.7,0.3,1.5,0.5,2.2,0.7c0.8,0.1,1.6,0.2,2.3,0.2c0.8,0,1.6-0.1,2.3-0.2c0.8-0.2,1.5-0.4,2.2-0.7c0.7-0.3,1.4-0.7,2.1-1.1
			s1.3-0.9,1.8-1.5c2.2-2.2,3.5-5.3,3.5-8.4C284.2,468.1,283,465,280.8,462.8z"/>
	</g>
</g>
<g>
	<g>
		<path fill="#002F64" d="M307.9,552.6c-0.1-0.8-0.4-1.5-0.7-2.2c-0.3-0.7-0.7-1.4-1.1-2.1s-1-1.3-1.5-1.8s-1.2-1-1.8-1.5
			c-0.6-0.4-1.3-0.8-2.1-1.1c-0.7-0.3-1.5-0.5-2.2-0.7c-1.5-0.3-3.1-0.3-4.7,0c-0.8,0.1-1.5,0.4-2.2,0.7c-0.7,0.3-1.4,0.7-2.1,1.1
			s-1.3,1-1.8,1.5s-1,1.2-1.5,1.8c-0.4,0.6-0.8,1.3-1.1,2.1c-0.3,0.7-0.5,1.5-0.7,2.2c-0.2,0.7-0.2,1.6-0.2,2.3
			c0,0.8,0.1,1.6,0.2,2.3c0.1,0.7,0.4,1.5,0.7,2.2c0.3,0.7,0.7,1.4,1.1,2.1s0.9,1.3,1.5,1.8c2.2,2.2,5.3,3.5,8.5,3.5
			s6.2-1.3,8.5-3.5c0.5-0.6,1-1.2,1.5-1.8c0.4-0.7,0.8-1.3,1.1-2.1c0.3-0.7,0.5-1.5,0.7-2.2c0.2-0.8,0.2-1.6,0.2-2.3
			C308.1,554.1,308.1,553.3,307.9,552.6z"/>
	</g>
</g>
<g>
	<g>
		<path fill="#002F64" d="M200.4,445c-0.1-0.7-0.4-1.5-0.7-2.2s-0.7-1.4-1.1-2.1c-0.4-0.7-0.9-1.3-1.5-1.8c-0.5-0.6-1.2-1-1.8-1.5
			c-0.6-0.4-1.3-0.8-2.1-1.1c-0.7-0.3-1.5-0.5-2.2-0.7c-1.5-0.3-3.1-0.3-4.7,0c-0.7,0.2-1.5,0.4-2.2,0.7c-0.7,0.3-1.4,0.7-2.1,1.1
			c-0.7,0.4-1.3,0.9-1.8,1.5c-0.5,0.5-1,1.2-1.5,1.8c-0.4,0.6-0.8,1.3-1.1,2.1c-0.3,0.7-0.5,1.5-0.7,2.2c-0.2,0.8-0.2,1.6-0.2,2.4
			s0.1,1.6,0.2,2.3c0.1,0.7,0.4,1.5,0.7,2.2s0.7,1.4,1.1,2.1c0.4,0.7,0.9,1.3,1.5,1.8s1.2,1,1.8,1.5c0.7,0.4,1.3,0.8,2.1,1.1
			c0.7,0.3,1.5,0.5,2.2,0.7c0.8,0.1,1.6,0.2,2.3,0.2c0.8,0,1.6-0.1,2.3-0.2c0.8-0.2,1.5-0.4,2.2-0.7c0.7-0.3,1.4-0.7,2.1-1.1
			c0.7-0.4,1.3-0.9,1.8-1.5c0.6-0.6,1-1.2,1.5-1.8c0.4-0.7,0.8-1.3,1.1-2.1c0.3-0.7,0.5-1.5,0.7-2.2c0.2-0.8,0.2-1.6,0.2-2.3
			C200.6,446.6,200.5,445.8,200.4,445z"/>
	</g>
</g>
<g>
	<g>
		<path fill="#002F64" d="M188.4,373.3c-0.1-0.8-0.4-1.5-0.7-2.2s-0.7-1.4-1.1-2.1c-0.4-0.7-1-1.3-1.5-1.8c-2.8-2.8-6.9-4-10.8-3.3
			c-0.8,0.2-1.5,0.4-2.2,0.7c-0.7,0.3-1.4,0.7-2.1,1.1c-0.7,0.4-1.3,0.9-1.8,1.5c-0.5,0.5-1,1.2-1.5,1.8c-0.4,0.6-0.8,1.3-1.1,2.1
			c-0.3,0.7-0.5,1.5-0.7,2.2s-0.2,1.6-0.2,2.3c0,0.8,0.1,1.6,0.2,2.3c0.1,0.7,0.4,1.5,0.7,2.2s0.7,1.4,1.1,2.1
			c0.4,0.7,0.9,1.3,1.5,1.8s1.2,1,1.8,1.5c0.7,0.4,1.3,0.8,2.1,1.1c0.7,0.3,1.5,0.5,2.2,0.7c0.8,0.1,1.6,0.2,2.3,0.2
			c3.1,0,6.2-1.3,8.5-3.5c2.2-2.2,3.5-5.3,3.5-8.5C188.6,374.9,188.6,374.1,188.4,373.3z"/>
	</g>
</g>
<g>
	<g>
		<path fill="#002F65" d="M598.2,400.6l-22.8-7.2C560,388.5,554,382,553.6,378c-0.4-4.1,4-11.7,18.1-19.6l20.8-11.8
			c16-9,33.7-21.4,28.7-36.7s-26.5-14.8-44.8-12.8l-23.8,2.7c-16,1.8-24.1-1.7-26.2-5.2c-2.1-3.6-1-12.3,8.5-25.3l14.2-19.2
			c10.9-14.8,22.1-33.2,11.3-45.2c-10.8-11.9-30.3-2.8-46.1,6.6l-20.6,12.1c-13.9,8.2-22.7,8.3-26,5.9c-3.3-2.4-6-10.8-2.5-26.6
			l5.2-23.4c4-17.9,6.7-39.3-8-45.9c-14.7-6.5-28.8,9.8-39.5,24.7L409,177.8c-9.4,13.1-17.4,16.8-21.4,15.9
			c-4-0.9-9.8-7.5-13.1-23.3l-4.5-23.3c-3.7-18-9.9-38.7-26-38.7s-22.3,20.7-26,38.7l-4.8,23.4c-3.2,15.8-9,22.4-13.1,23.3
			c-4,0.8-12-2.8-21.4-15.9l-13.9-19.5c-10.7-14.9-24.8-31.3-39.5-24.7c-14.7,6.5-12,28-8,45.9l5.2,23.4c3.5,15.7,0.9,24.1-2.5,26.6
			c-3.3,2.4-12.1,2.3-26-5.9l-20.6-12.1c-15.8-9.3-35.4-18.5-46.1-6.6c-10.8,11.9,0.4,30.4,11.3,45.2l14.2,19.2
			c9.6,13,10.6,21.7,8.5,25.3s-10.1,7.1-26.2,5.2l-23.8-2.7c-18.2-2.1-39.8-2.5-44.8,12.8c-5,15.3,12.7,27.6,28.7,36.7l20.8,11.8
			c14,7.9,18.5,15.5,18.1,19.6c-0.4,4.1-6.4,10.6-21.8,15.4l-22.8,7.2c-17.5,5.5-37.4,13.9-35.7,29.9s22.9,20.1,41.2,21.8l23.8,2.3
			c16.1,1.5,23.2,6.6,24.5,10.5s-1.5,12.3-13.6,22.9L112,503.9c-13.8,12.2-28.5,27.9-20.5,41.8c8,13.9,29.1,9,46.5,3.2l22.7-7.6
			c15.3-5.1,23.9-3.4,26.7-0.3c2.7,3,3.6,11.8-3.1,26.5l-9.9,21.8c-7.6,16.7-14.7,37.1-1.7,46.5c13,9.5,30.2-3.6,43.7-16l17.6-16.2
			c11.9-10.9,20.5-12.8,24.2-11.1c3.7,1.7,8.1,9.3,7.9,25.5l-0.2,23.9c-0.2,18.4,1.7,39.9,17.4,43.2s26.1-15.6,33.5-32.4l9.5-21.9
			c6.4-14.8,13.5-20,17.6-20s11.2,5.2,17.6,20l9.5,21.9c6.7,15.5,16.1,32.8,29.9,32.8c1.2,0,2.4-0.1,3.6-0.4
			c15.7-3.3,17.5-24.8,17.4-43.2l-0.2-23.9c-0.1-16.1,4.2-23.8,7.9-25.5c3.8-1.7,12.3,0.2,24.2,11.1l17.6,16.2
			c13.5,12.4,30.7,25.4,43.7,16c13-9.4,5.9-29.8-1.7-46.5l-9.9-21.8c-6.7-14.7-5.9-23.4-3.1-26.5c2.7-3,11.4-4.8,26.7,0.3l22.7,7.6
			c17.4,5.8,38.4,10.7,46.5-3.2c8-13.9-6.7-29.7-20.5-41.8L558,488c-12.1-10.7-14.9-19-13.6-22.9c1.3-3.9,8.4-9,24.5-10.6l23.8-2.3
			c18.3-1.8,39.5-5.8,41.2-21.8C635.6,414.5,615.7,406.1,598.2,400.6z M590.5,428.5l-23.8,2.3c-32.5,3.1-42.1,18.2-44.9,27
			c-2.8,8.7-3.9,26.6,20.5,48.2l17.9,15.9c3.3,2.9,5.9,5.4,7.9,7.5c-2.8-0.7-6.3-1.7-10.4-3.1l-22.7-7.6c-31-10.4-45.9-0.5-52,6.3
			c-6.1,6.8-14.4,22.7-0.9,52.4l9.9,21.8c1.8,4,3.2,7.3,4.1,10.1c-2.3-1.8-5-4.1-8.3-7L470.1,586c-24.1-22-41.7-19-50.1-15.3
			s-22.4,14.9-22.1,47.5l0.2,23.9c0,4.4-0.1,8-0.3,10.9c-1.4-2.5-3-5.8-4.7-9.8l-9.5-21.9l0,0c-13-29.9-30.4-34.4-39.5-34.4
			c-9.2,0-26.5,4.5-39.5,34.4l-9.5,21.9c-1.8,4-3.3,7.2-4.7,9.8c-0.2-2.9-0.4-6.5-0.3-10.9l0.2-23.9c0.3-32.6-13.7-43.8-22.1-47.5
			c-8.4-3.7-26-6.7-50.1,15.4l-17.6,16.2c-3.2,3-6,5.3-8.3,7c1-2.7,2.3-6.1,4.1-10.1l9.9-21.8c13.5-29.7,5.3-45.6-0.9-52.4
			c-6.1-6.8-21.1-16.7-52-6.3l-22.7,7.6c-4.2,1.4-7.6,2.4-10.4,3.1c2-2.1,4.6-4.6,7.9-7.5L146,506c24.4-21.6,23.3-39.5,20.5-48.2
			s-12.4-23.8-44.9-27l-23.8-2.3c-4.4-0.4-7.9-0.9-10.8-1.5c2.7-1.1,6-2.3,10.2-3.7l22.8-7.2c31.1-9.8,37.4-26.6,38.3-35.7
			c1-9.1-1.7-26.8-30.1-42.9l-20.8-11.8c-3.8-2.2-6.9-4.1-9.2-5.7c2.9,0.1,6.5,0.3,10.8,0.8l23.8,2.7c32.4,3.7,45-9.1,49.6-17
			s9.4-25.2-10-51.4l-14.2-19.2c-2.6-3.5-4.6-6.5-6.1-9c2.6,1.3,5.8,2.9,9.6,5.2l20.6,12.1c28.1,16.6,44.8,10,52.2,4.6
			s18.8-19.2,11.8-51.1l-5.2-23.4c-1-4.3-1.6-7.8-1.9-10.7c1.9,2.2,4.1,5,6.6,8.6l13.9,19.5c19,26.6,36.8,27.3,45.8,25.4
			c9-1.9,25-9.9,31.5-41.9l4.8-23.4c0.9-4.3,1.8-7.8,2.6-10.6c0.8,2.8,1.7,6.2,2.6,10.6l4.8,23.4c6.5,32,22.5,40,31.5,41.9
			s26.9,1.1,45.8-25.4l13.9-19.5c2.6-3.6,4.8-6.4,6.6-8.6c-0.4,2.9-1,6.4-1.9,10.7l-5.2,23.4c-7.1,31.9,4.3,45.7,11.8,51.1
			c7.4,5.4,24.1,12,52.2-4.6l20.6-12.1c3.8-2.2,7-3.9,9.6-5.2c-1.5,2.5-3.5,5.4-6.1,9l-14.2,19.2c-19.4,26.2-14.6,43.5-10,51.4
			s17.1,20.7,49.6,17l23.8-2.7c4.4-0.5,7.9-0.7,10.8-0.8c-2.4,1.6-5.4,3.5-9.2,5.7l-20.8,11.8c-28.4,16.1-31,33.8-30.1,42.9
			c1,9.1,7.2,25.9,38.3,35.7l22.8,7.2c4.2,1.3,7.6,2.6,10.2,3.7C598.4,427.6,594.8,428.1,590.5,428.5z"/>
	</g>
</g>
</svg>
