<?xml version="1.0" encoding="utf-8"?>
<!-- Generator: Adobe Illustrator 18.1.1, SVG Export Plug-In . SVG Version: 6.00 Build 0)  -->
<svg version="1.1" id="Layer_1" xmlns="http://www.w3.org/2000/svg" xmlns:xlink="http://www.w3.org/1999/xlink" x="0px" y="0px"
	 width="100px" height="100px" viewBox="-274 241 100 100" enable-background="new -274 241 100 100" xml:space="preserve">
<g>
	<path fill="#002F65" d="M-182.5,282.8c-3.7,0-6.9,2.5-7.8,5.9h-4.2c-0.5-6.3-3.1-12-6.9-16.6l2.9-2.9c1.2,0.6,2.5,1,3.8,1
		c2.2,0,4.3-0.9,5.9-2.5c3.2-3.2,3.2-8.5,0-11.7c-1.6-1.6-3.7-2.5-5.9-2.5c-2.2,0-4.3,0.9-5.9,2.5c-2.6,2.6-3.1,6.6-1.5,9.7
		l-2.9,2.9c-4.5-3.8-10.3-6.4-16.6-6.9v-4.2c3.3-1.1,5.9-4.2,5.9-7.8c0-4.5-3.7-8.3-8.3-8.3s-8.3,3.7-8.3,8.3c0,3.7,2.5,6.9,5.9,7.8
		v4.2c-6.3,0.5-12,3.1-16.6,6.9l-2.9-2.9c1.6-3.1,1.1-7.1-1.5-9.7c-1.6-1.6-3.7-2.5-5.9-2.5s-4.3,0.9-5.9,2.5
		c-3.2,3.2-3.2,8.5,0,11.7c1.6,1.6,3.7,2.5,5.9,2.5c1.3,0,2.7-0.4,3.8-1l2.9,2.9c-3.8,4.5-6.4,10.3-6.9,16.6h-4.2
		c-1.1-3.3-4.2-5.9-7.8-5.9c-4.5,0-8.3,3.7-8.3,8.3c0,4.7,3.7,8.3,8.3,8.3c3.7,0,6.9-2.5,7.8-5.9h4.2c0.5,6.3,3.1,12,6.9,16.6
		l-2.9,2.9c-1.2-0.6-2.5-1-3.8-1c-2.2,0-4.3,0.9-5.9,2.5c-3.2,3.2-3.2,8.5,0,11.7c1.6,1.6,3.7,2.5,5.9,2.5s4.3-0.9,5.9-2.5
		c2.6-2.6,3.1-6.6,1.5-9.7l2.9-2.9c4.5,3.8,10.3,6.4,16.6,6.9v4.2c-3.3,1.1-5.9,4.2-5.9,7.8c0,4.5,3.7,8.3,8.3,8.3s8.3-3.7,8.3-8.3
		c0-3.7-2.5-6.9-5.9-7.8v-4.2c6.3-0.5,12-3.1,16.6-6.9l2.9,2.9c-1.6,3.1-1.1,7.1,1.5,9.7c1.6,1.6,3.7,2.5,5.9,2.5
		c2.2,0,4.3-0.9,5.9-2.5c3.2-3.2,3.2-8.5,0-11.7c-1.6-1.6-3.7-2.5-5.9-2.5c-1.3,0-2.7,0.4-3.8,1l-2.9-2.9c3.8-4.5,6.4-10.3,6.9-16.6
		h4.2c1.1,3.3,4.2,5.9,7.8,5.9c4.5,0,8.3-3.7,8.3-8.3C-174.2,286.4-178,282.8-182.5,282.8z M-197.1,259.3c0.6-0.6,1.5-1,2.3-1
		c0.9,0,1.7,0.4,2.3,1c1.3,1.3,1.3,3.4,0,4.8c-1.2,1.2-3.6,1.2-4.8,0C-198.5,262.8-198.5,260.7-197.1,259.3z M-224,246.2
		c1.8,0,3.4,1.5,3.4,3.4c0,2-1.6,3.3-3.4,3.3s-3.4-1.5-3.4-3.4C-227.4,247.6-225.8,246.2-224,246.2z M-255.6,264.1
		c-1.3-1.3-1.3-3.4,0-4.8c0.6-0.6,1.5-1,2.3-1c0.9,0,1.7,0.4,2.3,1c1.3,1.3,1.3,3.4,0,4.8C-252.2,265.3-254.4,265.3-255.6,264.1z
		 M-265.3,294.4c-1.8,0-3.4-1.5-3.4-3.4s1.5-3.4,3.4-3.4c2,0,3.3,1.6,3.3,3.4C-262,292.8-263.5,294.4-265.3,294.4z M-250.9,322.6
		c-1.2,1.2-3.6,1.2-4.8,0c-1.3-1.3-1.3-3.4,0-4.8c0.6-0.6,1.5-1,2.3-1c0.9,0,1.7,0.4,2.3,1C-249.5,319.2-249.5,321.3-250.9,322.6z
		 M-224,335.7c-1.8,0-3.4-1.5-3.4-3.4c0-2,1.6-3.3,3.4-3.3s3.4,1.5,3.4,3.4C-220.6,334.4-222.2,335.7-224,335.7z M-192.4,317.8
		c1.3,1.3,1.3,3.4,0,4.8c-1.2,1.2-3.6,1.2-4.8,0c-1.3-1.3-1.3-3.4,0-4.8c0.6-0.6,1.5-1,2.3-1C-193.8,316.9-193,317.2-192.4,317.8z
		 M-224,315.5c-13.5,0-24.5-11-24.5-24.5s11-24.5,24.5-24.5s24.5,11,24.5,24.5S-210.5,315.5-224,315.5z M-182.5,294.4
		c-1.8,0-3.4-1.5-3.4-3.4s1.5-3.4,3.4-3.4c2,0,3.4,1.5,3.4,3.4S-180.7,294.4-182.5,294.4z"/>
</g>
<path fill="#39B4FF" d="M-218.7,293.8h-12.9c-0.7,0-1.3,0.6-1.3,1.3V308c0,0.7,0.6,1.3,1.3,1.3h12.9c0.7,0,1.3-0.6,1.3-1.3v-12.9
	C-217.3,294.4-217.9,293.8-218.7,293.8z M-220,306.7h-10.3v-10.3h10.3V306.7z"/>
<path fill="#39B4FF" d="M-217.5,274.1L-217.5,274.1c0-0.7-0.5-1.3-1.2-1.3h-12.9c-0.6,0-1.2,0.5-1.2,1.2v12.9c0,0.7,0.5,1.2,1.2,1.2
	h12.9c0.6,0,1.2-0.5,1.2-1.2v-4.6l-2.1,2.1c-0.1,0.1-0.2,0.1-0.3,0.2v1.2h-10.5v-10.6h10.5v1.3L-217.5,274.1z"/>
<path fill="#39B4FF" d="M-215.1,273.4l-6.5,6.5l-2.5-2.5c-0.7-0.7-1.8-0.7-2.4,0c-0.7,0.7-0.7,1.8,0,2.4l3.7,3.7
	c0.3,0.3,0.8,0.5,1.2,0.5c0.4,0,0.9-0.2,1.2-0.5l7.8-7.8c0.7-0.7,0.7-1.8,0-2.4C-213.3,272.7-214.4,272.7-215.1,273.4z"/>
</svg>
