<?xml version="1.0" encoding="utf-8"?>
<!-- Generator: Adobe Illustrator 18.1.1, SVG Export Plug-In . SVG Version: 6.00 Build 0)  -->
<svg version="1.1" id="Layer_1" xmlns="http://www.w3.org/2000/svg" xmlns:xlink="http://www.w3.org/1999/xlink" x="0px" y="0px"
	 width="66px" height="65px" viewBox="-272 364 66 65" enable-background="new -272 364 66 65" xml:space="preserve">
<g>
	<circle fill="#5FC2FF" cx="-224" cy="406.9" r="1.1"/>
	<circle fill="#5FC2FF" cx="-221.8" cy="425.2" r="1.1"/>
	<circle fill="#5FC2FF" cx="-248.7" cy="416.6" r="1.1"/>
	<circle fill="#5FC2FF" cx="-231.5" cy="410.1" r="1.1"/>
	<circle fill="#5FC2FF" cx="-215.4" cy="415.5" r="1.1"/>
	<circle fill="#5FC2FF" cx="-255.1" cy="425.2" r="1.1"/>
	<path fill="#002F64" stroke="#002F64" stroke-width="0.75" d="M-252.9,377.8c-4.2-4.2-11-4.2-15.2,0c-2,2-3.1,4.7-3.1,7.6
		c0,2.9,1.1,5.6,3.1,7.6l16.7,16.7l15.2-15.2L-252.9,377.8z M-266.6,391.5c-1.6-1.6-2.5-3.8-2.5-6.1c0-2.3,0.9-4.5,2.5-6.1
		c1.7-1.7,3.9-2.5,6.1-2.5c2.2,0,4.4,0.8,6.1,2.5l15.2,15.2l-12.2,12.2L-266.6,391.5z"/>
	<path fill="#002F64" stroke="#002F64" stroke-width="0.75" d="M-209.9,368.1c-2-2-4.7-3.1-7.6-3.1c-2.9,0-5.6,1.1-7.6,3.1
		l-16.7,16.7l15.2,15.2l16.7-16.7c2-2,3.1-4.7,3.1-7.6S-207.9,370.2-209.9,368.1z M-211.4,381.8l-15.2,15.2l-12.2-12.2l15.2-15.2
		c1.6-1.6,3.8-2.5,6.1-2.5c2.3,0,4.5,0.9,6.1,2.5c1.6,1.6,2.5,3.8,2.5,6.1C-208.9,378-209.8,380.2-211.4,381.8z"/>
	<path fill="#5FC2FF" d="M-228.3,402.6c0-2.4-1.9-4.3-4.3-4.3s-4.3,1.9-4.3,4.3c0,2.4,1.9,4.3,4.3,4.3S-228.3,405-228.3,402.6z
		 M-234.7,402.6c0-1.2,1-2.1,2.1-2.1s2.1,1,2.1,2.1s-1,2.1-2.1,2.1S-234.7,403.8-234.7,402.6z"/>
	<path fill="#5FC2FF" d="M-240.1,406.9c-2.4,0-4.3,1.9-4.3,4.3c0,2.4,1.9,4.3,4.3,4.3c2.4,0,4.3-1.9,4.3-4.3
		C-235.8,408.8-237.7,406.9-240.1,406.9z M-240.1,413.3c-1.2,0-2.1-1-2.1-2.1c0-1.2,1-2.1,2.1-2.1c1.2,0,2.1,1,2.1,2.1
		C-237.9,412.4-238.9,413.3-240.1,413.3z"/>
	<path fill="#5FC2FF" d="M-229.3,413.3c-2.4,0-4.3,1.9-4.3,4.3c0,2.4,1.9,4.3,4.3,4.3s4.3-1.9,4.3-4.3
		C-225,415.3-227,413.3-229.3,413.3z M-229.3,419.8c-1.2,0-2.1-1-2.1-2.1c0-1.2,1-2.1,2.1-2.1s2.1,1,2.1,2.1
		C-227.2,418.8-228.1,419.8-229.3,419.8z"/>
	<path fill="#5FC2FF" d="M-240.1,418.7c-2.4,0-4.3,1.9-4.3,4.3c0,2.4,1.9,4.3,4.3,4.3c2.4,0,4.3-1.9,4.3-4.3
		C-235.8,420.6-237.7,418.7-240.1,418.7z M-240.1,425.2c-1.2,0-2.1-1-2.1-2.1c0-1.2,1-2.1,2.1-2.1c1.2,0,2.1,1,2.1,2.1
		C-237.9,424.2-238.9,425.2-240.1,425.2z"/>
</g>
</svg>
