<svg xmlns="http://www.w3.org/2000/svg" width="65" height="69.862" viewBox="0 0 65 69.862">
  <g id="Asset_Management_" data-name="Asset Management " transform="translate(-886 -82)">
    <g id="Group_370" data-name="Group 370" transform="translate(886 82)">
      <g id="Group_365" data-name="Group 365">
        <path id="Subtraction_18" data-name="Subtraction 18" d="M53.231,61.129H40.415a2.136,2.136,0,0,1-2.126-2.141V41.918a6.4,6.4,0,0,0-12.8,0v17.07a2.135,2.135,0,0,1-.623,1.52,2.109,2.109,0,0,1-1.5.621H10.541a2.125,2.125,0,0,1-2.126-2.121V27.447L3.6,32.039A2.134,2.134,0,0,1,.653,28.955L30.351.608a2.245,2.245,0,0,1,3.074,0L37.8,4.781,35.021,8.034,32.913,6.022a1.509,1.509,0,0,0-2.053,0L12.683,23.373V56.148a.706.706,0,0,0,.7.712h7.14a.714.714,0,0,0,.7-.711V41.929a10.669,10.669,0,1,1,21.338,0v14.22a.706.706,0,0,0,.7.711h7.138a.716.716,0,0,0,.7-.712V23.373l-2.165-2.066,2.936-3.1L63.12,28.955a2.134,2.134,0,0,1-2.951,3.084L55.36,27.447V59.009A2.127,2.127,0,0,1,53.231,61.129Z" transform="translate(0 8.732)" fill="#002f65"/>
        <g id="noun_edit_958192" transform="translate(28.903 0)">
          <g id="Group_364" data-name="Group 364" transform="translate(0 0)">
            <path id="Path_568" data-name="Path 568" d="M40.127,8.075a4.425,4.425,0,0,0-6.265,0L11.068,30.824a.78.78,0,0,0-.178.222.044.044,0,0,1-.044.044c-.044.089-.089.133-.089.222v.044L7.736,41.221a1.435,1.435,0,0,0,.311,1.333,1.279,1.279,0,0,0,.933.4,1.23,1.23,0,0,0,.4-.044l9.82-3.021h.044c.089-.044.178-.044.222-.089a.044.044,0,0,0,.044-.044.444.444,0,0,0,.222-.178l22.75-22.75a4.425,4.425,0,0,0,0-6.265Zm-29.1,31.5,1.644-5.287,3.688,3.688Zm7.82-2.888L13.912,31.8l17.24-17.24,4.932,4.932ZM40.616,14.873,37.95,17.539l-4.888-4.888,2.666-2.666a1.77,1.77,0,0,1,2.533,0l2.4,2.4A1.757,1.757,0,0,1,40.616,14.873Z" transform="translate(-7.684 -6.775)" fill="#39b4ff"/>
          </g>
        </g>
      </g>
    </g>
    <path id="Path_572" data-name="Path 572" d="M9361.194,1960.782s3.8-3.544,4.537-3.664,4.38,2.387,4.38,2.387l1.458,3.061-4.008,4.859Z" transform="translate(-8422.105 -1874.002)" fill="#39b4ff"/>
  </g>
</svg>
