<svg xmlns="http://www.w3.org/2000/svg" width="50.324" height="53" viewBox="0 0 50.324 53">
  <g id="Asset_Management" data-name="Asset Management" transform="translate(-2.631 -1)">
    <g id="Group_340" data-name="Group 340" transform="translate(2.631 1)">
      <g id="Group_329" data-name="Group 329" transform="translate(13.473)">
        <g id="Group_328" data-name="Group 328">
          <g id="Group_325" data-name="Group 325" transform="translate(28.487 0.497)">
            <g id="Group_324" data-name="Group 324">
              <path id="Path_421" data-name="Path 421" d="M61.167,9.467H53.3V1.6l.083.083Z" transform="translate(-53.3 -1.6)" fill="#5fc2ff"/>
            </g>
          </g>
          <g id="Group_327" data-name="Group 327">
            <g id="Group_326" data-name="Group 326">
              <path id="Path_422" data-name="Path 422" d="M46.559,11.02a.83.83,0,0,1-.828-.828V1h-26a.83.83,0,0,0-.828.828V6.383H32.316a1.9,1.9,0,0,1,1.159.331l6.459,3.644a2.375,2.375,0,0,1,0,4.141c-6.459,3.561-6.542,3.975-7.619,3.975H18.9v4.472l3.644-2.236a2.4,2.4,0,0,1,2.567,0c18.8,11.594,11.18,6.459,17.722,11.014A2.538,2.538,0,0,1,43.5,35.2a2.716,2.716,0,0,1-2.236,1.077v8.613H54.923a.83.83,0,0,0,.828-.828V11.02ZM50.12,38.183H45.152V36.527H50.12Zm0-6.791H42.667V29.736H50.12Zm0-6.791H37.7V22.945H50.12Zm0-6.791H41.011V16.155H50.12Z" transform="translate(-18.9 -1)" fill="#5fc2ff"/>
            </g>
          </g>
        </g>
      </g>
      <g id="Group_336" data-name="Group 336" transform="translate(2.127 7.039)">
        <g id="Group_331" data-name="Group 331">
          <g id="Group_330" data-name="Group 330">
            <path id="Path_423" data-name="Path 423" d="M6.691,9.5A1.484,1.484,0,0,0,5.2,10.991v2.07H29.05V9.5Z" transform="translate(-5.2 -9.5)" fill="#004a9f"/>
          </g>
        </g>
        <g id="Group_333" data-name="Group 333" transform="translate(25.589 0.331)">
          <g id="Group_332" data-name="Group 332">
            <path id="Path_424" data-name="Path 424" d="M42.063,13.3,36.1,9.9v8.033l5.963-3.4A.7.7,0,0,0,42.063,13.3Z" transform="translate(-36.1 -9.9)" fill="#004a9f"/>
          </g>
        </g>
        <g id="Group_335" data-name="Group 335" transform="translate(0 5.217)">
          <g id="Group_334" data-name="Group 334">
            <path id="Path_425" data-name="Path 425" d="M5.2,15.8v2.07a1.484,1.484,0,0,0,1.491,1.491H29.133V15.8Z" transform="translate(-5.2 -15.8)" fill="#004a9f"/>
          </g>
        </g>
      </g>
      <g id="Group_339" data-name="Group 339" transform="translate(0 20.91)">
        <g id="Group_338" data-name="Group 338">
          <g id="Group_337" data-name="Group 337">
            <path id="Path_426" data-name="Path 426" d="M21.9,43.02v3.727h3.727V43.02Zm-5.383,0v3.727h3.727V43.02Zm0,0v3.727h3.727V43.02Zm5.383,0v3.727h3.727V43.02Zm0,0v3.727h3.727V43.02ZM16.518,48.4v3.727h3.727V48.4Zm0-5.383v3.727h3.727V43.02Zm0,0v3.727h3.727V43.02Zm0,5.383v3.727h3.727V48.4ZM21.9,43.02v3.727h3.727V43.02Zm0,5.383v3.727h3.727V48.4Zm0,0v3.727h3.727V48.4Zm0-5.383v3.727h3.727V43.02ZM16.518,48.4v3.727h3.727V48.4Zm0-5.383v3.727h3.727V43.02Zm0,0v3.727h3.727V43.02Zm0,5.383v3.727h3.727V48.4ZM21.9,43.02v3.727h3.727V43.02Zm0,5.383v3.727h3.727V48.4Zm0,0v3.727h3.727V48.4Zm0-5.383v3.727h3.727V43.02ZM16.518,48.4v3.727h3.727V48.4Zm0-5.383v3.727h3.727V43.02Zm0,0v3.727h3.727V43.02Zm0,5.383v3.727h3.727V48.4ZM21.9,43.02v3.727h3.727V43.02Zm0,5.383v3.727h3.727V48.4Zm0,0v3.727h3.727V48.4Zm0-5.383v3.727h3.727V43.02ZM16.518,48.4v3.727h3.727V48.4Zm0-5.383v3.727h3.727V43.02Zm0,0v3.727h3.727V43.02Zm0,5.383v3.727h3.727V48.4ZM21.9,43.02v3.727h3.727V43.02Zm0,5.383v3.727h3.727V48.4Zm0,3.644h3.727V48.4H21.9Zm0-9.027v3.727h3.727V43.02Zm-5.383,9.027h3.727V48.4H16.518Zm0-5.3h3.727V43.02H16.518Zm21.7-8.033a.829.829,0,0,0,1.159-.248.815.815,0,0,0-.248-1.159C14.944,22.316,23.308,27.534,21.487,26.374a.752.752,0,0,0-.828,0C18.837,27.534,27.2,22.316,3.019,37.305a.841.841,0,0,0-.248,1.159.891.891,0,0,0,1.159.248l1.408-.994V56.684H4.013a.83.83,0,0,0-.828.828.782.782,0,0,0,.828.828H38.049a.83.83,0,0,0,.828-.828.891.891,0,0,0-.828-.828H36.807V37.72Zm-13-3.064h1.656v1.656H25.213Zm-4.969,0H21.9v1.656H20.244Zm-4.969,0h1.656v1.656H15.276ZM27.283,52.874a.782.782,0,0,1-.828.828H15.69a.782.782,0,0,1-.828-.828V42.109a.782.782,0,0,1,.828-.828H26.455a.782.782,0,0,1,.828.828ZM21.9,52.046h3.727V48.4H21.9Zm0-5.3h3.727V43.02H21.9Zm-5.383,5.3h3.727V48.4H16.518Zm0-5.3h3.727V43.02H16.518Zm0-3.727v3.727h3.727V43.02Zm0,5.383v3.727h3.727V48.4ZM21.9,43.02v3.727h3.727V43.02Zm0,5.383v3.727h3.727V48.4Zm0,0v3.727h3.727V48.4Zm0-5.383v3.727h3.727V43.02ZM16.518,48.4v3.727h3.727V48.4Zm0-5.383v3.727h3.727V43.02Zm0,0v3.727h3.727V43.02Zm0,5.383v3.727h3.727V48.4ZM21.9,43.02v3.727h3.727V43.02Zm0,5.383v3.727h3.727V48.4Zm0,0v3.727h3.727V48.4Zm0-5.383v3.727h3.727V43.02ZM16.518,48.4v3.727h3.727V48.4Zm0-5.383v3.727h3.727V43.02Zm0,0v3.727h3.727V43.02Zm0,5.383v3.727h3.727V48.4ZM21.9,43.02v3.727h3.727V43.02Zm0,5.383v3.727h3.727V48.4Zm0,0v3.727h3.727V48.4Zm0-5.383v3.727h3.727V43.02ZM16.518,48.4v3.727h3.727V48.4Zm0-5.383v3.727h3.727V43.02Zm0,0v3.727h3.727V43.02Zm0,5.383v3.727h3.727V48.4ZM21.9,43.02v3.727h3.727V43.02Zm0,0v3.727h3.727V43.02ZM16.518,48.4v3.727h3.727V48.4Zm0-5.383v3.727h3.727V43.02Zm0,0v3.727h3.727V43.02Zm0,5.383v3.727h3.727V48.4ZM21.9,43.02v3.727h3.727V43.02Zm0,0v3.727h3.727V43.02Zm-5.383,0v3.727h3.727V43.02Z" transform="translate(-2.631 -26.25)" fill="#5fc2ff"/>
          </g>
        </g>
      </g>
    </g>
  </g>
</svg>
