<svg xmlns="http://www.w3.org/2000/svg" width="46.375" height="53" viewBox="0 0 46.375 53">
  <g id="Assest_Issuance" data-name="Assest Issuance" transform="translate(-219 -647)">
    <g id="noun_hexagonal_interconnections_2684699" data-name="noun_hexagonal interconnections_2684699" transform="translate(211 647)">
      <path id="Path_351" data-name="Path 351" d="M53.426,7.763l3.727,2.07a.827.827,0,0,0,.8,0l3.727-2.07a.828.828,0,0,0,.426-.724V2.9a.828.828,0,0,0-.426-.724L57.957.1a.827.827,0,0,0-.8,0l-3.727,2.07A.828.828,0,0,0,53,2.9V7.039a.828.828,0,0,0,.426.724Zm1.23-4.377,2.9-1.61,2.9,1.61V6.552l-2.9,1.61-2.9-1.61Z" transform="translate(-26.367 0)" fill="#004a9f"/>
      <path id="Path_352" data-name="Path 352" d="M61.683,106.175l-3.727-2.07a.827.827,0,0,0-.8,0l-3.727,2.07A.827.827,0,0,0,53,106.9v4.141a.828.828,0,0,0,.426.724l3.727,2.07a.827.827,0,0,0,.8,0l3.727-2.07a.828.828,0,0,0,.426-.724V106.9A.828.828,0,0,0,61.683,106.175Z" transform="translate(-26.367 -60.937)" fill="#5fc2ff"/>
      <path id="Path_353" data-name="Path 353" d="M16.683,80.175,12.957,78.1a.827.827,0,0,0-.8,0l-3.727,2.07A.827.827,0,0,0,8,80.9v4.141a.827.827,0,0,0,.426.724l3.727,2.07a.827.827,0,0,0,.8,0l3.727-2.07a.828.828,0,0,0,.426-.724V80.9A.827.827,0,0,0,16.683,80.175Zm-1.23,4.377-2.9,1.61-2.9-1.61V81.386l2.9-1.61,2.9,1.61Z" transform="translate(0 -45.703)" fill="#004a9f"/>
      <path id="Path_354" data-name="Path 354" d="M106.683,80.175l-3.727-2.07a.827.827,0,0,0-.8,0l-3.727,2.07A.828.828,0,0,0,98,80.9v4.141a.828.828,0,0,0,.426.724l3.727,2.07a.827.827,0,0,0,.8,0l3.727-2.07a.828.828,0,0,0,.426-.724V80.9a.828.828,0,0,0-.426-.724Zm-1.23,4.377-2.9,1.61-2.9-1.61V81.386l2.9-1.61,2.9,1.61Z" transform="translate(-52.734 -45.703)" fill="#004a9f"/>
      <path id="Path_355" data-name="Path 355" d="M39.73,19.011a2.479,2.479,0,0,1-.685-1.519l-7.059,4.157a2.479,2.479,0,0,1,.8,1.452Z" transform="translate(-14.054 -10.25)" fill="#004a9f"/>
      <path id="Path_356" data-name="Path 356" d="M16.683,27.175,12.957,25.1a.827.827,0,0,0-.8,0l-3.727,2.07A.828.828,0,0,0,8,27.9v4.141a.828.828,0,0,0,.426.724l3.727,2.07a.827.827,0,0,0,.8,0l3.727-2.07a.828.828,0,0,0,.426-.724V27.9A.828.828,0,0,0,16.683,27.175Z" transform="translate(0 -14.648)" fill="#5fc2ff"/>
      <path id="Path_357" data-name="Path 357" d="M106.683,27.175l-3.727-2.07a.827.827,0,0,0-.8,0l-3.727,2.07A.828.828,0,0,0,98,27.9v4.141a.827.827,0,0,0,.426.724l3.727,2.07a.827.827,0,0,0,.8,0l3.727-2.07a.828.828,0,0,0,.426-.724V27.9a.828.828,0,0,0-.426-.724Z" transform="translate(-52.734 -14.648)" fill="#5fc2ff"/>
      <path id="Path_358" data-name="Path 358" d="M60.906,56.008V48.555a.828.828,0,0,0-.422-.722l-6.625-3.727a.829.829,0,0,0-.812,0l-6.625,3.727a.828.828,0,0,0-.422.722v7.453a.828.828,0,0,0,.422.722l6.625,3.727a.828.828,0,0,0,.812,0l6.625-3.727A.828.828,0,0,0,60.906,56.008Z" transform="translate(-22.266 -25.781)" fill="#5fc2ff"/>
      <path id="Path_359" data-name="Path 359" d="M85.055,21.649,78,17.493a2.479,2.479,0,0,1-.685,1.519l6.946,4.09A2.479,2.479,0,0,1,85.055,21.649Z" transform="translate(-40.612 -10.25)" fill="#004a9f"/>
      <path id="Path_360" data-name="Path 360" d="M108.656,61.635V52.646a2.414,2.414,0,0,1-1.656,0v8.988A2.482,2.482,0,0,1,108.656,61.635Z" transform="translate(-58.008 -30.847)" fill="#004a9f"/>
      <path id="Path_361" data-name="Path 361" d="M84.346,96.836l-7.034,4.142A2.479,2.479,0,0,1,78,102.5l7.366-4.338A2.478,2.478,0,0,1,84.346,96.836Z" transform="translate(-40.612 -56.74)" fill="#004a9f"/>
      <path id="Path_362" data-name="Path 362" d="M31.244,98.159,38.61,102.5a2.479,2.479,0,0,1,.685-1.519l-7.034-4.142A2.478,2.478,0,0,1,31.244,98.159Z" transform="translate(-13.62 -56.739)" fill="#004a9f"/>
      <path id="Path_363" data-name="Path 363" d="M18.656,61.635V52.646a2.414,2.414,0,0,1-1.656,0v8.988A2.482,2.482,0,0,1,18.656,61.635Z" transform="translate(-5.273 -30.847)" fill="#004a9f"/>
      <path id="Path_364" data-name="Path 364" d="M63.656,32.908V27.646a2.414,2.414,0,0,1-1.656,0v5.262a2.479,2.479,0,0,1,1.656,0Z" transform="translate(-31.641 -16.199)" fill="#004a9f"/>
      <path id="Path_365" data-name="Path 365" d="M62,87.645v5.262a2.482,2.482,0,0,1,1.656,0V87.645A2.409,2.409,0,0,1,62,87.645Z" transform="translate(-31.641 -51.355)" fill="#004a9f"/>
      <path id="Path_366" data-name="Path 366" d="M36.421,74.774l-4.139,2.5a2.48,2.48,0,0,1,.7,1.514l4.442-2.681A2.477,2.477,0,0,1,36.421,74.774Z" transform="translate(-14.228 -43.813)" fill="#004a9f"/>
      <path id="Path_367" data-name="Path 367" d="M87.813,43.447l-4.5,2.718a2.477,2.477,0,0,1,1,1.331l4.416-2.665A2.482,2.482,0,0,1,87.813,43.447Z" transform="translate(-44.127 -25.457)" fill="#004a9f"/>
      <path id="Path_368" data-name="Path 368" d="M37.223,45.963l-4.563-2.77a2.478,2.478,0,0,1-.853,1.42l4.365,2.65a2.476,2.476,0,0,1,1.051-1.3Z" transform="translate(-13.949 -25.308)" fill="#004a9f"/>
      <path id="Path_369" data-name="Path 369" d="M83.394,76.03,87.8,78.706a2.481,2.481,0,0,1,.712-1.506L84.37,74.685A2.479,2.479,0,0,1,83.394,76.03Z" transform="translate(-44.176 -43.761)" fill="#004a9f"/>
    </g>
  </g>
</svg>
