<svg xmlns="http://www.w3.org/2000/svg" width="21.875" height="25" viewBox="0 0 21.875 25">
  <g id="Asset_Issuance_" data-name="Asset Issuance " transform="translate(-219 -647)">
    <g id="noun_hexagonal_interconnections_2684699" data-name="noun_hexagonal interconnections_2684699" transform="translate(219 647)">
      <path id="Path_351" data-name="Path 351" d="M53.2,3.662l1.758.977a.39.39,0,0,0,.379,0L57.1,3.662a.39.39,0,0,0,.2-.341V1.367a.39.39,0,0,0-.2-.341L55.338.049a.39.39,0,0,0-.379,0L53.2,1.026a.39.39,0,0,0-.2.341V3.32a.39.39,0,0,0,.2.341Zm.58-2.065,1.367-.76,1.367.76V3.091l-1.367.76-1.367-.76Z" transform="translate(-44.211 0)" fill="#ff6c00"/>
      <path id="Path_352" data-name="Path 352" d="M57.1,105.026l-1.758-.977a.39.39,0,0,0-.379,0l-1.758.977a.39.39,0,0,0-.2.341v1.953a.39.39,0,0,0,.2.341l1.758.977a.39.39,0,0,0,.379,0l1.758-.977a.39.39,0,0,0,.2-.341v-1.953A.39.39,0,0,0,57.1,105.026Z" transform="translate(-44.211 -83.688)" fill="#2676ff"/>
      <path id="Path_353" data-name="Path 353" d="M12.1,79.026l-1.758-.977a.39.39,0,0,0-.379,0L8.2,79.026a.39.39,0,0,0-.2.341V81.32a.39.39,0,0,0,.2.341l1.758.977a.39.39,0,0,0,.379,0l1.758-.977a.39.39,0,0,0,.2-.341V79.367A.39.39,0,0,0,12.1,79.026Zm-.58,2.065-1.367.76-1.367-.76V79.6l1.367-.76,1.367.76Z" transform="translate(-8 -62.766)" fill="#ff6c00"/>
      <path id="Path_354" data-name="Path 354" d="M102.1,79.026l-1.758-.977a.39.39,0,0,0-.379,0l-1.758.977a.39.39,0,0,0-.2.341V81.32a.39.39,0,0,0,.2.341l1.758.977a.39.39,0,0,0,.379,0l1.758-.977a.39.39,0,0,0,.2-.341V79.367a.39.39,0,0,0-.2-.341Zm-.58,2.065-1.367.76-1.367-.76V79.6l1.367-.76,1.367.76Z" transform="translate(-80.422 -62.766)" fill="#ff6c00"/>
      <path id="Path_355" data-name="Path 355" d="M35.639,18.209a1.169,1.169,0,0,1-.323-.716l-3.33,1.961a1.169,1.169,0,0,1,.377.685Z" transform="translate(-27.301 -14.076)" fill="#ff6c00"/>
      <path id="Path_356" data-name="Path 356" d="M12.1,26.026l-1.758-.977a.39.39,0,0,0-.379,0L8.2,26.026a.39.39,0,0,0-.2.341V28.32a.39.39,0,0,0,.2.341l1.758.977a.39.39,0,0,0,.379,0l1.758-.977a.39.39,0,0,0,.2-.341V26.367A.39.39,0,0,0,12.1,26.026Z" transform="translate(-8 -20.117)" fill="#2676ff"/>
      <path id="Path_357" data-name="Path 357" d="M102.1,26.026l-1.758-.977a.39.39,0,0,0-.379,0l-1.758.977a.39.39,0,0,0-.2.341V28.32a.39.39,0,0,0,.2.341l1.758.977a.39.39,0,0,0,.379,0l1.758-.977a.39.39,0,0,0,.2-.341V26.367a.39.39,0,0,0-.2-.341Z" transform="translate(-80.422 -20.117)" fill="#2676ff"/>
      <path id="Path_358" data-name="Path 358" d="M53.031,49.664V46.149a.391.391,0,0,0-.2-.34l-3.125-1.758a.391.391,0,0,0-.383,0L46.2,45.808a.391.391,0,0,0-.2.34v3.516a.391.391,0,0,0,.2.34l3.125,1.758a.391.391,0,0,0,.383,0L52.832,50A.391.391,0,0,0,53.031,49.664Z" transform="translate(-38.578 -35.407)" fill="#2676ff"/>
      <path id="Path_359" data-name="Path 359" d="M80.964,19.453l-3.33-1.961a1.169,1.169,0,0,1-.323.716l3.276,1.929A1.169,1.169,0,0,1,80.964,19.453Z" transform="translate(-63.774 -14.076)" fill="#ff6c00"/>
      <path id="Path_360" data-name="Path 360" d="M107.781,56.886v-4.24a1.139,1.139,0,0,1-.781,0v4.24A1.171,1.171,0,0,1,107.781,56.886Z" transform="translate(-87.664 -42.364)" fill="#ff6c00"/>
      <path id="Path_361" data-name="Path 361" d="M80.63,96.836l-3.318,1.954a1.169,1.169,0,0,1,.323.716l3.474-2.046A1.169,1.169,0,0,1,80.63,96.836Z" transform="translate(-63.774 -77.922)" fill="#ff6c00"/>
      <path id="Path_362" data-name="Path 362" d="M31.244,97.46l3.474,2.046a1.169,1.169,0,0,1,.323-.716l-3.318-1.954A1.169,1.169,0,0,1,31.244,97.46Z" transform="translate(-26.704 -77.922)" fill="#ff6c00"/>
      <path id="Path_363" data-name="Path 363" d="M17.781,56.886v-4.24a1.139,1.139,0,0,1-.781,0v4.24A1.171,1.171,0,0,1,17.781,56.886Z" transform="translate(-15.242 -42.364)" fill="#ff6c00"/>
      <path id="Path_364" data-name="Path 364" d="M62.781,30.128V27.646a1.139,1.139,0,0,1-.781,0v2.482A1.169,1.169,0,0,1,62.781,30.128Z" transform="translate(-51.453 -22.247)" fill="#ff6c00"/>
      <path id="Path_365" data-name="Path 365" d="M62,87.645v2.482a1.171,1.171,0,0,1,.781,0V87.645A1.136,1.136,0,0,1,62,87.645Z" transform="translate(-51.453 -70.527)" fill="#ff6c00"/>
      <path id="Path_366" data-name="Path 366" d="M34.235,74.774l-1.952,1.178a1.17,1.17,0,0,1,.328.714l2.1-1.265A1.169,1.169,0,0,1,34.235,74.774Z" transform="translate(-27.54 -60.17)" fill="#ff6c00"/>
      <path id="Path_367" data-name="Path 367" d="M85.434,43.447l-2.124,1.282a1.168,1.168,0,0,1,.471.628L85.864,44.1A1.171,1.171,0,0,1,85.434,43.447Z" transform="translate(-68.6 -34.962)" fill="#ff6c00"/>
      <path id="Path_368" data-name="Path 368" d="M34.362,44.5l-2.153-1.307a1.169,1.169,0,0,1-.4.67l2.059,1.25a1.168,1.168,0,0,1,.5-.613Z" transform="translate(-27.157 -34.757)" fill="#ff6c00"/>
      <path id="Path_369" data-name="Path 369" d="M83.394,75.32l2.079,1.262a1.17,1.17,0,0,1,.336-.71l-1.955-1.186A1.169,1.169,0,0,1,83.394,75.32Z" transform="translate(-68.668 -60.098)" fill="#ff6c00"/>
    </g>
  </g>
</svg>
