<svg xmlns="http://www.w3.org/2000/svg" width="39.6" height="60" viewBox="0 0 39.6 60">
  <g id="Asset_Disposal_" data-name="Asset Disposal " transform="translate(-22 -5)">
    <g id="Group_267" data-name="Group 267" transform="translate(22 5)">
      <path id="Path_348" data-name="Path 348" d="M26.234,32.594,27.62,54.2h.036l1.11,16.806A3.9,3.9,0,0,0,32.6,74.6H54.2a3.9,3.9,0,0,0,3.834-3.594L59.144,54.2h.036l1.387-21.606L60.8,29H26ZM50.174,54.2,51.2,33.71a1.8,1.8,0,1,1,3.6.18L53.786,54.2,53,69.89a1.8,1.8,0,0,1-1.8,1.71h-.09a1.812,1.812,0,0,1-1.71-1.89ZM41.6,33.8a1.8,1.8,0,0,1,3.6,0v36a1.8,1.8,0,1,1-3.6,0ZM33.71,32a1.8,1.8,0,0,1,1.89,1.71L36.626,54.2,37.4,69.71a1.811,1.811,0,0,1-1.71,1.89H35.6a1.8,1.8,0,0,1-1.8-1.71L33.014,54.2,32,33.89A1.811,1.811,0,0,1,33.71,32Z" transform="translate(-23.6 -14.6)" fill="#002f64"/>
      <path id="Path_349" data-name="Path 349" d="M60.4,16H23.2A1.2,1.2,0,0,0,22,17.2v3a1.2,1.2,0,0,0,1.2,1.2H60.4a1.2,1.2,0,0,0,1.2-1.2v-3A1.2,1.2,0,0,0,60.4,16Z" transform="translate(-22 -9.4)" fill="#5fc2ff"/>
      <path id="Path_350" data-name="Path 350" d="M56.4,6.2A1.2,1.2,0,0,0,55.2,5h-6A1.2,1.2,0,0,0,48,6.2v4.2h8.4Z" transform="translate(-32.4 -5)" fill="#5fc2ff"/>
    </g>
  </g>
</svg>
