<svg xmlns="http://www.w3.org/2000/svg" width="34.98" height="53" viewBox="0 0 34.98 53">
  <g id="Asset_Disposal_" data-name="Asset Disposal " transform="translate(-22 -5)">
    <g id="Group_267" data-name="Group 267" transform="translate(22 5)">
      <path id="Path_348" data-name="Path 348" d="M26.207,32.175,27.431,51.26h.032l.98,14.845A3.447,3.447,0,0,0,31.83,69.28H50.91A3.447,3.447,0,0,0,54.3,66.105l.98-14.845h.032l1.225-19.085L56.74,29H26ZM47.354,51.26l.906-18.1a1.592,1.592,0,1,1,3.18.159l-.9,17.94-.694,13.86a1.594,1.594,0,0,1-1.59,1.51h-.079a1.6,1.6,0,0,1-1.511-1.67ZM39.78,33.24a1.59,1.59,0,0,1,3.18,0v31.8a1.59,1.59,0,1,1-3.18,0Zm-6.97-1.59a1.59,1.59,0,0,1,1.67,1.511l.906,18.1.684,13.7a1.6,1.6,0,0,1-1.51,1.67h-.08a1.594,1.594,0,0,1-1.59-1.51L32.2,51.26l-.9-17.94A1.6,1.6,0,0,1,32.81,31.65Z" transform="translate(-23.88 -16.28)" fill="#5fc2ff"/>
      <path id="Path_349" data-name="Path 349" d="M55.92,16H23.06A1.063,1.063,0,0,0,22,17.06v2.65a1.063,1.063,0,0,0,1.06,1.06H55.92a1.063,1.063,0,0,0,1.06-1.06V17.06A1.063,1.063,0,0,0,55.92,16Z" transform="translate(-22 -10.17)" fill="#004a9f"/>
      <path id="Path_350" data-name="Path 350" d="M55.42,6.06A1.063,1.063,0,0,0,54.36,5h-5.3A1.063,1.063,0,0,0,48,6.06V9.77h7.42Z" transform="translate(-34.22 -5)" fill="#004a9f"/>
    </g>
  </g>
</svg>
