<?xml version="1.0" encoding="utf-8"?>
<!-- Generator: Adobe Illustrator 18.1.1, SVG Export Plug-In . SVG Version: 6.00 Build 0)  -->
<svg version="1.1" id="Layer_1" xmlns="http://www.w3.org/2000/svg" xmlns:xlink="http://www.w3.org/1999/xlink" x="0px" y="0px"
	 viewBox="0 184 612 608" enable-background="new 0 184 612 608" xml:space="preserve">
<title>Tools Maintenance</title>
<path fill="#002F64" d="M29.3,536.6l53.8,5.1c5.6,23.1,14.9,45.1,27.4,65.1l-34.3,41.4c-2.7,3.3-2.5,8.2,0.5,11.2l56.9,56.9
	c3.1,3.1,7.9,3.2,11.2,0.5l41.5-34.3c20.2,12.4,42.1,21.8,65,27.5l5.1,53.7c0.5,4.3,4.1,7.4,8.4,7.4h80.7c4.3,0.1,7.9-3.1,8.4-7.4
	l5.1-53.7c23.1-5.6,45.1-14.9,65.1-27.4l41.4,34.3c3.3,2.7,8.2,2.5,11.2-0.5l56.9-56.9c3.1-3.1,3.2-7.9,0.5-11.2l-34.3-41.5
	c12.4-20.2,21.8-42.1,27.5-65.1l53.1-5.1c4.3-0.4,7.5-4.1,7.5-8.4v-80.7c0-4.3-3.2-7.9-7.5-8.4l-53.8-5.1
	c-5.6-23.1-14.9-45.1-27.5-65.1l34.3-41.4c2.7-3.3,2.5-8.1-0.5-11.2l-56.2-56.9c-3-3.1-8-3.3-11.2-0.6l-41.1,34.3
	c-20.2-12.4-42.1-21.8-65-27.5l-5.1-53.7c-0.5-4.3-4.1-7.4-8.4-7.4h-80.7c-4.3-0.1-7.9,3.1-8.4,7.4l-5.1,53.7
	c-23.1,5.6-44.9,14.9-65.1,27.4l-41.4-34.3c-3.3-2.7-8.2-2.5-11.2,0.5L77,316.1c-3.1,3.1-3.2,7.9-0.5,11.2l34.3,41.5
	c-12.4,20.2-21.8,42.1-27.5,65L29.5,439c-4.3,0.4-7.5,4.1-7.5,8.4V528C21.8,532.7,25,536.3,29.3,536.6z M38.5,455.2l52.2-5
	c3.6-0.4,6.6-3,7.4-6.6c5.6-25.2,15.7-49.1,29.9-70.8c2-3.1,1.8-7.1-0.6-9.9l-33.3-40.3l46.1-46.1l40.3,33.3
	c2.9,2.4,6.9,2.5,9.9,0.5c21.5-14.2,45.4-24.3,70.6-29.8c3.6-0.7,6.2-3.6,6.6-7.2l5-52.1h65.5l5,52.1c0.4,3.6,3,6.6,6.6,7.3
	c25.2,5.6,49.1,15.7,70.8,29.8c3.1,2,7.1,1.7,9.9-0.6l40.2-33.3l45.5,46.1L482.8,363c-2.4,2.9-2.5,6.9-0.5,9.9
	c14.2,21.5,24.3,45.4,29.8,70.6c0.7,3.6,3.7,6.2,7.4,6.6l52.2,5v65.5l-51.5,5c-3.6,0.4-6.6,3-7.4,6.6c-5.6,25.2-15.7,49.1-29.9,70.8
	c-2,3.1-1.8,7.1,0.6,9.9l33.3,40.3l-46.1,46.1l-40.4-33.2c-2.9-2.4-6.9-2.5-9.9-0.5c-21.5,14.2-45.4,24.3-70.6,29.8
	c-3.6,0.7-6.2,3.6-6.6,7.2l-5,52.1h-65.5l-5-52.1c-0.4-3.6-3-6.6-6.6-7.3c-25.2-5.6-49.1-15.7-70.8-29.8c-3.1-1.9-7.1-1.7-9.9,0.6
	l-40.3,33.3L94,653.3l33.3-40.3c2.4-2.9,2.5-6.9,0.5-9.9c-14.2-21.5-24.3-45.4-29.8-70.6c-0.7-3.6-3.7-6.2-7.4-6.6l-52.2-5v-65.6
	H38.5z"/>
<path fill="#002F64" d="M305.4,653.6c91.2,0,165.6-74.2,165.6-165.6s-74.2-165.6-165.6-165.6S139.9,396.7,139.9,488
	S214.2,653.6,305.4,653.6z M305.4,339.2c82.1,0,148.8,66.6,148.8,148.8c0,82.1-66.6,148.8-148.8,148.8
	c-82.1,0-148.8-66.6-148.8-148.8l0,0C156.7,405.9,223.3,339.3,305.4,339.2L305.4,339.2z"/>
<path fill="#5FC2FF" d="M230.5,497.2l-5,16.7c-0.2,0.7-0.5,1.6-0.5,2.4v54.9c0.1,13.5,11,24.3,24.5,24.4h12.7
	c13.3-0.1,23.9-11,23.8-24.3v-0.1v-54.9c0.1-0.8,0-1.6-0.1-2.4l-4.8-16.7c4.5-0.8,7.4-5.1,6.6-9.7c-0.7-3.9-4.2-6.8-8.1-6.7h-15.1
	V390c0-4.7-3.7-8.4-8.4-8.4s-8.4,3.7-8.4,8.4v90.8h-15.5c-4.5,0-8.4,3.6-8.4,8.2C223.8,493,226.5,496.5,230.5,497.2z M241.7,517.5
	l6.1-20h16l5.4,20v53.7c0,4.2-2.9,7.6-7.1,7.6h-12.7c-4.2-0.1-7.6-3.5-7.8-7.6V517.5z"/>
<path fill="#5FC2FF" d="M309.8,476.2v95.3c0,13.1,10.8,23.9,23.9,23.9s23.9-10.8,23.9-23.9v-95.3c16.7-9,28.8-27.3,28.8-47.2
	c0-20.1-11.4-38.5-29.4-47.5c-2.6-1.3-5.9-1.2-8.4,0.4s-4.1,4.2-4.2,7.2v21l-11.1,7.5l-11.7-8.2l0.1-20.3c0-4.7-3.7-8.4-8.2-8.4
	c-1.3,0-2.6,0.2-3.8,0.8c-26.2,13.1-36.7,44.9-23.5,71.1C291.4,462.8,299.7,471,309.8,476.2L309.8,476.2z M305.2,406.2v7.5
	c0,2.7,1.3,5.3,3.6,6.9l20,14c2.9,2,6.6,2,9.4,0.1l19.6-13.1c2.3-1.6,3.6-4.2,3.6-6.9v-8.4c6,6.3,8.1,14.2,8.1,22.7
	c0.1,15.1-9.2,28.6-23.3,33.9c-3.2,1.2-5.3,4.4-5.1,7.9v100.8c0,3.9-3.2,7.2-7.2,7.2c-3.9,0-7.2-3.2-7.2-7.2V470.9
	c-0.1-3.6-2.3-6.7-5.6-7.9c-14.1-5.3-23.5-18.8-23.7-33.9C297.2,420.7,300,412.7,305.2,406.2L305.2,406.2z"/>
</svg>
