<svg xmlns="http://www.w3.org/2000/svg" width="60" height="65.143" viewBox="0 0 60 65.143">
  <g id="Back_up_restoration_" data-name="Back up restoration " transform="translate(-858 -681)">
    <g id="noun_backup_790979" transform="translate(843 669)">
      <g id="Group_431" data-name="Group 431" transform="translate(15 12)">
        <path id="Path_675" data-name="Path 675" d="M30.283,965.2a2.064,2.064,0,0,0,.663,2.312l5.546,3.189a29.994,29.994,0,1,0,13.076-.884,2.008,2.008,0,0,0-1.961,1.591,1.776,1.776,0,0,0,1.425,1.786,26.584,26.584,0,0,1,22.239,30.338v.053a26.572,26.572,0,1,1-34.243-29.453l-2.947,5.119a1.717,1.717,0,1,0,2.974,1.715c2-3.465,3.99-6.939,6-10.4q-5.189-3.018-10.4-6a1.793,1.793,0,0,0-2.378.636Z" transform="translate(-15 -964.362)" fill="#002f64"/>
      </g>
    </g>
    <path id="Path_677" data-name="Path 677" d="M876.748,708.3c.632-3.594,1.086-4.792,4.845-5.193s8.45-2.068,13.644,0,4.293,4.395,4.293,4.395l-.687,2.887s-7.964,4.365-10.8,2.626S876.116,711.9,876.748,708.3Z" fill="#5fc2ff"/>
    <g id="noun_Data_1743059" transform="translate(1012 694)">
      <g id="Group_432" data-name="Group 432" transform="translate(-150 -950.362)">
        <path id="Path_676" data-name="Path 676" d="M26.273,958.362a21.518,21.518,0,0,0-8.469,1.555,8.423,8.423,0,0,0-2.706,1.768,3.606,3.606,0,0,0-1.1,2.472v18.409a3.582,3.582,0,0,0,1.1,2.461,8.442,8.442,0,0,0,2.706,1.779,21.518,21.518,0,0,0,8.469,1.555,21.518,21.518,0,0,0,8.469-1.555,8.44,8.44,0,0,0,2.706-1.779,3.582,3.582,0,0,0,1.1-2.461V964.158a3.607,3.607,0,0,0-1.1-2.472,8.423,8.423,0,0,0-2.706-1.768A21.518,21.518,0,0,0,26.273,958.362Zm0,1.364a20.33,20.33,0,0,1,7.916,1.438,7.205,7.205,0,0,1,2.269,1.47,1.953,1.953,0,0,1,0,3.036,7.206,7.206,0,0,1-2.269,1.47,20.317,20.317,0,0,1-7.916,1.449,20.317,20.317,0,0,1-7.916-1.449,7.2,7.2,0,0,1-2.269-1.47,1.953,1.953,0,0,1,0-3.036,7.2,7.2,0,0,1,2.269-1.47A20.33,20.33,0,0,1,26.273,959.726Zm-10.909,7.149A8.935,8.935,0,0,0,17.8,968.4a21.516,21.516,0,0,0,8.469,1.555,21.516,21.516,0,0,0,8.469-1.555,8.935,8.935,0,0,0,2.44-1.523v3.42a2.188,2.188,0,0,1-.724,1.513,7.206,7.206,0,0,1-2.269,1.47,20.317,20.317,0,0,1-7.916,1.449,20.317,20.317,0,0,1-7.916-1.449,7.2,7.2,0,0,1-2.269-1.47,2.188,2.188,0,0,1-.724-1.513v-3.42Zm0,6.136a8.932,8.932,0,0,0,2.44,1.523,21.516,21.516,0,0,0,8.469,1.555,21.516,21.516,0,0,0,8.469-1.555,8.935,8.935,0,0,0,2.44-1.523v3.42a2.188,2.188,0,0,1-.724,1.513,7.206,7.206,0,0,1-2.269,1.47,20.319,20.319,0,0,1-7.916,1.449,20.319,20.319,0,0,1-7.916-1.449,7.2,7.2,0,0,1-2.269-1.47,2.188,2.188,0,0,1-.724-1.513v-3.42Zm0,6.136a8.929,8.929,0,0,0,2.44,1.523,21.516,21.516,0,0,0,8.469,1.556,21.516,21.516,0,0,0,8.469-1.556,8.932,8.932,0,0,0,2.44-1.523v3.42a2.188,2.188,0,0,1-.724,1.513,7.142,7.142,0,0,1-2.259,1.47A20.374,20.374,0,0,1,26.273,987a20.317,20.317,0,0,1-7.916-1.449,7.2,7.2,0,0,1-2.269-1.47,2.188,2.188,0,0,1-.724-1.513v-3.42Z" transform="translate(0)" fill="#002f64" stroke="#002f64" stroke-width="1"/>
      </g>
    </g>
  </g>
</svg>
