<svg xmlns="http://www.w3.org/2000/svg" width="48.848" height="53" viewBox="0 0 48.848 53">
  <g id="Backup_Restoration_Request" data-name="Backup &amp; Restoration Request" transform="translate(-163.184 144.538)">
    <path id="Path_490" data-name="Path 490" d="M34.567,69.444A1.48,1.48,0,0,1,33.1,67.978V65.267a1.467,1.467,0,1,1,2.933,0v1.289H45.1V65.311a1.467,1.467,0,1,1,2.933,0v2.711a1.48,1.48,0,0,1-1.467,1.467h-12Z" transform="translate(147.09 -175.85)" fill="#004a9f"/>
    <path id="Path_491" data-name="Path 491" d="M41.811,31h2.667a1.1,1.1,0,0,1,1.111,1.111v6.711H47.5a1.075,1.075,0,0,1,.756,1.822l-4.311,4.667a1.078,1.078,0,0,1-1.6,0l-4.311-4.667a1.075,1.075,0,0,1,.756-1.822H40.7V32.111A1.1,1.1,0,0,1,41.811,31Z" transform="translate(144.512 -157.627)" fill="#004a9f"/>
    <path id="Path_492" data-name="Path 492" d="M57.67,31.251A20.094,20.094,0,0,0,37.6,11.18H32.972v2.286a1.948,1.948,0,0,1-1,1.673,1.765,1.765,0,0,1-.892.223,2.087,2.087,0,0,1-1-.279l-7.081-4.516A1.871,1.871,0,0,1,22.1,8.95a1.942,1.942,0,0,1,.892-1.617l7.081-4.572a1.932,1.932,0,0,1,2.955,1.617V6.832h4.627a24.413,24.413,0,0,1,24.42,24.42A2.177,2.177,0,0,1,59.9,33.426,2.226,2.226,0,0,1,57.67,31.251Z" transform="translate(149.958 -147)" fill="#5fc2ff"/>
    <path id="Path_493" data-name="Path 493" d="M17.622,28.568a18.3,18.3,0,0,0-1.505,2.119,2.152,2.152,0,0,1-1.84,1.059,2.01,2.01,0,0,1-1.115-.335,2.088,2.088,0,0,1-1-1.394,2.043,2.043,0,0,1,.279-1.617,27.737,27.737,0,0,1,1.84-2.62A2.215,2.215,0,0,1,15.727,25h.223a2.253,2.253,0,0,1,1.394.5,2.215,2.215,0,0,1,.781,1.45A2.239,2.239,0,0,1,17.622,28.568Z" transform="translate(154.38 -156.973)" fill="#5fc2ff"/>
    <path id="Path_494" data-name="Path 494" d="M9.233,61.056A1.9,1.9,0,0,1,9.79,61a2.259,2.259,0,0,1,2.119,1.617A12.92,12.92,0,0,0,12.8,65.07a2.174,2.174,0,0,1-1.171,2.843,2.237,2.237,0,0,1-.836.167,2.118,2.118,0,0,1-2.007-1.338c-.39-1-.781-2.007-1.059-3.011a2.2,2.2,0,0,1,1.505-2.676Z" transform="translate(156.357 -172.902)" fill="#5fc2ff"/>
    <path id="Path_495" data-name="Path 495" d="M6.639,43.828A2.2,2.2,0,0,1,8.758,42.1a1.228,1.228,0,0,1,.446.056A2.2,2.2,0,0,1,10.6,43.1a2.112,2.112,0,0,1,.335,1.617c-.167.836-.279,1.728-.39,2.565a2.181,2.181,0,1,1-4.349-.335C6.3,45.891,6.472,44.832,6.639,43.828Z" transform="translate(157 -164.539)" fill="#5fc2ff"/>
    <path id="Path_496" data-name="Path 496" d="M19.023,77.4h.056a2.21,2.21,0,0,1,1.505.669c.613.613,1.227,1.227,1.9,1.784a2.146,2.146,0,0,1,.279,3.066,2.09,2.09,0,0,1-1.673.781,2.141,2.141,0,0,1-1.394-.5,21.629,21.629,0,0,1-2.342-2.174,2.087,2.087,0,0,1-.558-1.561,2.21,2.21,0,0,1,.669-1.505A2.8,2.8,0,0,1,19.023,77.4Z" transform="translate(152.309 -180.158)" fill="#5fc2ff"/>
    <path id="Path_497" data-name="Path 497" d="M82.723,65.15a2.2,2.2,0,0,1,1.115-1.227,2.627,2.627,0,0,1,.948-.223,2.825,2.825,0,0,1,.725.112A2.146,2.146,0,0,1,86.793,66.6a19.118,19.118,0,0,1-1.282,2.9,2.188,2.188,0,0,1-1.951,1.171,3.256,3.256,0,0,1-1-.223,2.214,2.214,0,0,1-.948-2.955A11.307,11.307,0,0,0,82.723,65.15Z" transform="translate(123.734 -174.096)" fill="#5fc2ff"/>
    <path id="Path_498" data-name="Path 498" d="M72.044,80.058a2.064,2.064,0,0,1,1.45-.558h.112a2.049,2.049,0,0,1,1.505.725,2.087,2.087,0,0,1,.558,1.561A2.21,2.21,0,0,1,75,83.291,27.56,27.56,0,0,1,72.546,85.3a2.058,2.058,0,0,1-1.282.39,2.078,2.078,0,0,1-1.784-.948,2.35,2.35,0,0,1-.39-1.617,2.117,2.117,0,0,1,.892-1.394A19.335,19.335,0,0,0,72.044,80.058Z" transform="translate(129.172 -181.087)" fill="#5fc2ff"/>
    <path id="Path_499" data-name="Path 499" d="M33.947,88.023a1.832,1.832,0,0,1,.948-.223,3.263,3.263,0,0,1,.725.112,21.241,21.241,0,0,0,2.509.725,2.2,2.2,0,0,1,1.394.948A1.875,1.875,0,0,1,39.8,91.2a2.2,2.2,0,0,1-2.119,1.728,1.228,1.228,0,0,1-.446-.056,21.2,21.2,0,0,1-3.066-.892,2.2,2.2,0,0,1-1.227-1.115,2.169,2.169,0,0,1-.056-1.673A1.991,1.991,0,0,1,33.947,88.023Z" transform="translate(145.247 -184.76)" fill="#5fc2ff"/>
    <path id="Path_500" data-name="Path 500" d="M53.385,89.239a18.968,18.968,0,0,0,2.565-.5,2.2,2.2,0,0,1,1.673.223,2.035,2.035,0,0,1,1,1.338,2.2,2.2,0,0,1-.223,1.673,2.035,2.035,0,0,1-1.338,1,19.33,19.33,0,0,1-3.122.613,2.423,2.423,0,0,1-1.617-.39,2.161,2.161,0,0,1-.836-1.45,2.126,2.126,0,0,1,.446-1.617A2.479,2.479,0,0,1,53.385,89.239Z" transform="translate(136.96 -185.14)" fill="#5fc2ff"/>
  </g>
</svg>
