<svg xmlns="http://www.w3.org/2000/svg" width="60" height="53.344" viewBox="0 0 60 53.344">
  <g id="Back_up_Restoration_" data-name="Back up Restoration " transform="translate(-1 -4.6)">
    <g id="Group_240" data-name="Group 240" transform="translate(1 4.6)">
      <g id="Group_230" data-name="Group 230" transform="translate(6.469 7.312)">
        <rect id="Rectangle_93" data-name="Rectangle 93" width="8.813" height="2.531" fill="#5fc2ff"/>
      </g>
      <g id="Group_231" data-name="Group 231">
        <path id="Path_309" data-name="Path 309" d="M19.938,4.6H3.719A2.721,2.721,0,0,0,1,7.319V55.225a2.721,2.721,0,0,0,2.719,2.719H19.937a2.721,2.721,0,0,0,2.719-2.719V7.319A2.721,2.721,0,0,0,19.938,4.6ZM16.281,52.412H7.469a.938.938,0,0,1,0-1.875h8.813a.886.886,0,0,1,.938.938A1.008,1.008,0,0,1,16.281,52.412Zm0-6.937H7.469a.938.938,0,0,1,0-1.875h8.813a.886.886,0,0,1,.938.938A.939.939,0,0,1,16.281,45.475Zm-8.625-12a4.282,4.282,0,0,1,4.219-4.312,4.314,4.314,0,0,1,0,8.625A4.223,4.223,0,0,1,7.656,33.475Zm10.5-8.625a.886.886,0,0,1-.937.938H6.531a.886.886,0,0,1-.937-.937V20.444a.886.886,0,0,1,.938-.937H17.219a.886.886,0,0,1,.938.938Zm0-9.469a.886.886,0,0,1-.937.938H6.531a.886.886,0,0,1-.937-.937V10.975a.886.886,0,0,1,.938-.937H17.219a.886.886,0,0,1,.938.938Z" transform="translate(-1 -4.6)" fill="#5fc2ff"/>
      </g>
      <g id="Group_232" data-name="Group 232" transform="translate(6.469 16.875)">
        <rect id="Rectangle_94" data-name="Rectangle 94" width="8.813" height="2.531" fill="#5fc2ff"/>
      </g>
      <g id="Group_233" data-name="Group 233" transform="translate(8.531 26.438)">
        <path id="Path_310" data-name="Path 310" d="M14.788,35.237a2.346,2.346,0,1,0-2.344,2.438A2.344,2.344,0,0,0,14.788,35.237Z" transform="translate(-10.1 -32.8)" fill="#5fc2ff"/>
      </g>
      <g id="Group_234" data-name="Group 234" transform="translate(46.781 26.438)">
        <path id="Path_311" data-name="Path 311" d="M55.588,35.237a2.346,2.346,0,1,0-2.344,2.438A2.344,2.344,0,0,0,55.588,35.237Z" transform="translate(-50.9 -32.8)" fill="#004a9f"/>
      </g>
      <g id="Group_235" data-name="Group 235" transform="translate(44.719 16.875)">
        <rect id="Rectangle_95" data-name="Rectangle 95" width="8.813" height="2.531" fill="#004a9f"/>
      </g>
      <g id="Group_236" data-name="Group 236" transform="translate(44.719 7.312)">
        <rect id="Rectangle_96" data-name="Rectangle 96" width="8.813" height="2.531" fill="#004a9f"/>
      </g>
      <g id="Group_237" data-name="Group 237" transform="translate(38.344)">
        <path id="Path_312" data-name="Path 312" d="M60.838,4.6H44.619A2.721,2.721,0,0,0,41.9,7.319V55.225a2.721,2.721,0,0,0,2.719,2.719H60.838a2.721,2.721,0,0,0,2.719-2.719V7.319A2.721,2.721,0,0,0,60.838,4.6Zm-3.75,47.812H48.275a.937.937,0,0,1,0-1.875h8.813a.886.886,0,0,1,.938.938A.939.939,0,0,1,57.088,52.412Zm0-6.937H48.275a.937.937,0,0,1,0-1.875h8.813a.938.938,0,0,1,0,1.875Zm-8.625-12a4.22,4.22,0,1,1,4.219,4.313A4.223,4.223,0,0,1,48.463,33.475Zm10.5-8.625a.886.886,0,0,1-.937.938H47.338a.886.886,0,0,1-.937-.937V20.444a.886.886,0,0,1,.938-.937H58.025a.886.886,0,0,1,.938.938Zm0-9.469a.886.886,0,0,1-.937.938H47.338a.886.886,0,0,1-.937-.937V10.975a.886.886,0,0,1,.938-.937H58.025a.886.886,0,0,1,.938.938Z" transform="translate(-41.9 -4.6)" fill="#004a9f"/>
      </g>
      <g id="Group_238" data-name="Group 238" transform="translate(23.906 11.368)">
        <path id="Path_313" data-name="Path 313" d="M35.219,17.077a.938.938,0,0,0-1.5,1.125l1.969,2.531h-8.25a.938.938,0,0,0,0,1.875h8.25l-1.969,2.531a.938.938,0,0,0,1.5,1.125c2.813-3.75,3.375-4.031,3.375-4.594h0C38.594,21.108,37.844,20.639,35.219,17.077Z" transform="translate(-26.5 -16.726)" fill="#5fc2ff"/>
      </g>
      <g id="Group_239" data-name="Group 239" transform="translate(23.906 31.871)">
        <path id="Path_314" data-name="Path 314" d="M37.656,42.631h-8.25L31.375,40.1a.938.938,0,1,0-1.5-1.125c-1.031,1.313-3.094,3.938-3.281,4.219a.7.7,0,0,0-.094.469h0c0,.563.375.75,3.375,4.594a.938.938,0,1,0,1.5-1.125L29.406,44.6h8.25a.886.886,0,0,0,.938-.937A.964.964,0,0,0,37.656,42.631Z" transform="translate(-26.5 -38.595)" fill="#004a9f"/>
      </g>
    </g>
  </g>
</svg>
