<svg xmlns="http://www.w3.org/2000/svg" width="60" height="52.003" viewBox="0 0 60 52.003">
  <g id="Business_Continuty" data-name="Business Continuty" transform="translate(-2.6 -9.2)">
    <g id="Group_241" data-name="Group 241" transform="translate(2.6 9.2)">
      <path id="Path_319" data-name="Path 319" d="M61.238,21.535H46.626v-8.6A3.739,3.739,0,0,0,42.894,9.2H22.273a3.7,3.7,0,0,0-3.732,3.732v8.6H3.928A1.3,1.3,0,0,0,2.6,22.863V57.591A3.307,3.307,0,0,0,5.889,60.88H43.337a13.584,13.584,0,1,1,19.23-19.1V22.863A1.3,1.3,0,0,0,61.238,21.535Zm-19.673,0H23.6V14.26H41.566Z" transform="translate(-2.6 -9.2)" fill="#5fc2ff"/>
      <g id="noun_Sync_5857" transform="translate(38.029 30.995)">
        <g id="Group_243" data-name="Group 243" transform="translate(0 0)">
          <g id="Group_242" data-name="Group 242" transform="translate(0 0)">
            <path id="Path_320" data-name="Path 320" d="M5.113,13.207l1.465-.013-2.955-2.9-2.9,2.955,1.465-.012a10.269,10.269,0,0,0,9.531,10.14c1.323-2.829,1.185-2.494,1.362-2.932-.191.017-.384.026-.578.027A7.331,7.331,0,0,1,5.113,13.207ZM7.4,7.825a7.33,7.33,0,0,1,10.353.286L16.693,9.117l4.141.114.114-4.141L19.884,6.1A10.266,10.266,0,0,0,3.251,8.578c.192.151.192.151,2.269,2.151A7.3,7.3,0,0,1,7.4,7.825ZM22.228,10.1A26.039,26.039,0,0,1,19.1,10.1c.021.046.041.091.061.138a7.33,7.33,0,0,1-3.821,9.627l-.58-1.344-1.528,3.85L17.082,23.9,16.5,22.559A10.27,10.27,0,0,0,22.228,10.1Z" transform="translate(-0.719 -2.896)" fill="#004a9f"/>
          </g>
        </g>
      </g>
    </g>
  </g>
</svg>
