<svg xmlns="http://www.w3.org/2000/svg" width="28.845" height="25" viewBox="0 0 28.845 25">
  <g id="Business_Continuity_" data-name="Business Continuity " transform="translate(-2.6 -9.2)">
    <g id="Group_241" data-name="Group 241" transform="translate(2.6 9.2)">
      <path id="Path_319" data-name="Path 319" d="M30.79,15.13H23.765V10.994A1.8,1.8,0,0,0,21.971,9.2H12.057a1.778,1.778,0,0,0-1.794,1.794V15.13H3.239a.624.624,0,0,0-.639.639v16.7a1.59,1.59,0,0,0,1.581,1.581h18a6.53,6.53,0,1,1,9.245-9.184V15.769A.624.624,0,0,0,30.79,15.13Zm-9.457,0H12.7v-3.5h8.636Z" transform="translate(-2.6 -9.2)" fill="#2676ff"/>
      <g id="noun_Sync_5857" transform="translate(18.282 14.901)">
        <g id="Group_243" data-name="Group 243" transform="translate(0 0)">
          <g id="Group_242" data-name="Group 242" transform="translate(0 0)">
            <path id="Path_320" data-name="Path 320" d="M2.831,7.853l.7-.006-1.42-1.4-1.4,1.42.7-.006A4.937,4.937,0,0,0,6.005,12.74c.636-1.36.569-1.2.655-1.41-.092.008-.184.012-.278.013A3.524,3.524,0,0,1,2.831,7.853Zm1.1-2.588A3.524,3.524,0,0,1,8.91,5.4L8.4,5.887l1.991.055.055-1.991-.511.484a4.935,4.935,0,0,0-8,1.192c.092.073.092.073,1.091,1.034A3.507,3.507,0,0,1,3.932,5.265Zm7.127,1.093a12.518,12.518,0,0,1-1.5,0c.01.022.02.044.029.066a3.524,3.524,0,0,1-1.837,4.628l-.279-.646-.735,1.851L8.585,13l-.279-.646A4.937,4.937,0,0,0,11.059,6.358Z" transform="translate(-0.719 -2.896)" fill="#ff6c00"/>
          </g>
        </g>
      </g>
    </g>
  </g>
</svg>
