<svg xmlns="http://www.w3.org/2000/svg" width="60" height="48.138" viewBox="0 0 60 48.138">
  <g id="Change_Management_" data-name="Change Management " transform="translate(-7836 117)">
    <path id="Path_288" data-name="Path 288" d="M52.348,50.035H46.129a9.062,9.062,0,0,1-2.106-.29,16.055,16.055,0,0,1-3.682-1.436,12.064,12.064,0,0,1-2.9-2.093c-1.621-1.672-3.97-4.084-6.468-6.647,2.5-2.563,4.846-4.974,6.468-6.647a13.428,13.428,0,0,1,4.114-2.683,15.375,15.375,0,0,1,2.468-.846,9.063,9.063,0,0,1,2.106-.29h6.219v8.721L67,26.664,52.349,15.5v8.72H46.13a13.878,13.878,0,0,0-3.269.43,20.966,20.966,0,0,0-4.829,1.875,16.843,16.843,0,0,0-4.1,3c-1.6,1.648-3.907,4.02-6.371,6.548-2.716-2.786-5.307-5.447-7.051-7.245a18.148,18.148,0,0,0-5.666-3.759,20.356,20.356,0,0,0-3.261-1.113,13.882,13.882,0,0,0-3.269-.43H7v4.884H8.315a9.062,9.062,0,0,1,2.106.29A16.071,16.071,0,0,1,14.1,30.132,12.089,12.089,0,0,1,17,32.225c1.769,1.824,4.4,4.525,7.148,7.344C21.4,42.389,18.773,45.09,17,46.913A13.441,13.441,0,0,1,12.89,49.6a15.379,15.379,0,0,1-2.468.846,9.063,9.063,0,0,1-2.106.29H7v4.884H8.315a13.852,13.852,0,0,0,3.269-.43,20.935,20.935,0,0,0,4.829-1.875,16.847,16.847,0,0,0,4.1-3c1.744-1.8,4.336-4.459,7.051-7.245,2.463,2.528,4.774,4.9,6.371,6.548A18.136,18.136,0,0,0,39.6,53.375a20.287,20.287,0,0,0,3.261,1.113,13.879,13.879,0,0,0,3.269.43h6.219v8.721L67,52.477,52.349,41.314v8.721Z" transform="translate(7829 -132.501)" fill="#004a9f"/>
    <path id="Path_285" data-name="Path 285" d="M37.441,32.923a13.428,13.428,0,0,1,4.114-2.683,15.375,15.375,0,0,1,2.468-.846,9.063,9.063,0,0,1,2.106-.29h6.219v8.721L67,26.664,52.349,15.5v8.72H46.13a13.878,13.878,0,0,0-3.269.43,20.966,20.966,0,0,0-4.829,1.875,16.843,16.843,0,0,0-4.1,3C32.337,31.171,18.773,45.09,17,46.913A13.441,13.441,0,0,1,12.89,49.6a15.379,15.379,0,0,1-2.468.846,9.063,9.063,0,0,1-2.106.29H7v4.884H8.315a13.852,13.852,0,0,0,3.269-.43,20.935,20.935,0,0,0,4.829-1.875,16.847,16.847,0,0,0,4.1-3C22.256,48.514,35.819,34.6,37.441,32.923Z" transform="translate(7829 -132.501)" fill="#5fc2ff"/>
  </g>
</svg>
