<svg xmlns="http://www.w3.org/2000/svg" width="53.515" height="53.5" viewBox="0 0 53.515 53.5">
  <g id="Change_Request_" data-name="Change Request " transform="translate(-38.518 63.301)">
    <g id="Group_342" data-name="Group 342" transform="translate(39 -62.801)">
      <path id="Path_475" data-name="Path 475" d="M619.456,580.906a1.271,1.271,0,0,1-1.8.044c-.015-.015-.03-.029-.044-.044a1.4,1.4,0,0,1,0-1.841l7.036-6.181H605.385a1.184,1.184,0,1,1,0-2.367h19.267l-7.1-6.181a1.4,1.4,0,0,1,0-1.841,1.346,1.346,0,0,1,1.9,0h0l8.483,8.285a1.4,1.4,0,0,1,0,1.841Z" transform="translate(-575.251 -560.85)" fill="#004a9f" fill-rule="evenodd"/>
      <path id="Subtraction_14" data-name="Subtraction 14" d="M19.529,21.7H4.6A4.658,4.658,0,0,1,0,17.1V4.6A4.659,4.659,0,0,1,4.6,0H19.529a4.661,4.661,0,0,1,4.6,4.6V17.1a4.66,4.66,0,0,1-4.6,4.6Zm-7.5-16.9a6.034,6.034,0,1,0,.031,0Z" transform="translate(0.018)" fill="#5fc2ff" stroke="rgba(0,0,0,0)" stroke-miterlimit="10" stroke-width="1"/>
      <path id="Path_478" data-name="Path 478" d="M569,609.994a1.348,1.348,0,0,1,1.907,0,1.269,1.269,0,0,1,.047,1.794c-.015.016-.031.032-.047.047l-7.1,6.181h19.267a1.184,1.184,0,0,1,0,2.367H563.743l7.036,6.181a1.269,1.269,0,0,1,.047,1.794c-.015.016-.031.032-.047.047a1.026,1.026,0,0,1-.855.526,1.3,1.3,0,0,1-.921-.395l-8.483-8.417a1.4,1.4,0,0,1,0-1.841Z" transform="translate(-560.175 -577.116)" fill="#004a9f" fill-rule="evenodd"/>
      <path id="Path_479" data-name="Path 479" d="M618.651,607.8a10.85,10.85,0,1,1-10.85,10.85A10.85,10.85,0,0,1,618.651,607.8Z" transform="translate(-576.484 -576.5)" fill="#5fc2ff" fill-rule="evenodd"/>
    </g>
  </g>
</svg>
