<?xml version="1.0" encoding="utf-8"?>
<!-- Generator: Adobe Illustrator 18.1.1, SVG Export Plug-In . SVG Version: 6.00 Build 0)  -->
<svg version="1.1" id="Layer_1" xmlns="http://www.w3.org/2000/svg" xmlns:xlink="http://www.w3.org/1999/xlink" x="0px" y="0px"
	 viewBox="-7164 6447.5 71 66.5" enable-background="new -7164 6447.5 71 66.5" xml:space="preserve">
<g id="Operational_Readiness_Check_" transform="translate(-723 -695.25)">
	<path id="Path_607" fill="#5FC2FF" d="M-6414.6,7149.6c0.9,0,6.8-0.6,7.5-0.7s1.2-3.6,2.2-3.7c0.8,0.1,1.7,0.3,2.4,0.7
		c0,0,0.5,2.9,1.6,3c1.1,0.1,6.4,0,6.4,0s1.3,5.4,0.7,5.6c-0.8,0.5-1.7,1-2.4,1.5h-19.3L-6414.6,7149.6z"/>
	<g id="Group_404" transform="translate(756.975 724.589)">
		<g id="Group_394" transform="translate(-2.85 0)">
			<g id="Group_392">
				<path id="Path_598" fill="#002F65" d="M-7160.7,6462.2c-0.7,0-1.5-0.3-2-0.8l-5.6-5.6c-1.1-1.1-1.1-2.9,0-4c1.1-1.1,2.9-1.1,4,0
					l3.6,3.6l9.1-9.1c1.1-1.1,2.9-1.1,4,0c1.1,1.1,1.1,2.9,0,4l0,0l-11.1,11.1C-7159.3,6461.9-7160,6462.2-7160.7,6462.2z"/>
			</g>
		</g>
	</g>
	<g id="Group_407" transform="translate(748 710)">
		<g id="Group_405">
			<path id="Path_606" fill="#002F65" d="M-7131,6441h-8.2c-0.2-2.3-2.1-4.1-4.4-4.1h-4.3c0-2.3-1.9-4.1-4.1-4.1
				c-2.3,0-4.1,1.9-4.1,4.1h-4.3c-2.3,0-4.2,1.8-4.4,4.1h-8.2c-0.8,0-1.5,0.7-1.5,1.5v54.1c0,0.8,0.7,1.5,1.5,1.5h41.9
				c0.8,0,1.5-0.7,1.5-1.5v-54.1C-7129.5,6441.6-7130.2,6441-7131,6441z M-7161.8,6441.3c0-0.8,0.6-1.4,1.4-1.4c0,0,0,0,0,0h4.7
				c1.4,0,2.6-1.2,2.6-2.6v-0.3c0-0.6,0.5-1.2,1.2-1.2c0.6,0,1.2,0.5,1.2,1.2c0,0,0,0,0,0v0.3c0,1.4,1.2,2.6,2.6,2.6h4.7
				c0.8,0,1.4,0.6,1.4,1.4c0,0,0,0,0,0v3.1h-19.6C-7161.8,6444.3-7161.8,6441.3-7161.8,6441.3z M-7132.5,6495.1h-39V6444h6.7v1.9
				c0,0.8,0.7,1.5,1.5,1.5h22.6c0.8,0,1.5-0.7,1.5-1.5v-1.9h6.7L-7132.5,6495.1L-7132.5,6495.1z"/>
		</g>
		<g id="Group_406" transform="translate(11.268 3.896)">
			<circle id="Ellipse_32" fill="#002F65" cx="-7163.2" cy="6437.6" r="1.4"/>
		</g>
	</g>
</g>
</svg>
