<?xml version="1.0" encoding="utf-8"?>
<!-- Generator: Adobe Illustrator 18.1.1, SVG Export Plug-In . SVG Version: 6.00 Build 0)  -->
<svg version="1.1" id="Layer_1" xmlns="http://www.w3.org/2000/svg" xmlns:xlink="http://www.w3.org/1999/xlink" x="0px" y="0px"
	 width="66px" height="65px" viewBox="-272 364 66 65" enable-background="new -272 364 66 65" xml:space="preserve">
<g id="Clinical_Audit_" transform="translate(-409.704 -695.001)">
	<path id="Subtraction_23" fill="#002F64" d="M187.9,1124h-34.4c-1.1,0-2.2-0.3-3.3-0.8c-0.9-0.4-1.7-1.1-2.2-1.9
		c-0.7-1.1-1.1-2.4-1-3.8V1092h3.3v25.5c-0.1,1.2,0.6,2.3,1.6,2.8c0.5,0.2,1.1,0.4,1.6,0.4h34.4c0,0,0.1,0,0.2,0
		c1.6,0.1,3-1.2,3-2.9c0-0.1,0-0.3,0-0.4V1092h3.3v25.5c0,1.3-0.3,2.6-1,3.8c-0.6,0.8-1.3,1.5-2.2,1.9
		C190.2,1123.7,189.1,1124,187.9,1124z M194.4,1084h-3.3v-13.3c0.1-1.2-0.6-2.3-1.6-2.8c-0.5-0.2-1.1-0.4-1.6-0.4h-6.5v-3.3h6.5
		c1.1,0,2.2,0.3,3.3,0.8c0.9,0.4,1.7,1.1,2.2,1.9c0.7,1.1,1.1,2.4,1,3.8V1084L194.4,1084z M150.2,1084H147v-13.3
		c0-1.3,0.3-2.6,1-3.8c0.6-0.8,1.3-1.5,2.2-1.9c1-0.5,2.1-0.8,3.3-0.8h6.5v3.3h-6.5c-0.6,0-1.1,0.2-1.6,0.4
		c-1.1,0.5-1.7,1.7-1.6,2.8L150.2,1084L150.2,1084z M176.9,1068.1h-12.3c-0.7,0-1.3-0.6-1.3-1.3v-1.9c0-0.7,0.6-1.3,1.3-1.3h1.9l0,0
		c0-0.8,0.2-1.6,0.5-2.3c0.6-1.5,2.1-2.4,3.7-2.3c1.6-0.1,3.1,0.8,3.7,2.3c0.3,0.7,0.5,1.5,0.5,2.3h1.9c0.7,0,1.3,0.6,1.3,1.3v1.9
		C178.2,1067.5,177.6,1068.1,176.9,1068.1L176.9,1068.1z"/>
	<g id="Group_455" transform="translate(0 1)">
		<path id="Path_703" fill="none" stroke="#002F64" stroke-width="3" d="M140.9,1087.1h24.7l2-4.9l4,7.5l5.3-11l2.5,8.3h21.5"/>
		<circle id="Ellipse_51" fill="#002F64" cx="141.7" cy="1087.4" r="4"/>
		<circle id="Ellipse_52" fill="#002F64" cx="199.7" cy="1086.4" r="4"/>
	</g>
	<g id="Group_456" transform="translate(0 3)">
		<path id="Path" fill="#002F64" d="M166.9,1100.5c0-0.8-0.7-1.5-1.5-1.5h-9c-0.8,0-1.4,0.7-1.4,1.5c0,0.7,0.6,1.3,1.4,1.4h9
			C166.2,1102,166.9,1101.3,166.9,1100.5z"/>
		<path id="Path-2" fill="#002F64" d="M171,1107.5c0-0.8-0.9-1.5-2-1.5H157c-1.1,0-2,0.6-2,1.5s0.9,1.5,2,1.5H169
			C170.1,1109,171,1108.3,171,1107.5z"/>
		<path id="Path-3" fill="#002F64" d="M185.9,1100.5c-0.1-0.9-0.9-1.5-1.9-1.5h-11.5c-0.8-0.2-1.6,0.3-1.8,1.1
			c-0.2,0.8,0.3,1.6,1.1,1.8c0.3,0.1,0.5,0.1,0.8,0H184C184.9,1102.1,185.7,1101.4,185.9,1100.5z"/>
		<path id="Path-4" fill="#002F64" d="M185.9,1107.5c0-0.8-0.7-1.5-1.5-1.5h-9c-0.8,0-1.4,0.7-1.4,1.5c0,0.7,0.6,1.3,1.4,1.4h9
			C185.2,1109,185.9,1108.3,185.9,1107.5z"/>
	</g>
</g>
</svg>
