<svg xmlns="http://www.w3.org/2000/svg" xmlns:xlink="http://www.w3.org/1999/xlink" version="1.1" width="1000" height="1000" viewBox="0 0 1000 1000" xml:space="preserve">
<desc>Created with Fabric.js 3.5.0</desc>
<defs>
</defs>
<rect x="0" y="0" width="100%" height="100%" fill="rgba(255,255,255,0)"/>
<g transform="matrix(9.8722 0 0 11.5381 517.8406 499.9988)" id="788372">
<g style="" vector-effect="non-scaling-stroke">
		<g transform="matrix(1 0 0 1 0 4.1105)" id="Path_557">
<path style="stroke: none; stroke-width: 1; stroke-dasharray: none; stroke-linecap: butt; stroke-dashoffset: 0; stroke-linejoin: miter; stroke-miterlimit: 4; is-custom-font: none; font-file-url: none; fill: rgb(255,255,255); fill-rule: nonzero; opacity: 1;" transform=" translate(240.5, -392.6856)" d="M -214.5 367.8 c -0.1 -0.1 -51.5 0.1 -52 0 c -3.6 0 -6.5 2.9 -6.5 6.5 v 36.8 c 0 3.6 2.9 6.5 6.5 6.5 h 52 c 3.6 0 6.5 -2.9 6.5 -6.5 v -36.8 C -208 370.8 -210.9 367.8 -214.5 367.8 z M -266.5 372.2 c 15.9 -0.1 41.7 -0.3 52 0 c 1.2 0 2.2 1 2.2 2.2 v 4.3 h -56.3 v -4.3 C -268.7 373.1 -267.7 372.2 -266.5 372.2 z M -214.5 413.3 h -52 c -1.2 0 -2.2 -1 -2.2 -2.2 V 383 h 56.3 v 28.2 C -212.3 412.4 -213.3 413.3 -214.5 413.3 z" stroke-linecap="round"/>
</g>
		<g transform="matrix(1 0 0 1 13.6067 7.365)" id="Path_558">
<path style="stroke: none; stroke-width: 1; stroke-dasharray: none; stroke-linecap: butt; stroke-dashoffset: 0; stroke-linejoin: miter; stroke-miterlimit: 4; is-custom-font: none; font-file-url: none; fill: rgb(255,255,255); fill-rule: nonzero; opacity: 1;" transform=" translate(226.8933, -395.9399)" d="M -220.5 389 l -9.5 10.8 l -3.4 -3.4 c -0.6 -0.6 -1.5 -0.6 -2.1 0 c -0.6 0.6 -0.6 1.5 0 2.1 l 0 0 l 4.5 4.5 c 0.3 0.3 0.7 0.4 1.1 0.4 h 0.1 c 0.4 0 0.8 -0.2 1.1 -0.5 l 10.5 -12 c 0.5 -0.6 0.5 -1.6 -0.1 -2.1 C -219 388.3 -220 388.4 -220.5 389 z" stroke-linecap="round"/>
</g>
		<g transform="matrix(1 0 0 1 -21.5 3.857)" id="Path_559">
<path style="stroke: rgb(255,255,255); stroke-width: 5; stroke-dasharray: none; stroke-linecap: round; stroke-dashoffset: 0; stroke-linejoin: round; stroke-miterlimit: 4; is-custom-font: none; font-file-url: none; fill: none; fill-rule: nonzero; opacity: 1;" transform=" translate(-176, -611.6)" d="M 176 611.6 L 176 611.6 z" stroke-linecap="round"/>
</g>
		<g transform="matrix(1 0 0 1 -16.4 -26.643)" id="Path_561">
<path style="stroke: rgb(57,180,255); stroke-width: 5; stroke-dasharray: none; stroke-linecap: round; stroke-dashoffset: 0; stroke-linejoin: round; stroke-miterlimit: 4; is-custom-font: none; font-file-url: none; fill: none; fill-rule: nonzero; opacity: 1;" transform=" translate(-181.1, -581.1)" d="M 181.1 581.1 L 181.1 581.1 z" stroke-linecap="round"/>
</g>
		<g transform="matrix(1 0 0 1 16.2 -26.643)" id="Path_562">
<path style="stroke: rgb(57,180,255); stroke-width: 5; stroke-dasharray: none; stroke-linecap: round; stroke-dashoffset: 0; stroke-linejoin: round; stroke-miterlimit: 4; is-custom-font: none; font-file-url: none; fill: none; fill-rule: nonzero; opacity: 1;" transform=" translate(-213.7, -581.1)" d="M 213.7 581.1 L 213.7 581.1 z" stroke-linecap="round"/>
</g>
		<g transform="matrix(1 0 0 1 -21.5 15.557)" id="Path_560">
<path style="stroke: rgb(255,255,255); stroke-width: 5; stroke-dasharray: none; stroke-linecap: round; stroke-dashoffset: 0; stroke-linejoin: round; stroke-miterlimit: 4; is-custom-font: none; font-file-url: none; fill: none; fill-rule: nonzero; opacity: 1;" transform=" translate(-176, -623.3)" d="M 176 623.3 L 176 623.3 z" stroke-linecap="round"/>
</g>
		<g transform="matrix(1 0 0 1 -21 4.057)" id="Compliance_">
<ellipse style="stroke: none; stroke-width: 1; stroke-dasharray: none; stroke-linecap: butt; stroke-dashoffset: 0; stroke-linejoin: miter; stroke-miterlimit: 4; is-custom-font: none; font-file-url: none; fill: rgb(255,255,255); fill-rule: nonzero; opacity: 1;" cx="0" cy="0" rx="3" ry="3"/>
</g>
		<g transform="matrix(1 0 0 1 -21 -24.943)" id="Compliance_">
<ellipse style="stroke: none; stroke-width: 1; stroke-dasharray: none; stroke-linecap: butt; stroke-dashoffset: 0; stroke-linejoin: miter; stroke-miterlimit: 4; is-custom-font: none; font-file-url: none; fill: rgb(255,255,255); fill-rule: nonzero; opacity: 1;" cx="0" cy="0" rx="3" ry="3"/>
</g>
		<g transform="matrix(1 0 0 1 20 -24.943)" id="Compliance_">
<ellipse style="stroke: none; stroke-width: 1; stroke-dasharray: none; stroke-linecap: butt; stroke-dashoffset: 0; stroke-linejoin: miter; stroke-miterlimit: 4; is-custom-font: none; font-file-url: none; fill: rgb(255,255,255); fill-rule: nonzero; opacity: 1;" cx="0" cy="0" rx="3" ry="3"/>
</g>
		<g transform="matrix(1 0 0 1 -21 16.057)" id="Compliance_">
<ellipse style="stroke: none; stroke-width: 1; stroke-dasharray: none; stroke-linecap: butt; stroke-dashoffset: 0; stroke-linejoin: miter; stroke-miterlimit: 4; is-custom-font: none; font-file-url: none; fill: rgb(255,255,255); fill-rule: nonzero; opacity: 1;" cx="0" cy="0" rx="3" ry="3"/>
</g>
</g>
</g>
<g transform="matrix(0.5385 0 0 0.5385 245.8829 270.8103)" id="654378">
<g style="" vector-effect="non-scaling-stroke">
		<g transform="matrix(1 0 0 1 0 4.1105)" id="Path_557">
<path style="stroke: none; stroke-width: 1; stroke-dasharray: none; stroke-linecap: butt; stroke-dashoffset: 0; stroke-linejoin: miter; stroke-miterlimit: 4; is-custom-font: none; font-file-url: none; fill: rgb(255,255,255); fill-rule: nonzero; opacity: 1;" transform=" translate(240.5, -392.6856)" d="M -214.5 367.8 c -0.1 -0.1 -51.5 0.1 -52 0 c -3.6 0 -6.5 2.9 -6.5 6.5 v 36.8 c 0 3.6 2.9 6.5 6.5 6.5 h 52 c 3.6 0 6.5 -2.9 6.5 -6.5 v -36.8 C -208 370.8 -210.9 367.8 -214.5 367.8 z M -266.5 372.2 c 15.9 -0.1 41.7 -0.3 52 0 c 1.2 0 2.2 1 2.2 2.2 v 4.3 h -56.3 v -4.3 C -268.7 373.1 -267.7 372.2 -266.5 372.2 z M -214.5 413.3 h -52 c -1.2 0 -2.2 -1 -2.2 -2.2 V 383 h 56.3 v 28.2 C -212.3 412.4 -213.3 413.3 -214.5 413.3 z" stroke-linecap="round"/>
</g>
		<g transform="matrix(1 0 0 1 13.6067 7.365)" id="Path_558">
<path style="stroke: none; stroke-width: 1; stroke-dasharray: none; stroke-linecap: butt; stroke-dashoffset: 0; stroke-linejoin: miter; stroke-miterlimit: 4; is-custom-font: none; font-file-url: none; fill: rgb(255,255,255); fill-rule: nonzero; opacity: 1;" transform=" translate(226.8933, -395.9399)" d="M -220.5 389 l -9.5 10.8 l -3.4 -3.4 c -0.6 -0.6 -1.5 -0.6 -2.1 0 c -0.6 0.6 -0.6 1.5 0 2.1 l 0 0 l 4.5 4.5 c 0.3 0.3 0.7 0.4 1.1 0.4 h 0.1 c 0.4 0 0.8 -0.2 1.1 -0.5 l 10.5 -12 c 0.5 -0.6 0.5 -1.6 -0.1 -2.1 C -219 388.3 -220 388.4 -220.5 389 z" stroke-linecap="round"/>
</g>
		<g transform="matrix(1 0 0 1 -21.5 3.857)" id="Path_559">
<path style="stroke: rgb(255,255,255); stroke-width: 5; stroke-dasharray: none; stroke-linecap: round; stroke-dashoffset: 0; stroke-linejoin: round; stroke-miterlimit: 4; is-custom-font: none; font-file-url: none; fill: none; fill-rule: nonzero; opacity: 1;" transform=" translate(-176, -611.6)" d="M 176 611.6 L 176 611.6 z" stroke-linecap="round"/>
</g>
		<g transform="matrix(1 0 0 1 -16.4 -26.643)" id="Path_561">
<path style="stroke: rgb(57,180,255); stroke-width: 5; stroke-dasharray: none; stroke-linecap: round; stroke-dashoffset: 0; stroke-linejoin: round; stroke-miterlimit: 4; is-custom-font: none; font-file-url: none; fill: none; fill-rule: nonzero; opacity: 1;" transform=" translate(-181.1, -581.1)" d="M 181.1 581.1 L 181.1 581.1 z" stroke-linecap="round"/>
</g>
		<g transform="matrix(1 0 0 1 16.2 -26.643)" id="Path_562">
<path style="stroke: rgb(57,180,255); stroke-width: 5; stroke-dasharray: none; stroke-linecap: round; stroke-dashoffset: 0; stroke-linejoin: round; stroke-miterlimit: 4; is-custom-font: none; font-file-url: none; fill: none; fill-rule: nonzero; opacity: 1;" transform=" translate(-213.7, -581.1)" d="M 213.7 581.1 L 213.7 581.1 z" stroke-linecap="round"/>
</g>
		<g transform="matrix(1 0 0 1 -21.5 15.557)" id="Path_560">
<path style="stroke: rgb(255,255,255); stroke-width: 5; stroke-dasharray: none; stroke-linecap: round; stroke-dashoffset: 0; stroke-linejoin: round; stroke-miterlimit: 4; is-custom-font: none; font-file-url: none; fill: none; fill-rule: nonzero; opacity: 1;" transform=" translate(-176, -623.3)" d="M 176 623.3 L 176 623.3 z" stroke-linecap="round"/>
</g>
		<g transform="matrix(1 0 0 1 -21 4.057)" id="Compliance_">
<ellipse style="stroke: none; stroke-width: 1; stroke-dasharray: none; stroke-linecap: butt; stroke-dashoffset: 0; stroke-linejoin: miter; stroke-miterlimit: 4; is-custom-font: none; font-file-url: none; fill: rgb(255,255,255); fill-rule: nonzero; opacity: 1;" cx="0" cy="0" rx="3" ry="3"/>
</g>
		<g transform="matrix(1 0 0 1 -21 -24.943)" id="Compliance_">
<ellipse style="stroke: none; stroke-width: 1; stroke-dasharray: none; stroke-linecap: butt; stroke-dashoffset: 0; stroke-linejoin: miter; stroke-miterlimit: 4; is-custom-font: none; font-file-url: none; fill: rgb(255,255,255); fill-rule: nonzero; opacity: 1;" cx="0" cy="0" rx="3" ry="3"/>
</g>
		<g transform="matrix(1 0 0 1 20 -24.943)" id="Compliance_">
<ellipse style="stroke: none; stroke-width: 1; stroke-dasharray: none; stroke-linecap: butt; stroke-dashoffset: 0; stroke-linejoin: miter; stroke-miterlimit: 4; is-custom-font: none; font-file-url: none; fill: rgb(255,255,255); fill-rule: nonzero; opacity: 1;" cx="0" cy="0" rx="3" ry="3"/>
</g>
		<g transform="matrix(1 0 0 1 -21 16.057)" id="Compliance_">
<ellipse style="stroke: none; stroke-width: 1; stroke-dasharray: none; stroke-linecap: butt; stroke-dashoffset: 0; stroke-linejoin: miter; stroke-miterlimit: 4; is-custom-font: none; font-file-url: none; fill: rgb(255,255,255); fill-rule: nonzero; opacity: 1;" cx="0" cy="0" rx="3" ry="3"/>
</g>
</g>
</g>
<g transform="matrix(6.577 0 0 6.577 1616.4243 72.6633)" id="424848">
<g style="" vector-effect="non-scaling-stroke">
		<g transform="matrix(1 0 0 1 0 4.1105)" id="Path_557">
<path style="stroke: none; stroke-width: 1; stroke-dasharray: none; stroke-linecap: butt; stroke-dashoffset: 0; stroke-linejoin: miter; stroke-miterlimit: 4; is-custom-font: none; font-file-url: none; fill: rgb(0,47,100); fill-rule: nonzero; opacity: 1;" transform=" translate(240.5, -392.6856)" d="M -214.5 367.8 c -0.1 -0.1 -51.5 0.1 -52 0 c -3.6 0 -6.5 2.9 -6.5 6.5 v 36.8 c 0 3.6 2.9 6.5 6.5 6.5 h 52 c 3.6 0 6.5 -2.9 6.5 -6.5 v -36.8 C -208 370.8 -210.9 367.8 -214.5 367.8 z M -266.5 372.2 c 15.9 -0.1 41.7 -0.3 52 0 c 1.2 0 2.2 1 2.2 2.2 v 4.3 h -56.3 v -4.3 C -268.7 373.1 -267.7 372.2 -266.5 372.2 z M -214.5 413.3 h -52 c -1.2 0 -2.2 -1 -2.2 -2.2 V 383 h 56.3 v 28.2 C -212.3 412.4 -213.3 413.3 -214.5 413.3 z" stroke-linecap="round"/>
</g>
		<g transform="matrix(1 0 0 1 13.6067 7.365)" id="Path_558">
<path style="stroke: none; stroke-width: 1; stroke-dasharray: none; stroke-linecap: butt; stroke-dashoffset: 0; stroke-linejoin: miter; stroke-miterlimit: 4; is-custom-font: none; font-file-url: none; fill: rgb(0,47,100); fill-rule: nonzero; opacity: 1;" transform=" translate(226.8933, -395.9399)" d="M -220.5 389 l -9.5 10.8 l -3.4 -3.4 c -0.6 -0.6 -1.5 -0.6 -2.1 0 c -0.6 0.6 -0.6 1.5 0 2.1 l 0 0 l 4.5 4.5 c 0.3 0.3 0.7 0.4 1.1 0.4 h 0.1 c 0.4 0 0.8 -0.2 1.1 -0.5 l 10.5 -12 c 0.5 -0.6 0.5 -1.6 -0.1 -2.1 C -219 388.3 -220 388.4 -220.5 389 z" stroke-linecap="round"/>
</g>
		<g transform="matrix(1 0 0 1 -21.5 3.857)" id="Path_559">
<path style="stroke: rgb(0,47,101); stroke-width: 5; stroke-dasharray: none; stroke-linecap: round; stroke-dashoffset: 0; stroke-linejoin: round; stroke-miterlimit: 4; is-custom-font: none; font-file-url: none; fill: none; fill-rule: nonzero; opacity: 1;" transform=" translate(-176, -611.6)" d="M 176 611.6 L 176 611.6 z" stroke-linecap="round"/>
</g>
		<g transform="matrix(1 0 0 1 -16.4 -26.643)" id="Path_561">
<path style="stroke: rgb(57,180,255); stroke-width: 5; stroke-dasharray: none; stroke-linecap: round; stroke-dashoffset: 0; stroke-linejoin: round; stroke-miterlimit: 4; is-custom-font: none; font-file-url: none; fill: none; fill-rule: nonzero; opacity: 1;" transform=" translate(-181.1, -581.1)" d="M 181.1 581.1 L 181.1 581.1 z" stroke-linecap="round"/>
</g>
		<g transform="matrix(1 0 0 1 16.2 -26.643)" id="Path_562">
<path style="stroke: rgb(57,180,255); stroke-width: 5; stroke-dasharray: none; stroke-linecap: round; stroke-dashoffset: 0; stroke-linejoin: round; stroke-miterlimit: 4; is-custom-font: none; font-file-url: none; fill: none; fill-rule: nonzero; opacity: 1;" transform=" translate(-213.7, -581.1)" d="M 213.7 581.1 L 213.7 581.1 z" stroke-linecap="round"/>
</g>
		<g transform="matrix(1 0 0 1 -21.5 15.557)" id="Path_560">
<path style="stroke: rgb(0,47,101); stroke-width: 5; stroke-dasharray: none; stroke-linecap: round; stroke-dashoffset: 0; stroke-linejoin: round; stroke-miterlimit: 4; is-custom-font: none; font-file-url: none; fill: none; fill-rule: nonzero; opacity: 1;" transform=" translate(-176, -623.3)" d="M 176 623.3 L 176 623.3 z" stroke-linecap="round"/>
</g>
		<g transform="matrix(1 0 0 1 -21 4.057)" id="Compliance_">
<ellipse style="stroke: none; stroke-width: 1; stroke-dasharray: none; stroke-linecap: butt; stroke-dashoffset: 0; stroke-linejoin: miter; stroke-miterlimit: 4; is-custom-font: none; font-file-url: none; fill: rgb(0,47,100); fill-rule: nonzero; opacity: 1;" cx="0" cy="0" rx="3" ry="3"/>
</g>
		<g transform="matrix(1 0 0 1 -21 -24.943)" id="Compliance_">
<ellipse style="stroke: none; stroke-width: 1; stroke-dasharray: none; stroke-linecap: butt; stroke-dashoffset: 0; stroke-linejoin: miter; stroke-miterlimit: 4; is-custom-font: none; font-file-url: none; fill: rgb(0,47,100); fill-rule: nonzero; opacity: 1;" cx="0" cy="0" rx="3" ry="3"/>
</g>
		<g transform="matrix(1 0 0 1 20 -24.943)" id="Compliance_">
<ellipse style="stroke: none; stroke-width: 1; stroke-dasharray: none; stroke-linecap: butt; stroke-dashoffset: 0; stroke-linejoin: miter; stroke-miterlimit: 4; is-custom-font: none; font-file-url: none; fill: rgb(0,47,100); fill-rule: nonzero; opacity: 1;" cx="0" cy="0" rx="3" ry="3"/>
</g>
		<g transform="matrix(1 0 0 1 -21 16.057)" id="Compliance_">
<ellipse style="stroke: none; stroke-width: 1; stroke-dasharray: none; stroke-linecap: butt; stroke-dashoffset: 0; stroke-linejoin: miter; stroke-miterlimit: 4; is-custom-font: none; font-file-url: none; fill: rgb(0,47,100); fill-rule: nonzero; opacity: 1;" cx="0" cy="0" rx="3" ry="3"/>
</g>
</g>
</g>
</svg>