<?xml version="1.0" encoding="utf-8"?>
<!-- Generator: Adobe Illustrator 18.1.1, SVG Export Plug-In . SVG Version: 6.00 Build 0)  -->
<svg version="1.1" id="Layer_1" xmlns="http://www.w3.org/2000/svg" xmlns:xlink="http://www.w3.org/1999/xlink" x="0px" y="0px"
	 width="65px" height="58.2px" viewBox="-273 367.8 65 58.2" enable-background="new -273 367.8 65 58.2" xml:space="preserve">
<g id="Compliance_" transform="translate(-438 -210.843)">
	<g id="noun_calender_2013026" transform="translate(438 219.168)">
		<g id="Group_356" transform="translate(0 0)">
			<path id="Path_557" fill="#002F64" d="M-214.5,367.8c-0.1-0.1-51.5,0.1-52,0c-3.6,0-6.5,2.9-6.5,6.5v36.8c0,3.6,2.9,6.5,6.5,6.5
				h52c3.6,0,6.5-2.9,6.5-6.5v-36.8C-208,370.8-210.9,367.8-214.5,367.8z M-266.5,372.2c15.9-0.1,41.7-0.3,52,0c1.2,0,2.2,1,2.2,2.2
				v4.3h-56.3v-4.3C-268.7,373.1-267.7,372.2-266.5,372.2z M-214.5,413.3h-52c-1.2,0-2.2-1-2.2-2.2V383h56.3v28.2
				C-212.3,412.4-213.3,413.3-214.5,413.3z"/>
			<path id="Path_558" fill="#002F64" d="M-220.5,389l-9.5,10.8l-3.4-3.4c-0.6-0.6-1.5-0.6-2.1,0c-0.6,0.6-0.6,1.5,0,2.1l0,0
				l4.5,4.5c0.3,0.3,0.7,0.4,1.1,0.4h0.1c0.4,0,0.8-0.2,1.1-0.5l10.5-12c0.5-0.6,0.5-1.6-0.1-2.1C-219,388.3-220,388.4-220.5,389z"
				/>
		</g>
	</g>
	<path id="Path_559" fill="none" stroke="#002F65" stroke-width="5" stroke-linecap="round" stroke-linejoin="round" d="M176,611.6
		L176,611.6z"/>
	<path id="Path_561" fill="none" stroke="#39B4FF" stroke-width="5" stroke-linecap="round" stroke-linejoin="round" d="
		M181.1,581.1L181.1,581.1z"/>
	<path id="Path_562" fill="none" stroke="#39B4FF" stroke-width="5" stroke-linecap="round" stroke-linejoin="round" d="
		M213.7,581.1L213.7,581.1z"/>
	<path id="Path_560" fill="none" stroke="#002F65" stroke-width="5" stroke-linecap="round" stroke-linejoin="round" d="M176,623.3
		L176,623.3z"/>
	<ellipse fill="#002F64" cx="176.5" cy="611.8" rx="3" ry="3"/>
	<ellipse fill="#002F64" cx="176.5" cy="582.8" rx="3" ry="3"/>
	<ellipse fill="#002F64" cx="217.5" cy="582.8" rx="3" ry="3"/>
	<ellipse fill="#002F64" cx="176.5" cy="623.8" rx="3" ry="3"/>
</g>
</svg>
