<svg xmlns="http://www.w3.org/2000/svg" width="18.723" height="25" viewBox="0 0 18.723 25">
  <g id="Compliance_Management_" data-name="Compliance Management " transform="translate(0)">
    <g id="Group_266" data-name="Group 266" transform="translate(0)">
      <path id="Path_341" data-name="Path 341" d="M34.057,98.183a1.171,1.171,0,0,0-1.173,1.173v16.425a1.171,1.171,0,0,0,1.173,1.173h7.235a5.717,5.717,0,0,1-.206-1.52H34.11V99.7H46.8v10.014a5.717,5.717,0,0,1,1.227.137v-10.5a1.171,1.171,0,0,0-1.173-1.173Z" transform="translate(-32.883 -95.205)" fill="#2676ff"/>
      <path id="Path_342" data-name="Path 342" d="M54.428,122.186h9.066v.907H54.428Z" transform="translate(-51.389 -115.821)" fill="#2676ff"/>
      <path id="Subtraction_6" data-name="Subtraction 6" d="M5.159,10.317A5.16,5.16,0,0,1,3.151.405,5.16,5.16,0,0,1,7.166,9.911,5.125,5.125,0,0,1,5.159,10.317ZM3.224,5.238h0l-.677.8L4.178,7.51,7.769,3.466l-.65-.659L4.154,6.1l-.929-.864Z" transform="translate(8.406 14.683)" fill="#ff6c00"/>
      <path id="Path_343" data-name="Path 343" d="M54.428,144.77h9.066v.907H54.428Z" transform="translate(-51.389 -135.218)" fill="#2676ff"/>
      <path id="Path_344" data-name="Path 344" d="M54.428,167.354h9.066v.907H54.428Z" transform="translate(-51.389 -154.616)" fill="#2676ff"/>
      <path id="Path_347" data-name="Path 347" d="M54.619,77.07a1.8,1.8,0,0,0-1.749,1.166c-1.02,1.541-3.143.7-3.5,1.749H59.866c-.355-1.044-2.478-.208-3.5-1.749A1.8,1.8,0,0,0,54.619,77.07Zm-.031.625a.7.7,0,1,1-.7.7A.7.7,0,0,1,54.588,77.695Z" transform="translate(-47.047 -77.07)" fill="#2676ff"/>
    </g>
  </g>
</svg>
