<?xml version="1.0" encoding="utf-8"?>
<!-- Generator: Adobe Illustrator 18.1.1, SVG Export Plug-In . SVG Version: 6.00 Build 0)  -->
<svg version="1.1" id="Layer_1" xmlns="http://www.w3.org/2000/svg" xmlns:xlink="http://www.w3.org/1999/xlink" x="0px" y="0px"
	 width="70px" height="70px" viewBox="-270 362 70 70" enable-background="new -270 362 70 70" xml:space="preserve">
<path fill="#002F64" d="M-234,419.3h-26.1c-3.1,0-5.7-2.5-5.7-5.7V365h40.8v32.8c0,0.6,0.5,1.1,1.1,1.1c0.6,0,1.1-0.5,1.1-1.1v-26.1
	h3.4v23.8c0,0.6,0.5,1.1,1.1,1.1c0.6,0,1.1-0.5,1.1-1.1v-23.8h3.4v23.8c0,0.6,0.5,1.1,1.1,1.1c0.6,0,1.1-0.5,1.1-1.1v-24.9
	c0-0.6-0.5-1.1-1.1-1.1h-10.2v-5.7c0-0.6-0.5-1.1-1.1-1.1h-43.1c-0.6,0-1.1,0.5-1.1,1.1v49.8c0,4.4,3.6,7.9,7.9,7.9h26.1
	c0.6,0,1.1-0.5,1.1-1.1C-232.9,419.8-233.4,419.3-234,419.3z"/>
<path fill="#002F64" d="M-201.1,410.3h-1.9c-0.2-0.5-0.3-0.9-0.5-1.3l1.4-1.4c0.4-0.4,0.4-1.2,0-1.6l-4.8-4.8
	c-0.4-0.4-1.2-0.4-1.6,0l-1.4,1.4c-0.4-0.2-0.9-0.4-1.3-0.5v-1.9c0-0.6-0.5-1.1-1.1-1.1h-6.8c-0.6,0-1.1,0.5-1.1,1.1v1.9
	c-0.5,0.2-0.9,0.3-1.3,0.5l-1.4-1.4c-0.4-0.4-1.2-0.4-1.6,0l-4.8,4.8c-0.4,0.4-0.4,1.2,0,1.6l1.4,1.4c-0.2,0.4-0.4,0.9-0.5,1.3h-1.9
	c-0.6,0-1.1,0.5-1.1,1.1v6.8c0,0.6,0.5,1.1,1.1,1.1h1.9c0.2,0.5,0.3,0.9,0.5,1.3l-1.4,1.4c-0.4,0.4-0.4,1.2,0,1.6l4.8,4.8
	c0.4,0.4,1.2,0.4,1.6,0l1.4-1.4c0.4,0.2,0.9,0.4,1.3,0.5v1.9c0,0.6,0.5,1.1,1.1,1.1h6.8c0.6,0,1.1-0.5,1.1-1.1v-1.9
	c0.5-0.2,0.9-0.3,1.3-0.5l1.4,1.4c0.4,0.4,1.2,0.4,1.6,0l4.8-4.8c0.4-0.4,0.4-1.2,0-1.6l-1.4-1.4c0.2-0.4,0.4-0.9,0.5-1.3h1.9
	c0.6,0,1.1-0.5,1.1-1.1v-6.8C-200,410.8-200.5,410.3-201.1,410.3z M-202.3,417.1h-1.6c-0.5,0-1,0.3-1.1,0.8c-0.2,0.8-0.6,1.7-1,2.4
	c-0.2,0.4-0.2,1,0.2,1.4l1.1,1.1l-3.2,3.2l-1.1-1.1c-0.4-0.4-0.9-0.4-1.4-0.2c-0.8,0.4-1.6,0.8-2.4,1c-0.5,0.1-0.8,0.6-0.8,1.1v1.6
	h-4.5v-1.6c0-0.5-0.3-1-0.8-1.1c-0.8-0.2-1.7-0.6-2.4-1c-0.4-0.2-1-0.2-1.4,0.2l-1.1,1.1l-3.2-3.2l1.1-1.1c0.4-0.4,0.4-0.9,0.2-1.4
	c-0.4-0.8-0.8-1.6-1-2.4c-0.1-0.5-0.6-0.8-1.1-0.8h-1.6v-4.5h1.6c0.5,0,1-0.3,1.1-0.8c0.2-0.8,0.6-1.7,1-2.4c0.2-0.4,0.2-1-0.2-1.4
	l-1.1-1.1l3.2-3.2l1.1,1.1c0.4,0.4,0.9,0.4,1.4,0.2c0.8-0.4,1.6-0.8,2.4-1c0.5-0.1,0.8-0.6,0.8-1.1v-1.6h4.5v1.6
	c0,0.5,0.3,1,0.8,1.1c0.8,0.2,1.7,0.6,2.4,1c0.4,0.2,1,0.2,1.4-0.2l1.1-1.1l3.2,3.2l-1.1,1.1c-0.4,0.4-0.4,0.9-0.2,1.4
	c0.4,0.8,0.8,1.6,1,2.4c0.1,0.5,0.6,0.8,1.1,0.8h1.6V417.1z"/>
<path fill="#002F64" d="M-215.9,406.9c-4.4,0-7.9,3.5-7.9,7.9c0,4.4,3.6,7.9,7.9,7.9c4.4,0,7.9-3.5,7.9-7.9
	C-207.9,410.4-211.5,406.9-215.9,406.9z M-215.9,420.5c-3.1,0-5.7-2.5-5.7-5.7c0-3.1,2.5-5.7,5.7-5.7c3.1,0,5.7,2.5,5.7,5.7
	C-210.2,417.9-212.7,420.5-215.9,420.5z"/>
<path fill="#5FC2FF" d="M-230.6,369.5h-13.6c-0.6,0-1.1,0.5-1.1,1.1c0,0.6,0.5,1.1,1.1,1.1h13.6c0.6,0,1.1-0.5,1.1-1.1
	C-229.5,370-230,369.5-230.6,369.5z"/>
<path fill="#5FC2FF" d="M-230.6,376.3h-13.6c-0.6,0-1.1,0.5-1.1,1.1c0,0.6,0.5,1.1,1.1,1.1h13.6c0.6,0,1.1-0.5,1.1-1.1
	C-229.5,376.8-230,376.3-230.6,376.3z"/>
<path fill="#5FC2FF" d="M-230.6,385.3h-13.6c-0.6,0-1.1,0.5-1.1,1.1c0,0.6,0.5,1.1,1.1,1.1h13.6c0.6,0,1.1-0.5,1.1-1.1
	C-229.5,385.9-230,385.3-230.6,385.3z"/>
<path fill="#5FC2FF" d="M-230.6,392.1h-13.6c-0.6,0-1.1,0.5-1.1,1.1c0,0.6,0.5,1.1,1.1,1.1h13.6c0.6,0,1.1-0.5,1.1-1.1
	C-229.5,392.7-230,392.1-230.6,392.1z"/>
<path fill="#5FC2FF" d="M-232.9,401.2h-11.3c-0.6,0-1.1,0.5-1.1,1.1c0,0.6,0.5,1.1,1.1,1.1h11.3c0.6,0,1.1-0.5,1.1-1.1
	C-231.8,401.7-232.3,401.2-232.9,401.2z"/>
<path fill="#5FC2FF" d="M-235.2,410.3c0.6,0,1.1-0.5,1.1-1.1c0-0.6-0.5-1.1-1.1-1.1h-9.1c-0.6,0-1.1,0.5-1.1,1.1
	c0,0.6,0.5,1.1,1.1,1.1H-235.2z"/>
<path fill="#5FC2FF" d="M-248,369.8c-0.4-0.4-1.2-0.4-1.6,0l-0.4,0.4c-0.2-0.4-0.6-0.7-1.1-0.7h-9.1c-0.6,0-1.1,0.5-1.1,1.1v9.1
	c0,0.6,0.5,1.1,1.1,1.1h9.1c0.6,0,1.1-0.5,1.1-1.1v-6.3l1.9-1.9C-247.5,371-247.5,370.3-248,369.8z M-252.2,378.6h-6.8v-6.8h6.8v0.7
	l-2.3,2.3l-1.5-1.5c-0.5-0.4-1.2-0.4-1.6,0c-0.4,0.4-0.4,1.1,0,1.6l2.3,2.3c0.4,0.4,1.2,0.4,1.6,0l1.5-1.5V378.6z"/>
<path fill="#5FC2FF" d="M-248,385.7c-0.4-0.4-1.2-0.4-1.6,0l-0.4,0.4c-0.2-0.4-0.6-0.7-1.1-0.7h-9.1c-0.6,0-1.1,0.5-1.1,1.1v9.1
	c0,0.6,0.5,1.1,1.1,1.1h9.1c0.6,0,1.1-0.5,1.1-1.1v-6.3l1.9-1.9C-247.5,386.8-247.5,386.1-248,385.7z M-252.2,394.4h-6.8v-6.8h6.8
	v0.7l-2.3,2.3l-1.5-1.5c-0.5-0.4-1.2-0.4-1.6,0c-0.4,0.4-0.4,1.1,0,1.6l2.3,2.3c0.4,0.4,1.2,0.4,1.6,0l1.5-1.5V394.4z"/>
<path fill="#5FC2FF" d="M-249.6,401.5l-0.4,0.4c-0.2-0.4-0.6-0.7-1.1-0.7h-9.1c-0.6,0-1.1,0.5-1.1,1.1v9.1c0,0.6,0.5,1.1,1.1,1.1
	h9.1c0.6,0,1.1-0.5,1.1-1.1v-6.3l1.9-1.9c0.4-0.5,0.4-1.2,0-1.6C-248.4,401.1-249.1,401.1-249.6,401.5z M-252.2,410.3h-6.8v-6.8h6.8
	v0.7l-2.3,2.3l-1.5-1.5c-0.5-0.4-1.2-0.4-1.6,0c-0.4,0.4-0.4,1.1,0,1.6l2.3,2.3c0.4,0.4,1.2,0.4,1.6,0l1.5-1.5V410.3z"/>
</svg>
