<?xml version="1.0" encoding="utf-8"?>
<!-- Generator: Adobe Illustrator 18.1.1, SVG Export Plug-In . SVG Version: 6.00 Build 0)  -->
<svg version="1.1" id="Layer_1" xmlns="http://www.w3.org/2000/svg" xmlns:xlink="http://www.w3.org/1999/xlink" x="0px" y="0px"
	 width="18.7px" height="25px" viewBox="-296 384 18.7 25" enable-background="new -296 384 18.7 25" xml:space="preserve">
<g id="Compliance_Management_" transform="translate(0)">
	<g id="Group_266" transform="translate(0)">
		<path id="Path_341" fill="#002F64" d="M-294.8,387c-0.6,0-1.2,0.5-1.2,1.2l0,0v16.4c0,0.6,0.5,1.2,1.2,1.2l0,0h7.2
			c-0.1-0.5-0.2-1-0.2-1.5h-7v-15.7h12.7v10c0.4,0,0.8,0,1.2,0.1v-10.5c0-0.6-0.5-1.2-1.2-1.2l0,0H-294.8z"/>
		<path id="Path_342" fill="#002F64" d="M-293,390.4h9.1v0.9h-9.1V390.4z"/>
		<path id="Subtraction_6" fill="#002F64" d="M-282.4,409c-2.8,0-5.2-2.3-5.2-5.2c0-2.1,1.2-3.9,3.1-4.7c2.6-1.1,5.7,0.2,6.7,2.8
			c1.1,2.6-0.1,5.6-2.7,6.7C-281.1,408.9-281.7,409-282.4,409z M-284.4,403.9L-284.4,403.9l-0.7,0.8l1.6,1.5l3.6-4l-0.6-0.7l-3,3.3
			L-284.4,403.9L-284.4,403.9z"/>
		<path id="Path_343" fill="#002F64" d="M-293,393.6h9.1v0.9h-9.1V393.6z"/>
		<path id="Path_344" fill="#002F64" d="M-293,396.7h9.1v0.9h-9.1V396.7z"/>
		<path id="Path_347" fill="#002F64" d="M-288.4,384c-0.8,0-1.5,0.4-1.7,1.2c-1,1.5-3.1,0.7-3.5,1.7h10.5c-0.4-1-2.5-0.2-3.5-1.7
			C-287,384.4-287.7,384-288.4,384z M-288.5,384.6c0.4,0,0.7,0.3,0.7,0.7s-0.3,0.7-0.7,0.7c-0.4,0-0.7-0.3-0.7-0.7l0,0
			C-289.2,384.9-288.8,384.6-288.5,384.6z"/>
	</g>
</g>
</svg>
