<svg xmlns="http://www.w3.org/2000/svg" width="69.098" height="67.541" viewBox="0 0 69.098 67.541">
  <g id="Continual_Improvement_" data-name="Continual Improvement " transform="translate(-238.902 -412)">
    <g id="Continual_Improvement_2" data-name="Continual Improvement " transform="translate(241 414)">
      <g id="noun_Move_691362" transform="translate(0 0)">
        <g id="Group_209" data-name="Group 209" transform="translate(0 0)">
          <path id="Path_278" data-name="Path 278" d="M-488.461-101.352a30.358,30.358,0,0,1-2.1-23.476,30.358,30.358,0,0,1,15.333-17.9" transform="translate(492 148.709)" fill="none" stroke="#002f65" stroke-linecap="round" stroke-linejoin="round" stroke-width="4"/>
          <path id="Path_279" data-name="Path 279" d="M-431.511-80.794a30.358,30.358,0,0,1-40.984,8.021" transform="translate(486.593 131.542)" fill="none" stroke="#002f65" stroke-linecap="round" stroke-linejoin="round" stroke-width="4"/>
          <path id="Path_280" data-name="Path 280" d="M15.609,1031.335s1.922,10.325,1.921,10.327l8.02-8.328S15.61,1031.333,15.609,1031.335Z" transform="translate(-7.516 -978.647)" fill="#5fc2ff" stroke="#5fc2ff" stroke-linejoin="round" stroke-width="4"/>
          <path id="Path_281" data-name="Path 281" d="M-448.266-147.13a30.358,30.358,0,0,1,21.84,10.627,30.358,30.358,0,0,1,7.058,23.24" transform="translate(479.877 149.929)" fill="none" stroke="#002f65" stroke-linecap="round" stroke-linejoin="round" stroke-width="4"/>
          <path id="Path_282" data-name="Path 282" d="M83.308,1017.109l7.982-6.826h0L80.069,1007.5S83.306,1017.109,83.308,1017.109Z" transform="translate(-26.291 -972.947)" fill="#5fc2ff" stroke="#5fc2ff" stroke-linejoin="round" stroke-width="4"/>
          <path id="Path_277" data-name="Path 277" d="M35.289,961.942s-9.9-3.5-9.9-3.5l3.2,11.109S35.29,961.944,35.289,961.942Z" transform="translate(-10.226 -958.442)" fill="#5fc2ff" stroke="#5fc2ff" stroke-linejoin="round" stroke-width="4"/>
        </g>
      </g>
      <g id="noun_increase_694968" transform="translate(15.361 17.409)">
        <path id="Path_276" data-name="Path 276" d="M-2.439,27.473A1.151,1.151,0,0,1-3.59,28.624H-31.1a1.152,1.152,0,0,1-1.152-1.152A1.152,1.152,0,0,1-31.1,26.32h11.979V16.008h4.255V26.322h3.3V7.74h-.743a.863.863,0,0,1-.77-.469.863.863,0,0,1,.068-.9l2.871-4.013A.863.863,0,0,1-9.442,2a.863.863,0,0,1,.7.361l2.871,4a.863.863,0,0,1,.068.9.863.863,0,0,1-.77.469h-.743V26.311H-27.589V20.764h-.743c-.324,0,6.065.009,5,.008V26.32H-3.59a1.151,1.151,0,0,1,.815.338,1.151,1.151,0,0,1,.336.816Z" transform="translate(32.255 -1.999)" fill="#002f65"/>
      </g>
      <g id="noun_increase_694968-2" data-name="noun_increase_694968" transform="translate(34.439 17.409)">
        <path id="Path_276-2" data-name="Path 276" d="M-9.614,7.74h-.743a.863.863,0,0,1-.77-.469.863.863,0,0,1,.068-.9L-8.188,2.36A.863.863,0,0,1-7.486,2a.863.863,0,0,1,.7.361l2.871,4a.863.863,0,0,1,.068.9.863.863,0,0,1-.77.469h-.743Z" transform="translate(11.222 -1.999)" fill="#5fc2ff"/>
      </g>
      <g id="noun_increase_694968-3" data-name="noun_increase_694968" transform="translate(18.112 31.015)">
        <path id="Path_276-3" data-name="Path 276" d="M-9.614,7.74h-.743a.863.863,0,0,1-.77-.469.863.863,0,0,1,.068-.9L-8.188,2.36A.863.863,0,0,1-7.486,2a.863.863,0,0,1,.7.361l2.871,4a.863.863,0,0,1,.068.9.863.863,0,0,1-.77.469h-.743Z" transform="translate(11.222 -1.999)" fill="#5fc2ff"/>
      </g>
      <g id="noun_increase_694968-4" data-name="noun_increase_694968" transform="translate(27.183 26.48)">
        <path id="Path_276-4" data-name="Path 276" d="M-9.614,7.74h-.743a.863.863,0,0,1-.77-.469.863.863,0,0,1,.068-.9L-8.188,2.36A.863.863,0,0,1-7.486,2a.863.863,0,0,1,.7.361l2.871,4a.863.863,0,0,1,.068.9.863.863,0,0,1-.77.469h-.743Z" transform="translate(11.222 -1.999)" fill="#5fc2ff"/>
      </g>
    </g>
  </g>
</svg>
