<svg xmlns="http://www.w3.org/2000/svg" width="64.09" height="61.846" viewBox="0 0 64.09 61.846">
  <g id="Continual_Improvement_" data-name="Continual Improvement " transform="translate(-7719.911 211)">
    <g id="noun_Move_691362" transform="translate(7722 -209)">
      <g id="Group_209" data-name="Group 209" transform="translate(0 0)">
        <path id="Path_277" data-name="Path 277" d="M34.4,961.628s-9.015-3.184-9.016-3.186L28.3,968.555S34.4,961.63,34.4,961.628Z" transform="translate(-11.585 -958.442)" fill="#5fc2ff" stroke="#5fc2ff" stroke-linejoin="round" stroke-width="4"/>
        <path id="Path_278" data-name="Path 278" d="M-488.778-105.061a27.637,27.637,0,0,1-1.908-21.372,27.637,27.637,0,0,1,13.959-16.3" transform="translate(492 148.173)" fill="none" stroke="#5fc2ff" stroke-linecap="round" stroke-linejoin="round" stroke-width="4"/>
        <path id="Path_279" data-name="Path 279" d="M-435.184-80.794a27.637,27.637,0,0,1-37.31,7.3" transform="translate(485.33 126.993)" fill="none" stroke="#5fc2ff" stroke-linecap="round" stroke-linejoin="round" stroke-width="4"/>
        <path id="Path_280" data-name="Path 280" d="M15.608,1031.335s1.75,9.4,1.748,9.4l7.3-7.581S15.61,1031.333,15.608,1031.335Z" transform="translate(-8.242 -983.369)" fill="#5fc2ff" stroke="#5fc2ff" stroke-linejoin="round" stroke-width="4"/>
        <path id="Path_281" data-name="Path 281" d="M-448.266-147.13a27.637,27.637,0,0,1,19.883,9.674,27.637,27.637,0,0,1,6.425,21.157" transform="translate(477.044 149.678)" fill="none" stroke="#5fc2ff" stroke-linecap="round" stroke-linejoin="round" stroke-width="4"/>
        <path id="Path_282" data-name="Path 282" d="M83.018,1016.248s7.265-6.215,7.267-6.215L80.069,1007.5S83.016,1016.248,83.018,1016.248Z" transform="translate(-30.286 -975.219)" fill="#5fc2ff" stroke="#5fc2ff" stroke-linejoin="round" stroke-width="4"/>
      </g>
    </g>
    <g id="noun_increase_694968" transform="translate(7735.984 -193.151)">
      <path id="Path_276" data-name="Path 276" d="M-5.111,25.19a1.048,1.048,0,0,1-1.048,1.048H-31.206a1.049,1.049,0,0,1-1.049-1.049,1.049,1.049,0,0,1,1.049-1.049H-20.3V14.752h-.677a.785.785,0,0,1-.7-.427.785.785,0,0,1,.062-.818L-19,9.862a.785.785,0,0,1,.639-.329.785.785,0,0,1,.639.329l2.613,3.646a.785.785,0,0,1,.062.818.785.785,0,0,1-.7.427h-.677v9.39h3V7.226H-14.1a.785.785,0,0,1-.7-.427.785.785,0,0,1,.062-.818l2.613-3.654A.785.785,0,0,1-11.486,2a.785.785,0,0,1,.639.329l2.613,3.643a.785.785,0,0,1,.062.818.785.785,0,0,1-.7.427H-9.55V24.132H-28.007v-5.05h-.677a.785.785,0,0,1-.7-.427.785.785,0,0,1,.062-.818l2.613-3.636a.785.785,0,0,1,.639-.329.785.785,0,0,1,.639.329l2.613,3.643a.785.785,0,0,1,.062.818.785.785,0,0,1-.7.427h-.677v5.05H-6.159a1.048,1.048,0,0,1,.742.308,1.048,1.048,0,0,1,.306.743Z" transform="translate(32.255 -1.999)" fill="#004a9f"/>
    </g>
  </g>
</svg>
