<?xml version="1.0" encoding="utf-8"?>
<!-- Generator: Adobe Illustrator 18.1.1, SVG Export Plug-In . SVG Version: 6.00 Build 0)  -->
<svg version="1.1" id="Layer_1" xmlns="http://www.w3.org/2000/svg" xmlns:xlink="http://www.w3.org/1999/xlink" x="0px" y="0px"
	 width="65px" height="56.1px" viewBox="-273 368.9 65 56.1" enable-background="new -273 368.9 65 56.1" xml:space="preserve">
<g id="Dashboard_" transform="translate(-1045 -79)">
	<g id="noun_dashboard_664072" transform="translate(1045 79)">
		<g id="Group_371" transform="translate(0)">
			<path id="Path_570" fill="#002F65" d="M-240.5,368.9c-17.9,0-32.5,14.5-32.5,32.4c0,8.6,3.4,16.9,9.5,23l2.1-2.1
				c-1.5-1.5-2.8-3.1-3.9-4.8l2.5-1.5l-1.5-2.6l-2.5,1.5c-1.9-3.7-3-7.8-3.2-12h2.9v-2.9h-2.9c0.2-4.2,1.3-8.3,3.2-12l2.5,1.5
				l1.5-2.6l-2.5-1.5c2.3-3.5,5.3-6.5,8.8-8.8l1.5,2.6l2.6-1.5l-1.5-2.6c3.7-1.9,7.8-3,12-3.2v3h3v-3c4.2,0.2,8.3,1.3,12,3.2
				l-1.5,2.5l2.6,1.5l1.5-2.5c3.5,2.3,6.5,5.3,8.8,8.8l-2.5,1.5l1.5,2.6l2.5-1.5c1.9,3.7,3,7.8,3.2,12h-2.9v3h2.9
				c-0.2,4.2-1.3,8.3-3.2,12l-2.5-1.5l-1.5,2.6l2.5,1.5c-1.1,1.7-2.4,3.3-3.8,4.7l2.1,2.1c12.6-12.8,12.5-33.3-0.3-45.9
				C-223.7,372.2-231.9,368.9-240.5,368.9z M-254.5,419.4v5.6h28.1v-5.6H-254.5z"/>
			<path id="Path_571" fill="#002F65" d="M-249.9,384.3c-0.6,0.4-0.8,1.1-0.6,1.7c2.4,6.1,4.5,12.4,7,18.4c0,0.3-0.1,0.6-0.1,0.9
				c0,3.3,2.6,5.9,5.9,5.9s5.9-2.6,5.9-5.9c0-2.9-2-5.3-4.8-5.8l-11.4-15C-248.4,384.1-249.2,383.9-249.9,384.3L-249.9,384.3z
				 M-244.1,394.5l4.1,5.5c-0.6,0.3-1.2,0.6-1.7,1.1L-244.1,394.5z M-237.6,402.4c1.6,0,3,1.3,3,3c0,1.6-1.3,3-3,3c-1.6,0-3-1.3-3-3
				C-240.6,403.8-239.3,402.5-237.6,402.4C-237.7,402.5-237.6,402.5-237.6,402.4L-237.6,402.4z"/>
		</g>
	</g>
</g>
</svg>
