<?xml version="1.0" encoding="utf-8"?>
<!-- Generator: Adobe Illustrator 18.1.1, SVG Export Plug-In . SVG Version: 6.00 Build 0)  -->
<svg version="1.1" id="Layer_1" xmlns="http://www.w3.org/2000/svg" xmlns:xlink="http://www.w3.org/1999/xlink" x="0px" y="0px"
	 width="65px" height="63.5px" viewBox="-273 365.5 65 63.5" enable-background="new -273 365.5 65 63.5" xml:space="preserve">
<g id="DMS" transform="translate(-7498 -939)">
	<path id="Path_339" fill="#FFFFFF" stroke="#707070" d="M7226.3,1307h27.8v6.4h35v23.1H7255l-0.9-7.2h-27.8L7226.3,1307z"/>
	<g id="Group_262" transform="translate(7498 939)">
		<path id="Path_333" fill="none" d="M-264.1,389.1v-7.4c0-0.8,0.7-1.5,1.5-1.5h44.3c0.8,0,1.5,0.7,1.5,1.5v14.8h5.9v-20.7h-32.5
			c-0.8,0-1.5-0.7-1.5-1.5v-5.9H-270v20.7H-264.1z"/>
		<path id="Path_334" fill="none" d="M-261.2,383.2v5.9h17.7c0.8,0,1.5,0.7,1.5,1.5v5.9h22.2v-13.3H-261.2z"/>
		<path id="Path_335" fill="none" d="M-243.5,399.5c-0.8,0-1.5-0.7-1.5-1.5v-5.9H-270v34h59.1v-26.6H-243.5z M-219.8,418.7h-41.4
			c-0.8,0-1.5-0.7-1.5-1.5s0.7-1.5,1.5-1.5l0,0h41.4c0.8,0,1.5,0.7,1.5,1.5S-219,418.7-219.8,418.7z M-219.8,409.8h-41.4
			c-0.8,0-1.5-0.7-1.5-1.5c0-0.8,0.7-1.5,1.5-1.5l0,0h41.4c0.8,0,1.5,0.7,1.5,1.5C-218.3,409.1-219,409.8-219.8,409.8z"/>
		<path id="Path_336" d="M-219.8,406.8h-41.4c-0.8,0-1.5,0.7-1.5,1.5c0,0.8,0.7,1.5,1.5,1.5h41.4c0.8,0,1.5-0.7,1.5-1.5
			C-218.3,407.5-219,406.8-219.8,406.8z"/>
		<path id="Path_337" d="M-219.8,415.7h-41.4c-0.8,0-1.5,0.7-1.5,1.5s0.7,1.5,1.5,1.5h41.4c0.8,0,1.5-0.7,1.5-1.5
			S-219,415.7-219.8,415.7z"/>
		<path id="Path_338" fill="#2676FF" d="M-209.5,372.9H-242V367c0-0.8-0.7-1.5-1.5-1.5h-28.1c-0.8,0-1.5,0.7-1.5,1.5v60.6
			c0,0.8,0.7,1.5,1.5,1.5h62c0.8,0,1.5-0.7,1.5-1.5v-53.2C-208,373.5-208.7,372.9-209.5,372.9z M-244.9,368.4v5.9
			c0,0.8,0.7,1.5,1.5,1.5h32.5v20.7h-5.9v-14.8c0-0.8-0.7-1.5-1.5-1.5h-44.3c-0.8,0-1.5,0.7-1.5,1.5v7.4h-5.9v-20.7H-244.9z
			 M-242,396.5v-5.9c0-0.8-0.7-1.5-1.5-1.5h-17.7v-5.9h41.4v13.3L-242,396.5z M-211,426H-270v-34h25.1v5.9c0,0.8,0.7,1.5,1.5,1.5
			h32.5V426z"/>
	</g>
	<g id="Group_263" transform="translate(7498 939)">
		<path id="Path_333-2" fill="none" d="M-264.1,389.1v-7.4c0-0.8,0.7-1.5,1.5-1.5h44.3c0.8,0,1.5,0.7,1.5,1.5v14.8h5.9v-20.7h-32.5
			c-0.8,0-1.5-0.7-1.5-1.5v-5.9H-270v20.7H-264.1z"/>
		<path id="Path_334-2" fill="none" d="M-261.2,383.2v5.9h17.7c0.8,0,1.5,0.7,1.5,1.5v5.9h22.2v-13.3H-261.2z"/>
		<path id="Path_335-2" fill="none" d="M-243.5,399.5c-0.8,0-1.5-0.7-1.5-1.5v-5.9H-270v34h59.1v-26.6H-243.5z M-219.8,418.7h-41.4
			c-0.8,0-1.5-0.7-1.5-1.5s0.7-1.5,1.5-1.5l0,0h41.4c0.8,0,1.5,0.7,1.5,1.5S-219,418.7-219.8,418.7z M-219.8,409.8h-41.4
			c-0.8,0-1.5-0.7-1.5-1.5c0-0.8,0.7-1.5,1.5-1.5l0,0h41.4c0.8,0,1.5,0.7,1.5,1.5C-218.3,409.1-219,409.8-219.8,409.8z"/>
		<path id="Path_336-2" d="M-219.8,406.8h-41.4c-0.8,0-1.5,0.7-1.5,1.5c0,0.8,0.7,1.5,1.5,1.5h41.4c0.8,0,1.5-0.7,1.5-1.5
			C-218.3,407.5-219,406.8-219.8,406.8z"/>
		<path id="Path_337-2" d="M-219.8,415.7h-41.4c-0.8,0-1.5,0.7-1.5,1.5s0.7,1.5,1.5,1.5h41.4c0.8,0,1.5-0.7,1.5-1.5
			S-219,415.7-219.8,415.7z"/>
		<path id="Path_338-2" fill="#2676FF" d="M-209.5,372.9H-242V367c0-0.8-0.7-1.5-1.5-1.5h-28.1c-0.8,0-1.5,0.7-1.5,1.5v60.6
			c0,0.8,0.7,1.5,1.5,1.5h62c0.8,0,1.5-0.7,1.5-1.5v-53.2C-208,373.5-208.7,372.9-209.5,372.9z M-244.9,368.4v5.9
			c0,0.8,0.7,1.5,1.5,1.5h32.5v20.7h-5.9v-14.8c0-0.8-0.7-1.5-1.5-1.5h-44.3c-0.8,0-1.5,0.7-1.5,1.5v7.4h-5.9v-20.7H-244.9z
			 M-242,396.5v-5.9c0-0.8-0.7-1.5-1.5-1.5h-17.7v-5.9h41.4v13.3L-242,396.5z M-211,426H-270v-34h25.1v5.9c0,0.8,0.7,1.5,1.5,1.5
			h32.5V426z"/>
	</g>
	<g id="Group_264" transform="translate(7498 939)">
		<path id="Path_333-3" fill="none" d="M-264.1,389.1v-7.4c0-0.8,0.7-1.5,1.5-1.5h44.3c0.8,0,1.5,0.7,1.5,1.5v14.8h5.9v-20.7h-32.5
			c-0.8,0-1.5-0.7-1.5-1.5v-5.9H-270v20.7H-264.1z"/>
		<path id="Path_334-3" fill="none" d="M-261.2,383.2v5.9h17.7c0.8,0,1.5,0.7,1.5,1.5v5.9h22.2v-13.3H-261.2z"/>
		<path id="Path_335-3" fill="none" d="M-243.5,399.5c-0.8,0-1.5-0.7-1.5-1.5v-5.9H-270v34h59.1v-26.6H-243.5z M-219.8,418.7h-41.4
			c-0.8,0-1.5-0.7-1.5-1.5s0.7-1.5,1.5-1.5l0,0h41.4c0.8,0,1.5,0.7,1.5,1.5S-219,418.7-219.8,418.7z M-219.8,409.8h-41.4
			c-0.8,0-1.5-0.7-1.5-1.5c0-0.8,0.7-1.5,1.5-1.5l0,0h41.4c0.8,0,1.5,0.7,1.5,1.5C-218.3,409.1-219,409.8-219.8,409.8z"/>
		<path id="Path_336-3" fill="#002F65" d="M-219.8,406.8h-41.4c-0.8,0-1.5,0.7-1.5,1.5c0,0.8,0.7,1.5,1.5,1.5h41.4
			c0.8,0,1.5-0.7,1.5-1.5C-218.3,407.5-219,406.8-219.8,406.8z"/>
		<path id="Path_337-3" fill="#002F65" d="M-219.8,415.7h-41.4c-0.8,0-1.5,0.7-1.5,1.5s0.7,1.5,1.5,1.5h41.4c0.8,0,1.5-0.7,1.5-1.5
			S-219,415.7-219.8,415.7z"/>
		<path id="Path_338-3" fill="#002F65" d="M-209.5,372.9H-242V367c0-0.8-0.7-1.5-1.5-1.5h-28.1c-0.8,0-1.5,0.7-1.5,1.5v60.6
			c0,0.8,0.7,1.5,1.5,1.5h62c0.8,0,1.5-0.7,1.5-1.5v-53.2C-208,373.5-208.7,372.9-209.5,372.9z M-244.9,368.4v5.9
			c0,0.8,0.7,1.5,1.5,1.5h32.5v20.7h-5.9v-14.8c0-0.8-0.7-1.5-1.5-1.5h-44.3c-0.8,0-1.5,0.7-1.5,1.5v7.4h-5.9v-20.7H-244.9z
			 M-242,396.5v-5.9c0-0.8-0.7-1.5-1.5-1.5h-17.7v-5.9h41.4v13.3L-242,396.5z M-211,426H-270v-34h25.1v5.9c0,0.8,0.7,1.5,1.5,1.5
			h32.5V426z"/>
	</g>
</g>
</svg>
