<?xml version="1.0" encoding="utf-8"?>
<!-- Generator: Adobe Illustrator 18.1.1, SVG Export Plug-In . SVG Version: 6.00 Build 0)  -->
<svg version="1.1" id="Layer_1" xmlns="http://www.w3.org/2000/svg" xmlns:xlink="http://www.w3.org/1999/xlink" x="0px" y="0px"
	 viewBox="-479 483.8 65 58.2" enable-background="new -479 483.8 65 58.2" xml:space="preserve">
<g>
	<path fill="#002F64" d="M-425.4,520.3l-8-1.3v-2.8c0-1.9-1-3.5-2.6-4.4c1.3-1.8,2.2-3.9,2.5-6.3c1.9-0.4,3.4-2,3.4-3.9
		c0.1-1.8-1-3.3-2.5-4l0-4.4c0.6-1.1,0.9-2.4,0.9-3.7v-3.4c0-0.9-0.7-1.7-1.7-1.7h-22.5c-2.8,0-5,2.2-5,5v8.2
		c-1.5,0.6-2.6,2.1-2.5,4c0.1,2,1.5,3.6,3.4,3.9c0.3,2.3,1.2,4.5,2.5,6.3c-1.5,0.9-2.6,2.5-2.6,4.4v2.8l-8,1.3c-4,0.7-7,4.1-7,8.2
		v11.1c0,0.9,0.7,1.7,1.7,1.7h53.3c0.9,0,1.7-0.7,1.7-1.7v-11.1C-418.4,524.4-421.3,521-425.4,520.3L-425.4,520.3z M-446.7,523.9
		l-5-5v-2.5c3.1,1.3,6.7,1.3,10,0v2.5L-446.7,523.9z M-438.4,514.6c0.9,0,1.7,0.7,1.7,1.7v2.2l-1.7-0.3V514.6z M-457.5,489.5
		c0-0.9,0.7-1.7,1.7-1.7h20.9v1.8c0,2.8-2.2,5-5,5h-17.5V489.5z M-459.1,502.4c-0.5,0-0.9-0.4-0.9-0.8c0-0.5,0.4-0.9,0.8-0.9
		c0.9,0,1.7-0.7,1.7-1.7v-1.1h17.5c1.5,0,2.9-0.4,4.1-1.1l0,2.2c0,0.9,0.7,1.7,1.7,1.7c0.5,0,0.8,0.4,0.8,0.9c0,0.4-0.4,0.8-0.9,0.8
		h-0.8c-0.9,0-1.7,0.7-1.7,1.7c0,5.5-4.5,10-10,10c-5.5,0-10-4.5-10-10c0-0.9-0.7-1.7-1.7-1.7H-459.1z M-456.7,516.2
		c0-0.9,0.7-1.7,1.7-1.7v3.6l-1.7,0.3V516.2z M-471.7,528.5c0-2.5,1.8-4.5,4.2-4.9l7.5-1.2v2.5c-1.9,0.7-3.3,2.5-3.3,4.7
		c0,2.8,2.2,5,5,5c2.8,0,5-2.2,5-5c0-2.2-1.4-4-3.3-4.7v-3l2.8-0.5l5.6,5.6V538h-23.3V528.5z M-458.4,527.9c0.9,0,1.7,0.7,1.7,1.7
		s-0.7,1.7-1.7,1.7s-1.7-0.7-1.7-1.7S-459.3,527.9-458.4,527.9z M-421.7,538H-445v-11.1l5.6-5.6l2.8,0.5v3c-2.9,0.7-5,3.4-5,6.4v1.7
		c0,0.9,0.7,1.7,1.7,1.7h1.7c0.9,0,1.7-0.7,1.7-1.7s-0.7-1.7-1.7-1.7c0-1.8,1.5-3.3,3.3-3.3c1.8,0,3.3,1.5,3.3,3.3
		c-0.9,0-1.7,0.7-1.7,1.7s0.7,1.7,1.7,1.7h1.7c0.9,0,1.7-0.7,1.7-1.7v-1.7c0-3.1-2.1-5.7-5-6.4v-2.4l7.5,1.2
		c2.4,0.4,4.2,2.5,4.2,4.9V538z"/>
	<path fill="#5FC2FF" d="M-441.7,508.5c0.6-0.7,0.6-1.7-0.1-2.4c-0.7-0.6-1.7-0.6-2.4,0.1c-1.3,1.5-3.6,1.5-5,0
		c-0.6-0.7-1.7-0.7-2.4-0.1c-0.7,0.6-0.7,1.7-0.1,2.4C-449,511.4-444.4,511.4-441.7,508.5z"/>
</g>
</svg>
