<svg xmlns="http://www.w3.org/2000/svg" width="68.277" height="65" viewBox="0 0 68.277 65">
  <g id="Drills" transform="translate(586.5 -516.451)">
    <g id="Group" transform="translate(-605 484)">
      <path id="Compound_Path" data-name="Compound Path" d="M101.228,165.906H97.452A1.421,1.421,0,0,0,96,167.321v10.284a1.51,1.51,0,0,0,1.452,1.518h43.571a1.51,1.51,0,0,0,1.452-1.518V167.321a1.421,1.421,0,0,0-1.452-1.415h-3.776V146.139A18.1,18.1,0,0,0,119.238,128h0a18.1,18.1,0,0,0-18.008,18.14Zm38.342,10.312H98.9v-7.407h40.666ZM104.133,146.14a15.192,15.192,0,0,1,15.1-15.235h0a15.192,15.192,0,0,1,15.1,15.235v19.767H104.133Z" transform="translate(-67.099 -81.672)" fill="#002f64"/>
      <path id="Path" d="M247.452,44.58a1.452,1.452,0,0,0,1.452-1.452V33.9a1.452,1.452,0,1,0-2.9,0v9.224A1.452,1.452,0,0,0,247.452,44.58Z" transform="translate(-194.314)" fill="#5fc2ff"/>
      <path id="Path-2" data-name="Path" d="M423.168,267H414.2a1.452,1.452,0,0,0,0,2.9h8.969a1.452,1.452,0,0,0,0-2.9Z" transform="translate(-337.843 -200.484)" fill="#5fc2ff"/>
      <path id="Path-3" data-name="Path" d="M29.373,268.452A1.452,1.452,0,0,0,27.921,267H18.952a1.452,1.452,0,0,0,0,2.9h8.969A1.452,1.452,0,0,0,29.373,268.452Z" transform="translate(1 -200.484)" fill="#5fc2ff"/>
      <path id="Path-4" data-name="Path" d="M91.183,110.27a1.452,1.452,0,1,0,2.082-2.025l-6.341-6.522a1.452,1.452,0,1,0-2.082,2.025Z" transform="translate(-56.21 -58.835)" fill="#5fc2ff"/>
      <path id="Path-5" data-name="Path" d="M365.361,110.71a1.448,1.448,0,0,0,1.041-.44l6.342-6.522a1.452,1.452,0,1,0-2.082-2.025l-6.342,6.522a1.452,1.452,0,0,0,1.041,2.465Z" transform="translate(-296.098 -58.835)" fill="#5fc2ff"/>
    </g>
  </g>
</svg>
