<?xml version="1.0" encoding="utf-8"?>
<!-- Generator: Adobe Illustrator 18.1.1, SVG Export Plug-In . SVG Version: 6.00 Build 0)  -->
<svg version="1.1" id="Layer_1" xmlns="http://www.w3.org/2000/svg" xmlns:xlink="http://www.w3.org/1999/xlink" x="0px" y="0px"
	 width="650px" height="580px" viewBox="19 107 650 580" enable-background="new 19 107 650 580" xml:space="preserve">
<path fill="#002F64" d="M601.2,332.5l-49.2-4.7c-5.2-21-13.7-41-25-59.5l31.4-37.9c3.1-3.7,2.8-9.1-0.6-12.6l-53.3-53.1
	c-3.5-3.5-8.9-3.7-12.6-0.6l-37.9,31.4c-18.4-11.2-38.4-19.7-59.3-25l-4.7-49.3c-0.5-4.8-4.4-8.4-9.3-8.4h-72.8
	c-4.8,0-8.9,3.7-9.3,8.4l-4.7,49.3c-20.9,5.3-40.9,13.7-59.3,25L196.6,164c-3.7-3.1-9.1-2.8-12.6,0.6l-53.3,53.3
	c-3.5,3.5-3.7,8.9-0.6,12.6l31.4,37.9c-11.5,18.3-19.9,38.3-25.2,59.3l-49.2,4.7c-4.8,0.5-8.4,4.4-8.4,9.3v75.5
	c0,4.8,3.6,8.9,8.4,9.3l49.3,4.7c5.3,20.9,13.7,40.9,25,59.3L130,528.6c-3.2,3.8-2.7,9.6,1,13l40.4,35.7c2,1.7,4.7,2.6,7.3,2.2
	c2.6-0.4,5.1-1.7,6.6-4l58.1-83.3c2.6-3.7,2.1-8.8-1.1-12c-55.7-55.7-55.7-146,0-201.7s146-55.7,201.7,0s55.7,146,0,201.7
	c-3.2,3.2-3.7,8.4-1,12.1l60.1,83.3c1.5,2.1,4,3.6,6.6,3.8c2.6,0.2,5.2-0.5,7.2-2.3l40.4-35.7c3.8-3.3,4.2-9.1,1-13l-31.4-37.9
	c11.2-18.4,19.7-38.4,25-59.3l49.2-4.7c4.8-0.5,8.4-4.4,8.4-9.3v-75.5C609.6,336.9,606,333,601.2,332.5z M590.9,408.9l-47.5,4.6
	c-4.1,0.4-7.3,3.3-8.2,7.3c-5.2,23.4-14.6,45.6-27.7,65.6c-2.2,3.5-2,7.9,0.6,11.1l29.9,36.2l-25.8,22.7l-49.6-68.6
	c57.4-63.3,55.5-161.4-5.6-222.4c-62.9-62.9-165.3-62.9-228.2,0c-61.1,61.1-62.9,159.2-5.4,222.5L176,556.4l-25.8-22.9l29.9-36.2
	c2.6-3.2,2.8-7.7,0.6-11.1c-13.1-20-22.5-42.3-27.7-65.6c-0.9-4-4.2-6.9-8.2-7.3l-47.5-4.6v-58.5l47.5-4.6c4.1-0.4,7.4-3.3,8.2-7.3
	c5.1-23.4,14.5-45.6,27.7-65.6c2.2-3.5,2-7.9-0.6-11.1l-30.3-36.6l41.2-41.3l36.7,30.4c3.2,2.6,7.7,2.8,11.1,0.6
	c20-13.1,42.3-22.5,65.6-27.7c4-0.9,6.9-4.2,7.3-8.3l4.6-47.5H372l4.6,47.5c0.4,4.1,3.3,7.4,7.3,8.3c23.4,5.2,45.6,14.6,65.6,27.7
	c3.5,2.2,7.9,2,11.1-0.6l36.6-30.3l41.2,41.2l-30.2,36.6c-2.6,3.2-2.8,7.7-0.6,11.1c13.2,19.9,22.6,42.1,27.7,65.6
	c0.9,4,4.2,6.9,8.2,7.3l47.5,4.6V408.9z"/>
<path fill="#002F64" d="M376.8,544.2v-142c23.6-13.6,39.1-39.4,39.1-66.1c0-36.3-20.8-62.9-55.6-70.9c-3-0.6-5.9,0.1-8.2,2
	c-2.2,2-3.5,4.8-3.2,7.8l3.1,39.7c-7.8,4.1-17.2,4.1-25,0l3.3-39.9c0.2-3.1-1-6.1-3.3-8c-2.3-2-5.6-2.6-8.5-1.7
	c-31.9,9.3-51.8,36.7-51.8,71.6c0,32,16.8,58,44.9,69.2v141.5c-19.9,11.7-39.1,35.6-38.7,65.9c0,36.1,20.6,62.8,55,71.4
	c3,0.7,6.1,0,8.3-2c2.3-2,3.6-4.8,3.3-7.9l-3.1-39.7c7.8-4.1,17.2-4.1,25,0l-3.3,39.9c-0.2,3.1,1,6.1,3.3,8c2.3,2,5.6,2.6,8.5,1.7
	c31.8-9.1,51.7-36.5,51.9-71.3C421.7,581.3,404.6,555.5,376.8,544.2z M377.8,660.9l2.5-29.9c0.2-3.2-1.1-6.3-3.7-8.2l-0.4-0.2
	c-16.4-12.5-39.3-12.4-55.6,0.4c-2.5,2-3.8,4.9-3.6,8l2.3,30.8c-18-9-28.1-26.1-28.1-48.7c-0.2-24.6,17.1-44,33.4-51.7
	c3.2-1.5,5.3-4.8,5.3-8.5V399.1c0-4.1-2.7-7.8-6.6-8.9c-23.6-7.2-38.3-27.7-38.3-53.6c0-20.9,9.3-38.2,25-47.8l-2.5,29.9
	c-0.2,3.2,1.1,6.3,3.7,8.3l0.4,0.2c16.4,12.5,39.3,12.4,55.5-0.4c0.1-0.1,0.1-0.1,0.2-0.2c2.3-2,3.6-4.9,3.3-7.9l-2.5-31.1
	c18.4,8.7,28.7,25.7,28.7,48.5c0,21.1-13.8,42.5-33.7,52c-3.2,1.6-5.3,4.8-5.3,8.4v154.3c0,4.1,2.7,7.8,6.7,8.9
	c23.6,7.2,38.3,27.7,38.3,53.5C402.8,634.1,393.5,651.4,377.8,660.9L377.8,660.9z"/>
</svg>
