<svg xmlns="http://www.w3.org/2000/svg" width="70.025" height="70" viewBox="0 0 70.025 70">
  <g id="Enterprise_Risk_Management_" data-name="Enterprise Risk Management " transform="translate(-345.986 -380)">
    <g id="noun_business_target_3352808" data-name="noun_business target_3352808" transform="translate(340 374.008)">
      <g id="Group_376" data-name="Group 376" transform="translate(5.986 5.992)">
        <path id="Path_574" data-name="Path 574" d="M40.849,6a1.591,1.591,0,0,0-1.193.746l-3.8,6.09A28.7,28.7,0,0,0,12.833,35.829l-6.09,3.8a1.591,1.591,0,0,0,0,2.71l6.09,3.8A28.7,28.7,0,0,0,35.853,69.165l3.8,6.09a1.591,1.591,0,0,0,2.685,0l3.8-6.09A28.7,28.7,0,0,0,69.164,46.146l6.09-3.8a1.591,1.591,0,0,0,0-2.71l-6.09-3.8A28.7,28.7,0,0,0,46.144,12.835l-3.8-6.09A1.591,1.591,0,0,0,40.849,6ZM41,15.544A25.456,25.456,0,1,1,15.543,41,25.431,25.431,0,0,1,41,15.544Z" transform="translate(-5.986 -5.992)" fill="#002f65"/>
        <g id="noun_Search_2353121" transform="translate(16.624 16.705)">
          <path id="Path_575" data-name="Path 575" d="M39.858,36.4l-9.878-8.913a14.018,14.018,0,1,0-2.489,2.489L36.4,39.858A2.446,2.446,0,1,0,39.858,36.4ZM7.364,18.926A11.561,11.561,0,1,1,18.925,30.487,11.561,11.561,0,0,1,7.364,18.926Z" transform="translate(-4.885 -4.885)" fill="#5fc2ff"/>
        </g>
      </g>
    </g>
    <g id="Group_377" data-name="Group 377" transform="translate(375.676 403.812)">
      <path id="Path_264" data-name="Path 264" d="M430.538,22.789l-.538-5.7v-4.9a3.23,3.23,0,0,1,2.152,0v4.9l-.492,5.7A1.025,1.025,0,0,1,430.538,22.789Z" transform="translate(-429.954 -12)" fill="#004a9f"/>
      <circle id="Ellipse_16" data-name="Ellipse 16" cx="1.122" cy="1.122" r="1.122" transform="translate(0 12.756)" fill="#004a9f"/>
    </g>
  </g>
</svg>
