<svg xmlns="http://www.w3.org/2000/svg" width="60.5" height="52.868" viewBox="0 0 60.5 52.868">
  <g id="Enterprise_Risk" data-name="Enterprise Risk" transform="translate(-424 -123)">
    <g id="Group_320" data-name="Group 320">
      <g id="Group_319" data-name="Group 319">
        <path id="Subtraction_1" data-name="Subtraction 1" d="M36.555,39.189a2.654,2.654,0,0,1-1.91-.8L23.923,27.728l.555-.555-1.54-1.54a14.39,14.39,0,0,1-8.627,2.9A14.361,14.361,0,0,1,1.051,19.6,14.23,14.23,0,0,1,14.311,0a14.3,14.3,0,0,1,11.4,22.921l1.541,1.541.554-.555,10.66,10.66a2.712,2.712,0,0,1-1.91,4.622ZM14.311,3.7a10.543,10.543,0,0,0-3.982.778A10.529,10.529,0,0,0,6.855,21.69,10.544,10.544,0,1,0,21.766,6.778,10.68,10.68,0,0,0,14.311,3.7Z" transform="translate(444.75 135.693)" fill="#004a9f" stroke="rgba(0,0,0,0)" stroke-miterlimit="10" stroke-width="1"/>
        <g id="noun_Eye_2078378" transform="translate(345 227.5)">
          <g id="Group_318" data-name="Group 318" transform="translate(90 -110)">
            <path id="Path_412" data-name="Path 412" d="M24.056,37.5a8.942,8.942,0,0,1-5.282-1.832C17.422,34.66,16.5,33.413,16.5,32.5s.922-2.16,2.274-3.168A8.942,8.942,0,0,1,24.056,27.5a8.942,8.942,0,0,1,5.282,1.832c1.352,1.008,2.274,2.255,2.274,3.168s-.922,2.16-2.274,3.168A8.942,8.942,0,0,1,24.056,37.5Zm0-1.111a7.842,7.842,0,0,0,4.618-1.612A4.309,4.309,0,0,0,30.5,32.5a4.309,4.309,0,0,0-1.827-2.277,7.842,7.842,0,0,0-4.618-1.612,7.842,7.842,0,0,0-4.618,1.612A4.309,4.309,0,0,0,17.611,32.5a4.309,4.309,0,0,0,1.827,2.277A7.842,7.842,0,0,0,24.056,36.389Z" fill="#004a9f"/>
            <path id="Path_413" data-name="Path 413" d="M40.5,42.5a3,3,0,1,1,3-3A3,3,0,0,1,40.5,42.5Zm0-1.111A1.889,1.889,0,1,0,38.611,39.5,1.889,1.889,0,0,0,40.5,41.389Z" transform="translate(-16.333 -7)" fill="#004a9f"/>
          </g>
        </g>
      </g>
    </g>
    <g id="Group_321" data-name="Group 321">
      <path id="Path_266" data-name="Path 266" d="M11.9,79.04a1.525,1.525,0,0,1,1.54-1.54H34.452a1.54,1.54,0,1,1,0,3.081H13.44A1.565,1.565,0,0,1,11.9,79.04Z" transform="translate(418.632 88.879)" fill="#5fc2ff"/>
      <path id="Path_268" data-name="Path 268" d="M34.5,30.581c.308-.308.616-.678.924-.986A19.8,19.8,0,0,1,37.948,27.5H32.34a1.54,1.54,0,1,0,0,3.081Z" transform="translate(411.377 108.07)" fill="#5fc2ff"/>
      <path id="Path_269" data-name="Path 269" d="M13.64,70.581H29.353a9.471,9.471,0,0,1-1.171-1.047A13.679,13.679,0,0,1,26.457,67.5H13.64a1.525,1.525,0,0,0-1.54,1.54A1.565,1.565,0,0,0,13.64,70.581Z" transform="translate(418.555 92.717)" fill="#5fc2ff"/>
      <path id="Path_270" data-name="Path 270" d="M12.1,59.04a1.525,1.525,0,0,0,1.54,1.54H24.67A18.152,18.152,0,0,1,23.622,57.5H13.64a1.565,1.565,0,0,0-1.54,1.54Z" transform="translate(418.555 96.555)" fill="#5fc2ff"/>
      <path id="Path_271" data-name="Path 271" d="M13.64,50.581h9.489c0-.37-.062-.678-.062-1.047,0-.678.062-1.356.123-2.033H13.64a1.525,1.525,0,0,0-1.54,1.54A1.565,1.565,0,0,0,13.64,50.581Z" transform="translate(418.555 100.393)" fill="#5fc2ff"/>
      <path id="Path_272" data-name="Path 272" d="M12.1,39.04a1.525,1.525,0,0,0,1.54,1.54H23.869A14.869,14.869,0,0,1,25.163,37.5H13.64A1.565,1.565,0,0,0,12.1,39.04Z" transform="translate(418.555 104.232)" fill="#5fc2ff"/>
      <path id="Path_414" data-name="Path 414" d="M7.893,59.968h28.96a6.5,6.5,0,0,0,6.531-6.531V49.924A18.152,18.152,0,0,1,40.3,50.972v2.465a3.445,3.445,0,0,1-3.451,3.451H7.893a3.445,3.445,0,0,1-3.451-3.451V21.7H9.926a6.575,6.575,0,0,0,6.531-6.531V10.181h20.4A3.445,3.445,0,0,1,40.3,13.631v3.512a18.151,18.151,0,0,1,3.081,1.047v-4.56A6.5,6.5,0,0,0,36.853,7.1H15.472a3.489,3.489,0,0,0-1.109.185,2.438,2.438,0,0,0-.924.616L2.224,18.684a2.815,2.815,0,0,0-.678.986A2.5,2.5,0,0,0,1.3,20.841V53.5A6.616,6.616,0,0,0,7.893,59.968Z" transform="translate(422.7 115.9)" fill="#5fc2ff"/>
    </g>
  </g>
</svg>
