<?xml version="1.0" encoding="utf-8"?>
<!-- Generator: Adobe Illustrator 18.1.1, SVG Export Plug-In . SVG Version: 6.00 Build 0)  -->
<svg version="1.1" id="Capa_1" xmlns="http://www.w3.org/2000/svg" xmlns:xlink="http://www.w3.org/1999/xlink" x="0px" y="0px"
	 viewBox="-49 141 512 512" enable-background="new -49 141 512 512" xml:space="preserve">
<path id="XMLID_294_" fill="#002F64" d="M418,232.7h-22.4V186c0-15.4-12.6-28-28-28H46.4c-15.4,0-28,12.6-28,28v46.7H-4
	c-15.4,0-28,12.6-28,28v268.9c0,15.4,12.6,28,28,28h164.3V580h-17.8c-15.4,0-28,12.6-28,28v18.7c0,5.2,4.2,9.3,9.3,9.3h166.2
	c5.2,0,9.3-4.2,9.3-9.3V608c0-15.4-12.6-28-28-28h-17.8v-22.4H418c15.4,0,28-12.6,28-28V260.7C446,245.3,433.4,232.7,418,232.7z
	 M418,251.4c5.1,0,9.3,4.2,9.3,9.3v214.7h-31.7V251.4L418,251.4z M46.4,176.7h321.2c5.1,0,9.3,4.2,9.3,9.3v46.7H37.1V186
	C37.1,180.9,41.3,176.7,46.4,176.7z M-4,251.4h22.4v70c0,5.2,4.2,9.3,9.3,9.3s9.3-4.2,9.3-9.3v-70h339.8v224.1h-47.6v-30.8
	c0-5.2-4.2-9.3-9.3-9.3h-12.1c-2.1-7.4-5.1-14.4-8.8-21.1l8.6-8.6c3.6-3.6,3.6-9.6,0-13.2L279.3,364c-3.6-3.6-9.6-3.6-13.2,0
	l-8.6,8.6c-6.7-3.7-13.8-6.6-21.1-8.8v-12.1c0-5.2-4.2-9.3-9.3-9.3H187c-5.2,0-9.3,4.2-9.3,9.3v12.1c-7.4,2.1-14.4,5.1-21.1,8.8
	l-8.6-8.6c-3.6-3.6-9.6-3.6-13.2,0l-28.3,28.3c-3.6,3.6-3.6,9.6,0,13.2l8.6,8.6c-3.7,6.7-6.6,13.8-8.8,21.1H94
	c-5.2,0-9.3,4.2-9.3,9.3v30.8H37.1v-70c0-5.2-4.2-9.3-9.3-9.3s-9.3,4.2-9.3,9.3v70h-31.7V260.7C-13.3,255.5-9.1,251.4-4,251.4
	L-4,251.4z M133.3,406.1l-7.1-7.1l15.1-15.1l7.1,7.1c3.1,3.1,8,3.6,11.7,1.2c8.8-5.7,18.5-9.7,28.8-11.9c4.3-0.9,7.4-4.7,7.4-9.1
	v-10.1h21.4v10.1c0,4.4,3.1,8.2,7.4,9.1c10.3,2.2,20,6.2,28.8,11.9c3.7,2.4,8.6,1.9,11.7-1.2l7.1-7.1l15.1,15.1l-7.1,7.1
	c-3.1,3.1-3.6,8-1.2,11.7c5.7,8.8,9.7,18.5,11.9,28.8c0.9,4.3,4.7,7.4,9.1,7.4h10.1v21.4h-58.2c0.8-3.5,1.3-7.1,1.3-10.7
	c0-25.7-20.9-46.7-46.7-46.7s-46.7,20.9-46.7,46.7c0,3.6,0.4,7.2,1.3,10.7h-58.2V454h10.1c4.4,0,8.2-3.1,9.1-7.4
	c2.2-10.3,6.2-20,11.9-28.8C136.9,414.1,136.4,409.2,133.3,406.1L133.3,406.1z M179,464.7c0-15.4,12.6-28,28-28s28,12.6,28,28
	c0,3.7-0.7,7.3-2.2,10.7h-51.7C179.7,472,179,468.4,179,464.7z M280.8,608v9.3H133.2V608c0-5.1,4.2-9.3,9.3-9.3h128.9
	C276.6,598.7,280.8,602.8,280.8,608L280.8,608z M235,580h-56v-22.4h56V580z M418,538.9H-4c-5.1,0-9.3-4.2-9.3-9.3v-35.5h440.7v35.5
	C427.3,534.7,423.1,538.9,418,538.9z"/>
<path id="XMLID_1617_" fill="#002F64" d="M235,214h100.8c5.2,0,9.3-4.2,9.3-9.3s-4.2-9.3-9.3-9.3H235c-5.2,0-9.3,4.2-9.3,9.3
	S229.9,214,235,214z"/>
<path id="XMLID_1618_" fill="#002F64" d="M119.2,214c2.5,0,4.9-1,6.6-2.7c1.7-1.7,2.7-4.1,2.7-6.6s-1-4.9-2.7-6.6
	c-1.7-1.7-4.1-2.7-6.6-2.7s-4.9,1-6.6,2.7c-1.7,1.7-2.7,4.1-2.7,6.6s1,4.9,2.7,6.6C114.4,213,116.8,214,119.2,214z"/>
<path id="XMLID_1620_" fill="#002F64" d="M78.2,214c2.5,0,4.9-1,6.6-2.7c1.7-1.7,2.7-4.1,2.7-6.6s-1-4.9-2.7-6.6
	c-1.7-1.7-4.1-2.7-6.6-2.7c-2.5,0-4.9,1-6.6,2.7c-1.7,1.7-2.7,4.1-2.7,6.6s1,4.9,2.7,6.6C73.3,213,75.7,214,78.2,214z"/>
<path id="XMLID_1623_" fill="#002F64" d="M160.3,214c2.5,0,4.9-1,6.6-2.7c1.7-1.7,2.7-4.1,2.7-6.6s-1-4.9-2.7-6.6
	c-1.7-1.7-4.1-2.7-6.6-2.7s-4.9,1-6.6,2.7c-1.7,1.7-2.7,4.1-2.7,6.6s1,4.9,2.7,6.6C155.5,213,157.9,214,160.3,214z"/>
<path id="XMLID_1624_" fill="#5FC2FF" d="M72.6,296.2h22.2c5.2,0,9.3-4.2,9.3-9.3c0-5.2-4.2-9.3-9.3-9.3H72.6
	c-5.2,0-9.3,4.2-9.3,9.3C63.2,292,67.4,296.2,72.6,296.2z"/>
<path id="XMLID_1626_" fill="#5FC2FF" d="M135.9,296.2h85.6c5.2,0,9.3-4.2,9.3-9.3c0-5.2-4.2-9.3-9.3-9.3h-85.6
	c-5.2,0-9.3,4.2-9.3,9.3C126.5,292,130.7,296.2,135.9,296.2z"/>
<path id="XMLID_1627_" fill="#5FC2FF" d="M72.6,341h54.1c5.2,0,9.3-4.2,9.3-9.3c0-5.2-4.2-9.3-9.3-9.3H72.6c-5.2,0-9.3,4.2-9.3,9.3
	C63.2,336.8,67.4,341,72.6,341z"/>
<path id="XMLID_1628_" fill="#5FC2FF" d="M262.6,296.2h78.9c5.2,0,9.3-4.2,9.3-9.3c0-5.2-4.2-9.3-9.3-9.3h-78.9
	c-5.2,0-9.3,4.2-9.3,9.3C253.2,292,257.4,296.2,262.6,296.2z"/>
<path id="XMLID_1633_" fill="#5FC2FF" d="M341.4,322.3h-63.9c-5.2,0-9.3,4.2-9.3,9.3c0,5.2,4.2,9.3,9.3,9.3h63.9
	c5.2,0,9.3-4.2,9.3-9.3C350.8,326.5,346.6,322.3,341.4,322.3z"/>
<path id="XMLID_1635_" fill="#002F64" d="M27.8,372.7c2.5,0,4.9-1,6.6-2.7s2.7-4.1,2.7-6.6s-1-4.9-2.7-6.6c-1.7-1.7-4.1-2.7-6.6-2.7
	s-4.9,1-6.6,2.7c-1.7,1.7-2.7,4.1-2.7,6.6s1,4.9,2.7,6.6C22.9,371.7,25.3,372.7,27.8,372.7z"/>
</svg>
