<?xml version="1.0" encoding="utf-8"?>
<!-- Generator: Adobe Illustrator 18.1.1, SVG Export Plug-In . SVG Version: 6.00 Build 0)  -->
<svg version="1.1" id="Layer_1" xmlns="http://www.w3.org/2000/svg" xmlns:xlink="http://www.w3.org/1999/xlink" x="0px" y="0px"
	 width="70px" height="70px" viewBox="-270 362 70 70" enable-background="new -270 362 70 70" xml:space="preserve">
<g>
	<path fill="#002F64" d="M-232,381.5c1.1,0,2-0.9,2-2s-0.9-2-2-2h-24.2c-1.1,0-2,0.9-2,2s0.9,2,2,2H-232z"/>
	<path fill="#002F64" d="M-203,390.5h-16.9v-24.6c0-1.1-0.9-2-2-2h-44.3c-1.1,0-2,0.9-2,2v26.6c0,1.1,0.9,2,2,2h5.9v8
		c0,0.8,0.5,1.5,1.2,1.8c0.3,0.1,0.5,0.2,0.8,0.2c0.5,0,1-0.2,1.3-0.5l7.7-7v22c0,1.1,0.9,2,2,2h24.7l10.4,9.5
		c0.4,0.3,0.8,0.5,1.3,0.5c0.3,0,0.5-0.1,0.8-0.2c0.7-0.3,1.2-1,1.2-1.8v-8h5.9c1.1,0,2-0.9,2-2v-26.6
		C-201,391.3-201.9,390.5-203,390.5L-203,390.5z M-258.4,390.5h-5.8v-22.7h40.4v22.7h-23.5c-0.6,0-1.1,0.2-1.4,0.6l-7.7,6.9v-5.6
		C-256.4,391.3-257.3,390.5-258.4,390.5L-258.4,390.5z M-205,417.1h-5.9c-1.1,0-2,0.9-2,2v5.6l-7.7-7c-0.4-0.3-0.8-0.5-1.3-0.5
		h-23.5v-22.8h40.4V417.1z"/>
	<path fill="#002F64" d="M-237.3,404.1c-1.1,0-2,0.9-2,2s0.9,2,2,2h24.2c1.1,0,2-0.9,2-2s-0.9-2-2-2H-237.3z"/>
</g>
</svg>
