<svg xmlns="http://www.w3.org/2000/svg" width="70.473" height="60" viewBox="0 0 70.473 60">
  <g id="General_Ticket_" data-name="General Ticket " transform="translate(-932.292 -536.558)">
    <g id="Group_417" data-name="Group 417" transform="translate(932.292 536.558)">
      <path id="Path_658" data-name="Path 658" d="M9432.393,2356.465c.664.153,22.874,13.16,22.874,13.16l-8.667,15.148-22.484-13.193Z" transform="translate(-9409.38 -2343.897)" fill="#5fc2ff"/>
      <g id="noun_Ticket_922093" transform="translate(16.725 0) rotate(30)">
        <path id="Path_657" data-name="Path 657" d="M60.795,27.1a1.771,1.771,0,1,1,0-3.541h.013A1.255,1.255,0,0,0,62.063,22.3a1.21,1.21,0,0,0-.014-.183l0-2.375a1.257,1.257,0,0,0-1.258-1.253,1.769,1.769,0,0,1-1.765-1.768,1.775,1.775,0,0,1,1.771-1.772A1.256,1.256,0,0,0,62.049,13.7V11.144A1.255,1.255,0,0,0,60.795,9.89a1.772,1.772,0,1,1,0-3.543,1.255,1.255,0,0,0,1.254-1.255l0-3.837A1.255,1.255,0,0,0,60.792,0H1.256A1.256,1.256,0,0,0,0,1.255V5.094A1.257,1.257,0,0,0,1.259,6.349a1.77,1.77,0,0,1,0,3.539A1.255,1.255,0,0,0,0,11.142V13.7a1.256,1.256,0,0,0,1.255,1.256,1.771,1.771,0,1,1,0,3.541A1.256,1.256,0,0,0,0,19.75v2.555a1.256,1.256,0,0,0,1.255,1.255,1.771,1.771,0,1,1,0,3.541A1.256,1.256,0,0,0,0,28.358v3.836a1.256,1.256,0,0,0,1.255,1.255H60.8a1.256,1.256,0,0,0,1.255-1.255V28.357A1.258,1.258,0,0,0,60.795,27.1ZM2.511,30.938V29.423a4.28,4.28,0,0,0,0-8.185v-.421a4.28,4.28,0,0,0,0-8.184v-.422a4.279,4.279,0,0,0,0-8.182V2.512H43.587V30.938H2.511Zm57.029,0H46.1V2.512H59.538V4.028a4.28,4.28,0,0,0,0,8.184v.421a4.282,4.282,0,0,0,0,8.185v.419a4.284,4.284,0,0,0,0,8.189v1.513ZM38.656,6.257H11.709a1.256,1.256,0,0,0-1.255,1.255l0,18.422a1.255,1.255,0,0,0,1.255,1.255H38.655a1.256,1.256,0,0,0,1.255-1.255V7.512a1.256,1.256,0,0,0-1.254-1.255ZM37.4,24.681H12.961l0-15.913H37.4ZM15.832,14.972l16.224,0a1.255,1.255,0,1,0,0-2.51l-16.224,0a1.255,1.255,0,1,0,0,2.51Zm0,6.014H26.418a1.255,1.255,0,0,0,0-2.51H15.829a1.255,1.255,0,1,0,0,2.51Z" transform="translate(0 0)" fill="#002f65"/>
      </g>
    </g>
  </g>
</svg>
