<svg xmlns="http://www.w3.org/2000/svg" width="70" height="70" viewBox="0 0 70 70">
  <g id="Hazard_management_" data-name="Hazard management " transform="translate(-441 -698)">
    <g id="Rectangle_138" data-name="Rectangle 138" transform="translate(476 698) rotate(45)" fill="none" stroke="#002f64" stroke-width="3">
      <rect width="49.497" height="49.497" rx="10" stroke="none"/>
      <rect x="1.5" y="1.5" width="46.497" height="46.497" rx="8.5" fill="none"/>
    </g>
    <g id="Group_438" data-name="Group 438" transform="translate(473.704 720.097)">
      <path id="Path_680" data-name="Path 680" d="M45.355,30.621a2.563,2.563,0,0,1,.716-1.927,2.593,2.593,0,0,1,3.635,0,2.472,2.472,0,0,1,.716,2.093v.165L48.769,46.426a.894.894,0,0,1-.881.826.993.993,0,0,1-.826-.826L45.3,30.951A.7.7,0,0,1,45.355,30.621Z" transform="translate(-45.3 -27.95)" fill="#5fc2ff"/>
      <circle id="Ellipse_47" data-name="Ellipse 47" cx="2.588" cy="2.588" r="2.588" transform="translate(0 21.34)" fill="#5fc2ff"/>
    </g>
  </g>
</svg>
