<svg xmlns="http://www.w3.org/2000/svg" width="68.176" height="61.444" viewBox="0 0 68.176 61.444">
  <g id="Incident_Management_" data-name="Incident Management " transform="translate(-1085.412 -255.5)">
    <g id="noun_triangle_1488219" transform="translate(1083.71 248.999)">
      <g id="Group_389" data-name="Group 389" transform="translate(3.29 8.001)">
        <path id="Path_587" data-name="Path 587" d="M42.82,12.038,67.2,54.267a8.14,8.14,0,0,1-7.031,12.177H11.409A8.14,8.14,0,0,1,4.378,54.267l24.381-42.23a8.14,8.14,0,0,1,14.061,0h0Zm-1,.579a6.98,6.98,0,0,0-12.054,0L5.382,54.847a7,7,0,0,0,6.027,10.439H60.171A7,7,0,0,0,66.2,54.847L41.817,12.617Z" transform="translate(-3.29 -8.001)" fill="#002f65" stroke="#002f65" stroke-width="3" fill-rule="evenodd"/>
      </g>
    </g>
    <g id="Group_437" data-name="Group 437" transform="translate(1117 271)">
      <path id="Path_264" data-name="Path 264" d="M431.18,35.657,430,23.155V12.4a7.082,7.082,0,0,1,4.718,0v10.75l-1.078,12.5A2.247,2.247,0,0,1,431.18,35.657Z" transform="translate(-429.899 -14)" fill="#5fc2ff"/>
      <circle id="Ellipse_16" data-name="Ellipse 16" cx="2.46" cy="2.46" r="2.46" transform="translate(0 27.971)" fill="#5fc2ff"/>
    </g>
  </g>
</svg>
