<svg xmlns="http://www.w3.org/2000/svg" width="62.016" height="54.511" viewBox="0 0 62.016 54.511">
  <g id="Incident_Management_" data-name="Incident Management " transform="translate(-529.14 -1283.99)">
    <path id="Subtraction_10" data-name="Subtraction 10" d="M18.919,27.141v0l-4.737-9.6L5.953,24.625l3.97-9.485L0,11.9l.042-.062L10.9,10.581,9.031,0l6.227,8.283L19.812.459l.417,8.8,8.155-.562L21.429,14.25l8.079,9.6L19.461,17.808l-.542,9.33Zm-4.56-13.508h0l2.058,4.224.246-4.238,1.125.685-.391-.466,2.86-2.277-2.915.206L17.185,8.64,14.9,12.576,12.521,9.4l.556,3.208-2.579.3,2.057.652L11.5,16.1l2.858-2.468Z" transform="translate(545.086 1306.944)" fill="#004a9f" stroke="rgba(0,0,0,0)" stroke-miterlimit="10" stroke-width="1"/>
    <path id="Subtraction_8" data-name="Subtraction 8" d="M60.345,53H0L30.173,0,60.345,53h0ZM29.975,4.113h0L3.429,50.745H56.521L29.975,4.114Z" transform="translate(530 1285)" fill="#5fc2ff" stroke="rgba(0,0,0,0)" stroke-miterlimit="10" stroke-width="1"/>
  </g>
</svg>
