<?xml version="1.0" encoding="utf-8"?>
<!-- Generator: Adobe Illustrator 18.1.1, SVG Export Plug-In . SVG Version: 6.00 Build 0)  -->
<svg version="1.1" id="Layer_1" xmlns="http://www.w3.org/2000/svg" xmlns:xlink="http://www.w3.org/1999/xlink" x="0px" y="0px"
	 viewBox="-479 483.8 65 58.2" enable-background="new -479 483.8 65 58.2" xml:space="preserve">
<g id="XMLID_2059_">
	<g id="XMLID_1977_">
		<g id="XMLID_58_">
			<path id="XMLID_355_" fill="#002F64" d="M-457.2,506.5v3.1c0,0.6,0.5,1.1,1.1,1.1h8.3v3.7c-0.4-0.3-1-0.3-1.4,0.1
				c-0.4,0.4-0.4,1.1,0,1.5l1.7,1.7c0.2,0.2,0.5,0.3,0.8,0.3s0.6-0.1,0.8-0.3l1.7-1.7c0.4-0.4,0.4-1.1,0-1.5c-0.4-0.4-1-0.4-1.4-0.1
				v-3.7h8.3c0.6,0,1.1-0.5,1.1-1.1v-3.1c0-4-2.8-7.4-6.6-8.2c0.6-0.8,0.9-1.8,0.9-2.9v-0.9c0-2.7-2.2-4.8-4.8-4.8
				c-2.7,0-4.8,2.2-4.8,4.8v0.9c0,1.1,0.4,2.1,0.9,2.9C-454.4,499.1-457.2,502.5-457.2,506.5L-457.2,506.5z M-449.4,494.4
				c0-1.5,1.2-2.7,2.7-2.7s2.7,1.2,2.7,2.7v0.9c0,1.5-1.2,2.7-2.7,2.7s-2.7-1.2-2.7-2.7V494.4z M-448.8,500.2h4.1
				c3.4,0,6.2,2.8,6.2,6.2v2H-455v-2C-455,503-452.2,500.2-448.8,500.2z"/>
			<path id="XMLID_384_" fill="#002F64" d="M-425.1,529.1c0.5-0.8,0.9-1.7,0.9-2.7v-0.9c0-2.6-2.1-4.7-4.7-4.7
				c-2.6,0-4.7,2.1-4.7,4.7v0.9c0,1,0.3,1.9,0.9,2.7c-2.2,0.5-4,1.9-5.1,3.8c-1.1-1.9-2.9-3.3-5.1-3.8c0.5-0.8,0.9-1.7,0.9-2.7v-0.9
				c0-2.6-2.1-4.7-4.7-4.7s-4.7,2.1-4.7,4.7v0.9c0,1,0.3,1.9,0.9,2.7c-2.2,0.5-4,1.9-5.1,3.8c-1.1-1.9-2.9-3.3-5.1-3.8
				c0.5-0.8,0.9-1.7,0.9-2.7v-0.9c0-2.6-2.1-4.7-4.7-4.7s-4.7,2.1-4.7,4.7v0.9c0,1,0.3,1.9,0.9,2.7c-3.6,0.8-6.2,4-6.2,7.9v2.9
				c0,0.6,0.5,1.1,1.1,1.1h21.9c0.6,0,1.1-0.5,1.1-1.1c0-0.6-0.5-1.1-1.1-1.1h-2.9V537c0-3.2,2.6-5.9,5.9-5.9h3.9
				c3.2,0,5.9,2.6,5.9,5.9v1.9h-2.9c-0.6,0-1.1,0.5-1.1,1.1c0,0.6,0.5,1.1,1.1,1.1h21.9c0.6,0,1.1-0.5,1.1-1.1V537
				C-418.9,533.2-421.5,530-425.1,529.1L-425.1,529.1z M-467.1,525.5c0-1.4,1.1-2.5,2.5-2.5s2.5,1.1,2.5,2.5v0.9
				c0,1.4-1.1,2.5-2.5,2.5s-2.5-1.1-2.5-2.5V525.5z M-472.4,537c0-3.2,2.6-5.9,5.9-5.9h3.9c3.2,0,5.9,2.6,5.9,5.9v1.9h-15.7V537z
				 M-449.2,525.5c0-1.4,1.1-2.5,2.5-2.5s2.5,1.1,2.5,2.5v0.9c0,1.4-1.1,2.5-2.5,2.5s-2.5-1.1-2.5-2.5V525.5z M-431.4,525.5
				c0-1.4,1.1-2.5,2.5-2.5c1.4,0,2.5,1.1,2.5,2.5v0.9c0,1.4-1.1,2.5-2.5,2.5c-1.4,0-2.5-1.1-2.5-2.5V525.5z M-421,538.8h-15.7V537
				c0-3.2,2.6-5.9,5.9-5.9h3.9c3.2,0,5.9,2.6,5.9,5.9V538.8z"/>
			<path id="XMLID_405_" fill="#002F64" d="M-446.7,538.8c-0.3,0-0.6,0.1-0.8,0.3c-0.2,0.2-0.3,0.5-0.3,0.8c0,0.3,0.1,0.6,0.3,0.8
				c0.2,0.2,0.5,0.3,0.8,0.3s0.6-0.1,0.8-0.3c0.2-0.2,0.3-0.5,0.3-0.8c0-0.3-0.1-0.6-0.3-0.8C-446.2,538.9-446.5,538.8-446.7,538.8z
				"/>
			<path id="XMLID_411_" fill="#5FC2FF" d="M-436.6,493.5h1.2c0.1,0.6,0.4,1.1,0.7,1.6l-0.9,0.9c-0.4,0.4-0.4,1.1,0,1.5
				c0.2,0.2,0.5,0.3,0.8,0.3c0.3,0,0.6-0.1,0.8-0.3l0.9-0.9c0.5,0.3,1,0.5,1.6,0.7v1.2c0,0.6,0.5,1.1,1.1,1.1c0.6,0,1.1-0.5,1.1-1.1
				v-1.2c0.6-0.1,1.1-0.4,1.6-0.7l0.9,0.9c0.2,0.2,0.5,0.3,0.8,0.3c0.3,0,0.6-0.1,0.8-0.3c0.4-0.4,0.4-1.1,0-1.5l-0.9-0.9
				c0.3-0.5,0.5-1,0.7-1.6h1.2c0.6,0,1.1-0.5,1.1-1.1c0-0.6-0.5-1.1-1.1-1.1h-1.2c-0.1-0.6-0.4-1.1-0.7-1.6l0.9-0.9
				c0.4-0.4,0.4-1.1,0-1.5c-0.4-0.4-1.1-0.4-1.5,0l-0.9,0.9c-0.5-0.3-1-0.5-1.6-0.7v-1.2c0-0.6-0.5-1.1-1.1-1.1
				c-0.6,0-1.1,0.5-1.1,1.1v1.2c-0.6,0.1-1.1,0.4-1.6,0.7l-0.9-0.9c-0.4-0.4-1.1-0.4-1.5,0c-0.4,0.4-0.4,1.1,0,1.5l0.9,0.9
				c-0.3,0.5-0.5,1-0.7,1.6h-1.2c-0.6,0-1.1,0.5-1.1,1.1C-437.6,493-437.2,493.5-436.6,493.5L-436.6,493.5z M-430.5,489.6
				c1.6,0,2.8,1.3,2.8,2.8s-1.3,2.8-2.8,2.8s-2.8-1.3-2.8-2.8S-432,489.6-430.5,489.6z"/>
			<path id="XMLID_418_" fill="#5FC2FF" d="M-469.1,493.5h1.2c0.1,0.6,0.4,1.1,0.7,1.6l-0.9,0.9c-0.4,0.4-0.4,1.1,0,1.5
				c0.2,0.2,0.5,0.3,0.8,0.3c0.3,0,0.6-0.1,0.8-0.3l0.9-0.9c0.5,0.3,1,0.5,1.6,0.7v1.2c0,0.6,0.5,1.1,1.1,1.1c0.6,0,1.1-0.5,1.1-1.1
				v-1.2c0.6-0.1,1.1-0.4,1.6-0.7l0.9,0.9c0.2,0.2,0.5,0.3,0.8,0.3c0.3,0,0.6-0.1,0.8-0.3c0.4-0.4,0.4-1.1,0-1.5l-0.9-0.9
				c0.3-0.5,0.5-1,0.7-1.6h1.2c0.6,0,1.1-0.5,1.1-1.1c0-0.6-0.5-1.1-1.1-1.1h-1.2c-0.1-0.6-0.4-1.1-0.7-1.6l0.9-0.9
				c0.4-0.4,0.4-1.1,0-1.5c-0.4-0.4-1.1-0.4-1.5,0l-0.9,0.9c-0.5-0.3-1-0.5-1.6-0.7v-1.2c0-0.6-0.5-1.1-1.1-1.1
				c-0.6,0-1.1,0.5-1.1,1.1v1.2c-0.6,0.1-1.1,0.4-1.6,0.7l-0.9-0.9c-0.4-0.4-1.1-0.4-1.5,0c-0.4,0.4-0.4,1.1,0,1.5l0.9,0.9
				c-0.3,0.5-0.5,1-0.7,1.6h-1.2c-0.6,0-1.1,0.5-1.1,1.1C-470.2,493-469.7,493.5-469.1,493.5z M-463,489.6c1.6,0,2.8,1.3,2.8,2.8
				s-1.3,2.8-2.8,2.8s-2.8-1.3-2.8-2.8S-464.6,489.6-463,489.6z"/>
		</g>
	</g>
</g>
</svg>
