<svg xmlns="http://www.w3.org/2000/svg" width="60" height="60.784" viewBox="0 0 60 60.784">
  <g id="Infosec_Risk_" data-name="Infosec Risk  " transform="translate(-7340.4 -890)">
    <g id="noun_Focus_Target_1111352" data-name="noun_Focus Target_1111352" transform="translate(7340.4 890)">
      <g id="Group_203" data-name="Group 203" transform="translate(0 0)">
        <g id="Group_202" data-name="Group 202">
          <g id="Group_199" data-name="Group 199">
            <path id="Path_262" data-name="Path 262" d="M59.733,30.151H57.184l-.1-.9a26.6,26.6,0,0,0-8.529-17.509A25.189,25.189,0,0,0,33.949,5.28l-.882-.1V3.091a1.667,1.667,0,1,0-3.333,0V5.18l-.882.1a26.109,26.109,0,0,0-10.1,3.183A26.431,26.431,0,0,0,5.714,29.255l-.1.9H3.067a1.691,1.691,0,0,0,0,3.382H5.616l.1.9A25.829,25.829,0,0,0,28.263,57.409l1.471.1v2.984a1.667,1.667,0,1,0,3.333,0V57.508l.882-.1a26.189,26.189,0,0,0,10.2-3.283L41.89,51.639a24.344,24.344,0,0,1-7.745,2.487l-1.078.1V51.34a1.667,1.667,0,1,0-3.333,0v2.885l-1.078-.1a22.73,22.73,0,0,1-19.608-19.5l-.2-1.094h3.333a1.691,1.691,0,0,0,0-3.382H8.851l.1-1.094A23.012,23.012,0,0,1,20.42,11.348a23.632,23.632,0,0,1,8.235-2.686l1.078-.1v3.78a1.667,1.667,0,1,0,3.333,0V8.563l1.078.1A22.474,22.474,0,0,1,46.4,14.233a22.964,22.964,0,0,1,7.451,14.823l.1,1.094H50.616a1.691,1.691,0,0,0,0,3.382h3.333l-.2,1.094a23.463,23.463,0,0,1-2.941,8.456l2.451,2.288a26.5,26.5,0,0,0,3.824-10.943l.1-.9h2.549A1.664,1.664,0,0,0,61.4,31.842,1.8,1.8,0,0,0,59.733,30.151Z" transform="translate(-1.4 -1.4)" fill="#5fc2ff"/>
          </g>
          <g id="Group_201" data-name="Group 201" transform="translate(14.902 15.121)">
            <g id="Group_200" data-name="Group 200">
              <path id="Path_263" data-name="Path 263" d="M44.247,40.376A14.8,14.8,0,0,0,46.8,31.92a15.169,15.169,0,1,0-7.157,13.032l9.9,11.142.294.3a3.871,3.871,0,0,0,5.588-.3,4.1,4.1,0,0,0-.294-5.671Zm-7.255,1.492A10.521,10.521,0,0,1,31.7,43.261,11.342,11.342,0,1,1,42.874,31.92a11.317,11.317,0,0,1-5.882,9.948Z" transform="translate(-16.6 -16.6)" fill="#004a9f"/>
            </g>
          </g>
        </g>
      </g>
    </g>
    <g id="noun_exclamation_1996157" transform="translate(7369.419 912.881)">
      <g id="Group_204" data-name="Group 204">
        <path id="Path_264" data-name="Path 264" d="M430.563,23.283,430,17.32V12.193a3.378,3.378,0,0,1,2.25,0V17.32l-.514,5.963A1.072,1.072,0,0,1,430.563,23.283Z" transform="translate(-429.952 -12)" fill="#004a9f"/>
        <circle id="Ellipse_16" data-name="Ellipse 16" cx="1.173" cy="1.173" r="1.173" transform="translate(0 13.34)" fill="#004a9f"/>
      </g>
    </g>
  </g>
</svg>
