<svg xmlns="http://www.w3.org/2000/svg" width="65" height="70.05" viewBox="0 0 65 70.05">
  <g id="IS_Asset_Register_" data-name="IS Asset Register  " transform="translate(-955 -661.001)">
    <path id="Subtraction_19" data-name="Subtraction 19" d="M20.8,58.1H3.511A3.514,3.514,0,0,1,0,54.593V3.509A3.514,3.514,0,0,1,3.511,0H18.565a3.517,3.517,0,0,1,2.276.836l7.933,6.746a.9.9,0,0,0,.586.216H61.488A3.516,3.516,0,0,1,65,11.31V54.593A3.515,3.515,0,0,1,61.488,58.1H48.1V55.5H61.488a.911.911,0,0,0,.911-.908V23.331H2.6V54.593a.91.91,0,0,0,.91.908H20.8v2.6ZM3.511,2.6a.912.912,0,0,0-.91.91V20.73H62.4V11.31a.912.912,0,0,0-.911-.91H29.36a3.514,3.514,0,0,1-2.275-.839L19.154,2.817a.907.907,0,0,0-.589-.219Z" transform="translate(955 661.001)" fill="#002f65"/>
    <g id="noun_sheild_2664833" transform="translate(972.006 692.199)">
      <g id="Layer_2" data-name="Layer 2" transform="translate(0 0)">
        <g id="Group">
          <g id="Group-2" data-name="Group">
            <path id="Path_625" data-name="Path 625" d="M19.875,39.747a2.6,2.6,0,0,1-.884-.156C16.547,38.655,8.175,35.21,5.081,27.8,2.767,22.276,2.975,13.228,3.235,9.588,3.326,8.015,4.782,7.456,5.484,7.17,8.526,5.974,16.04,2.893,18.64,1.476a2.6,2.6,0,0,1,2.535,0c2.6,1.417,10.075,4.5,13.091,5.681.7.273,2.171.845,2.262,2.418h0c.208,3.64.455,12.688-1.859,18.2C31.575,35.21,23.268,38.655,20.8,39.591A2.7,2.7,0,0,1,19.875,39.747Zm0-36.815a.793.793,0,0,0-.416.1C16.794,4.505,9.332,7.56,6.134,8.821c-.936.364-1.118.6-1.144.871C4.8,13.2,4.548,21.925,6.719,27.112,9.553,33.858,17.314,37.1,19.628,37.927a.819.819,0,0,0,.559,0c2.288-.832,10.088-4.069,12.844-10.816,2.171-5.2,1.937-13.91,1.729-17.42,0-.273-.208-.507-1.144-.871-3.172-1.3-10.608-4.316-13.286-5.785A.806.806,0,0,0,19.875,2.932Z" transform="translate(-3.082 -1.146)" fill="#39b4ff" stroke="#39b4ff" stroke-width="0.5"/>
          </g>
        </g>
      </g>
    </g>
    <path id="Path_627" data-name="Path 627" d="M38.155,47.948a2.417,2.417,0,0,1-1.715-.711l-4.789-4.789a2.426,2.426,0,0,1,3.432-3.432l3.074,3.074,7.864-7.864a2.426,2.426,0,0,1,3.432,3.432l-9.579,9.579A2.433,2.433,0,0,1,38.155,47.948Z" transform="translate(948.781 670.616)" fill="#5fc2ff"/>
  </g>
</svg>
