<svg xmlns="http://www.w3.org/2000/svg" width="41.878" height="54" viewBox="0 0 41.878 54">
  <g id="IS_Asset_Risk_Register" data-name="IS Asset &amp; Risk Register" transform="translate(-1061.5 -1117.5)">
    <path id="Exclusion_2" data-name="Exclusion 2" d="M-7161.461-28.609a7.35,7.35,0,0,0,4.6,2.637,6.425,6.425,0,0,1,2.457.972,6.425,6.425,0,0,1,2.457-.972,7.35,7.35,0,0,0,4.6-2.637c2.4-3.092,1.555-6.2.417-8.826-.9-2.065.119-4.409.722-5.51l-1.181-.95a7.122,7.122,0,0,1-7.01-1.1,7.122,7.122,0,0,1-7.01,1.1l-1.181.95c.6,1.1,1.617,3.445.722,5.51C-7163.017-34.806-7163.858-31.7-7161.461-28.609Z" transform="translate(8237 1170)" fill="#004a9f"/>
    <g id="noun_school_registration_1845755" data-name="noun_school registration_1845755" transform="translate(1042.82 1108)">
      <path id="Path_544" data-name="Path 544" d="M30.538,59.845h25.14a.662.662,0,0,0,0-1.325H30.538a.662.662,0,1,0,0,1.325Z" transform="translate(-3.61 -16.376)" fill="#5fc2ff" stroke="#5fc2ff" stroke-width="1"/>
      <path id="Path_545" data-name="Path 545" d="M30.538,67.688h25.14a.662.662,0,1,0,0-1.325H30.538a.662.662,0,1,0,0,1.325Z" transform="translate(-3.61 -19.023)" fill="#5fc2ff" stroke="#5fc2ff" stroke-width="1"/>
      <path id="Path_546" data-name="Path 546" d="M59.4,63a.663.663,0,0,0,.662-.663V10.662A.663.663,0,0,0,59.4,10H19.843a.663.663,0,0,0-.663.663V62.337a.663.663,0,0,0,.663.663Zm-38.89-7.807,6.482,6.482H20.505Zm7.218,5.344-5.994-5.994h5.994Zm31.01-49.212v50.35H29.048V53.88a.663.663,0,0,0-.662-.663h-7.88V11.325Z" fill="#5fc2ff" stroke="#5fc2ff" stroke-width="1"/>
    </g>
  </g>
</svg>
