<svg xmlns="http://www.w3.org/2000/svg" width="60" height="63.525" viewBox="0 0 60 63.525">
  <g id="IS_asset_and_risk_register_" data-name="IS asset and risk register  " transform="translate(-82 -532)">
    <g id="noun_edit_2964091" transform="translate(82 532)">
      <g id="Group_391" data-name="Group 391" transform="translate(0 0)">
        <path id="Path_589" data-name="Path 589" d="M52.414,79.994a1.857,1.857,0,0,1,3.713,0v24.422a9.815,9.815,0,0,1-9.712,9.712H9.712A9.721,9.721,0,0,1,0,104.415v-36.7A9.631,9.631,0,0,1,9.712,58h20.28a1.771,1.771,0,0,1,1.714,1.857,1.65,1.65,0,0,1-1.714,1.714H9.712A6.1,6.1,0,0,0,3.57,67.712v36.7a6.066,6.066,0,0,0,6.141,6h36.7a6.035,6.035,0,0,0,6-6Z" transform="translate(0 -50.602)" fill="#002f64"/>
        <g id="Group_434" data-name="Group 434" transform="translate(15.802 0)">
          <path id="Path_678" data-name="Path 678" d="M618.159,577.466l4.312,4.312a2.373,2.373,0,0,1,0,3.3l-5.2,5.2-7.61-7.61,5.2-5.2A2.375,2.375,0,0,1,618.159,577.466Z" transform="translate(-578.94 -576.8)" fill="#5fc2ff" fill-rule="evenodd"/>
          <rect id="Rectangle_137" data-name="Rectangle 137" width="34.799" height="10.762" transform="matrix(0.707, -0.707, 0.707, 0.707, 4.339, 32.25)" fill="#002f65"/>
          <path id="Path_679" data-name="Path 679" d="M586.53,620.779l-8.879,2.789a.837.837,0,0,1-1.015-1.015l2.789-8.879Z" transform="translate(-576.611 -579.398)" fill="#5fc2ff" fill-rule="evenodd"/>
        </g>
      </g>
    </g>
  </g>
</svg>
