<svg xmlns="http://www.w3.org/2000/svg" width="65" height="65" viewBox="0 0 65 65">
  <g id="IS_Risk_Register_" data-name="IS Risk Register  " transform="translate(-801 -535)">
    <g id="Group_411" data-name="Group 411" transform="translate(801 535)">
      <g id="noun_security_network_1762085" data-name="noun_security network_1762085" transform="translate(0 0)">
        <g id="_09-security_system" data-name="09-security system" transform="translate(0 0)">
          <g id="Group_410" data-name="Group 410">
            <circle id="Ellipse_33" data-name="Ellipse 33" cx="4.179" cy="4.179" r="4.179" transform="translate(0.929 1.857)" fill="#5fc2ff"/>
            <circle id="Ellipse_34" data-name="Ellipse 34" cx="4.179" cy="4.179" r="4.179" transform="translate(0.929 27.857)" fill="#5fc2ff"/>
            <circle id="Ellipse_35" data-name="Ellipse 35" cx="4.179" cy="4.179" r="4.179" transform="translate(0.929 55.714)" fill="#5fc2ff"/>
            <circle id="Ellipse_36" data-name="Ellipse 36" cx="4.179" cy="4.179" r="4.179" transform="translate(28.786 55.714)" fill="#5fc2ff"/>
            <circle id="Ellipse_37" data-name="Ellipse 37" cx="4.179" cy="4.179" r="4.179" transform="translate(56.643 55.714)" fill="#5fc2ff"/>
            <circle id="Ellipse_38" data-name="Ellipse 38" cx="4.179" cy="4.179" r="4.179" transform="translate(56.643 27.857)" fill="#5fc2ff"/>
            <circle id="Ellipse_39" data-name="Ellipse 39" cx="4.179" cy="4.179" r="4.179" transform="translate(55.715 0.929)" fill="#5fc2ff"/>
            <circle id="Ellipse_40" data-name="Ellipse 40" cx="4.179" cy="4.179" r="4.179" transform="translate(27.857 0.929)" fill="#5fc2ff"/>
            <path id="Path_630" data-name="Path 630" d="M27.592,44.315a1.353,1.353,0,0,0,1.3,0l14.887-8.12a1.353,1.353,0,0,0,.705-1.188V13.353A1.353,1.353,0,0,0,43.126,12H13.353A1.353,1.353,0,0,0,12,13.353V35.006Zm.648-2.73L14.707,34.2V14.469H41.773V34.2ZM41.773,13.778h0Z" transform="translate(4.24 4.26)" fill="#002f64"/>
            <path id="Path_631" data-name="Path 631" d="M4.06,10.64v4.252a4.06,4.06,0,0,0,4.06,4.06h5.413V16.245H8.12a1.353,1.353,0,0,1-1.353-1.353V10.64a5.413,5.413,0,1,0-2.707,0ZM5.413,2.712A2.707,2.707,0,1,1,2.707,5.419,2.707,2.707,0,0,1,5.413,2.712Z" transform="translate(0 0.015)" fill="#002f64"/>
            <path id="Path_632" data-name="Path 632" d="M24.06,10.64v2.9h2.707v-2.9a5.413,5.413,0,1,0-2.707,0Zm1.353-7.928a2.707,2.707,0,1,1-2.707,2.707A2.707,2.707,0,0,1,25.413,2.712Z" transform="translate(7.067 0.015)" fill="#002f64"/>
            <path id="Path_633" data-name="Path 633" d="M46.12,20A5.413,5.413,0,0,0,40.9,24.06H38v2.707h2.9A5.4,5.4,0,1,0,46.12,20Zm0,8.12a2.707,2.707,0,1,1,2.707-2.707A2.707,2.707,0,0,1,46.12,28.12Z" transform="translate(13.427 7.087)" fill="#002f64"/>
            <path id="Path_634" data-name="Path 634" d="M5.413,30.822a5.413,5.413,0,0,0,5.221-4.06h2.9V24.055h-2.9a5.4,5.4,0,1,0-5.221,6.767Zm0-8.12a2.707,2.707,0,1,1-2.707,2.707A2.707,2.707,0,0,1,5.413,22.7Z" transform="translate(0.001 7.091)" fill="#002f64"/>
            <path id="Path_635" data-name="Path 635" d="M26.767,40.9V38H24.06v2.9a5.413,5.413,0,1,0,2.707,0Zm-1.353,7.928A2.707,2.707,0,1,1,28.12,46.12,2.707,2.707,0,0,1,25.413,48.827Z" transform="translate(7.067 13.447)" fill="#002f64"/>
            <path id="Path_636" data-name="Path 636" d="M49.313,42.739V38.486a4.06,4.06,0,0,0-4.06-4.06H36.34l-1.633-1.633-1.914,1.914,2.03,2.03a1.353,1.353,0,0,0,.957.4h9.473a1.353,1.353,0,0,1,1.353,1.353v4.252a5.413,5.413,0,1,0,2.707,0ZM47.96,50.666a2.707,2.707,0,1,1,2.707-2.707A2.707,2.707,0,0,1,47.96,50.666Z" transform="translate(11.587 11.607)" fill="#002f64"/>
            <path id="Path_637" data-name="Path 637" d="M17.033,34.6H8.12a4.06,4.06,0,0,0-4.06,4.06v4.252a5.413,5.413,0,1,0,2.707,0V38.663A1.353,1.353,0,0,1,8.12,37.31h9.473a1.353,1.353,0,0,0,.957-.4l2.707-2.707-1.914-1.914ZM8.12,48.136A2.707,2.707,0,1,1,5.413,45.43,2.707,2.707,0,0,1,8.12,48.136Z" transform="translate(0 11.43)" fill="#002f64"/>
            <path id="Path_638" data-name="Path 638" d="M47.473,14.892V10.64a5.413,5.413,0,1,0-2.707,0v4.252a1.353,1.353,0,0,1-1.353,1.353H38v2.707h5.413A4.06,4.06,0,0,0,47.473,14.892Zm-4.06-9.473A2.707,2.707,0,1,1,46.12,8.125a2.707,2.707,0,0,1-2.707-2.707Z" transform="translate(13.427 0.015)" fill="#002f64"/>
          </g>
        </g>
      </g>
      <path id="Path_639" data-name="Path 639" d="M48.339,50.06A2.677,2.677,0,0,0,46.616,54.8v4.7a1.706,1.706,0,1,0,3.411,0V54.824a2.661,2.661,0,0,0,1-2.075A2.689,2.689,0,0,0,48.339,50.06Z" transform="translate(-15.332 -25.313)" fill="#5fc2ff"/>
    </g>
  </g>
</svg>
