<svg xmlns="http://www.w3.org/2000/svg" width="65" height="69.955" viewBox="0 0 65 69.955">
  <g id="Issue_Management_" data-name="Issue Management " transform="translate(-558 -384)">
    <g id="Issue_Management_2" data-name="Issue Management " transform="translate(587.761 402.849)">
      <g id="noun_exclamation_1996157" transform="translate(0 0)">
        <g id="Group_204" data-name="Group 204">
          <path id="Path_264" data-name="Path 264" d="M431.179,35.642,430,23.148V12.4a7.078,7.078,0,0,1,4.715,0V23.148l-1.078,12.495A2.245,2.245,0,0,1,431.179,35.642Z" transform="translate(-429.899 -12)" fill="#5fc2ff"/>
          <circle id="Ellipse_16" data-name="Ellipse 16" cx="2.459" cy="2.459" r="2.459" transform="translate(0 27.953)" fill="#5fc2ff"/>
        </g>
      </g>
    </g>
    <g id="noun_Gear_804509" transform="translate(558 384)">
      <g id="Group_380" data-name="Group 380" transform="translate(0 0)">
        <g id="Group_379" data-name="Group 379">
          <path id="Path_576" data-name="Path 576" d="M27.958.275a5.314,5.314,0,0,0-3.989,2.93,11.029,11.029,0,0,0-1.091,4.289,6.462,6.462,0,0,1-3.191,5.31,6.523,6.523,0,0,1-6.211.116,10.7,10.7,0,0,0-4.219-1.147A5.3,5.3,0,0,0,4.792,13.8a35.758,35.758,0,0,0-4.42,7.784,5.352,5.352,0,0,0,.5,4.847,10.565,10.565,0,0,0,3.084,3.061,6.441,6.441,0,0,1,2.971,5.449,6.359,6.359,0,0,1-2.937,5.418A10.5,10.5,0,0,0,.908,43.423a5.348,5.348,0,0,0-.489,4.849,36.042,36.042,0,0,0,4.445,7.8A5.312,5.312,0,0,0,9.316,58.1a10.665,10.665,0,0,0,4.221-1.134,6.468,6.468,0,0,1,9.439,5.485,11.064,11.064,0,0,0,1.1,4.286,5.334,5.334,0,0,0,3.979,2.928,35.736,35.736,0,0,0,8.983.016,5.314,5.314,0,0,0,3.989-2.93,11.029,11.029,0,0,0,1.091-4.289,6.405,6.405,0,0,1,9.4-5.426,10.7,10.7,0,0,0,4.219,1.147,5.3,5.3,0,0,0,4.465-2.028,35.758,35.758,0,0,0,4.42-7.784,5.352,5.352,0,0,0-.5-4.847,10.564,10.564,0,0,0-3.084-3.061,6.441,6.441,0,0,1-2.971-5.449,6.359,6.359,0,0,1,2.937-5.418,10.507,10.507,0,0,0,3.085-3.062,5.347,5.347,0,0,0,.489-4.849,36.046,36.046,0,0,0-4.446-7.8,5.311,5.311,0,0,0-4.451-2.031,10.657,10.657,0,0,0-4.22,1.134,6.468,6.468,0,0,1-9.44-5.485,11.059,11.059,0,0,0-1.1-4.286A5.333,5.333,0,0,0,36.941.292,35.731,35.731,0,0,0,27.958.275Zm-1.124,7.36a5.256,5.256,0,0,1,.615-2.543c.347-.644.7-.834,1-.873a30.075,30.075,0,0,1,7.966.014c.314.041.671.24,1.025.893a5.307,5.307,0,0,1,.627,2.553,10.419,10.419,0,0,0,15.21,8.84,4.954,4.954,0,0,1,2.444-.688,1.406,1.406,0,0,1,1.254.46,30.357,30.357,0,0,1,3.944,6.916A1.388,1.388,0,0,1,60.7,24.5a4.767,4.767,0,0,1-1.784,1.727,10.46,10.46,0,0,0,.017,17.6,4.866,4.866,0,0,1,1.8,1.746,1.4,1.4,0,0,1,.236,1.293,30.035,30.035,0,0,1-3.914,6.893,1.375,1.375,0,0,1-1.236.444,5.021,5.021,0,0,1-2.458-.7A10.374,10.374,0,0,0,38.166,62.32a5.257,5.257,0,0,1-.615,2.543c-.347.644-.7.834-1,.873a30.078,30.078,0,0,1-7.965-.014c-.314-.041-.672-.24-1.025-.893a5.311,5.311,0,0,1-.627-2.554,10.419,10.419,0,0,0-15.209-8.84,4.96,4.96,0,0,1-2.446.688,1.406,1.406,0,0,1-1.255-.461,30.354,30.354,0,0,1-3.944-6.915A1.388,1.388,0,0,1,4.3,45.457,4.767,4.767,0,0,1,6.089,43.73a10.351,10.351,0,0,0,4.8-8.8,10.41,10.41,0,0,0-4.817-8.8,4.864,4.864,0,0,1-1.8-1.746,1.4,1.4,0,0,1-.236-1.293,30.033,30.033,0,0,1,3.914-6.893,1.375,1.375,0,0,1,1.236-.444,5.021,5.021,0,0,1,2.458.7A10.374,10.374,0,0,0,26.834,7.636Z" transform="translate(0)" fill="#002f65" fill-rule="evenodd"/>
        </g>
      </g>
    </g>
  </g>
</svg>
