<svg xmlns="http://www.w3.org/2000/svg" width="61.001" height="61.001" viewBox="0 0 61.001 61.001">
  <g id="Issue_Management_" data-name="Issue Management " transform="translate(-829.501 -197.5)">
    <path id="Subtraction_2" data-name="Subtraction 2" d="M29.968,60h0c-.8,0-1.616-.031-2.422-.093a2.019,2.019,0,0,1-.885-.276,1.413,1.413,0,0,1-.591-.672c-.479-1.212-.944-2.451-1.394-3.65-.224-.6-.455-1.213-.685-1.819a1.8,1.8,0,0,0-.5-.64l-.371-.179A24.157,24.157,0,0,1,18.836,50.9l-.057-.02-.012,0-.319-.112-.412-.014-.4.11c-1.6.717-3.456,1.551-5.31,2.378a1.485,1.485,0,0,1-.606.127,1.5,1.5,0,0,1-.946-.33,31.29,31.29,0,0,1-3.659-3.621,2.02,2.02,0,0,1-.434-.826,1.41,1.41,0,0,1,.06-.888c.517-1.192,1.063-2.4,1.592-3.558l0,0c.264-.581.537-1.182.8-1.774a1.8,1.8,0,0,0,.1-.808L9.1,41.165a24.071,24.071,0,0,1-1.409-3.178c-.042-.117-.082-.239-.122-.357h0a3.745,3.745,0,0,0-.7-1.417l-.358-.2L5.952,35.8l-.616-.234c-.459-.175-.927-.35-1.379-.519h0C2.993,34.684,2,34.312,1.032,33.92A1.518,1.518,0,0,1,.12,32.695a31.256,31.256,0,0,1-.027-5.148,2.018,2.018,0,0,1,.278-.89,1.412,1.412,0,0,1,.67-.585c1.213-.479,2.455-.945,3.656-1.4h0c.594-.223,1.209-.454,1.812-.683a1.8,1.8,0,0,0,.64-.5l.179-.371A24.019,24.019,0,0,1,8.61,19.808c.046-.1.1-.2.144-.292a3.71,3.71,0,0,0,.5-1.48l-.11-.4c-.582-1.3-1.206-2.687-1.823-4.067l-.555-1.243a1.5,1.5,0,0,1-.114-.8,1.481,1.481,0,0,1,.318-.748,31.213,31.213,0,0,1,3.621-3.66,1.865,1.865,0,0,1,1.189-.478,1.336,1.336,0,0,1,.525.105c1.2.518,2.4,1.067,3.57,1.6h0c.578.263,1.177.535,1.767.8a1.738,1.738,0,0,0,.558.1c.066,0,.147,0,.249-.006h0l.389-.136c.649-.345,1.309-.66,1.963-.936.418-.176.85-.344,1.283-.5.1-.036.207-.071.309-.105a3.707,3.707,0,0,0,1.4-.695l.2-.358c.591-1.553,1.11-2.916,1.587-4.166l.486-1.271a1.5,1.5,0,0,1,.488-.649,1.482,1.482,0,0,1,.753-.3C28.2.041,29.121,0,30.032,0c.8,0,1.616.031,2.422.093a2.022,2.022,0,0,1,.89.277,1.411,1.411,0,0,1,.585.671c.478,1.213.944,2.453,1.394,3.653.223.6.455,1.211.684,1.816a1.8,1.8,0,0,0,.5.64l.371.179c.613.187,1.212.4,1.781.619.491.193.983.406,1.462.632.112.053.227.11.338.166a3.752,3.752,0,0,0,1.5.506l.4-.11.544-.244.6-.27c.446-.2.9-.406,1.335-.605.937-.427,1.906-.869,2.871-1.277a1.465,1.465,0,0,1,.562-.11,1.5,1.5,0,0,1,.948.331,31.2,31.2,0,0,1,3.66,3.622,2.017,2.017,0,0,1,.435.828,1.412,1.412,0,0,1-.062.886c-.518,1.2-1.066,2.4-1.6,3.568l0,0c-.263.578-.534,1.176-.8,1.765a1.8,1.8,0,0,0-.1.808l.136.389c.335.63.64,1.268.908,1.9.188.443.365.9.526,1.35.036.1.072.208.106.311a3.7,3.7,0,0,0,.694,1.4l.358.2.558.212.616.234c.457.174.923.348,1.374.517h0c.964.36,1.961.732,2.927,1.125a1.516,1.516,0,0,1,.912,1.225,31.319,31.319,0,0,1,.027,5.149,2.019,2.019,0,0,1-.277.887,1.417,1.417,0,0,1-.672.589c-1.212.478-2.452.944-3.651,1.394l0,0c-.594.223-1.209.454-1.813.683a1.8,1.8,0,0,0-.64.5l-.179.371a24.034,24.034,0,0,1-1.282,3.309c-.047.1-.1.2-.146.3a3.685,3.685,0,0,0-.5,1.477l.11.4.245.544.27.6c.2.447.407.9.606,1.337.427.937.868,1.905,1.276,2.869a1.513,1.513,0,0,1-.221,1.51,31.28,31.28,0,0,1-3.622,3.66,2.1,2.1,0,0,1-.564.348,1.647,1.647,0,0,1-.626.13,1.337,1.337,0,0,1-.523-.1c-1.2-.521-2.408-1.07-3.577-1.6h0c-.575-.261-1.17-.531-1.759-.8a1.733,1.733,0,0,0-.557-.1c-.067,0-.148,0-.251.006l-.389.136a24.03,24.03,0,0,1-3.178,1.409c-.117.042-.238.082-.356.121h0a3.744,3.744,0,0,0-1.418.7l-.2.358c-.616,1.618-1.12,2.942-1.587,4.166l-.487,1.271a1.5,1.5,0,0,1-.493.652,1.483,1.483,0,0,1-.748.3C31.8,59.96,30.879,60,29.968,60Zm-.03-49.554a19.635,19.635,0,0,0-3.928.4,19.385,19.385,0,0,0-6.97,2.933,19.549,19.549,0,0,0-7.062,8.576,19.393,19.393,0,0,0-1.136,3.659,19.681,19.681,0,0,0,0,7.856,19.384,19.384,0,0,0,2.933,6.97A19.549,19.549,0,0,0,22.352,47.9a19.394,19.394,0,0,0,3.659,1.136,19.682,19.682,0,0,0,7.856,0,19.384,19.384,0,0,0,6.97-2.933A19.548,19.548,0,0,0,47.9,37.526a19.394,19.394,0,0,0,1.136-3.659,19.682,19.682,0,0,0,0-7.856,19.385,19.385,0,0,0-2.933-6.97,19.548,19.548,0,0,0-8.576-7.062,19.393,19.393,0,0,0-3.659-1.136A19.636,19.636,0,0,0,29.939,10.447Z" transform="translate(830.001 198)" fill="#5fc2ff" stroke="rgba(0,0,0,0)" stroke-miterlimit="10" stroke-width="1"/>
    <g id="noun_exclamation_1996157" transform="translate(857.678 213.812)">
      <g id="Group_204" data-name="Group 204">
        <path id="Path_264" data-name="Path 264" d="M431.018,32.428,430,21.632V12.349a6.116,6.116,0,0,1,4.074,0v9.283l-.931,10.8A1.94,1.94,0,0,1,431.018,32.428Z" transform="translate(-429.913 -12)" fill="#004a9f"/>
        <circle id="Ellipse_16" data-name="Ellipse 16" cx="2.124" cy="2.124" r="2.124" transform="translate(0 24.152)" fill="#004a9f"/>
      </g>
    </g>
  </g>
</svg>
