<?xml version="1.0" encoding="utf-8"?>
<!-- Generator: Adobe Illustrator 18.1.1, SVG Export Plug-In . SVG Version: 6.00 Build 0)  -->
<svg version="1.1" id="Layer_1" xmlns="http://www.w3.org/2000/svg" xmlns:xlink="http://www.w3.org/1999/xlink" x="0px" y="0px"
	 viewBox="-479 484.9 65 56.1" style="enable-background:new -479 484.9 65 56.1;" xml:space="preserve">
<g>
	<g>
		<path style="fill:#002F64;stroke:#002F64;stroke-miterlimit:10;" d="M-455.6,510h17.1c0.4,0,0.7-0.3,0.7-0.7v-7.9
			c0-3-2.2-5.4-5.1-5.8c0.9-1,1.4-2.3,1.4-3.7c0-3-2.5-5.5-5.5-5.5c-3,0-5.5,2.5-5.5,5.5c0,1.4,0.5,2.7,1.4,3.7
			c-2.9,0.3-5.1,2.8-5.1,5.8v7.9C-456.3,509.7-456,510-455.6,510L-455.6,510z M-455,501.4c0-2.5,2-4.5,4.5-4.5h1.2
			c0.3,0,0.6-0.2,0.7-0.5c0.1-0.3-0.1-0.6-0.3-0.8c-1.4-0.7-2.3-2.1-2.3-3.7c0-2.3,1.9-4.2,4.2-4.2s4.2,1.9,4.2,4.2
			c0,1.6-0.9,3-2.3,3.7c-0.3,0.1-0.4,0.5-0.3,0.8c0.1,0.3,0.3,0.5,0.7,0.5h1.2c2.5,0,4.5,2,4.5,4.5v7.3H-455L-455,501.4z"/>
		<path style="fill:#002F64;stroke:#002F64;stroke-miterlimit:10;" d="M-435.8,501.7h14.1c0.4,0,0.8,0.3,0.8,0.8V532
			c0,0.4,0.3,0.7,0.7,0.7c0.4,0,0.7-0.3,0.7-0.7v-29.5c0-1.2-0.9-2.1-2.1-2.1h-14.1c-0.4,0-0.7,0.3-0.7,0.7
			C-436.5,501.4-436.2,501.7-435.8,501.7L-435.8,501.7z"/>
		<path style="fill:#002F64;stroke:#002F64;stroke-miterlimit:10;" d="M-473.9,532.7c0.4,0,0.7-0.3,0.7-0.7v-29.5
			c0-0.4,0.3-0.8,0.8-0.8h14.1c0.4,0,0.7-0.3,0.7-0.7c0-0.4-0.3-0.7-0.7-0.7h-14.1c-1.2,0-2.1,0.9-2.1,2.1V532
			C-474.6,532.4-474.3,532.7-473.9,532.7z"/>
		<path style="fill:#002F64;" d="M-417,535h-58.1c-1.7,0-3,1.4-3,3s1.4,3,3,3h58.1c1.7,0,3-1.4,3-3S-415.4,535-417,535z"/>
	</g>
	<path style="fill:#5FC2FF;stroke:#5FC2FF;stroke-miterlimit:10;" d="M-459.6,528.3h-5c-0.4,0-0.7-0.3-0.7-0.7v-4.8
		c0-0.4,0.3-0.7,0.7-0.7h5c0.4,0,0.7,0.3,0.7,0.7v4.8C-458.9,528-459.2,528.3-459.6,528.3z M-463.9,527h3.7v-3.5h-3.7V527z"/>
	<path style="fill:#5FC2FF;stroke:#5FC2FF;stroke-miterlimit:10;" d="M-449.6,528.3h-5c-0.4,0-0.7-0.3-0.7-0.7v-8.1
		c0-0.4,0.3-0.7,0.7-0.7h5c0.4,0,0.7,0.3,0.7,0.7v8.1C-448.9,528-449.2,528.3-449.6,528.3z M-453.9,527h3.7v-6.8h-3.7V527z"/>
	<path style="fill:#5FC2FF;stroke:#5FC2FF;stroke-miterlimit:10;" d="M-439.6,528.3h-5c-0.4,0-0.7-0.3-0.7-0.7v-11.8
		c0-0.4,0.3-0.7,0.7-0.7h5c0.4,0,0.7,0.3,0.7,0.7v11.8C-438.9,528-439.2,528.3-439.6,528.3z M-443.9,527h3.7v-10.4h-3.7V527z"/>
	<path style="fill:#65C1D6;stroke:#5FC2FF;stroke-miterlimit:10;" d="M-429.6,528.3h-5c-0.4,0-0.7-0.3-0.7-0.7v-15.1
		c0-0.4,0.3-0.7,0.7-0.7h5c0.4,0,0.7,0.3,0.7,0.7v15.1C-428.9,528-429.2,528.3-429.6,528.3z M-433.9,527h3.7v-13.8h-3.7V527z"/>
</g>
</svg>
