<?xml version="1.0" encoding="utf-8"?>
<!-- Generator: Adobe Illustrator 18.1.1, SVG Export Plug-In . SVG Version: 6.00 Build 0)  -->
<svg version="1.1" id="Layer_1" xmlns="http://www.w3.org/2000/svg" xmlns:xlink="http://www.w3.org/1999/xlink" x="0px" y="0px"
	 viewBox="-479 484.9 65 56.1" style="enable-background:new -479 484.9 65 56.1;" xml:space="preserve">
<g>
	<g>
		<path style="fill:#002F64;" d="M-416.1,507.6h-5.3c-0.8-2.2-1.9-4.2-3.4-5.9l2.6-4.6c0.3-0.5,0.4-1.1,0.2-1.6
			c-0.1-0.5-0.5-1-1-1.3l-7.3-4.2c-0.5-0.3-1.1-0.3-1.6-0.2c-0.5,0.1-1,0.5-1.3,1l-2.6,4.5c-2.2-0.4-4.7-0.4-6.9,0l-2.6-4.5
			c-0.3-0.5-0.7-0.8-1.3-1c-0.5-0.1-1.1-0.1-1.6,0.2l-7.3,4.2c-0.5,0.3-0.8,0.7-1,1.3c-0.1,0.5-0.1,1.1,0.2,1.6l2.6,4.6
			c-0.1,0.2-0.3,0.3-0.4,0.5c-0.7,0.9-0.6,2.2,0.2,3c0.9,0.7,2.2,0.6,3-0.2c0.4-0.5,0.8-1,1.3-1.5c0.7-0.7,0.8-1.7,0.3-2.5l-2.3-4.1
			l3.7-2.1l2.3,4.1c0.5,0.8,1.5,1.2,2.4,1c2.4-0.7,5.3-0.7,7.8,0c0.9,0.3,1.9-0.1,2.4-1l2.3-4.1l3.7,2.1l-2.4,4.1
			c-0.5,0.8-0.3,1.9,0.4,2.5c1.9,1.8,3.2,4.2,3.9,6.8c0.2,0.9,1.1,1.6,2,1.6h4.7v4.2h-4.7c-1,0-1.8,0.6-2,1.6
			c-0.7,2.6-2,4.9-3.9,6.8c-0.7,0.7-0.8,1.7-0.4,2.5l2.4,4.1l-3.7,2.1l-2.3-4.1c-0.5-0.8-1.5-1.2-2.4-1c-2.4,0.7-5.3,0.7-7.8,0
			c-0.9-0.3-1.9,0.1-2.4,1l-2.3,4.1l-3.7-2.1c-1-0.6-2.3-0.2-2.9,0.8c-0.6,1-0.2,2.3,0.8,2.9l5.5,3.1c0.3,0.2,0.7,0.3,1,0.3
			c0.7,0,1.4-0.4,1.8-1.1l2.6-4.5c2.2,0.4,4.7,0.4,6.9,0l2.6,4.5c0.3,0.5,0.7,0.8,1.3,1c0.5,0.1,1.1,0.1,1.6-0.2l7.3-4.2
			c0.5-0.3,0.8-0.7,1-1.3c0.1-0.5,0.1-1.1-0.2-1.6l-2.6-4.6c1.5-1.8,2.7-3.8,3.4-6h5.3c1.2,0,2.1-0.9,2.1-2.1v-8.4
			C-414,508.5-414.9,507.6-416.1,507.6z"/>
	</g>
</g>
<g id="KPI" transform="translate(-319 -210)">
	<g id="Group_357" transform="translate(319 210)">
		<g id="noun_Line_Graph_357400">
			<g id="Group_355" transform="translate(0 0)">
				<path id="Path_554" style="fill:#5FC2FF;" d="M-473.6,496c-0.6,0-1.1,0.5-1.2,1.2v30.1c0,0.6,0.5,1.1,1.2,1.2h32.4
					c0.6,0,1.2-0.5,1.2-1.1c0-0.6-0.5-1.2-1.1-1.2c0,0,0,0,0,0h-31.2v-28.9C-472.5,496.5-473,496.1-473.6,496z M-449.1,503
					c-0.6,0-1.1,0.6-1.1,1.2c0,0.6,0.6,1.1,1.2,1.1c0,0,0,0,0.1,0h4.1l-11.8,11.5l-3.8-3.8c-0.4-0.4-1.1-0.4-1.6-0.1l-8.5,7.3
					c-0.5,0.4-0.5,1.2-0.1,1.6c0.4,0.5,1.1,0.5,1.6,0.1l7.7-6.6l3.9,3.9c0.5,0.4,1.2,0.4,1.6,0l12.7-12.4v4.2c0,0.6,0.5,1.2,1.1,1.2
					s1.2-0.5,1.2-1.1c0,0,0,0,0,0v-6.9c0-0.6-0.5-1.1-1.2-1.2h-6.9C-449,503-449,503-449.1,503L-449.1,503z"/>
			</g>
		</g>
		<path id="Subtraction_16" style="fill:#39B4FF;" d="M-442,512.2c-0.6,0-1.1-0.5-1.2-1.2v-3.5v-2.3l-1.8,0h-4h-0.1
			c-0.6,0-1.1-0.5-1.2-1.1c0-0.3,0.1-0.6,0.3-0.8c0.2-0.2,0.5-0.4,0.8-0.4c0,0,0,0,0.1,0s0,0,0.1,0h6.9c0.6,0,1.1,0.5,1.2,1.2v6.9
			C-440.9,511.7-441.4,512.2-442,512.2L-442,512.2z"/>
	</g>
</g>
</svg>
