<?xml version="1.0" encoding="utf-8"?>
<!-- Generator: Adobe Illustrator 18.1.1, SVG Export Plug-In . SVG Version: 6.00 Build 0)  -->
<svg version="1.1" id="Layer_1" xmlns="http://www.w3.org/2000/svg" xmlns:xlink="http://www.w3.org/1999/xlink" x="0px" y="0px"
	 width="65px" height="60.7px" viewBox="-273 366.3 65 60.7" enable-background="new -273 366.3 65 60.7" xml:space="preserve">
<g id="KPI" transform="translate(-319 -210)">
	<g id="Group_357" transform="translate(319 210)">
		<g id="noun_Line_Graph_357400">
			<g id="Group_355" transform="translate(0 0)">
				<path id="Path_554" fill="#002F65" d="M-270.8,366.3c-1.2,0.1-2.1,1-2.2,2.2v56.3c0,1.2,1,2.1,2.2,2.2h60.7
					c1.2,0,2.2-0.9,2.2-2.1c0-1.2-0.9-2.2-2.1-2.2c0,0-0.1,0-0.1,0h-58.5v-54.2C-268.7,367.3-269.7,366.4-270.8,366.3z
					 M-224.8,379.3c-1.2,0-2.1,1-2.1,2.2s1,2.1,2.2,2.1c0,0,0.1,0,0.1,0h7.7l-22.1,21.5l-7.2-7.2c-0.8-0.8-2.1-0.8-3-0.1l-15.9,13.7
					c-0.9,0.8-1,2.2-0.2,3.1c0.8,0.9,2.2,1,3.1,0.2l14.4-12.4l7.2,7.2c0.9,0.8,2.2,0.8,3,0l23.8-23.2v7.9c0,1.2,0.9,2.2,2.1,2.2
					c1.2,0,2.2-0.9,2.2-2.1c0,0,0-0.1,0-0.1v-13c0-1.2-1-2.1-2.2-2.2h-13C-224.7,379.3-224.8,379.3-224.8,379.3L-224.8,379.3z"/>
			</g>
		</g>
		<path id="Subtraction_16" fill="#002F64" d="M-211.6,396.7c-1.2,0-2.1-1-2.2-2.2V388v-4.4l-3.4,0.1h-7.4h-0.1
			c-1.1,0-2.1-0.9-2.2-2.1c0-0.6,0.2-1.1,0.6-1.5c0.4-0.4,0.9-0.7,1.5-0.7c0,0,0.1,0,0.1,0c0,0,0.1,0,0.1,0h13c1.2,0,2.1,1,2.2,2.2
			v13C-209.5,395.7-210.4,396.7-211.6,396.7L-211.6,396.7z"/>
	</g>
</g>
</svg>
