<?xml version="1.0" encoding="utf-8"?>
<!-- Generator: Adobe Illustrator 18.1.1, SVG Export Plug-In . SVG Version: 6.00 Build 0)  -->
<svg version="1.1" id="Layer_1" xmlns="http://www.w3.org/2000/svg" xmlns:xlink="http://www.w3.org/1999/xlink" x="0px" y="0px"
	 viewBox="-479 483.8 65 58.2" enable-background="new -479 483.8 65 58.2" xml:space="preserve">
<g>
	<g>
		<circle fill="#5FC2FF" cx="-444.2" cy="533.4" r="1.2"/>
		<path fill="#002F64" d="M-414.5,495.5c-0.3-0.7-0.8-1.4-1.3-2c-0.6-0.6-1.2-1-2-1.3c-0.8-0.3-1.6-0.5-2.4-0.5h-51.3
			c-0.8,0-1.7,0.2-2.4,0.5c-0.7,0.3-1.4,0.8-2,1.3c-0.6,0.6-1,1.2-1.3,2c-0.3,0.8-0.5,1.6-0.5,2.4v30.5c0,0.8,0.2,1.7,0.5,2.4
			c0.3,0.7,0.8,1.4,1.3,2c0.6,0.6,1.2,1,2,1.3c0.8,0.3,1.6,0.5,2.4,0.5h21.8c0.7,0,1.2-0.6,1.2-1.2c0-0.7-0.6-1.2-1.2-1.2h-21.8
			c-2.1,0-3.7-1.7-3.7-3.7v-29.3h58.8v29.3c0,2.1-1.7,3.7-3.7,3.7h-18.3c-0.7,0-1.2,0.6-1.2,1.2c0,0.7,0.6,1.2,1.2,1.2h18.3
			c0.8,0,1.7-0.2,2.4-0.5c0.7-0.3,1.4-0.8,2-1.3c0.6-0.6,1-1.2,1.3-2c0.3-0.8,0.5-1.6,0.5-2.4v-30.5
			C-414,497.1-414.2,496.3-414.5,495.5L-414.5,495.5z M-471.5,494.2h51.3c1.6,0,3,1,3.5,2.5h-58.3
			C-474.5,495.2-473.2,494.2-471.5,494.2z"/>
		<circle fill="#5FC2FF" cx="-428.6" cy="523.4" r="1.2"/>
		<circle fill="#5FC2FF" cx="-434.2" cy="523.4" r="1.2"/>
		<circle fill="#5FC2FF" cx="-445.4" cy="523.4" r="1.2"/>
		<circle fill="#5FC2FF" cx="-439.8" cy="523.4" r="1.2"/>
		<path fill="#5FC2FF" d="M-445.4,517.7h8.5c0.7,0,1.2-0.6,1.2-1.2c0-0.7-0.6-1.2-1.2-1.2h-8.5c-0.7,0-1.2,0.6-1.2,1.2
			C-446.6,517.1-446.1,517.7-445.4,517.7z"/>
		<path fill="#5FC2FF" d="M-445.4,512.7h16.8c0.7,0,1.2-0.6,1.2-1.2s-0.6-1.2-1.2-1.2h-16.8c-0.7,0-1.2,0.6-1.2,1.2
			S-446.1,512.7-445.4,512.7z"/>
		<path fill="#5FC2FF" d="M-445.4,507.7h16.8c0.7,0,1.2-0.6,1.2-1.2c0-0.7-0.6-1.2-1.2-1.2h-16.8c-0.7,0-1.2,0.6-1.2,1.2
			C-446.6,507.1-446.1,507.7-445.4,507.7z"/>
		<path fill="#002F64" d="M-470.9,522.5c0,0.7,0.6,1.2,1.2,1.2h14.9c0.7,0,1.2-0.6,1.2-1.2c0-3.4-2-6.4-4.8-7.8c1.1-1,1.7-2.4,1.7-4
			c0-3.1-2.5-5.6-5.6-5.6c-3.1,0-5.6,2.5-5.6,5.6c0,1.6,0.7,3,1.7,4C-468.9,516.1-470.9,519.1-470.9,522.5z M-465.3,510.7
			c0-1.7,1.4-3.1,3.1-3.1c1.7,0,3.1,1.4,3.1,3.1s-1.4,3.1-3.1,3.1C-463.9,513.8-465.3,512.4-465.3,510.7z M-462.2,516.3
			c3,0,5.5,2.1,6.1,5h-12.2C-467.7,518.4-465.2,516.3-462.2,516.3z"/>
	</g>
</g>
</svg>
