<?xml version="1.0" encoding="utf-8"?>
<!-- Generator: Adobe Illustrator 18.1.1, SVG Export Plug-In . SVG Version: 6.00 Build 0)  -->
<svg version="1.1" id="Layer_1" xmlns="http://www.w3.org/2000/svg" xmlns:xlink="http://www.w3.org/1999/xlink" x="0px" y="0px"
	 viewBox="-479 483.8 65 58.2" enable-background="new -479 483.8 65 58.2" xml:space="preserve">
<path fill="#002F64" d="M-420.9,505.7l-4.9-0.5c-0.5-2.1-1.4-4.1-2.5-5.9l3.1-3.8c0.3-0.4,0.3-0.9-0.1-1.3l-5.3-5.3
	c-0.3-0.3-0.9-0.4-1.3-0.1l-3.8,3.1c-1.8-1.1-3.8-2-5.9-2.5l-0.5-4.9c0-0.5-0.4-0.8-0.9-0.8h-7.2c-0.5,0-0.9,0.4-0.9,0.8l-0.5,4.9
	c-2.1,0.5-4.1,1.4-5.9,2.5l-3.8-3.1c-0.4-0.3-0.9-0.3-1.3,0.1l-5.3,5.3c-0.3,0.3-0.4,0.9-0.1,1.3l3.1,3.8c-1.1,1.8-2,3.8-2.5,5.9
	l-4.9,0.5c-0.5,0-0.8,0.4-0.8,0.9v7.5c0,0.5,0.4,0.9,0.8,0.9l4.9,0.5c0.5,2.1,1.4,4.1,2.5,5.9l-3.1,3.8c-0.3,0.4-0.3,1,0.1,1.3
	l4,3.6c0.2,0.2,0.5,0.3,0.7,0.2c0.3,0,0.5-0.2,0.7-0.4l5.8-8.3c0.3-0.4,0.2-0.9-0.1-1.2c-5.5-5.5-5.5-14.5,0-20.1
	c5.5-5.5,14.5-5.5,20.1,0c5.5,5.5,5.5,14.5,0,20.1c-0.3,0.3-0.4,0.8-0.1,1.2l6,8.3c0.2,0.2,0.4,0.4,0.7,0.4c0.3,0,0.5-0.1,0.7-0.2
	l4-3.6c0.4-0.3,0.4-0.9,0.1-1.3l-3.1-3.8c1.1-1.8,2-3.8,2.5-5.9l4.9-0.5c0.5,0,0.8-0.4,0.8-0.9v-7.5
	C-420.1,506.1-420.5,505.7-420.9,505.7z M-422,513.2l-4.7,0.5c-0.4,0-0.7,0.3-0.8,0.7c-0.5,2.3-1.4,4.5-2.8,6.5
	c-0.2,0.3-0.2,0.8,0.1,1.1l3,3.6l-2.6,2.3l-4.9-6.8c5.7-6.3,5.5-16-0.5-22.1c-6.3-6.3-16.4-6.3-22.7,0c-6.1,6.1-6.2,15.8-0.5,22.1
	l-4.7,6.8l-2.6-2.3l3-3.6c0.3-0.3,0.3-0.8,0.1-1.1c-1.3-2-2.2-4.2-2.8-6.5c-0.1-0.4-0.4-0.7-0.8-0.7l-4.7-0.5v-5.8l4.7-0.5
	c0.4,0,0.7-0.3,0.8-0.7c0.5-2.3,1.4-4.5,2.7-6.5c0.2-0.3,0.2-0.8-0.1-1.1l-3-3.6l4.1-4.1l3.6,3c0.3,0.3,0.8,0.3,1.1,0.1
	c2-1.3,4.2-2.2,6.5-2.8c0.4-0.1,0.7-0.4,0.7-0.8l0.5-4.7h5.5l0.5,4.7c0,0.4,0.3,0.7,0.7,0.8c2.3,0.5,4.5,1.4,6.5,2.8
	c0.3,0.2,0.8,0.2,1.1-0.1l3.6-3l4.1,4.1l-3,3.6c-0.3,0.3-0.3,0.8-0.1,1.1c1.3,2,2.2,4.2,2.7,6.5c0.1,0.4,0.4,0.7,0.8,0.7l4.7,0.5
	V513.2z"/>
<path fill="#5FC2FF" d="M-443.3,526.7v-14.1c2.3-1.4,3.9-3.9,3.9-6.6c0-3.6-2.1-6.3-5.5-7c-0.3-0.1-0.6,0-0.8,0.2
	c-0.2,0.2-0.3,0.5-0.3,0.8l0.3,3.9c-0.8,0.4-1.7,0.4-2.5,0l0.3-4c0-0.3-0.1-0.6-0.3-0.8c-0.2-0.2-0.6-0.3-0.8-0.2
	c-3.2,0.9-5.1,3.6-5.1,7.1c0,3.2,1.7,5.8,4.5,6.9V527c-2,1.2-3.9,3.5-3.9,6.5c0,3.6,2,6.2,5.5,7.1c0.3,0.1,0.6,0,0.8-0.2
	c0.2-0.2,0.4-0.5,0.3-0.8l-0.3-3.9c0.8-0.4,1.7-0.4,2.5,0l-0.3,4c0,0.3,0.1,0.6,0.3,0.8c0.2,0.2,0.6,0.3,0.8,0.2
	c3.2-0.9,5.1-3.6,5.2-7.1C-438.8,530.4-440.5,527.8-443.3,526.7z M-443.2,538.3l0.2-3c0-0.3-0.1-0.6-0.4-0.8l0,0
	c-1.6-1.2-3.9-1.2-5.5,0c-0.2,0.2-0.4,0.5-0.4,0.8l0.2,3.1c-1.8-0.9-2.8-2.6-2.8-4.8c0-2.4,1.7-4.4,3.3-5.1c0.3-0.2,0.5-0.5,0.5-0.8
	v-15.3c0-0.4-0.3-0.8-0.7-0.9c-2.3-0.7-3.8-2.8-3.8-5.3c0-2.1,0.9-3.8,2.5-4.8l-0.2,3c0,0.3,0.1,0.6,0.4,0.8l0,0
	c1.6,1.2,3.9,1.2,5.5,0c0,0,0,0,0,0c0.2-0.2,0.4-0.5,0.3-0.8l-0.2-3.1c1.8,0.9,2.8,2.6,2.8,4.8c0,2.1-1.4,4.2-3.4,5.2
	c-0.3,0.2-0.5,0.5-0.5,0.8v15.3c0,0.4,0.3,0.8,0.7,0.9c2.3,0.7,3.8,2.8,3.8,5.3C-440.7,535.6-441.6,537.4-443.2,538.3L-443.2,538.3z
	"/>
</svg>
