<?xml version="1.0" encoding="utf-8"?>
<!-- Generator: Adobe Illustrator 18.1.1, SVG Export Plug-In . SVG Version: 6.00 Build 0)  -->
<svg version="1.1" id="Capa_1" xmlns="http://www.w3.org/2000/svg" xmlns:xlink="http://www.w3.org/1999/xlink" x="0px" y="0px"
	 viewBox="-49 141 512 512" enable-background="new -49 141 512 512" xml:space="preserve">
<g>
	<g>
		<path fill="#002F64" d="M221.2,569.8H6.1c-16.3,0-29.5-13.2-29.5-29.5V288.3h428.1v131.4c0,4,3.2,7.2,7.2,7.2c4,0,7.2-3.2,7.2-7.2
			V241.8c0-22.6-17.2-41.3-39.2-43.6v-11c0-14.9-12.1-26.9-26.9-26.9c-14.9,0-26.9,12.1-26.9,26.9V198h-50.4v-10.7
			c0-14.9-12.1-26.9-26.9-26.9c-14.9,0-26.9,12.1-26.9,26.9V198h-50.4v-10.7c0-14.9-12.1-26.9-26.9-26.9
			c-14.9,0-26.9,12.1-26.9,26.9V198H67.1v-10.7c0-14.9-12.1-26.9-26.9-26.9s-26.9,12.1-26.9,26.9V198H6.1
			c-24.2,0-43.8,19.7-43.8,43.8v298.6c0,24.2,19.7,43.8,43.8,43.8h215.1c4,0,7.2-3.2,7.2-7.2S225.2,569.8,221.2,569.8L221.2,569.8z
			 M340.3,187.2c0-6.9,5.7-12.6,12.6-12.6c6.9,0,12.6,5.7,12.6,12.6v35.8c0,6.9-5.7,12.6-12.6,12.6c-6.9,0-12.6-5.7-12.6-12.6V187.2
			z M236.1,187.2c0-6.9,5.7-12.6,12.6-12.6c6.9,0,12.6,5.7,12.6,12.6v35.8c0,6.9-5.7,12.6-12.6,12.6c-6.9,0-12.6-5.7-12.6-12.6
			V187.2z M131.8,187.2c0-6.9,5.7-12.6,12.6-12.6c6.9,0,12.6,5.7,12.6,12.6v35.8c0,6.9-5.7,12.6-12.6,12.6
			c-6.9,0-12.6-5.7-12.6-12.6V187.2z M27.6,187.2c0-6.9,5.7-12.6,12.6-12.6s12.6,5.7,12.6,12.6v35.8c0,6.9-5.7,12.6-12.6,12.6
			s-12.6-5.7-12.6-12.6L27.6,187.2z M-23.3,241.8c0-16.3,13.2-29.5,29.5-29.5h7.1v10.7c0,14.9,12.1,26.9,26.9,26.9
			s26.9-12.1,26.9-26.9v-10.7h50.4v10.7c0,14.9,12.1,26.9,26.9,26.9s26.9-12.1,26.9-26.9v-10.7h50.4v10.7
			c0,14.9,12.1,26.9,26.9,26.9c14.9,0,26.9-12.1,26.9-26.9v-10.7H326v10.7c0,14.9,12.1,26.9,26.9,26.9s26.9-12.1,26.9-26.9v-10.4
			c14.1,2.2,24.9,14.4,24.9,29.1v32.1H-23.3L-23.3,241.8z"/>
		<path fill="#002F64" d="M344.2,420.7c-26.7,0-51.1,9.8-69.9,25.9c-3.5-4.1-8.7-6.8-14.5-6.8h-37.4c-10.4,0-18.9,8.5-18.9,18.9
			v37.4c0,10.4,8.5,18.9,18.9,18.9h15.2c-0.5,4.3-0.8,8.6-0.8,13c0,59.3,48.2,107.5,107.5,107.5s107.5-48.2,107.5-107.5
			C451.7,468.9,403.5,420.7,344.2,420.7L344.2,420.7z M222.3,500.8c-2.5,0-4.6-2.1-4.6-4.6v-37.4c0-2.5,2.1-4.6,4.6-4.6h37.4
			c1.8,0,3.4,1.1,4.1,2.6c-11.1,12.4-19.3,27.5-23.7,44L222.3,500.8z M362.6,619.5c-5.9,1.2-12.1,1.8-18.4,1.8
			c-6.3,0-12.4-0.6-18.4-1.8v-6.5c0-18.5-6.9-36.3-19.4-50.2l-0.2-0.2c-8.3-9.3-12.9-21.4-12.9-33.9c0-17,8.6-32.9,22.6-42.3v39.3
			c0,11.2,9.1,20.3,20.3,20.3h16.1c11.2,0,20.3-9.1,20.3-20.3v-39.3c14,9.4,22.6,25.3,22.6,42.3c0,12.5-4.6,24.6-13,33.9l-0.2,0.3
			c-12.5,13.9-19.4,31.7-19.4,50.2L362.6,619.5L362.6,619.5z M376.9,615.4v-2.4c0-15,5.6-29.4,15.7-40.6l0.3-0.3
			c10.7-12,16.6-27.4,16.6-43.5c0-23.4-12.7-45.2-33.1-56.8c-8.1-4.6-18.2,1.2-18.2,10.6v43.2c0,3.3-2.7,6-6,6h-16.1
			c-3.3,0-6-2.7-6-6v-43.2c0-9.3-10.1-15.2-18.2-10.6c-20.4,11.6-33.1,33.3-33.1,56.8c0,16.1,5.9,31.5,16.6,43.5l0.3,0.3
			c10.1,11.2,15.7,25.7,15.7,40.6v2.4c-35.3-13.3-60.4-47.4-60.4-87.2c0-51.4,41.8-93.1,93.1-93.1s93.1,41.8,93.1,93.1
			C437.3,568.1,412.2,602.1,376.9,615.4L376.9,615.4z"/>
		<path fill="#5FC2FF" d="M77.2,350.8c0-10.4-8.5-18.9-18.9-18.9H20.8c-10.4,0-18.9,8.5-18.9,18.9v37.4c0,10.4,8.5,18.9,18.9,18.9
			h37.4c10.4,0,18.9-8.5,18.9-18.9L77.2,350.8L77.2,350.8z M62.9,388.3c0,2.5-2.1,4.6-4.6,4.6H20.8c-2.5,0-4.6-2.1-4.6-4.6v-37.4
			c0-2.5,2.1-4.6,4.6-4.6h37.4c2.5,0,4.6,2.1,4.6,4.6L62.9,388.3L62.9,388.3z"/>
		<path fill="#5FC2FF" d="M178,350.8c0-10.4-8.5-18.9-18.9-18.9h-37.4c-10.4,0-18.9,8.5-18.9,18.9v37.4c0,10.4,8.5,18.9,18.9,18.9
			H159c10.4,0,18.9-8.5,18.9-18.9V350.8z M163.6,388.3c0,2.5-2.1,4.6-4.6,4.6h-37.4c-2.5,0-4.6-2.1-4.6-4.6v-37.4
			c0-2.5,2.1-4.6,4.6-4.6H159c2.5,0,4.6,2.1,4.6,4.6V388.3z"/>
		<path fill="#5FC2FF" d="M222.3,331.9c-10.4,0-18.9,8.5-18.9,18.9v37.4c0,10.4,8.5,18.9,18.9,18.9h37.4c10.4,0,18.9-8.5,18.9-18.9
			v-37.4c0-10.4-8.5-18.9-18.9-18.9H222.3z M264.4,350.8v37.4c0,2.5-2.1,4.6-4.6,4.6h-37.4c-2.5,0-4.6-2.1-4.6-4.6v-37.4
			c0-2.5,2.1-4.6,4.6-4.6h37.4C262.3,346.2,264.4,348.3,264.4,350.8z"/>
		<path fill="#5FC2FF" d="M323.1,331.9c-10.4,0-18.9,8.5-18.9,18.9v37.4c0,10.4,8.5,18.9,18.9,18.9h37.4c10.4,0,18.9-8.5,18.9-18.9
			v-37.4c0-10.4-8.5-18.9-18.9-18.9H323.1z M365.1,350.8v37.4c0,2.5-2.1,4.6-4.6,4.6h-37.4c-2.5,0-4.6-2.1-4.6-4.6v-37.4
			c0-2.5,2.1-4.6,4.6-4.6h37.4C363.1,346.2,365.1,348.3,365.1,350.8z"/>
		<path fill="#5FC2FF" d="M58.3,439.9H20.8c-10.4,0-18.9,8.5-18.9,18.9v37.4c0,10.4,8.5,18.9,18.9,18.9h37.4
			c10.4,0,18.9-8.5,18.9-18.9v-37.4C77.2,448.4,68.7,439.9,58.3,439.9L58.3,439.9z M62.9,496.2c0,2.5-2.1,4.6-4.6,4.6H20.8
			c-2.5,0-4.6-2.1-4.6-4.6v-37.4c0-2.5,2.1-4.6,4.6-4.6h37.4c2.5,0,4.6,2.1,4.6,4.6L62.9,496.2L62.9,496.2z"/>
		<path fill="#5FC2FF" d="M159,439.9h-37.4c-10.4,0-18.9,8.5-18.9,18.9v37.4c0,10.4,8.5,18.9,18.9,18.9H159
			c10.4,0,18.9-8.5,18.9-18.9v-37.4C178,448.4,169.5,439.9,159,439.9L159,439.9z M163.6,496.2c0,2.5-2.1,4.6-4.6,4.6h-37.4
			c-2.5,0-4.6-2.1-4.6-4.6v-37.4c0-2.5,2.1-4.6,4.6-4.6H159c2.5,0,4.6,2.1,4.6,4.6V496.2z"/>
	</g>
</g>
</svg>
