<?xml version="1.0" encoding="utf-8"?>
<!-- Generator: Adobe Illustrator 18.1.1, SVG Export Plug-In . SVG Version: 6.00 Build 0)  -->
<svg version="1.1" id="Layer_1" xmlns="http://www.w3.org/2000/svg" xmlns:xlink="http://www.w3.org/1999/xlink" x="0px" y="0px"
	 viewBox="-479 484.9 65 56.1" style="enable-background:new -479 484.9 65 56.1;" xml:space="preserve">
<g>
	<g>
		<g>
			<path style="fill:#002F64;stroke:#002F64;stroke-miterlimit:10;" d="M-429.9,491.2h-10.7v-0.9c0-2.5-2-4.5-4.5-4.5h-1.8
				c-2.5,0-4.5,2-4.5,4.5v0.9h-10.7c-1.5,0-2.7,1.2-2.7,2.7v42.9c0,1.5,1.2,2.7,2.7,2.7h32.2c1.5,0,2.7-1.2,2.7-2.7v-42.9
				C-427.2,492.4-428.4,491.2-429.9,491.2z M-449.6,490.3c0-1.5,1.2-2.7,2.7-2.7h1.8c1.5,0,2.7,1.2,2.7,2.7v0.9h-7.1V490.3z
				 M-439,493c-0.4,1.1-1.4,1.8-2.5,1.8h-8.9c-1.1,0-2.1-0.7-2.5-1.8H-439z M-429,536.8c0,0.5-0.4,0.9-0.9,0.9h-32.2
				c-0.5,0-0.9-0.4-0.9-0.9v-42.9c0-0.5,0.4-0.9,0.9-0.9h7.3c0.4,2.1,2.3,3.6,4.4,3.6h8.9c2.1,0,3.9-1.5,4.4-3.6h7.3
				c0.5,0,0.9,0.4,0.9,0.9L-429,536.8z"/>
			<path style="fill:#5FC2FF;" d="M-442.7,501.1c-0.2-0.5-0.8-0.6-1.2-0.4c-0.2,0.1-0.4,0.3-0.5,0.5l-1.8,5.5l-1-3.6
				c-0.1-0.5-0.7-0.8-1.1-0.6c-0.2,0.1-0.4,0.2-0.5,0.4l-1.4,2.3l-0.6-5.6c-0.1-0.5-0.5-0.9-1-0.8c-0.4,0-0.7,0.3-0.8,0.6l-2.9,8.8
				l-1.8-4.2c-0.1-0.3-0.5-0.6-0.9-0.6h-3.7v1.9h3.1l2.5,5.9c0.1,0.3,0.5,0.6,0.9,0.6h0c0.4,0,0.7-0.3,0.8-0.6l2.4-7.1l0.5,4.1
				c0.1,0.5,0.5,0.9,1,0.8c0.3,0,0.5-0.2,0.7-0.4l1.7-2.8l1.3,4.4c0.1,0.4,0.5,0.7,0.9,0.7c0.4,0,0.8-0.3,0.9-0.6l2.1-6.2l0.9,1.7
				c0.2,0.3,0.5,0.5,0.8,0.5h11.1v-1.9h-10.5L-442.7,501.1z"/>
			<rect x="-462.1" y="517.2" style="fill:#5FC2FF;" width="31.5" height="1.9"/>
			<rect x="-462.1" y="520.9" style="fill:#5FC2FF;" width="31.5" height="1.9"/>
			<rect x="-462.1" y="524.6" style="fill:#5FC2FF;" width="31.5" height="1.9"/>
			<rect x="-462.1" y="528.3" style="fill:#5FC2FF;" width="31.5" height="1.9"/>
			<rect x="-462.1" y="532" style="fill:#5FC2FF;" width="31.5" height="1.9"/>
		</g>
	</g>
</g>
</svg>
