<?xml version="1.0" encoding="utf-8"?>
<!-- Generator: Adobe Illustrator 18.1.1, SVG Export Plug-In . SVG Version: 6.00 Build 0)  -->
<svg version="1.1" id="Layer_1" xmlns="http://www.w3.org/2000/svg" xmlns:xlink="http://www.w3.org/1999/xlink" x="0px" y="0px"
	 viewBox="-479 483.8 65 58.2" enable-background="new -479 483.8 65 58.2" xml:space="preserve">
<g>
	<g>
		<path fill="#002F64" d="M-420.4,486.4c-3.5-3.5-9.3-3.5-12.7,0l-13.3,13l13,12.7l13-12.7C-416.6,495.9-416.6,489.9-420.4,486.4z"
			/>
	</g>
</g>
<g>
	<g>
		<path fill="#002F64" d="M-460,486.4c-3.5-3.5-9.3-3.5-12.7,0c-3.8,3.5-3.8,9.5,0,13l13.3,12.7l13-12.7L-460,486.4z"/>
	</g>
</g>
<g>
	<g>
		<circle fill="#5FC2FF" cx="-458" cy="521.1" r="2.9"/>
	</g>
</g>
<g>
	<g>
		<circle fill="#5FC2FF" cx="-446.4" cy="521.1" r="2.9"/>
	</g>
</g>
<g>
	<g>
		<circle fill="#5FC2FF" cx="-434.8" cy="521.1" r="2.9"/>
	</g>
</g>
<g>
	<g>
		<circle fill="#5FC2FF" cx="-452.2" cy="529.8" r="2.9"/>
	</g>
</g>
<g>
	<g>
		<circle fill="#5FC2FF" cx="-440.6" cy="529.8" r="2.9"/>
	</g>
</g>
<g>
	<g>
		<circle fill="#5FC2FF" cx="-446.4" cy="538.5" r="2.9"/>
	</g>
</g>
</svg>
