<svg xmlns="http://www.w3.org/2000/svg" width="55" height="46.266" viewBox="0 0 55 46.266">
  <g id="Meetings_Reviews" data-name="Meetings &amp; Reviews" transform="translate(-0.998 -8.78)">
    <path id="Path_378" data-name="Path 378" d="M42.45,13.017a4.237,4.237,0,1,1,4.237,4.237h0A4.237,4.237,0,0,1,42.45,13.017Z" transform="translate(-18.188)" fill="#004a9f"/>
    <path id="Path_379" data-name="Path 379" d="M37.021,34.267H50.614a1.122,1.122,0,0,0,1.122-1.122V29.721a3.491,3.491,0,0,0-3.491-3.491H46.972L44.2,29a.561.561,0,0,1-.758,0L40.669,26.23H39.4a3.491,3.491,0,0,0-3.491,3.491h0v3.423A1.122,1.122,0,0,0,37.021,34.267Z" transform="translate(-15.319 -7.657)" fill="#004a9f"/>
    <path id="Subtraction_7" data-name="Subtraction 7" d="M6.766,25.338H1.39A1.394,1.394,0,0,1,0,23.944a1.37,1.37,0,0,1,.037-.318l5.3-22.6A1.324,1.324,0,0,1,6.635,0H25.46a1.326,1.326,0,0,1,1.3,1.027l5.3,22.6a1.391,1.391,0,0,1-1.069,1.653,1.351,1.351,0,0,1-.289.031h-5.37V22.735a4.973,4.973,0,0,0-4.967-4.967H11.677a4.967,4.967,0,0,0-4.911,4.967v2.6Zm9.282-20.2a4.972,4.972,0,1,0,4.973,4.973A4.978,4.978,0,0,0,16.049,5.14Z" transform="translate(12.45 29.708)" fill="#5fc2ff"/>
    <path id="Path_382" data-name="Path 382" d="M84.446,52.992a5.685,5.685,0,0,0-5.2,5.747v3.345a1.078,1.078,0,0,0,1.078,1.078h8.929a1.078,1.078,0,0,0,1.078-1.078V58.548a5.545,5.545,0,0,0-5.523-5.567C84.689,52.98,84.568,52.984,84.446,52.992Z" transform="translate(-34.335 -19.395)" fill="#004a9f"/>
    <path id="Path_383" data-name="Path 383" d="M85.557,41.354A4.557,4.557,0,1,0,81,36.8v.022a4.557,4.557,0,0,0,4.557,4.557h0Z" transform="translate(-35.104 -10.294)" fill="#004a9f"/>
    <path id="Path_384" data-name="Path 384" d="M2.077,63.156h8.929a1.078,1.078,0,0,0,1.078-1.078V58.542a5.544,5.544,0,0,0-5.529-5.561c-.117,0-.235,0-.352.01A5.685,5.685,0,0,0,1,58.761v3.322A1.078,1.078,0,0,0,2.077,63.156Z" transform="translate(0 -19.395)" fill="#004a9f"/>
    <path id="Path_385" data-name="Path 385" d="M7.335,41.394a4.571,4.571,0,1,0-.028,0h.028Z" transform="translate(-0.769 -10.311)" fill="#004a9f"/>
  </g>
</svg>
