<svg xmlns="http://www.w3.org/2000/svg" width="48.146" height="70" viewBox="0 0 48.146 70">
  <g id="Multi_model_audit_" data-name="Multi model audit  " transform="translate(-456 -520)">
    <g id="Group_408" data-name="Group 408" transform="translate(6.951)">
      <path id="Path_607" data-name="Path 607" d="M8943.676,2334.245c1.009-.015,7.327-.61,8.014-.806s1.3-3.9,2.3-3.928a7.657,7.657,0,0,1,2.594.7s.492,3.1,1.7,3.224,6.9,0,6.9,0,1.344,5.772.764,5.975a22.742,22.742,0,0,0-2.609,1.641h-20.7Z" transform="translate(-8482 -1807)" fill="#5fc2ff"/>
      <g id="noun_check-list_30441" transform="translate(430 515)">
        <g id="Group_404" data-name="Group 404" transform="translate(28.298 27.179)">
          <g id="Group_394" data-name="Group 394">
            <g id="Group_392" data-name="Group 392">
              <path id="Path_598" data-name="Path 598" d="M34.507,40.65a1.2,1.2,0,0,1-.848-.352l-2.368-2.368a1.2,1.2,0,1,1,1.7-1.7l1.52,1.52L38.4,33.867a1.2,1.2,0,0,1,1.7,1.7L35.356,40.3A1.2,1.2,0,0,1,34.507,40.65Z" transform="translate(-30.941 -33.515)" fill="#5fc2ff"/>
            </g>
            <g id="Group_393" data-name="Group 393" transform="translate(12.977 2.368)">
              <path id="Path_599" data-name="Path 599" d="M63.1,38.959H48.824a1.2,1.2,0,0,1,0-2.4H63.1a1.2,1.2,0,0,1,0,2.4Z" transform="translate(-47.625 -36.56)" fill="#002f65"/>
            </g>
          </g>
          <g id="Group_397" data-name="Group 397" transform="translate(0 20.527)">
            <g id="Group_395" data-name="Group 395">
              <path id="Path_600" data-name="Path 600" d="M34.507,67.041a1.2,1.2,0,0,1-.848-.352l-2.368-2.368a1.2,1.2,0,0,1,1.7-1.7l1.52,1.52L38.4,60.259a1.2,1.2,0,1,1,1.7,1.7L35.356,66.69A1.2,1.2,0,0,1,34.507,67.041Z" transform="translate(-30.941 -59.907)" fill="#5fc2ff"/>
            </g>
            <g id="Group_396" data-name="Group 396" transform="translate(12.977 2.367)">
              <path id="Path_601" data-name="Path 601" d="M63.1,65.35H48.824a1.2,1.2,0,0,1,0-2.4H63.1a1.2,1.2,0,1,1,0,2.4Z" transform="translate(-47.625 -62.951)" fill="#002f65"/>
            </g>
          </g>
          <g id="Group_400" data-name="Group 400" transform="translate(0 30.791)">
            <g id="Group_398" data-name="Group 398">
              <path id="Path_602" data-name="Path 602" d="M34.507,80.238a1.2,1.2,0,0,1-.848-.352l-2.368-2.368a1.2,1.2,0,0,1,1.7-1.7l1.52,1.52L38.4,73.456a1.2,1.2,0,1,1,1.7,1.7l-4.735,4.735A1.2,1.2,0,0,1,34.507,80.238Z" transform="translate(-30.941 -73.104)" fill="#5fc2ff"/>
            </g>
            <g id="Group_399" data-name="Group 399" transform="translate(12.977 2.366)">
              <path id="Path_603" data-name="Path 603" d="M63.1,78.546H48.824a1.2,1.2,0,0,1,0-2.4H63.1a1.2,1.2,0,0,1,0,2.4Z" transform="translate(-47.625 -76.147)" fill="#002f65"/>
            </g>
          </g>
          <g id="Group_403" data-name="Group 403" transform="translate(0 10.263)">
            <g id="Group_401" data-name="Group 401">
              <path id="Path_604" data-name="Path 604" d="M34.507,53.845a1.2,1.2,0,0,1-.848-.352l-2.368-2.368a1.2,1.2,0,0,1,1.7-1.7l1.52,1.519L38.4,47.062a1.2,1.2,0,0,1,1.7,1.7l-4.735,4.735A1.2,1.2,0,0,1,34.507,53.845Z" transform="translate(-30.941 -46.71)" fill="#5fc2ff"/>
            </g>
            <g id="Group_402" data-name="Group 402" transform="translate(12.977 2.369)">
              <path id="Path_605" data-name="Path 605" d="M63.1,52.155H48.824a1.2,1.2,0,0,1,0-2.4H63.1a1.2,1.2,0,0,1,0,2.4Z" transform="translate(-47.625 -49.756)" fill="#002f65"/>
            </g>
          </g>
        </g>
        <g id="Group_407" data-name="Group 407" transform="translate(19.049 5)">
          <g id="Group_405" data-name="Group 405">
            <path id="Path_606" data-name="Path 606" d="M65.6,13.764H56.832A4.7,4.7,0,0,0,52.138,9.39H47.564a4.442,4.442,0,0,0-8.884,0H34.1a4.7,4.7,0,0,0-4.686,4.374H20.648a1.6,1.6,0,0,0-1.6,1.6V73.4a1.594,1.594,0,0,0,1.6,1.6H65.6a1.594,1.594,0,0,0,1.6-1.6V15.363A1.6,1.6,0,0,0,65.6,13.764Zm-33,.336a1.509,1.509,0,0,1,1.5-1.511h5a2.783,2.783,0,0,0,2.783-2.774V9.447a1.244,1.244,0,1,1,2.487,0v.368a2.781,2.781,0,0,0,2.774,2.774h5A1.51,1.51,0,0,1,53.65,14.1v3.278H32.6V14.1ZM64,71.8H22.247V16.962H29.4v2.015a1.594,1.594,0,0,0,1.6,1.6H55.248a1.594,1.594,0,0,0,1.6-1.6V16.962H64V71.8Z" transform="translate(-19.049 -5)" fill="#002f65"/>
          </g>
          <g id="Group_406" data-name="Group 406" transform="translate(22.537 7.791)">
            <circle id="Ellipse_32" data-name="Ellipse 32" cx="1.536" cy="1.536" r="1.536" fill="#002f65"/>
          </g>
        </g>
      </g>
    </g>
  </g>
</svg>
