<?xml version="1.0" encoding="utf-8"?>
<!-- Generator: Adobe Illustrator 18.1.1, SVG Export Plug-In . SVG Version: 6.00 Build 0)  -->
<svg version="1.1" id="Layer_1" xmlns="http://www.w3.org/2000/svg" xmlns:xlink="http://www.w3.org/1999/xlink" x="0px" y="0px"
	 width="65px" height="53.3px" viewBox="-273 370.7 65 53.3" enable-background="new -273 370.7 65 53.3" xml:space="preserve">
<g id="My_work_space_" transform="translate(-209 -210)">
	<g id="Group_354" transform="translate(209 210)">
		<g id="noun_person_2351671" transform="translate(15.167 7.222)">
			<g id="Group_353" transform="translate(0 0)">
				<path id="Path_552" fill="#002F65" d="M-248.6,391.1c5-3.9,5.9-11,2-16s-11-5.9-16-2s-5.9,11-2,16c0.6,0.8,1.3,1.4,2,2l0,0
					c-6.4,2.8-10.5,9-10.5,16v9.7h34.9v-9.7C-238.1,400.1-242.2,393.9-248.6,391.1z M-263.1,382.1c0.2-4.1,3.8-7.3,7.9-7.1
					c3.8,0.2,6.9,3.3,7.1,7.1c0,2.3-1.1,4.5-2.9,5.9c-2.7,2.1-6.5,2.1-9.2,0C-262,386.6-263.1,384.4-263.1,382.1L-263.1,382.1z
					 M-242,412.9h-27.2v-5.8c0-7.5,6.1-13.6,13.6-13.6c7.5,0,13.6,6.1,13.6,13.6c0,0,0,0,0,0L-242,412.9z"/>
			</g>
		</g>
		<path id="Subtraction_15" fill="#002F65" d="M-261.4,412h-6.6c-2.8,0-5-2.2-5-5v-31.2c0-2.8,2.2-5,5-5h55c2.8,0,5,2.2,5,5V407
			c0,2.8-2.2,5-5,5h-5.8v-3.6h5.8c0.8,0,1.4-0.6,1.4-1.4v-31.2c0-0.8-0.6-1.4-1.4-1.4h-55c-0.8,0-1.4,0.6-1.4,1.4c0,0,0,0,0,0V407
			c0,0.8,0.6,1.4,1.4,1.4c0,0,0,0,0,0h6.6L-261.4,412L-261.4,412z"/>
	</g>
</g>
</svg>
