<svg xmlns="http://www.w3.org/2000/svg" width="23.831" height="25" viewBox="0 0 23.831 25">
  <g id="Group_293" data-name="Group 293" transform="translate(-5541.198 -884)">
    <g id="noun_workspace_1534030" transform="translate(5546.071 884.278)">
      <g id="Group" transform="translate(0 0)">
        <path id="Compound_Path" data-name="Compound Path" d="M36.838,13.4a2.227,2.227,0,0,0,2.227-2.227V7.327A2.227,2.227,0,0,0,36.838,5.1H26.927A2.227,2.227,0,0,0,24.7,7.327v3.842A2.227,2.227,0,0,0,26.927,13.4Z" transform="translate(-24.7 -5.1)" fill="#ff6c00"/>
      </g>
    </g>
    <g id="noun_workspace_1534030-2" data-name="noun_workspace_1534030" transform="translate(5541.198 884)">
      <g id="Group-2" data-name="Group" transform="translate(0 0)">
        <path id="Compound_Path-2" data-name="Compound Path" d="M9.7,16.236A2.506,2.506,0,0,0,7.2,18.741V29.264a.807.807,0,0,0,.835.835.835.835,0,0,0,.835-.835V21.748h20.49v7.517a.835.835,0,0,0,.835.835.807.807,0,0,0,.835-.835V18.741a2.506,2.506,0,0,0-2.506-2.506H20.088V15.066h4.12a2.227,2.227,0,0,0,2.227-2.227V7.327A2.227,2.227,0,0,0,24.208,5.1H14.3a2.227,2.227,0,0,0-2.227,2.227v5.512A2.227,2.227,0,0,0,14.3,15.066h4.12v1.169Zm4.037-3.4V7.327A.557.557,0,0,1,14.3,6.77h9.911a.557.557,0,0,1,.557.557v5.512a.557.557,0,0,1-.557.557H14.3A.557.557,0,0,1,13.741,12.839Zm15.618,5.9v1.336H8.869V18.741a.835.835,0,0,1,.835-.835H28.523A.835.835,0,0,1,29.359,18.741Z" transform="translate(-7.198 -5.1)" fill="#2676ff"/>
      </g>
    </g>
  </g>
</svg>
