<?xml version="1.0" encoding="utf-8"?>
<!-- Generator: Adobe Illustrator 18.1.1, SVG Export Plug-In . SVG Version: 6.00 Build 0)  -->
<svg version="1.1" id="Layer_1" xmlns="http://www.w3.org/2000/svg" xmlns:xlink="http://www.w3.org/1999/xlink" x="0px" y="0px"
	 viewBox="-479 483.8 65 58.2" enable-background="new -479 483.8 65 58.2" xml:space="preserve">
<path fill="#002F64" stroke="#002F64" stroke-miterlimit="10" d="M-460.2,541.6c-0.5,0-0.9-0.4-0.9-0.9c0-3.5,2.9-6.4,6.4-6.4
	c0.5,0,0.9,0.4,0.9,0.9s-0.4,0.9-0.9,0.9c-2.5,0-4.6,2.1-4.6,4.6C-459.3,541.2-459.7,541.6-460.2,541.6z"/>
<path fill="#002F64" stroke="#002F64" stroke-miterlimit="10" d="M-451,536.1l-3.7,0c-0.5,0-0.9-0.4-0.9-0.9c0-0.5,0.4-0.9,0.9-0.9
	h0l3.7,0c0.5,0,0.9,0.4,0.9,0.9C-450.1,535.7-450.5,536.1-451,536.1z"/>
<path fill="#002F64" stroke="#002F64" stroke-miterlimit="10" d="M-432.7,541.6c-0.5,0-0.9-0.4-0.9-0.9c0-2.5-2.1-4.6-4.6-4.6
	c-0.5,0-0.9-0.4-0.9-0.9s0.4-0.9,0.9-0.9c3.5,0,6.4,2.9,6.4,6.4C-431.7,541.2-432.2,541.6-432.7,541.6z"/>
<path fill="#002F64" stroke="#002F64" stroke-miterlimit="10" d="M-441.8,536.1c-0.5,0-0.9-0.4-0.9-0.9c0-0.5,0.4-0.9,0.9-0.9l3.7,0
	h0c0.5,0,0.9,0.4,0.9,0.9c0,0.5-0.4,0.9-0.9,0.9L-441.8,536.1z"/>
<path fill="#002F64" stroke="#002F64" stroke-miterlimit="10" d="M-451,536.1c-0.5,0-0.9-0.4-0.9-0.9v-2.9c0-0.5,0.4-0.9,0.9-0.9
	s0.9,0.4,0.9,0.9v2.9C-450.1,535.7-450.5,536.1-451,536.1z"/>
<path fill="#002F64" stroke="#002F64" stroke-miterlimit="10" d="M-441.8,536.1c-0.5,0-0.9-0.4-0.9-0.9v-2.9c0-0.5,0.4-0.9,0.9-0.9
	s0.9,0.4,0.9,0.9v2.9C-440.9,535.7-441.3,536.1-441.8,536.1z"/>
<path fill="#002F64" stroke="#002F64" stroke-miterlimit="10" d="M-446.4,534.2c-6.1,0-11-4.9-11-11c0-0.5,0.4-0.9,0.9-0.9
	c0.5,0,0.9,0.4,0.9,0.9c0,5.1,4.1,9.2,9.2,9.2c5.1,0,9.2-4.1,9.2-9.2c0-0.5,0.4-0.9,0.9-0.9c0.5,0,0.9,0.4,0.9,0.9
	C-435.4,529.3-440.3,534.2-446.4,534.2z"/>
<path fill="#002F64" stroke="#002F64" stroke-miterlimit="10" d="M-436.3,518.6c-0.5,0-0.9-0.4-0.9-0.9c0-5.1-4.1-9.2-9.2-9.2
	c-5.1,0-9.2,4.1-9.2,9.2c0,0.5-0.4,0.9-0.9,0.9c-0.5,0-0.9-0.4-0.9-0.9c0-6.1,4.9-11,11-11c6.1,0,11,4.9,11,11
	C-435.4,518.2-435.8,518.6-436.3,518.6z"/>
<path fill="#002F64" stroke="#002F64" stroke-miterlimit="10" d="M-456.5,524.1c-0.5,0-0.9-0.4-0.9-0.9v-5.5c0-0.5,0.4-0.9,0.9-0.9
	c0.5,0,0.9,0.4,0.9,0.9v5.5C-455.6,523.7-456,524.1-456.5,524.1z"/>
<path fill="#002F64" stroke="#002F64" stroke-miterlimit="10" d="M-436.3,524.1c-0.5,0-0.9-0.4-0.9-0.9v-5.5c0-0.5,0.4-0.9,0.9-0.9
	c0.5,0,0.9,0.4,0.9,0.9v5.5C-435.4,523.7-435.8,524.1-436.3,524.1z"/>
<path fill="#002F64" stroke="#002F64" stroke-miterlimit="10" d="M-436.3,520.5c-0.2,0-0.5-0.1-0.6-0.3l-2.8-2.8
	c-0.4-0.4-0.4-0.9,0-1.3c0.4-0.4,0.9-0.4,1.3,0l2.8,2.8c0.4,0.4,0.4,0.9,0,1.3C-435.9,520.4-436.1,520.5-436.3,520.5z"/>
<path fill="#002F64" stroke="#002F64" stroke-miterlimit="10" d="M-446.4,519.6c-4.1,0-7.6-1.9-7.8-1.9c-0.4-0.2-0.6-0.8-0.4-1.2
	c0.2-0.4,0.8-0.6,1.2-0.4c0,0,3.3,1.7,6.9,1.7c3.7,0,6.9-1.7,6.9-1.7c0.4-0.2,1-0.1,1.2,0.4c0.2,0.4,0.1,1-0.4,1.2
	C-438.8,517.7-442.3,519.6-446.4,519.6z"/>
<path fill="#002F64" stroke="#002F64" stroke-miterlimit="10" d="M-456.5,520.5c-0.2,0-0.5-0.1-0.6-0.3c-0.4-0.4-0.4-0.9,0-1.3
	l2.8-2.8c0.4-0.4,0.9-0.4,1.3,0c0.4,0.4,0.4,0.9,0,1.3l-2.8,2.8C-456,520.4-456.3,520.5-456.5,520.5z"/>
<path fill="#002F64" stroke="#002F64" stroke-miterlimit="10" d="M-449.2,537.9c-0.2,0-0.5-0.1-0.6-0.3l-1.8-1.8
	c-0.4-0.4-0.4-0.9,0-1.3c0.4-0.4,0.9-0.4,1.3,0l1.8,1.8c0.4,0.4,0.4,0.9,0,1.3C-448.7,537.8-448.9,537.9-449.2,537.9z"/>
<path fill="#002F64" stroke="#002F64" stroke-miterlimit="10" d="M-449.2,537.9c-0.4,0-0.7-0.2-0.9-0.6c-0.2-0.5,0.1-1,0.6-1.2
	l2.8-0.9c0.5-0.2,1,0.1,1.2,0.6c0.2,0.5-0.1,1-0.6,1.2l-2.8,0.9C-449,537.9-449.1,537.9-449.2,537.9z"/>
<path fill="#002F64" stroke="#002F64" stroke-miterlimit="10" d="M-443.7,537.9c-0.2,0-0.5-0.1-0.6-0.3c-0.4-0.4-0.4-0.9,0-1.3
	l1.8-1.8c0.4-0.4,0.9-0.4,1.3,0c0.4,0.4,0.4,0.9,0,1.3l-1.8,1.8C-443.2,537.8-443.4,537.9-443.7,537.9z"/>
<path fill="#002F64" stroke="#002F64" stroke-miterlimit="10" d="M-443.7,537.9c-0.1,0-0.2,0-0.3,0l-2.8-0.9
	c-0.5-0.2-0.7-0.7-0.6-1.2c0.2-0.5,0.7-0.7,1.2-0.6l2.8,0.9c0.5,0.2,0.7,0.7,0.6,1.2C-442.9,537.7-443.3,537.9-443.7,537.9z"/>
<path fill="#5FC2FF" d="M-446.4,504c-5.6,0-10.1-4.5-10.1-10.1s4.5-10.1,10.1-10.1c5.6,0,10.1,4.5,10.1,10.1S-440.9,504-446.4,504z
	 M-446.4,485.6c-4.6,0-8.3,3.7-8.3,8.3c0,4.6,3.7,8.3,8.3,8.3c4.6,0,8.3-3.7,8.3-8.3C-438.2,489.3-441.9,485.6-446.4,485.6z"/>
<path fill="#5FC2FF" d="M-465.7,515c-5.6,0-10.1-4.5-10.1-10.1c0-5.6,4.5-10.1,10.1-10.1c2.7,0,5.2,1,7.1,3c1.9,1.9,3,4.4,3,7.1
	c0,2.7-1,5.2-3,7.1C-460.4,513.9-463,515-465.7,515z M-465.7,496.6c-4.6,0-8.3,3.7-8.3,8.3c0,4.6,3.7,8.3,8.3,8.3
	c2.2,0,4.3-0.9,5.8-2.4c1.6-1.6,2.4-3.6,2.4-5.8c0-2.2-0.9-4.3-2.4-5.8C-461.4,497.5-463.5,496.6-465.7,496.6z"/>
<path fill="#5FC2FF" d="M-427.2,515c-5.6,0-10.1-4.5-10.1-10.1c0-5.6,4.5-10.1,10.1-10.1c5.6,0,10.1,4.5,10.1,10.1
	C-417.1,510.4-421.6,515-427.2,515z M-427.2,496.6c-4.5,0-8.3,3.7-8.3,8.3c0,4.6,3.7,8.3,8.3,8.3c4.6,0,8.3-3.7,8.3-8.3
	C-418.9,500.3-422.6,496.6-427.2,496.6z"/>
<path fill="#5FC2FF" d="M-461.1,510.4h-9.2c-0.5,0-0.9-0.4-0.9-0.9v-6.4c0-0.5,0.4-0.9,0.9-0.9h9.2c0.5,0,0.9,0.4,0.9,0.9v6.4
	C-460.2,510-460.6,510.4-461.1,510.4z M-469.3,508.6h7.3V504h-7.3V508.6z"/>
<path fill="#5FC2FF" d="M-461.1,504h-9.2c-0.5,0-0.9-0.4-0.9-0.9v-2.8c0-0.5,0.4-0.9,0.9-0.9h9.2c0.5,0,0.9,0.4,0.9,0.9v2.8
	C-460.2,503.6-460.6,504-461.1,504z M-469.3,502.1h7.3v-0.9h-7.3V502.1z"/>
<path fill="#5FC2FF" d="M-449.2,499.4c-1.5,0-2.8-1.2-2.8-2.8c0-1.5,1.2-2.8,2.8-2.8c0.5,0,0.9,0.4,0.9,0.9c0,0.5-0.4,0.9-0.9,0.9
	c-0.5,0-0.9,0.4-0.9,0.9c0,0.5,0.4,0.9,0.9,0.9c0.5,0,0.9,0.4,0.9,0.9C-448.3,499-448.7,499.4-449.2,499.4z"/>
<path fill="#5FC2FF" d="M-442.7,499.4h-6.4c-0.5,0-0.9-0.4-0.9-0.9c0-0.5,0.4-0.9,0.9-0.9h6.4c0.5,0,0.9,0.4,0.9,0.9
	C-441.8,499-442.2,499.4-442.7,499.4z"/>
<path fill="#5FC2FF" d="M-442.7,495.7h-6.4c-0.5,0-0.9-0.4-0.9-0.9c0-0.5,0.4-0.9,0.9-0.9h6.4c0.5,0,0.9,0.4,0.9,0.9
	C-441.8,495.3-442.2,495.7-442.7,495.7z"/>
<path fill="#5FC2FF" d="M-443.7,499.4c-0.5,0-0.9-0.4-0.9-0.9v-3.7c0-0.5,0.4-0.9,0.9-0.9s0.9,0.4,0.9,0.9v3.7
	C-442.7,499-443.2,499.4-443.7,499.4z"/>
<path fill="#5FC2FF" d="M-451,492c-0.5,0-0.9-0.4-0.9-0.9c0-1.5,1.2-2.8,2.8-2.8c0.5,0,0.9,0.4,0.9,0.9c0,0.5-0.4,0.9-0.9,0.9
	c-0.5,0-0.9,0.4-0.9,0.9C-450.1,491.6-450.5,492-451,492z"/>
<path fill="#5FC2FF" d="M-442.7,490.2h-6.4c-0.5,0-0.9-0.4-0.9-0.9c0-0.5,0.4-0.9,0.9-0.9h6.4c0.5,0,0.9,0.4,0.9,0.9
	C-441.8,489.8-442.2,490.2-442.7,490.2z"/>
<path fill="#5FC2FF" d="M-442.7,495.7c-0.5,0-0.9-0.4-0.9-0.9v-5.5c0-0.5,0.4-0.9,0.9-0.9s0.9,0.4,0.9,0.9v5.5
	C-441.8,495.3-442.2,495.7-442.7,495.7z"/>
<path fill="#5FC2FF" d="M-451,497.5c-0.5,0-0.9-0.4-0.9-0.9v-5.5c0-0.5,0.4-0.9,0.9-0.9s0.9,0.4,0.9,0.9v5.5
	C-450.1,497.1-450.5,497.5-451,497.5z"/>
<path fill="#5FC2FF" d="M-423.5,509.5h-7.3c-1,0-1.8-0.8-1.8-1.8v-4.6c0-1,0.8-1.8,1.8-1.8h7.3c1,0,1.8,0.8,1.8,1.8v4.6
	C-421.7,508.6-422.5,509.5-423.5,509.5z M-423.5,507.6v0.9V507.6z M-430.8,503.1v4.6h7.3l0-4.6H-430.8z"/>
</svg>
