<?xml version="1.0" encoding="utf-8"?>
<!-- Generator: Adobe Illustrator 18.1.1, SVG Export Plug-In . SVG Version: 6.00 Build 0)  -->
<svg version="1.1" id="Layer_1" xmlns="http://www.w3.org/2000/svg" xmlns:xlink="http://www.w3.org/1999/xlink" x="0px" y="0px"
	 viewBox="-479 483.8 65 58.2" enable-background="new -479 483.8 65 58.2" xml:space="preserve">
<g>
	<g>
		<path d="M-455.4,499.8l-1.3-6.3c-0.1-0.6-0.8-1.1-1.4-0.9c-0.6,0.1-1.1,0.8-0.9,1.4l1.3,6.3c0.1,0.6,0.6,1,1.2,1
			c0.1,0,0.2,0,0.2,0C-455.7,501.1-455.3,500.4-455.4,499.8z"/>
	</g>
</g>
<g>
	<g>
		<path d="M-433.5,492.6c-0.7-0.1-1.3,0.3-1.4,0.9l-1.3,6.3c-0.1,0.6,0.3,1.3,0.9,1.4c0.1,0,0.2,0,0.2,0c0.6,0,1.1-0.4,1.2-1
			l1.3-6.3C-432.5,493.3-432.9,492.7-433.5,492.6z"/>
	</g>
</g>
<g>
	<g>
		<path fill="#002F64" d="M-429.5,506.6c-0.2-0.6-0.9-1-1.5-0.8c-0.6,0.2-1,0.9-0.8,1.5c0.2,0.7,0.3,1.5,0.3,2.3
			c0,2.3-0.9,3.6-1.3,3.5c-0.3-0.2-0.7-0.2-1.1-0.1c-0.4,0.1-0.6,0.4-0.7,0.8c-1.7,6.8-6.2,11.3-11.3,11.3s-9.6-4.5-11.3-11.3
			c-0.1-0.4-0.4-0.6-0.8-0.8c-0.4-0.1-0.8-0.1-1.1,0.1c-0.3,0-1.2-1.3-1.2-3.6c0-0.8,0.1-1.6,0.3-2.3c0.2-0.6-0.1-1.3-0.8-1.5
			c-0.6-0.2-1.3,0.1-1.5,0.8c-0.3,0.9-0.5,2-0.5,3c0,3.3,1.5,5.9,3.5,6c2.2,7.2,7.4,12,13.3,12s11.2-4.8,13.3-12
			c2-0.1,3.5-2.7,3.5-6C-429,508.6-429.2,507.5-429.5,506.6z"/>
	</g>
</g>
<g>
	<g>
		<path fill="#5FC2FF" d="M-449.4,508.4h-2.4c-0.7,0-1.2,0.5-1.2,1.2s0.5,1.2,1.2,1.2h2.4c0.7,0,1.2-0.5,1.2-1.2
			S-448.7,508.4-449.4,508.4z"/>
	</g>
</g>
<g>
	<g>
		<path fill="#5FC2FF" d="M-439.8,508.4h-2.4c-0.7,0-1.2,0.5-1.2,1.2s0.5,1.2,1.2,1.2h2.4c0.7,0,1.2-0.5,1.2-1.2
			S-439.2,508.4-439.8,508.4z"/>
	</g>
</g>
<g>
	<g>
		<path fill="#002F64" d="M-453.2,522.1l-7-9.3v-9.2c0-0.7-0.5-1.2-1.2-1.2s-1.2,0.5-1.2,1.2c0,3.9-2.2,12.4-4.4,14.7
			c-0.5,0.5-0.5,1.2,0,1.7c2.6,2.7,11.7,3.8,12.7,3.9c0.1,0,0.1,0,0.1,0c0.4,0,0.8-0.2,1-0.6C-452.9,523-453,522.5-453.2,522.1z"/>
	</g>
</g>
<g>
	<g>
		<path fill="#002F64" d="M-424.6,518.4c-2.3-2.3-4.4-10.9-4.4-14.7c0-0.7-0.5-1.2-1.2-1.2s-1.2,0.5-1.2,1.2v9.2l-7,9.3
			c-0.3,0.4-0.3,0.9-0.1,1.3c0.2,0.4,0.6,0.6,1,0.6c0,0,0.1,0,0.1,0c1-0.1,10-1.3,12.7-3.9C-424.1,519.6-424.1,518.8-424.6,518.4z"
			/>
	</g>
</g>
<g>
	<g>
		<path fill="#002F64" d="M-432.2,486.9c-0.2-0.1-6.2-2.5-13.6-2.5s-13.4,2.4-13.6,2.5c-0.5,0.2-0.8,0.8-0.7,1.3l2.4,12
			c0.1,0.6,0.6,1,1.2,1h21.6c0.6,0,1.1-0.4,1.2-1l2.4-12C-431.3,487.7-431.6,487.1-432.2,486.9z M-443.4,494h-1.2v1.2
			c0,0.7-0.5,1.2-1.2,1.2c-0.7,0-1.2-0.5-1.2-1.2V494h-1.2c-0.7,0-1.2-0.5-1.2-1.2s0.5-1.2,1.2-1.2h1.2v-1.2c0-0.7,0.5-1.2,1.2-1.2
			s1.2,0.5,1.2,1.2v1.2h1.2c0.7,0,1.2,0.5,1.2,1.2S-442.7,494-443.4,494z"/>
	</g>
</g>
<g>
	<g>
		<path fill="#002F64" d="M-430.6,496.5l-0.9,4.3c-0.3,1.7-1.8,2.9-3.5,2.9h-9.7c4.1,2.5,9.2,4.5,14.1,4.5c0.6,0,1.1-0.4,1.2-0.9
			c0.3-1.3,0.4-2.5,0.4-3.6C-429,501.1-429.6,498.7-430.6,496.5z"/>
	</g>
</g>
<g>
	<g>
		<path fill="#002F64" d="M-456.6,503.6c-1.7,0-3.2-1.2-3.5-2.9l-0.8-4.3c-1,2.2-1.6,4.6-1.6,7.1c0,1.1,0.1,2.3,0.4,3.6
			c0.1,0.3,0.3,0.6,0.6,0.8c0.3,0.2,0.7,0.2,1,0.1c0.2-0.1,3.7-1.5,6.5-4.4H-456.6z"/>
	</g>
</g>
<g>
	<g>
		<path fill="#002F64" d="M-427.5,526.7l-1-0.3c-0.4-0.1-0.8-0.1-1.2,0.2c-0.3,0.3-0.5,0.7-0.4,1.1l1,5.2c0.2,0.9,0,1.9-0.6,2.7
			c-0.5,0.8-1.4,1.3-2.3,1.5l-13.2,2.4c-0.2,0-0.4,0.1-0.6,0.1c-0.2,0-0.4,0-0.6-0.1l-13.2-2.4c-0.9-0.2-1.8-0.7-2.3-1.5
			c-0.5-0.8-0.8-1.7-0.6-2.7l1-5.2c0.1-0.4-0.1-0.8-0.4-1.1c-0.3-0.3-0.8-0.4-1.2-0.2l-1,0.3c-6.5,2.2-10.5,7.6-10.5,14.1
			c0,0.7,0.5,1.2,1.2,1.2h27.6h27.6c0.7,0,1.2-0.5,1.2-1.2C-417,534.4-421,529-427.5,526.7z"/>
	</g>
</g>
<g>
	<g>
		<path fill="#5FC2FF" d="M-431.4,533.4l-1.4-7.9c-0.1-0.4-0.4-0.8-0.8-0.9c-0.4-0.2-0.8-0.1-1.2,0.2l-11,8.5l-11-8.5
			c-0.3-0.3-0.8-0.3-1.2-0.2c-0.4,0.2-0.7,0.5-0.8,0.9l-1.4,7.9c-0.1,0.3,0,0.6,0.2,0.9c0.2,0.3,0.5,0.4,0.8,0.5l13.2,2.4
			c0.1,0,0.1,0,0.2,0c0.1,0,0.1,0,0.2,0l13.2-2.4c0.3-0.1,0.6-0.2,0.8-0.5C-431.5,534-431.4,533.7-431.4,533.4z"/>
	</g>
</g>
</svg>
