<svg xmlns="http://www.w3.org/2000/svg" width="70.34" height="65.001" viewBox="0 0 70.34 65.001">
  <g id="Observation" transform="translate(-920 -696.999)">
    <path id="Subtraction_25" data-name="Subtraction 25" d="M21.024,33.238a21.179,21.179,0,0,1-4.237-.427,20.911,20.911,0,0,1-7.518-3.163A21.085,21.085,0,0,1,1.652,20.4,20.915,20.915,0,0,1,.427,16.452a21.175,21.175,0,0,1,.6-10.761A20.941,20.941,0,0,1,3.91,0,20.905,20.905,0,0,0,2.3,4.459a21.213,21.213,0,0,0-.138,9.1,20.9,20.9,0,0,0,3.163,7.518,21.134,21.134,0,0,0,5.679,5.679,20.907,20.907,0,0,0,7.517,3.163,21.209,21.209,0,0,0,9.352-.2,20.914,20.914,0,0,0,4.658-1.778,21.123,21.123,0,0,0,7.34-6.405,21.117,21.117,0,0,1-7.614,8.452,20.922,20.922,0,0,1-5.287,2.4A21.051,21.051,0,0,1,21.024,33.238Z" transform="translate(920 708.702)" fill="#5fc2ff"/>
    <path id="Subtraction_27" data-name="Subtraction 27" d="M-8419.226-1942a5.147,5.147,0,0,1-3.666-1.516l-12.326-10.607a41.1,41.1,0,0,1,7.045-9.148l13.455,11.579a5.2,5.2,0,0,1,0,7.335l-.839.841A5.154,5.154,0,0,1-8419.226-1942Zm-16.621-12.664h0l-14.605-12.568a21.174,21.174,0,0,1-10.348,2.689,21.06,21.06,0,0,1-15-6.219,21.267,21.267,0,0,1,0-30.018,21.053,21.053,0,0,1,15-6.219,21.05,21.05,0,0,1,15,6.219,21.1,21.1,0,0,1,4.075,5.72,21.183,21.183,0,0,1,1.945,6.5,21.362,21.362,0,0,1-.187,6.733,21.115,21.115,0,0,1-2.316,6.407l13.4,11.534a42.842,42.842,0,0,0-6.961,9.219Zm-24.954-48.493a17.25,17.25,0,0,0-12.281,5.091,17.422,17.422,0,0,0,0,24.588,17.25,17.25,0,0,0,12.281,5.091,17.236,17.236,0,0,0,12.277-5.091,17.418,17.418,0,0,0,0-24.588A17.236,17.236,0,0,0-8460.8-2003.157Z" transform="translate(9403.543 2704)" fill="#002f64"/>
    <path id="Subtraction_24" data-name="Subtraction 24" d="M31.244,22.458h0A16.551,16.551,0,0,0,31.3,15.6a16.3,16.3,0,0,0-2.467-5.862A16.444,16.444,0,0,0,21.618,3.8,16.315,16.315,0,0,0,18.54,2.84a16.519,16.519,0,0,0-3.3-.333A16.3,16.3,0,0,0,5.93,5.4,16.449,16.449,0,0,0,0,12.836a16.262,16.262,0,0,1,2.085-5.1A16.4,16.4,0,0,1,31.244,22.458Z" transform="translate(926.559 701.822)" fill="#5fc2ff"/>
  </g>
</svg>
