<?xml version="1.0" encoding="utf-8"?>
<!-- Generator: Adobe Illustrator 18.1.1, SVG Export Plug-In . SVG Version: 6.00 Build 0)  -->
<svg version="1.1" id="Layer_1" xmlns="http://www.w3.org/2000/svg" xmlns:xlink="http://www.w3.org/1999/xlink" x="0px" y="0px"
	 viewBox="-7164 6447.5 71 66.5" enable-background="new -7164 6447.5 71 66.5" xml:space="preserve">
<g id="Operational_Readiness_Check_" transform="translate(-723 -695.25)">
	<path id="Path_607" fill="#5FC2FF" d="M-6409.7,7161.1c0.5,0,3.7-0.3,4-0.4c0.3-0.1,0.6-1.9,1.2-2c0.5,0,0.9,0.2,1.3,0.4
		c0,0,0.2,1.6,0.9,1.6s3.5,0,3.5,0s0.7,2.9,0.4,3c-0.5,0.2-0.9,0.5-1.3,0.8h-10.3L-6409.7,7161.1z"/>
	<g id="Group_404" transform="translate(756.975 724.589)">
		<g id="Group_394" transform="translate(-2.85 0)">
			<g id="Group_392">
				<path id="Path_598" fill="#002F65" d="M-7159.5,6456.5c-0.4,0-0.8-0.2-1.1-0.4l-3-3c-0.6-0.6-0.6-1.5,0-2.1
					c0.6-0.6,1.5-0.6,2.1,0l1.9,1.9l4.9-4.9c0.6-0.6,1.5-0.6,2.1,0c0.6,0.6,0.6,1.5,0,2.1l0,0l-6,6
					C-7158.7,6456.3-7159.1,6456.5-7159.5,6456.5z"/>
			</g>
		</g>
	</g>
	<g id="Group_407" transform="translate(748 710)">
		<g id="Group_405">
			<path id="Path_606" fill="#002F65" d="M-7140.7,6451.9h-4.4c-0.1-1.2-1.1-2.2-2.3-2.2h-2.3c0-1.2-1-2.2-2.2-2.2
				c-1.2,0-2.2,1-2.2,2.2h-2.3c-1.2,0-2.3,1-2.3,2.2h-4.4c-0.4,0-0.8,0.4-0.8,0.8v29c0,0.4,0.4,0.8,0.8,0.8h22.5
				c0.4,0,0.8-0.4,0.8-0.8v-29C-7139.9,6452.2-7140.3,6451.9-7140.7,6451.9z M-7157.2,6452c0-0.4,0.3-0.8,0.8-0.8c0,0,0,0,0,0h2.5
				c0.8,0,1.4-0.6,1.4-1.4v-0.2c0-0.3,0.3-0.6,0.6-0.6c0.3,0,0.6,0.3,0.6,0.6c0,0,0,0,0,0v0.2c0,0.8,0.6,1.4,1.4,1.4h2.5
				c0.4,0,0.8,0.3,0.8,0.8c0,0,0,0,0,0v1.6h-10.5C-7157.2,6453.7-7157.2,6452-7157.2,6452z M-7141.5,6480.9h-20.9v-27.4h3.6v1
				c0,0.4,0.4,0.8,0.8,0.8h12.1c0.4,0,0.8-0.4,0.8-0.8v-1h3.6L-7141.5,6480.9L-7141.5,6480.9z"/>
		</g>
		<g id="Group_406" transform="translate(11.268 3.896)">
			<circle id="Ellipse_32" fill="#002F65" cx="-7163.2" cy="6448.3" r="0.8"/>
		</g>
	</g>
	<g id="Operational_Readiness_Check_2" transform="translate(-318 -17)">
		<path id="Subtraction_22" fill="#002F65" stroke="#002F65" stroke-width="1.5" d="M-6086.7,7225.5L-6086.7,7225.5l-1.6,0l-1.6-0.1
			l-1.6-0.2l-1.6-0.3l-1.4-0.3l-1.4-0.4l-1.4-0.4l-1.3-0.5l-1.3-0.5l-1.3-0.6l-1.2-0.6l-1.2-0.7l-1.2-0.7l-1.1-0.8l-1.1-0.8
			l-1.1-0.9l-1-0.9l-1-1l-0.9-1l-0.9-1l-0.8-1.1l-0.8-1.1l-0.8-1.1l-0.7-1.2l-0.7-1.2l-0.6-1.2l-0.6-1.3l-0.5-1.3l-0.5-1.3l-0.4-1.3
			l-0.3-1.3l-0.3-1.3l-0.2-1.4l0-0.3h1.1l0,0.1l0.2,1.3l0.3,1.3l0.3,1.3l0.4,1.3l0.4,1.2l0.5,1.2l0.5,1.2l0.6,1.2l0.6,1.1l0.7,1.1
			l0.7,1.1l0.8,1.1l0.8,1l0.9,1l0.9,1l0.9,0.9l1,0.9l1,0.8l1.1,0.8l1.1,0.8l1.1,0.7l1.2,0.7l1.2,0.6l1.2,0.6l1.3,0.5l1.3,0.5
			l1.3,0.4l1.3,0.4l1.4,0.3l1.6,0.3l1.6,0.2l1.6,0.1l1.6,0l1.6-0.1l1.5-0.1l1.5-0.2l1.5-0.3l1.5-0.4l1.5-0.4l1.4-0.5l1.4-0.6
			l1.4-0.6l1.3-0.7l1.3-0.8l1.3-0.8l1.2-0.9l1.2-0.9l1.1-1l1.1-1l1-1.1l1-1.1l0.9-1.2l0.9-1.2l0.8-1.3l0.8-1.3l0.7-1.4l0.6-1.4
			l0.6-1.5l0.5-1.5l0.4-1.5l0.3-1.6c0.1-0.3,0.3-0.5,0.6-0.5c0,0,0.1,0,0.1,0c0.1,0,0.3,0.1,0.4,0.2c0.1,0.1,0.1,0.3,0.1,0.4
			l-1.1-0.2l1.1,0.2l-0.4,1.6l-0.4,1.6l-0.5,1.6l-0.6,1.5l-0.7,1.5l-0.7,1.4l-0.8,1.4l-0.9,1.3l-0.9,1.3l-1,1.2l-1,1.2l-1.1,1.1
			l-1.1,1.1l-1.2,1l-1.2,1l-1.3,0.9l-1.3,0.8l-1.3,0.8l-1.4,0.7l-1.4,0.6l-1.5,0.6l-1.5,0.5l-1.5,0.4l-1.5,0.4l-1.6,0.3l-1.6,0.2
			l-1.6,0.1L-6086.7,7225.5z M-6054.9,7188.5h-1.2l-0.2-1.2l-0.3-1.3l-0.3-1.3l-0.4-1.3l-0.4-1.3l-0.5-1.2l-0.5-1.2l-0.6-1.2
			l-0.6-1.2l-0.7-1.1l-0.7-1.1l-0.8-1.1l-0.8-1l-0.9-1l-0.9-1l-0.9-0.9l-1-0.9l-1-0.8l-1.1-0.8l-1.1-0.8l-1.1-0.7l-1.2-0.7l-1.2-0.6
			l-1.2-0.6l-1.3-0.5l-1.3-0.5l-1.3-0.4l-1.4-0.4l-1.4-0.3l-1.6-0.3l-1.6-0.2l-1.6-0.1l-1.6,0l-1.6,0.1l-1.5,0.1l-1.5,0.2l-1.5,0.3
			l-1.5,0.3l-1.5,0.4l-1.4,0.5l-1.4,0.6l-1.4,0.6l-1.3,0.7l-1.3,0.7l-1.3,0.8l-1.2,0.9l-1.2,0.9l-1.1,1l-1.1,1l-1,1.1l-1,1.1
			l-0.9,1.2l-0.9,1.3l-0.8,1.3l-0.8,1.3l-0.7,1.4l-0.6,1.4l-0.6,1.5l-0.5,1.5l-0.4,1.5l-0.3,1.6l0,0c-0.1,0.3-0.3,0.5-0.6,0.5
			c0,0-0.1,0-0.1,0c-0.1,0-0.3-0.1-0.4-0.2c-0.1-0.1-0.1-0.3-0.1-0.4l0.5,0.1l-0.5-0.1l0.4-1.6l0.4-1.6l0.5-1.6l0.6-1.5l0.7-1.5
			l0.7-1.4l0.8-1.4l0.9-1.3l0.9-1.3l1-1.2l1-1.2l1.1-1.1l1.1-1.1l1.2-1l1.2-1l1.3-0.9l1.3-0.8l1.4-0.8l1.4-0.7l1.4-0.6l1.5-0.6
			l1.5-0.5l1.5-0.4l1.5-0.4l1.6-0.3l1.6-0.2l1.6-0.1l1.6-0.1l1.6,0l1.6,0.1l1.6,0.2l1.6,0.3l1.4,0.3l1.4,0.4l1.4,0.4l1.3,0.5
			l1.3,0.5l1.3,0.6l1.2,0.6l1.2,0.7l1.2,0.7l1.1,0.8l1.1,0.8l1.1,0.9l1,0.9l1,1l0.9,1l0.9,1l0.8,1.1l0.8,1.1l0.8,1.1l0.7,1.2
			l0.7,1.2l0.6,1.2l0.6,1.3l0.5,1.3l0.5,1.3l0.4,1.3l0.3,1.3l0.3,1.4L-6054.9,7188.5L-6054.9,7188.5L-6054.9,7188.5z"/>
		<circle id="Ellipse_48" fill="#5FC2FF" cx="-6056" cy="7193.5" r="4"/>
		<circle id="Ellipse_49" fill="#5FC2FF" cx="-6119" cy="7192.5" r="4"/>
	</g>
</g>
</svg>
