<svg xmlns="http://www.w3.org/2000/svg" width="65" height="60.733" viewBox="0 0 65 60.733">
  <g id="Operational_Compliance_" data-name="Operational Compliance " transform="translate(-272 -536)">
    <g id="noun_legal_2912497" transform="translate(249.923 498.565)">
      <path id="Path_590" data-name="Path 590" d="M154.566,37.659a.556.556,0,0,0-.778-.114l-15.6,11.622a.556.556,0,0,0-.113.778l2.491,3.342a.556.556,0,0,0,.778.114l14.482-10.792h0l1.114-.83a.556.556,0,0,0,.114-.778Z" transform="translate(-99.789 0)" fill="#002f65"/>
      <path id="Path_591" data-name="Path 591" d="M263.454,217.918a.552.552,0,0,0,.1.412l2.491,3.342a.556.556,0,0,0,.778.113l15.6-11.622h0a.556.556,0,0,0,.114-.778l-2.491-3.342a.556.556,0,0,0-.778-.114l-15.6,11.623A.553.553,0,0,0,263.454,217.918Z" transform="translate(-207.836 -144.99)" fill="#002f65"/>
      <rect id="Rectangle_132" data-name="Rectangle 132" width="15.005" height="20.562" transform="translate(44.335 53.41) rotate(-36.693)" fill="#002f65"/>
      <path id="Path_592" data-name="Path 592" d="M22.3,315.463a.556.556,0,0,0-.114.778l3.321,4.456a.556.556,0,0,0,.778.114l3.788-2.823-3.985-5.348Z" transform="translate(0 -236.969)" fill="#002f65"/>
      <rect id="Rectangle_133" data-name="Rectangle 133" width="24.598" height="6.669" transform="translate(27.425 74.674) rotate(-36.693)" fill="#002f65"/>
      <path id="Path_593" data-name="Path 593" d="M235.741,399.272a.83.83,0,0,0,.373-.089l6.632-3.326a.834.834,0,1,0-.747-1.49l-6.632,3.326a.834.834,0,0,0,.374,1.579Z" transform="translate(-183.26 -307.265)" fill="#39b4ff"/>
      <path id="Path_594" data-name="Path 594" d="M224.551,341.167l8.148,2.915a.834.834,0,0,0,.562-1.57l-8.148-2.915a.834.834,0,0,0-.562,1.57Z" transform="translate(-173.867 -260.139)" fill="#39b4ff"/>
      <path id="Path_595" data-name="Path 595" d="M412.892,249.534l-6.431,4.421a.834.834,0,0,0,.945,1.374l6.432-4.421a.834.834,0,0,0-.945-1.374Z" transform="translate(-330.668 -182.505)" fill="#39b4ff"/>
      <path id="Path_596" data-name="Path 596" d="M417.019,315.7a.834.834,0,0,0,.682.961l7.053,1.2a.834.834,0,1,0,.279-1.644l-7.053-1.2A.834.834,0,0,0,417.019,315.7Z" transform="translate(-340.061 -239.005)" fill="#39b4ff"/>
      <path id="Path_597" data-name="Path 597" d="M238.755,448.732H272.1a.834.834,0,0,0,0-1.667h-5V445.12a.556.556,0,0,0-.556-.556h-22.23a.556.556,0,0,0-.556.556v1.945h-5a.834.834,0,1,0,0,1.667Z" transform="translate(-185.856 -350.565)" fill="#39b4ff"/>
    </g>
  </g>
</svg>
