<svg xmlns="http://www.w3.org/2000/svg" width="65" height="65.002" viewBox="0 0 65 65.002">
  <g id="Opportunity_Management_" data-name="Opportunity Management " transform="translate(-695.001 -207.999)">
    <g id="noun_Briefcase_61428" transform="translate(713.572 229.358)">
      <path id="Path_563" data-name="Path 563" d="M9,8.1V5.366A1.29,1.29,0,0,1,10.366,4h5.462a1.29,1.29,0,0,1,1.366,1.366V8.1" transform="translate(0.559 -4)" fill="none" stroke="#002f65" stroke-miterlimit="10" stroke-width="2"/>
      <g id="Group_361" data-name="Group 361" transform="translate(0 2.731)">
        <path id="Path_564" data-name="Path 564" d="M26.581,6H4.731A2.739,2.739,0,0,0,2,8.731v8.194a2.739,2.739,0,0,0,2.731,2.731H26.581a2.739,2.739,0,0,0,2.731-2.731V8.731A2.739,2.739,0,0,0,26.581,6ZM15.656,16.925a1.366,1.366,0,1,1,1.366-1.366A1.29,1.29,0,0,1,15.656,16.925Z" transform="translate(-2 -6)" fill="#39b4ff"/>
        <path id="Path_565" data-name="Path 565" d="M26.581,17.731H4.731A2.739,2.739,0,0,1,2,15v5.462a2.739,2.739,0,0,0,2.731,2.731H26.581a2.739,2.739,0,0,0,2.731-2.731V15A2.739,2.739,0,0,1,26.581,17.731Z" transform="translate(-2 -2.71)" fill="#39b4ff"/>
      </g>
    </g>
    <path id="Subtraction_17" data-name="Subtraction 17" d="M32.5,65A32.509,32.509,0,0,1,19.851,2.554a32.52,32.52,0,0,1,43.037,41.5l-4.934-2.274A27.111,27.111,0,1,0,32.5,59.586c.8,0,1.608-.035,2.4-.105l.448,5.4C34.405,64.961,33.446,65,32.5,65Z" transform="translate(695 207.999)" fill="#002f65"/>
  </g>
</svg>
