<svg xmlns="http://www.w3.org/2000/svg" width="52.552" height="53" viewBox="0 0 52.552 53">
  <g id="Opportunity" transform="translate(-367 -1304)">
    <path id="Path_395" data-name="Path 395" d="M631.245,597.073c1.087-.023,3.18-.682,3.371-2.791.223-2.456-1.482-3.175-2.3-3.175H620.9l-.153.008a1.042,1.042,0,0,1-1.018-1.066,1.021,1.021,0,0,1,.048-.289c.168-1.6.9-6.708.9-7.663a18.354,18.354,0,0,0-.359-3.218,5.385,5.385,0,0,0-1.316-2.8,2.61,2.61,0,0,0-2.885-.779,2.434,2.434,0,0,0-1.882,2.292c-.08,1.648-.109,3.3-.175,4.946a1.5,1.5,0,0,1-.171.649c-1.649,2.917-3.33,5.817-4.953,8.747A2.045,2.045,0,0,1,607.295,593c-.774.09-2.233.21-3.03.289v16.823a5.924,5.924,0,0,1,2.491.825q2.837,1.659,5.693,3.285a1.232,1.232,0,0,0,.576.166c4.658.008,8.619,0,13.277,0a3.483,3.483,0,0,0,3.458-2.661,2.6,2.6,0,0,0-1.752-3.128s2.876.343,3.35-2.3a2.807,2.807,0,0,0-1.837-3.259c.888-.148,2.907-.574,3.334-2.412A3.371,3.371,0,0,0,631.245,597.073Z" transform="translate(-220.875 738.9)" fill="#5fc2ff" fill-rule="evenodd"/>
    <rect id="Rectangle_126" data-name="Rectangle 126" width="7.406" height="19.469" transform="translate(374.601 1330.87)" fill="#5fc2ff"/>
    <path id="Path_396" data-name="Path 396" d="M639.966,579.526l4.584-2.41,4.584,2.41-.875-5.1,3.708-3.615-5.125-.745-2.291-4.643-2.291,4.643-5.127.744,3.708,3.615Z" transform="translate(-232.413 742.315)" fill="#004a9f" fill-rule="evenodd"/>
    <path id="Path_397" data-name="Path 397" d="M602.619,584.984l1.8-1.752-2.483-.361-1.11-2.25-1.11,2.25-2.483.361,1.8,1.752-.425,2.473,2.221-1.168,2.221,1.168Z" transform="translate(-218.406 736.978)" fill="#004a9f" fill-rule="evenodd"/>
    <path id="Path_398" data-name="Path 398" d="M581.737,559.665l-.844,1.709-1.882.274,1.362,1.327-.324,1.878,1.687-.886,1.687.886-.322-1.878,1.363-1.33-1.882-.274Z" transform="translate(-212.01 744.335)" fill="#004a9f" fill-rule="evenodd"/>
    <path id="Path_399" data-name="Path 399" d="M652.134,635.046l-.844-1.709-.844,1.709-1.882.274,1.363,1.33-.324,1.878,1.687-.886,1.687.886-.324-1.878,1.363-1.33Z" transform="translate(-236.427 718.473)" fill="#004a9f" fill-rule="evenodd"/>
    <path id="Path_400" data-name="Path 400" d="M582.579,629.341l-.844-1.709-.844,1.709-1.882.274,1.363,1.33-.324,1.877,1.687-.886,1.687.886-.324-1.878,1.363-1.33Z" transform="translate(-212.01 720.475)" fill="#004a9f" fill-rule="evenodd"/>
  </g>
</svg>
