<svg id="Organisation_structure_" data-name="Organisation structure " xmlns="http://www.w3.org/2000/svg" width="60" height="60" viewBox="0 0 60 60">
  <g id="Group_382" data-name="Group 382" transform="translate(0 0)">
    <path id="Path_577" data-name="Path 577" d="M51,28.5A1.5,1.5,0,0,0,52.5,27V12A1.5,1.5,0,0,0,51,10.5H6A1.5,1.5,0,0,0,4.5,12V27a1.5,1.5,0,0,0,3,0V13.5H27V27a1.5,1.5,0,0,0,3,0V13.5H49.5V27A1.5,1.5,0,0,0,51,28.5Z" transform="translate(1.5 13.5)" fill="#39b4ff"/>
    <circle id="Ellipse_29" data-name="Ellipse 29" cx="7.5" cy="7.5" r="7.5" transform="translate(0 45)" fill="#002f65"/>
    <path id="Path_578" data-name="Path 578" d="M30,13A10.5,10.5,0,1,0,19.5,23.5,10.512,10.512,0,0,0,30,13Z" transform="translate(10.5 -2.5)" fill="#002f65"/>
    <circle id="Ellipse_30" data-name="Ellipse 30" cx="7.5" cy="7.5" r="7.5" transform="translate(22.5 45)" fill="#002f65"/>
    <circle id="Ellipse_31" data-name="Ellipse 31" cx="7.5" cy="7.5" r="7.5" transform="translate(45 45)" fill="#002f65"/>
  </g>
</svg>
