<svg xmlns="http://www.w3.org/2000/svg" width="50.941" height="65" viewBox="0 0 50.941 65">
  <g id="Personal_information_" data-name="Personal  information  " transform="translate(-6.191 -1)">
    <g id="Group_426" data-name="Group 426" transform="translate(6.191 1)">
      <path id="Path_661" data-name="Path 661" d="M57.132,7.771A6.779,6.779,0,0,0,50.361,1h-37.4A6.779,6.779,0,0,0,6.191,7.771V59.229A6.779,6.779,0,0,0,12.962,66h37.4a6.779,6.779,0,0,0,6.771-6.771V7.771ZM54.424,59.229a4.067,4.067,0,0,1-4.062,4.062h-37.4A4.067,4.067,0,0,1,8.9,59.229V7.771a4.067,4.067,0,0,1,4.062-4.063h37.4a4.067,4.067,0,0,1,4.063,4.063V59.229Z" transform="translate(-6.191 -1)" fill="#39b4ff"/>
      <path id="Path_662" data-name="Path 662" d="M40.45,21.191H30.885a1.354,1.354,0,1,0,0,2.708H40.45a1.354,1.354,0,0,0,0-2.708Z" transform="translate(2.075 8.008)" fill="#002f64"/>
      <path id="Path_663" data-name="Path 663" d="M46.228,26.358H12.964a1.354,1.354,0,0,0,0,2.708H46.228a1.354,1.354,0,0,0,0-2.708Z" transform="translate(-4.272 9.838)" fill="#002f64"/>
      <path id="Path_664" data-name="Path 664" d="M40.874,16.025H31.308a1.354,1.354,0,1,0,0,2.708h9.566a1.354,1.354,0,1,0,0-2.708Z" transform="translate(2.225 6.179)" fill="#002f64"/>
      <path id="Path_665" data-name="Path 665" d="M46.228,31.441H12.964a1.354,1.354,0,1,0,0,2.708H46.228a1.354,1.354,0,0,0,0-2.708Z" transform="translate(-4.272 11.638)" fill="#002f64"/>
      <path id="Path_666" data-name="Path 666" d="M46.228,36.525H12.964a1.354,1.354,0,0,0,0,2.708H46.228a1.354,1.354,0,0,0,0-2.708Z" transform="translate(-4.272 13.439)" fill="#002f64"/>
      <path id="Path_668" data-name="Path 668" d="M20.032,17.5c2.7,0,4.89-2.678,4.89-5.969,0-3.076-1.965-5.143-4.89-5.143s-4.89,2.067-4.89,5.143C15.142,14.826,17.336,17.5,20.032,17.5Z" transform="translate(-3.021 2.767)" fill="#002f65"/>
      <path id="Path_669" data-name="Path 669" d="M13.557,26.005h15.6A2.151,2.151,0,0,0,31.3,23.856V21.465a3.158,3.158,0,0,0-1.793-2.849c-5.308-3.44-10.874-3.444-16.3,0a3.159,3.159,0,0,0-1.8,2.852v2.391A2.152,2.152,0,0,0,13.557,26.005Z" transform="translate(-4.344 6.182)" fill="#002f64"/>
    </g>
  </g>
</svg>
