<svg xmlns="http://www.w3.org/2000/svg" width="51.148" height="53" viewBox="0 0 51.148 53">
  <g id="personal_information_1647755" data-name="personal information_1647755" transform="translate(-3 -2)">
    <rect id="Rectangle_119" data-name="Rectangle 119" width="3.527" height="1.764" transform="translate(3 7.291)" fill="#26acff"/>
    <rect id="Rectangle_120" data-name="Rectangle 120" width="3.527" height="1.764" transform="translate(3 14.346)" fill="#26acff"/>
    <rect id="Rectangle_121" data-name="Rectangle 121" width="3.527" height="1.764" transform="translate(3 21.401)" fill="#26acff"/>
    <rect id="Rectangle_122" data-name="Rectangle 122" width="3.527" height="1.764" transform="translate(3 28.456)" fill="#26acff"/>
    <rect id="Rectangle_123" data-name="Rectangle 123" width="3.527" height="1.764" transform="translate(3 35.511)" fill="#26acff"/>
    <path id="Path_375" data-name="Path 375" d="M5,2V5.527H8.527v5.291H5v1.764H8.527v5.291H5v1.764H8.527v5.291H5v1.764H8.527v5.291H5v1.764H8.527v5.291H5V40.8H8.527v5.291H5v3.527h7.055V2Z" transform="translate(-0.236)" fill="#5fc2ff"/>
    <rect id="Rectangle_124" data-name="Rectangle 124" width="3.527" height="1.764" transform="translate(3 42.566)" fill="#26acff"/>
    <path id="Path_376" data-name="Path 376" d="M32.02,46.622a4.43,4.43,0,0,1-.441-1.146l-4.233-.705V38.509l4.233-.705c.176-.353.265-.794.441-1.146l-2.469-3.439,4.409-4.409L37.4,31.278a4.43,4.43,0,0,1,1.146-.441l.705-4.233h5.732V2H15V49.621H29.815ZM29.992,3.764A4.366,4.366,0,0,1,34.4,8.173a4.409,4.409,0,1,1-8.819,0A4.366,4.366,0,0,1,29.992,3.764Zm-7.937,14.11a4.366,4.366,0,0,1,4.409-4.409h1.411L29.992,17.7l2.116-4.233h1.411a4.366,4.366,0,0,1,4.409,4.409v5.291H22.055Z" transform="translate(-1.418)" fill="#5fc2ff"/>
    <path id="Path_377" data-name="Path 377" d="M57.456,46.815V43.552l-3.792-.617a11.165,11.165,0,0,0-1.146-2.822l2.2-3.175-2.293-2.293-3.175,2.2A11.165,11.165,0,0,0,46.433,35.7L45.815,32H42.552l-.617,3.792a11.165,11.165,0,0,0-2.822,1.146l-3.175-2.2-2.293,2.293,2.2,3.175A11.165,11.165,0,0,0,34.7,43.023l-3.7.617V46.9l3.792.617a11.165,11.165,0,0,0,1.146,2.822l-2.2,3.175,2.293,2.293,3.175-2.2a11.165,11.165,0,0,0,2.822,1.146l.617,3.792H45.9l.617-3.792a11.165,11.165,0,0,0,2.822-1.146l3.175,2.2,2.293-2.293-2.2-3.175a11.164,11.164,0,0,0,1.146-2.822ZM44.228,49.637a4.409,4.409,0,1,1,4.409-4.409A4.366,4.366,0,0,1,44.228,49.637Z" transform="translate(-3.308 -3.544)" fill="#004a9f"/>
  </g>
</svg>
