<svg xmlns="http://www.w3.org/2000/svg" width="54.25" height="54" viewBox="0 0 54.25 54">
  <g id="Problem_Tickets_" data-name="Problem Tickets " transform="translate(-608.251 -946.5)">
    <path id="Path_469" data-name="Path 469" d="M51.4,28.433a1.245,1.245,0,0,0,1.245-1.245V22.869a1.245,1.245,0,1,0-2.491,0v4.318A1.245,1.245,0,0,0,51.4,28.433Z" transform="translate(574.726 931.104)" fill="#004a9f"/>
    <path id="Path_465" data-name="Path 465" d="M114.825,113.173a1.245,1.245,0,1,0-1.761,1.761l4.429,4.429a1.245,1.245,0,1,0,1.761-1.761Z" transform="translate(534.438 872.366)" fill="#004a9f"/>
    <path id="Path_466" data-name="Path 466" d="M124.754,102.8h-4.319a1.245,1.245,0,0,0,0,2.491h4.319a1.245,1.245,0,0,0,0-2.491Z" transform="translate(530.256 878.815)" fill="#004a9f"/>
    <path id="Path_467" data-name="Path 467" d="M103.931,119.3a1.245,1.245,0,0,0-1.245,1.245v4.319a1.245,1.245,0,1,0,2.491,0v-4.319A1.246,1.246,0,0,0,103.931,119.3Z" transform="translate(540.887 868.184)" fill="#004a9f"/>
    <path id="Path_468" data-name="Path 468" d="M32.489,34.361A1.245,1.245,0,1,0,34.251,32.6L29.822,28.17a1.245,1.245,0,1,0-1.761,1.761Z" transform="translate(589.193 927.122)" fill="#004a9f"/>
    <path id="Path_470" data-name="Path 470" d="M22.759,52.756h4.318a1.245,1.245,0,0,0,0-2.491H22.759a1.245,1.245,0,0,0,0,2.491Z" transform="translate(593.175 912.654)" fill="#004a9f"/>
    <path id="Subtraction_13" data-name="Subtraction 13" d="M17.76,53a3.55,3.55,0,0,1-2.527-1.045L1.045,37.767a3.578,3.578,0,0,1,0-5.054L5.853,27.9a1.257,1.257,0,0,1,.882-.365,1.244,1.244,0,0,1,1.22,1,2.632,2.632,0,0,0,2.575,2.111c.05,0,.1,0,.15,0a2.62,2.62,0,0,0,1.92-.992,2.671,2.671,0,0,0,.012-3.263,2.615,2.615,0,0,0-1.553-.958,1.246,1.246,0,0,1-.635-2.1l6.454-6.454L32.713,1.045a3.579,3.579,0,0,1,5.054,0l4.82,4.819a1.245,1.245,0,0,1-.645,2.1,2.635,2.635,0,1,0,3.09,3.09,1.245,1.245,0,0,1,1.222-1.009,1.256,1.256,0,0,1,.882.365l4.819,4.819a3.574,3.574,0,0,1,0,5.054L36.121,36.12l-6.454,6.454a1.245,1.245,0,0,1-2.1-.635,2.635,2.635,0,1,0-3.105,3.106,1.245,1.245,0,0,1,.634,2.1l-4.808,4.808A3.548,3.548,0,0,1,17.76,53ZM6.332,30.949,2.806,34.475a1.084,1.084,0,0,0,0,1.532L16.994,50.194a1.111,1.111,0,0,0,1.532,0l3.525-3.525a5.127,5.127,0,1,1,7.136-7.137l4.292-4.292L27.741,29.5a1.245,1.245,0,0,1,.759-2.12,2.635,2.635,0,0,0-.111-5.253c-.049,0-.1,0-.149,0a2.654,2.654,0,0,0-1.863.772,2.6,2.6,0,0,0-.757,1.6,1.247,1.247,0,0,1-1.241,1.123,1.235,1.235,0,0,1-.88-.365L17.76,19.521l-4.292,4.292a5.125,5.125,0,0,1-2.654,9.322c-.089,0-.18.007-.27.007a5.132,5.132,0,0,1-1.963-.389,5.131,5.131,0,0,1-2.249-1.8ZM28.24,19.634h0c.1,0,.193,0,.289.008a5.129,5.129,0,0,1,2.376,9.5l4.335,4.337L50.193,18.525a1.08,1.08,0,0,0,0-1.531l-3.53-3.53a5.125,5.125,0,1,1-7.13-7.13L36.006,2.806a1.084,1.084,0,0,0-1.532,0L19.521,17.76,23.86,22.1a5.171,5.171,0,0,1,.755-.961,5.125,5.125,0,0,1,3.625-1.5Z" transform="translate(609 947)" fill="#5fc2ff" stroke="rgba(0,0,0,0)" stroke-miterlimit="10" stroke-width="1"/>
  </g>
</svg>
