<svg xmlns="http://www.w3.org/2000/svg" width="46.661" height="70.5" viewBox="0 0 46.661 70.5">
  <g id="Problem_Management_" data-name="Problem  Management " transform="translate(-1133.734 -531.75)">
    <g id="Group_418" data-name="Group 418">
      <path id="Path_660" data-name="Path 660" d="M9571.175,2357.408c.874.051,3.87,1.362,4.815.9s3.473-4.817,3.473-4.817h3.069l1.566,3.916s1.608.552,2.418.9,3.207-.9,3.207-.9l2.466,2.916-.844,4.521,3.8,1.792v3.762l-2.957,2.782v4.582l-2.466,3.384-4.437-1.373-2.755,1.373v2.473h-4.566l-3.356-3.845-3.435,1.373-3.042-3.384s1.993-1.882,1.446-2.559-4.3-3.571-4.3-3.571-.7-5.381,0-5,2.857,0,2.857,0l3.042-3.551-3.042-3.856Z" transform="translate(-8422.963 -1814)" fill="#5fc2ff"/>
      <g id="noun_concept_630604" transform="translate(1189.361 615.131)">
        <path id="Path_659" data-name="Path 659" d="M33.928,67.94a3.8,3.8,0,0,0,3.734,2.928h6.071a3.912,3.912,0,0,0,3.719-2.85l.442-1.632a5.03,5.03,0,0,0,3.563-4.81V59.055a3.563,3.563,0,0,0-3.342-3.5H33.408a3.506,3.506,0,0,0-3.5,3.5V61.57a5.023,5.023,0,0,0,3.563,4.81Zm-1.881-6.413V59.055a1.361,1.361,0,0,1,1.361-1.361H48.036a1.425,1.425,0,0,1,1.311,1.361V61.57a2.85,2.85,0,0,1-2.458,2.85A1.069,1.069,0,0,0,46,65.2l-.606,2.237a1.788,1.788,0,0,1-1.66,1.3H37.662A1.667,1.667,0,0,1,36,67.456L35.4,65.2a1.069,1.069,0,0,0-.891-.784,2.85,2.85,0,0,1-2.458-2.843ZM40.7,17.5a6.413,6.413,0,1,0,6.413,6.413A6.413,6.413,0,0,0,40.7,17.5Zm0,10.738a4.275,4.275,0,1,1,4.275-4.275A4.275,4.275,0,0,1,40.7,28.238ZM40.612.87h-.178A22.958,22.958,0,0,0,24.1,39.8a14.564,14.564,0,0,1,3.89,7.838,6.676,6.676,0,0,0,6.662,5.7H46.768a6.8,6.8,0,0,0,6.662-5.7A14.251,14.251,0,0,1,57.313,39.8,22.965,22.965,0,0,0,40.612.87ZM55.753,38.32a16.388,16.388,0,0,0-4.46,9A4.639,4.639,0,0,1,46.746,51.2H34.633a4.553,4.553,0,0,1-4.553-3.89,16.723,16.723,0,0,0-4.46-9A20.82,20.82,0,0,1,40.448,3.007h.164A20.827,20.827,0,0,1,55.753,38.32Zm-.805-18.184-1.674-.292a13.139,13.139,0,0,0-.784-1.888l.976-1.425a2.85,2.85,0,0,0-.321-3.662L51.72,11.444a2.914,2.914,0,0,0-3.662-.321l-1.425.976a13.082,13.082,0,0,0-1.888-.784l-.292-1.674A2.85,2.85,0,0,0,41.6,7.275h-1.91a2.85,2.85,0,0,0-2.85,2.366l-.292,1.674a13.246,13.246,0,0,0-1.888.784l-1.425-.976a2.914,2.914,0,0,0-3.662.314l-1.425,1.425a2.85,2.85,0,0,0-.321,3.662l.976,1.425a13.054,13.054,0,0,0-.784,1.888l-1.575.3a2.85,2.85,0,0,0-2.366,2.85V24.96a2.85,2.85,0,0,0,2.366,2.85l1.674.292a13.11,13.11,0,0,0,.784,1.888l-.976,1.425a2.85,2.85,0,0,0,.321,3.662L29.674,36.5a2.914,2.914,0,0,0,3.662.321l1.425-.976a13.153,13.153,0,0,0,1.888.784l.292,1.674a2.85,2.85,0,0,0,2.85,2.366h1.974a2.85,2.85,0,0,0,2.85-2.366l.292-1.674a13.132,13.132,0,0,0,1.888-.784l1.425.976a2.914,2.914,0,0,0,3.662-.321l1.425-1.425a2.85,2.85,0,0,0,.321-3.662l-.976-1.425a13.2,13.2,0,0,0,.6-1.952l1.7-.292a2.85,2.85,0,0,0,2.366-2.85V22.951A2.85,2.85,0,0,0,54.948,20.137Zm.228,4.8a.713.713,0,0,1-.6.713l-2.33.406a1.069,1.069,0,0,0-.862.77,11.045,11.045,0,0,1-1.1,2.643,1.069,1.069,0,0,0,.05,1.147L51.7,32.549a.713.713,0,0,1-.078.926L50.2,34.9a.713.713,0,0,1-.926.078L47.359,33.6a1.069,1.069,0,0,0-1.147-.05,10.966,10.966,0,0,1-2.665,1.09,1.069,1.069,0,0,0-.777.848l-.406,2.33a.713.713,0,0,1-.713.6H39.692a.713.713,0,0,1-.713-.6l-.42-2.323a1.069,1.069,0,0,0-.777-.848,10.987,10.987,0,0,1-2.643-1.1,1.069,1.069,0,0,0-1.147.05l-1.938,1.361a.713.713,0,0,1-.919-.078L29.71,33.454a.713.713,0,0,1-.078-.926l1.361-1.938a1.069,1.069,0,0,0,.086-1.126,11,11,0,0,1-1.069-2.643,1.069,1.069,0,0,0-.848-.777l-2.33-.406a.713.713,0,0,1-.6-.713V22.951a.713.713,0,0,1,.6-.713l2.33-.406a1.069,1.069,0,0,0,.848-.777,11.037,11.037,0,0,1,1.1-2.643,1.069,1.069,0,0,0-.05-1.147L29.7,15.327a.713.713,0,0,1,.078-.926L31.2,12.976a.713.713,0,0,1,.926-.078l1.938,1.361a1.069,1.069,0,0,0,1.147.05,11.037,11.037,0,0,1,2.643-1.1,1.069,1.069,0,0,0,.705-.848l.406-2.33a.713.713,0,0,1,.713-.6h1.974a.713.713,0,0,1,.713.6l.428,2.33a1.069,1.069,0,0,0,.755.876,11.009,11.009,0,0,1,2.643,1.1,1.069,1.069,0,0,0,1.147-.05l1.938-1.361A.713.713,0,0,1,50.2,13l1.425,1.425a.713.713,0,0,1,.078.926l-1.361,1.938a1.069,1.069,0,0,0-.05,1.147,11.016,11.016,0,0,1,1.1,2.615,1.069,1.069,0,0,0,.848.777l2.33.406a.713.713,0,0,1,.6.713Z" transform="translate(-73 -84)" fill="#002f64" stroke="#002f65" stroke-width="0.5"/>
      </g>
    </g>
  </g>
</svg>
