<svg xmlns="http://www.w3.org/2000/svg" width="60" height="60.415" viewBox="0 0 60 60.415">
  <g id="Problem_Management_" data-name="Problem Management " transform="translate(-455.3 -455.696)">
    <path id="Subtraction_4" data-name="Subtraction 4" d="M9.072,38.858h0L5.916,36.542v-2.7H7.678l.012-2.182H5.916v-2.91H7.678V25.909H5.916v-8.33A9.074,9.074,0,0,1,0,9.073H0a9.076,9.076,0,1,1,12.233,8.5V36.542L9.072,38.858Zm0-33.793h0a4,4,0,0,0-4,4v.008a4,4,0,0,0,4,4h0a4,4,0,1,0,0-8.009h0Z" transform="translate(479.758 456.196)" fill="#004a9f" stroke="rgba(0,0,0,0)" stroke-miterlimit="10" stroke-width="1"/>
    <path id="Path_307" data-name="Path 307" d="M513,642.787c5.559-1.668,9.847-2.018,17.768,3.191l9.981-2.17c2.829-.618,3.407,1.394,3.856,2.858l-12.262,6.207c-.974.63-.3,1.663.478,1.313l13.16-6.609.344-1.341,11.088-7.77c2.532-1.773,3.127.233,3.721,1.587l-12.168,12.32-12.985,6.679a8.963,8.963,0,0,1-5.338.98l-17.646-2Z" transform="translate(-45.837 -144.239)" fill="#5fc2ff" fill-rule="evenodd"/>
    <rect id="Rectangle_92" data-name="Rectangle 92" width="10.249" height="17.732" transform="translate(455.3 498.379)" fill="#5fc2ff"/>
    <path id="Path_308" data-name="Path 308" d="M658.468,537.543l3.331,2.281,6.055-8.517,2.234,1.657-6.906,9.631-.822,1.05-1.085-.764-4.422-3.045Z" transform="translate(-160.112 -59.668)" fill="#004a9f" fill-rule="evenodd"/>
  </g>
</svg>
