<svg xmlns="http://www.w3.org/2000/svg" width="64" height="44.819" viewBox="0 0 64 44.819">
  <g id="Reviews" transform="translate(-73 -866)">
    <g id="Reviews-2" data-name="Reviews" transform="translate(73 866)">
      <g id="Group_454" data-name="Group 454" transform="translate(0 0)">
        <path id="Path_699" data-name="Path 699" d="M2.185,3.707A1.546,1.546,0,0,0,.793,5.247V39.253A1.546,1.546,0,0,0,2.345,40.8H20.382L26.1,47.948a1.546,1.546,0,0,0,2.408,0L34.236,40.8H53.1a1.546,1.546,0,0,0,1.541-1.552V5.247A1.546,1.546,0,0,0,53.1,3.707H2.345a1.546,1.546,0,0,0-.16,0Zm1.7,3.081h47.66V37.712H33.494a1.546,1.546,0,0,0-1.21.582l-4.975,6.219-4.975-6.219a1.546,1.546,0,0,0-1.21-.582H3.885Z" transform="translate(-0.793 -3.705)" fill="#002f64"/>
        <path id="Path_700" data-name="Path 700" d="M3.662,5.291a1.546,1.546,0,1,0,0,3.092H31.494a1.546,1.546,0,0,0,0-3.092Z" transform="translate(10.097 6.965)" fill="#5fc2ff"/>
        <path id="Path_701" data-name="Path 701" d="M3.577,6.617a1.548,1.548,0,0,0,.148,3.092H31.557a1.546,1.546,0,0,0,0-3.092H3.725q-.074,0-.148,0Z" transform="translate(10.034 13.376)" fill="#5fc2ff"/>
      </g>
    </g>
    <rect id="Rectangle_142" data-name="Rectangle 142" width="20" height="8" transform="translate(117 888)" fill="#fff"/>
  </g>
</svg>
