<svg xmlns="http://www.w3.org/2000/svg" width="50.451" height="53" viewBox="0 0 50.451 53">
  <g id="Risk_Management" data-name="Risk Management" transform="translate(-3.501 -1.96)">
    <g id="Group_306" data-name="Group 306" transform="translate(3.501 1.96)">
      <g id="Group_297" data-name="Group 297">
        <path id="Path_386" data-name="Path 386" d="M23.188,24c.359-13.127,2.57-22.041,4.52-22.041S31.877,10.874,32.237,24A5.4,5.4,0,0,0,23.188,24ZM3.5,23.63A25.132,25.132,0,0,1,22.878,2.462c-5.531,3.128-9.66,11.494-10.416,21.823A5.389,5.389,0,0,0,3.5,23.63Zm9.824.189C14.3,12.244,19.564,3.331,26.156,2.108c-2.241,2.96-3.543,12.266-3.8,22.033A5.416,5.416,0,0,0,13.325,23.819Zm19.741.326c-.256-9.769-1.56-19.078-3.805-22.037,6.6,1.22,11.865,10.134,12.835,21.711A5.412,5.412,0,0,0,33.067,24.145Zm9.893.138c-.75-10.326-4.877-18.69-10.41-21.819A25.13,25.13,0,0,1,51.919,23.629,5.389,5.389,0,0,0,42.959,24.283Z" transform="translate(-3.501 -1.96)" fill="#5fc2ff"/>
      </g>
      <g id="Group_299" data-name="Group 299" transform="translate(17.327 21.24)">
        <g id="Group_298" data-name="Group 298">
          <path id="Path_387" data-name="Path 387" d="M32.159,49.566v5.5a3.854,3.854,0,0,1-7.709,0V53.975a.827.827,0,1,1,1.654,0v1.092a2.2,2.2,0,0,0,4.4,0v-5.5a.8.8,0,0,1,.414-.711V27.665a3.462,3.462,0,0,1,.827,0v21.19A.8.8,0,0,1,32.159,49.566Z" transform="translate(-24.45 -27.64)" fill="#5fc2ff"/>
        </g>
      </g>
      <g id="Group_301" data-name="Group 301" transform="translate(0.727 29.593)">
        <g id="Group_300" data-name="Group 300">
          <path id="Path_388" data-name="Path 388" d="M20.186,44l-1.456-.265a6.283,6.283,0,0,0-.322-.769l.844-1.216a.538.538,0,0,0-.058-.686L17.3,39.179a.54.54,0,0,0-.686-.066l-1.216.844a5.172,5.172,0,0,0-.769-.314l-.265-1.464a.533.533,0,0,0-.529-.438H11.171a.527.527,0,0,0-.529.438l-.265,1.464a5.184,5.184,0,0,0-.769.314l-1.224-.844a.539.539,0,0,0-.687.066L5.82,41.065a.529.529,0,0,0-.066.686L6.6,42.967a6.252,6.252,0,0,0-.322.769L4.819,44a.527.527,0,0,0-.438.529v2.663a.533.533,0,0,0,.438.529l1.456.265a6.253,6.253,0,0,0,.322.769l-.844,1.216a.529.529,0,0,0,.066.687L7.7,52.545a.551.551,0,0,0,.687.066L9.6,51.768a6.994,6.994,0,0,0,.777.323l.265,1.456a.534.534,0,0,0,.529.447h2.663a.54.54,0,0,0,.529-.447l.265-1.456a6.278,6.278,0,0,0,.769-.323l1.216.835a.54.54,0,0,0,.686-.058l1.894-1.878a.551.551,0,0,0,.058-.695l-.844-1.216a6.285,6.285,0,0,0,.322-.769l1.456-.265a.541.541,0,0,0,.438-.529V44.531A.534.534,0,0,0,20.186,44Zm-7.568,5.715a3.852,3.852,0,1,1,3.73-3.97A3.853,3.853,0,0,1,12.618,49.716Z" transform="translate(-4.38 -37.74)" fill="#004a9f"/>
        </g>
      </g>
      <g id="Group_305" data-name="Group 305" transform="translate(29.688 32.24)">
        <g id="Group_304" data-name="Group 304">
          <g id="Group_303" data-name="Group 303">
            <g id="Group_302" data-name="Group 302">
              <path id="Path_389" data-name="Path 389" d="M59.92,58.507,51.748,42.164a2.208,2.208,0,0,0-3.954,0L39.631,58.507A2.206,2.206,0,0,0,41.608,61.7H57.951a2.2,2.2,0,0,0,1.968-3.193ZM49.9,57.416a.964.964,0,1,1,.959-.959A.962.962,0,0,1,49.9,57.416Zm.786-2.7H49.11l-.538-5.649h2.655Z" transform="translate(-39.396 -40.94)" fill="#004a9f"/>
            </g>
          </g>
        </g>
      </g>
    </g>
  </g>
</svg>
