<?xml version="1.0" encoding="utf-8"?>
<!-- Generator: Adobe Illustrator 18.1.1, SVG Export Plug-In . SVG Version: 6.00 Build 0)  -->
<svg version="1.1" id="Layer_1" xmlns="http://www.w3.org/2000/svg" xmlns:xlink="http://www.w3.org/1999/xlink" x="0px" y="0px"
	 viewBox="-224 224 50.5 53" enable-background="new -224 224 50.5 53" xml:space="preserve">
<g id="Group_306" transform="translate(3.501 1.96)">
	<g id="Group_297">
		<path id="Path_386" fill="#004A9F" d="M-207.8,244.1c0.4-13.1,2.6-22,4.5-22c2,0,4.2,8.9,4.5,22c-1.6-2.5-5-3.2-7.5-1.6
			C-206.9,242.9-207.4,243.5-207.8,244.1z M-227.5,243.7c1.4-10.4,9.1-18.9,19.4-21.2c-5.5,3.1-9.7,11.5-10.4,21.8
			c-1.5-2.6-4.7-3.5-7.3-2.1C-226.5,242.7-227.1,243.1-227.5,243.7z M-217.7,243.9c1-11.6,6.2-20.5,12.8-21.7
			c-2.2,3-3.5,12.3-3.8,22c-1.6-2.6-4.9-3.4-7.4-1.8C-216.7,242.8-217.3,243.3-217.7,243.9L-217.7,243.9z M-197.9,244.2
			c-0.3-9.8-1.6-19.1-3.8-22c6.6,1.2,11.9,10.1,12.8,21.7c-1.7-2.4-5.1-3-7.5-1.3C-197.1,243.1-197.6,243.6-197.9,244.2
			L-197.9,244.2z M-188,244.4c-0.8-10.3-4.9-18.7-10.4-21.8c10.2,2.3,18,10.8,19.4,21.2c-1.8-2.4-5.2-2.8-7.6-1
			C-187.2,243.2-187.7,243.7-188,244.4L-188,244.4z"/>
	</g>
	<g id="Group_299" transform="translate(17.327 21.24)">
		<g id="Group_298">
			<path id="Path_387" fill="#004A9F" d="M-219.8,244v5.5c0,2.1-1.7,3.9-3.9,3.9s-3.9-1.7-3.9-3.9v-1.1c0-0.5,0.4-0.8,0.8-0.8
				c0.5,0,0.8,0.4,0.8,0.8c0,0,0,0,0,0v1.1c0,1.2,1,2.2,2.2,2.2c1.2,0,2.2-1,2.2-2.2V244c0-0.3,0.2-0.6,0.4-0.7v-21.2
				c0.3,0,0.6,0,0.8,0v21.2C-219.9,243.4-219.8,243.7-219.8,244z"/>
		</g>
	</g>
	<g id="Group_301" transform="translate(0.727 29.593)">
		<g id="Group_300">
			<path id="Path_388" fill="#004A9F" d="M-211.7,228.3l-1.5-0.3c-0.1-0.3-0.2-0.5-0.3-0.8l0.8-1.2c0.1-0.2,0.1-0.5-0.1-0.7
				l-1.9-1.9c-0.2-0.2-0.5-0.2-0.7-0.1l-1.2,0.8c-0.2-0.1-0.5-0.2-0.8-0.3l-0.3-1.5c0-0.3-0.3-0.4-0.5-0.4h-2.7
				c-0.3,0-0.5,0.2-0.5,0.4l-0.3,1.5c-0.3,0.1-0.5,0.2-0.8,0.3l-1.2-0.8c-0.2-0.1-0.5-0.1-0.7,0.1l-1.9,1.9
				c-0.2,0.2-0.2,0.5-0.1,0.7l0.8,1.2c-0.1,0.2-0.2,0.5-0.3,0.8l-1.5,0.3c-0.3,0-0.4,0.3-0.4,0.5v2.7c0,0.3,0.2,0.5,0.4,0.5l1.5,0.3
				c0.1,0.3,0.2,0.5,0.3,0.8l-0.8,1.2c-0.2,0.2-0.1,0.5,0.1,0.7l1.9,1.9c0.2,0.2,0.5,0.2,0.7,0.1l1.2-0.8c0.3,0.1,0.5,0.2,0.8,0.3
				l0.3,1.5c0,0.3,0.3,0.4,0.5,0.4h2.7c0.3,0,0.5-0.2,0.5-0.4l0.3-1.5c0.3-0.1,0.5-0.2,0.8-0.3l1.2,0.8c0.2,0.1,0.5,0.1,0.7-0.1
				l1.9-1.9c0.2-0.2,0.2-0.5,0.1-0.7l-0.8-1.2c0.1-0.2,0.2-0.5,0.3-0.8l1.5-0.3c0.3,0,0.4-0.3,0.4-0.5v-2.7
				C-211.3,228.6-211.4,228.3-211.7,228.3z M-219.3,234c-2.1,0.1-3.9-1.6-4-3.7c-0.1-2.1,1.6-3.9,3.7-4c2.1-0.1,3.9,1.6,4,3.7
				c0,0,0,0,0,0C-215.5,232.2-217.1,233.9-219.3,234L-219.3,234z"/>
		</g>
	</g>
	<g id="Group_305" transform="translate(29.688 32.24)">
		<g id="Group_304">
			<g id="Group_303">
				<g id="Group_302">
					<path id="Path_389" fill="#004A9F" d="M-207,239.6l-8.2-16.3c-0.5-1.1-1.9-1.5-3-1c-0.4,0.2-0.8,0.6-1,1l-8.2,16.3
						c-0.5,1.1-0.1,2.4,1,3c0.3,0.2,0.6,0.2,1,0.2h16.3c1.2,0,2.2-1,2.2-2.2C-206.7,240.3-206.8,239.9-207,239.6L-207,239.6z
						 M-217,238.5c-0.5,0-1-0.4-1-1c0-0.5,0.4-1,1-1c0.5,0,1,0.4,1,1c0,0,0,0,0,0C-216,238.1-216.5,238.5-217,238.5z M-216.2,235.8
						h-1.6l-0.5-5.6h2.7L-216.2,235.8z"/>
				</g>
			</g>
		</g>
	</g>
</g>
</svg>
