<?xml version="1.0" encoding="utf-8"?>
<!-- Generator: Adobe Illustrator 18.1.1, SVG Export Plug-In . SVG Version: 6.00 Build 0)  -->
<svg version="1.1" id="Layer_1" xmlns="http://www.w3.org/2000/svg" xmlns:xlink="http://www.w3.org/1999/xlink" x="0px" y="0px"
	 viewBox="-479 483.8 65 58.2" enable-background="new -479 483.8 65 58.2" xml:space="preserve">
<g>
	<path fill="#002F64" d="M-425,484.6h-42.8c-0.7,0-1.3,0.6-1.3,1.3V497c0,0.7,0.6,1.3,1.3,1.3s1.3-0.6,1.3-1.3v-9.8h40.2v52.2h-40.2
		V503c0-0.7-0.6-1.3-1.3-1.3s-1.3,0.6-1.3,1.3v37.7c0,0.7,0.6,1.3,1.3,1.3h42.8c0.7,0,1.3-0.6,1.3-1.3v-54.8
		C-423.8,485.2-424.3,484.6-425,484.6z"/>
	<path fill="#002F64" d="M-438.4,491.4h-16.1c-0.7,0-1.3,0.6-1.3,1.3s0.6,1.3,1.3,1.3h16.1c0.7,0,1.3-0.6,1.3-1.3
		S-437.7,491.4-438.4,491.4z"/>
	<path fill="#5FC2FF" d="M-446.2,500.9c-2.8,0-5.1,2.1-5.4,4.8l-1.3,12.3c-0.1,0.7,0.4,1.3,1.1,1.4c0.7,0.1,1.3-0.4,1.4-1.1l0.7-6.8
		h6.8l0.7,6.8c0.1,0.7,0.6,1.1,1.3,1.1c0,0,0.1,0,0.1,0c0.7-0.1,1.2-0.7,1.1-1.4l-1.3-12.3C-441.1,503-443.4,500.9-446.2,500.9
		L-446.2,500.9z M-449.3,508.9l0.3-2.9c0.2-1.4,1.4-2.5,2.8-2.5c1.5,0,2.7,1.1,2.8,2.5l0.3,2.9H-449.3z"/>
	<path fill="#002F64" d="M-454.5,528.9h16.1c0.7,0,1.3-0.6,1.3-1.3c0-0.7-0.6-1.3-1.3-1.3h-16.1c-0.7,0-1.3,0.6-1.3,1.3
		C-455.8,528.3-455.2,528.9-454.5,528.9L-454.5,528.9z"/>
	<path fill="#002F64" d="M-452.3,532.7c-0.7,0-1.3,0.6-1.3,1.3c0,0.7,0.6,1.3,1.3,1.3h11.8c0.7,0,1.3-0.6,1.3-1.3
		c0-0.7-0.6-1.3-1.3-1.3H-452.3z"/>
</g>
</svg>
