<svg width="64" height="64" viewBox="0 0 64 64" fill="none" xmlns="http://www.w3.org/2000/svg">
<path d="M43 56H6V8C6 5.79 7.79 4 10 4H43.54C42.59 5.06 42 6.46 42 8V25.5C42 26.05 42.45 26.5 43 26.5C43.55 26.5 44 26.05 44 25.5V20H53C53.55 20 54 19.55 54 19V8C54 4.69 51.31 2 48 2H10C6.69 2 4 4.69 4 8V57C4 57.55 4.45 58 5 58H43C43.55 58 44 57.55 44 57C44 56.45 43.55 56 43 56Z" fill="#002F64"/>
<path d="M15.6401 29.2299C15.2101 28.8799 14.5901 28.9299 14.2301 29.3599L11.6601 32.4399L10.7601 31.3599C10.4101 30.9399 9.78008 30.8799 9.35008 31.2299C8.93008 31.5799 8.87008 32.2099 9.22008 32.6399L10.8901 34.6399C11.0801 34.8699 11.3601 34.9999 11.6601 34.9999C11.9601 34.9999 12.2401 34.8699 12.4301 34.6399L15.7601 30.6399C16.1101 30.2199 16.0601 29.5899 15.6301 29.2299H15.6401Z" fill="#002F64"/>
<path d="M28.38 30C28.38 29.45 27.93 29 27.38 29H19C18.45 29 18 29.45 18 30C18 30.55 18.45 31 19 31H27.38C27.93 31 28.38 30.55 28.38 30Z" fill="#002F64"/>
<path d="M24 33H19C18.45 33 18 33.45 18 34C18 34.55 18.45 35 19 35H24C24.55 35 25 34.55 25 34C25 33.45 24.55 33 24 33Z" fill="#002F64"/>
<path d="M19 40H23.13C23.68 40 24.13 39.55 24.13 39C24.13 38.45 23.68 38 23.13 38H19C18.45 38 18 38.45 18 39C18 39.55 18.45 40 19 40Z" fill="#002F64"/>
<path d="M19 44H24C24.55 44 25 43.55 25 43C25 42.45 24.55 42 24 42H19C18.45 42 18 42.45 18 43C18 43.55 18.45 44 19 44Z" fill="#002F64"/>
<path d="M14 14H10C9.44772 14 9 14.4477 9 15V25C9 25.5523 9.44772 26 10 26H14C14.5523 26 15 25.5523 15 25V15C15 14.4477 14.5523 14 14 14Z" fill="#002F64"/>
<path d="M22 10H18C17.4477 10 17 10.4477 17 11V25C17 25.5523 17.4477 26 18 26H22C22.5523 26 23 25.5523 23 25V11C23 10.4477 22.5523 10 22 10Z" fill="#002F64"/>
<path d="M30 14H26C25.4477 14 25 14.4477 25 15V25C25 25.5523 25.4477 26 26 26H30C30.5523 26 31 25.5523 31 25V15C31 14.4477 30.5523 14 30 14Z" fill="#002F64"/>
<path d="M38 8H34C33.4477 8 33 8.44772 33 9V25C33 25.5523 33.4477 26 34 26H38C38.5523 26 39 25.5523 39 25V9C39 8.44772 38.5523 8 38 8Z" fill="#002F64"/>
<path d="M14 38H10C9.44772 38 9 38.4477 9 39V43C9 43.5523 9.44772 44 10 44H14C14.5523 44 15 43.5523 15 43V39C15 38.4477 14.5523 38 14 38Z" fill="#002F64"/>
<path d="M14 47H10C9.44772 47 9 47.4477 9 48V52C9 52.5523 9.44772 53 10 53H14C14.5523 53 15 52.5523 15 52V48C15 47.4477 14.5523 47 14 47Z" fill="#002F64"/>
<path d="M25.61 48C25.61 47.45 25.16 47 24.61 47H19C18.45 47 18 47.45 18 48C18 48.55 18.45 49 19 49H24.61C25.16 49 25.61 48.55 25.61 48Z" fill="#002F64"/>
<path d="M19 51C18.45 51 18 51.45 18 52C18 52.55 18.45 53 19 53H24C24.55 53 25 52.55 25 52C25 51.45 24.55 51 24 51H19Z" fill="#002F64"/>
<path d="M59.71 56.96L53.04 50.29C52.65 49.9 52.02 49.9 51.63 50.29L50.67 51.25L48.86 49.45C50.81 47.17 52 44.22 52 41C52 33.83 46.17 28 39 28C31.83 28 26 33.83 26 41C26 48.17 31.83 54 39 54C42.22 54 45.17 52.81 47.45 50.86L49.25 52.67L48.29 53.63C47.9 54.02 47.9 54.65 48.29 55.04L54.96 61.71C55.15 61.9 55.41 62 55.67 62C55.93 62 56.18 61.9 56.37 61.71L59.71 58.37C60.1 57.98 60.1 57.35 59.71 56.96ZM39 52C32.93 52 28 47.07 28 41C28 34.93 32.93 30 39 30C45.07 30 50 34.93 50 41C50 47.07 45.07 52 39 52Z" fill="#002F64"/>
<path d="M36.7655 38.4862C35.7586 37.3535 35.7586 35.6465 36.7655 34.5138C37.9548 33.1759 40.0452 33.1759 41.2345 34.5138C42.2414 35.6465 42.2414 37.3535 41.2345 38.4862C40.0452 39.8241 37.9548 39.8241 36.7655 38.4862Z" fill="#002F64"/>
<path d="M40.2428 45.3297L39.6879 39.822C43.0371 40.145 45.6977 42.8016 46 46.1332V48H39H32V46.1332C32.3026 42.7985 34.9677 40.1401 38.3212 39.821L37.7664 45.3297L39.0046 47.0893L40.2428 45.3297Z" fill="#002F64"/>
</svg>
