<?xml version="1.0" encoding="utf-8"?>
<!-- Generator: Adobe Illustrator 18.1.1, SVG Export Plug-In . SVG Version: 6.00 Build 0)  -->
<svg version="1.1" id="Layer_1" xmlns="http://www.w3.org/2000/svg" xmlns:xlink="http://www.w3.org/1999/xlink" x="0px" y="0px"
	 viewBox="23 -24 70 70" enable-background="new 23 -24 70 70" xml:space="preserve">
<g>
	<g>
		<path fill="#002F64" stroke="#002F64" stroke-miterlimit="10" d="M89.6-17.3c-10.4-1.5-21.5,0.3-31.9,5.2
			c-10.4-4.9-21.5-6.7-31.9-5.2l-1.1,0.2V39l1.5-0.2C36.3,37.3,47,39.1,57.1,44l0.1,0l0.4,0.3l0.1,0l0.1,0l0.5-0.3l0,0
			c10.1-4.9,20.8-6.7,31-5.2l1.5,0.2v-56.1L89.6-17.3z M56.4,40.7c-7.6-3.4-15.5-5.1-23.2-5.1c-2,0-3.9,0.1-5.8,0.3v-50.7
			c9.5-1.2,19.5,0.6,29.1,5L56.4,40.7L56.4,40.7z M68.9-13.3c3.1-0.8,6.2-1.4,9.3-1.6V1.4l-4.7-3.6l-4.7,3.6V-13.3z M88.1,35.9
			c-9.5-1.1-19.5,0.5-29.1,4.8V-9.7c2.4-1.1,4.8-2.1,7.2-2.8V6.8l7.3-5.6l7.3,5.6v-21.9c2.4-0.1,4.8,0,7.2,0.3V35.9z"/>
	</g>
</g>
<g>
	<g>
		<path fill="#002F64" stroke="#002F64" stroke-miterlimit="10" d="M31,26.6l0.4,2.7c6.7-1,13.8,0.2,20.5,3.5l1.1-2.4
			C45.9,26.8,38.2,25.5,31,26.6z"/>
	</g>
</g>
<g>
	<g>
		<path fill="#002F64" stroke="#002F64" stroke-miterlimit="10" d="M31,15.7l0.4,2.7c6.7-1,13.8,0.2,20.5,3.5l1.1-2.4
			C45.9,15.9,38.2,14.7,31,15.7z"/>
	</g>
</g>
<g>
	<g>
		<path fill="#002F64" stroke="#002F64" stroke-miterlimit="10" d="M31,4.9l0.4,2.7c6.7-1,13.8,0.2,20.5,3.5L53,8.6
			C45.9,5.1,38.2,3.8,31,4.9z"/>
	</g>
</g>
<g>
	<g>
		<path fill="#002F64" stroke="#002F64" stroke-miterlimit="10" d="M31-6l0.4,2.7c6.7-1,13.8,0.2,20.5,3.5L53-2.3
			C45.9-5.8,38.2-7,31-6z"/>
	</g>
</g>
</svg>
