<?xml version="1.0" encoding="utf-8"?>
<!-- Generator: Adobe Illustrator 18.1.1, SVG Export Plug-In . SVG Version: 6.00 Build 0)  -->
<svg version="1.1" id="Capa_1" xmlns="http://www.w3.org/2000/svg" xmlns:xlink="http://www.w3.org/1999/xlink" x="0px" y="0px"
	 width="612px" height="792px" viewBox="0 0 612 792" enable-background="new 0 0 612 792" xml:space="preserve">
<path fill="#083657" d="M601.2,261.1c6.3,0,11.4-5.2,11.4-11.4v-80c0-18.9-15.4-34.3-34.3-34.3h-11.4v-30.5
	c0-18.9-15.4-34.3-34.3-34.3h-11.4V39.9c0-18.9-15.4-34.3-34.3-34.3H47.2C28.3,5.6,12.9,21,12.9,39.9v63.2c0,6.3,5.2,11.4,11.4,11.4
	s11.4-5.2,11.4-11.4V39.9c0-6.3,5.2-11.4,11.4-11.4h439.5c6.3,0,11.4,5.2,11.4,11.4v583c0,6.3-5.2,11.4-11.4,11.4H47.2
	c-6.3,0-11.4-5.2-11.4-11.4V152c0-6.3-5.2-11.4-11.4-11.4s-11.4,5.2-11.4,11.4v471c0,18.9,15.4,34.3,34.3,34.3h11.4v30.5
	c0,18.9,15.4,34.3,34.3,34.3h11.4v30.5c0,18.9,15.4,34.3,34.3,34.3h439.5c18.9,0,34.3-15.4,34.3-34.3V298.2
	c0-6.3-5.2-11.4-11.4-11.4s-11.4,5.2-11.4,11.4v454.5c0,6.3-5.2,11.4-11.4,11.4H138.8c-6.3,0-11.4-5.2-11.4-11.4v-30.5h283
	c6.3,0,11.4-5.2,11.4-11.4s-5.2-11.4-11.4-11.4H93c-6.3,0-11.4-5.2-11.4-11.4v-30.5h405.2c18.9,0,34.3-15.4,34.3-34.3V93.3h11.4
	c6.3,0,11.4,5.2,11.4,11.4v583c0,6.3-5.2,11.4-11.4,11.4h-73.7c-6.3,0-11.4,5.2-11.4,11.4s5.2,11.4,11.4,11.4h73.7
	c18.9,0,34.3-15.4,34.3-34.3V158.2h11.4c6.3,0,11.4,5.2,11.4,11.4v80C589.8,255.9,595,261.1,601.2,261.1z"/>
<path fill="#083657" d="M89.9,194.8v79.4c0,9.6,7.9,17.6,17.6,17.6h79.4c9.6,0,17.6-7.9,17.6-17.6v-59.1l23.5-20
	c4.7-4.1,5.3-11.3,1.2-16.2c-4.1-4.9-11.3-5.3-16.2-1.2l-10.5,9c-2.9-5.6-8.9-9.5-15.6-9.5h-79.4C97.9,177.3,89.9,185.2,89.9,194.8z
	 M112.8,200.2h68.7v4.4L158.8,224l-10.8-11.8c-4.3-4.6-11.6-4.9-16.2-0.6c-4.6,4.3-4.9,11.6-0.6,16.2l18.3,19.8
	c4.1,4.6,11.1,4.9,15.9,0.9l16.2-13.9v34.2h-68.7V200.2L112.8,200.2z"/>
<path fill="#002F64" d="M432.6,195.6H249.4c-6.3,0-11.4,5.2-11.4,11.4s5.2,11.4,11.4,11.4h183.1c6.3,0,11.4-5.2,11.4-11.4
	S438.8,195.6,432.6,195.6z"/>
<path fill="#002F64" d="M432.6,244.4H249.4c-6.3,0-11.4,5.2-11.4,11.4s5.2,11.4,11.4,11.4h183.1c6.3,0,11.4-5.2,11.4-11.4
	S438.8,244.4,432.6,244.4z"/>
<path fill="#002F64" d="M89.9,422.2c0,9.6,7.9,17.6,17.6,17.6h79.4c9.6,0,17.6-7.9,17.6-17.6v-79.4c0-9.6-7.9-17.6-17.6-17.6h-79.4
	c-9.6,0-17.6,7.9-17.6,17.6V422.2z M112.8,348.2h68.7v68.7h-68.7V348.2z"/>
<path fill="#002F64" d="M432.6,343.6H249.4c-6.3,0-11.4,5.2-11.4,11.4c0,6.3,5.2,11.4,11.4,11.4h183.1c6.3,0,11.4-5.2,11.4-11.4
	C444,348.8,438.8,343.6,432.6,343.6z"/>
<path fill="#002F64" d="M432.6,392.5H249.4c-6.3,0-11.4,5.2-11.4,11.4s5.2,11.4,11.4,11.4h183.1c6.3,0,11.4-5.2,11.4-11.4
	S438.8,392.5,432.6,392.5z"/>
<path fill="#002F64" d="M89.9,570.3c0,9.6,7.9,17.6,17.6,17.6h79.4c9.6,0,17.6-7.9,17.6-17.6v-79.4c0-9.6-7.9-17.6-17.6-17.6h-79.4
	c-9.6,0-17.6,7.9-17.6,17.6V570.3z M112.8,496.3h68.7v68.7h-68.7V496.3z"/>
<path fill="#002F64" d="M432.6,491.7H249.4c-6.3,0-11.4,5.2-11.4,11.4s5.2,11.4,11.4,11.4h183.1c6.3,0,11.4-5.2,11.4-11.4
	S438.8,491.7,432.6,491.7z"/>
<path fill="#002F64" d="M432.6,540.5H249.4c-6.3,0-11.4,5.2-11.4,11.4c0,6.3,5.2,11.4,11.4,11.4h183.1c6.3,0,11.4-5.2,11.4-11.4
	C444,545.7,438.8,540.5,432.6,540.5z"/>
<path fill="#002F64" d="M374.6,59.8H164c-21.1,0-38.2,17.1-38.2,38.2s17.1,38.2,38.2,38.2h210.6c21.1,0,38.2-17.1,38.2-38.2
	S395.6,59.8,374.6,59.8z M374.6,113.2H164c-8.4,0-15.3-6.9-15.3-15.3s6.9-15.3,15.3-15.3h210.6c8.4,0,15.3,6.9,15.3,15.3
	S383,113.2,374.6,113.2z"/>
</svg>
