<svg xmlns="http://www.w3.org/2000/svg" width="50.556" height="65" viewBox="0 0 50.556 65">
  <g id="Status_Reporting" data-name="Status Reporting" transform="translate(-178 -930)">
    <g id="noun_Document_642913" transform="translate(178 930)">
      <path id="Path_693" data-name="Path 693" d="M63.75,70H16.806A1.805,1.805,0,0,1,15,68.194V6.806A1.805,1.805,0,0,1,16.806,5H52.917a1.838,1.838,0,0,1,1.278.531l10.83,10.83a1.84,1.84,0,0,1,.531,1.278V68.194A1.805,1.805,0,0,1,63.75,70ZM18.611,66.389H61.944V19.444H52.917a1.805,1.805,0,0,1-1.806-1.806V8.611h-32.5Zm40.78-50.556-4.668-4.668v4.668Z" transform="translate(-15 -5)" fill="#002f64"/>
      <path id="Path_696" data-name="Path 696" d="M31.806,38.611H57.083a1.806,1.806,0,0,0,0-3.611H31.806a1.806,1.806,0,0,0,0,3.611Z" transform="translate(-19.167 2.667)" fill="#5fc2ff"/>
      <path id="Path_697" data-name="Path 697" d="M31.806,26.111H57.083a1.806,1.806,0,0,0,0-3.611H31.806a1.806,1.806,0,0,0,0,3.611Z" transform="translate(-19.167 6.139)" fill="#5fc2ff"/>
    </g>
  </g>
</svg>
