<svg xmlns="http://www.w3.org/2000/svg" width="66" height="65.998" viewBox="0 0 66 65.998">
  <g id="Ticketing_system_" data-name="Ticketing system  " transform="translate(-621.5 -987.5)">
    <path id="Path_469" data-name="Path 469" d="M51.682,29.975a1.527,1.527,0,0,0,1.527-1.527v-5.3a1.527,1.527,0,1,0-3.055,0v5.3A1.527,1.527,0,0,0,51.682,29.975Z" transform="translate(591.321 973.4)" fill="#5fc2ff"/>
    <path id="Path_465" data-name="Path 465" d="M115.306,113.255a1.527,1.527,0,0,0-2.16,2.16l5.431,5.432a1.527,1.527,0,1,0,2.16-2.16Z" transform="translate(556.071 922.008)" fill="#5fc2ff"/>
    <path id="Path_466" data-name="Path 466" d="M126.014,102.8h-5.3a1.527,1.527,0,1,0,0,3.055h5.3a1.527,1.527,0,0,0,0-3.055Z" transform="translate(552.412 927.651)" fill="#5fc2ff"/>
    <path id="Path_467" data-name="Path 467" d="M104.213,119.3a1.527,1.527,0,0,0-1.527,1.527v5.3a1.527,1.527,0,1,0,3.055,0v-5.3A1.528,1.528,0,0,0,104.213,119.3Z" transform="translate(561.714 918.349)" fill="#5fc2ff"/>
    <path id="Path_468" data-name="Path 468" d="M33.574,35.844a1.527,1.527,0,0,0,2.16-2.16L30.3,28.253a1.527,1.527,0,0,0-2.16,2.16Z" transform="translate(603.979 969.916)" fill="#5fc2ff"/>
    <path id="Path_470" data-name="Path 470" d="M23.041,53.32h5.3a1.527,1.527,0,1,0,0-3.055h-5.3a1.527,1.527,0,1,0,0,3.055Z" transform="translate(607.463 957.258)" fill="#5fc2ff"/>
    <path id="Subtraction_13" data-name="Subtraction 13" d="M21.78,65a4.354,4.354,0,0,1-3.1-1.282l-17.4-17.4a4.388,4.388,0,0,1,0-6.2l5.9-5.9a1.542,1.542,0,0,1,1.081-.447A1.526,1.526,0,0,1,9.755,35a3.228,3.228,0,0,0,3.158,2.589c.061,0,.124,0,.184-.005a3.213,3.213,0,0,0,2.355-1.216,3.275,3.275,0,0,0,.015-4,3.207,3.207,0,0,0-1.9-1.174,1.528,1.528,0,0,1-.778-2.577L20.7,20.7,40.118,1.281a4.389,4.389,0,0,1,6.2,0l5.911,5.91a1.527,1.527,0,0,1-.791,2.58,3.232,3.232,0,1,0,3.79,3.789,1.527,1.527,0,0,1,1.5-1.237,1.54,1.54,0,0,1,1.081.447l5.91,5.91a4.383,4.383,0,0,1,0,6.2L44.3,44.3l-7.915,7.915a1.527,1.527,0,0,1-2.577-.779A3.232,3.232,0,1,0,30,55.243a1.527,1.527,0,0,1,.778,2.576l-5.9,5.9A4.351,4.351,0,0,1,21.78,65ZM7.765,37.956,3.441,42.279a1.329,1.329,0,0,0,0,1.878l17.4,17.4a1.362,1.362,0,0,0,1.878,0l4.323-4.322a6.288,6.288,0,1,1,8.751-8.753l5.263-5.264L34.02,36.181a1.527,1.527,0,0,1,.93-2.6,3.232,3.232,0,0,0-.137-6.443c-.06,0-.122-.005-.183-.005a3.255,3.255,0,0,0-2.284.946,3.19,3.19,0,0,0-.929,1.966A1.529,1.529,0,0,1,29.9,31.424a1.514,1.514,0,0,1-1.079-.447L21.78,23.94,16.517,29.2a6.285,6.285,0,0,1-3.254,11.432c-.11.006-.221.009-.331.009a6.293,6.293,0,0,1-2.408-.477,6.293,6.293,0,0,1-2.758-2.211ZM34.632,24.079h0c.118,0,.237,0,.354.01A6.291,6.291,0,0,1,37.9,35.74l5.317,5.319L61.556,22.719a1.325,1.325,0,0,0,0-1.878l-4.329-4.329a6.285,6.285,0,1,1-8.744-8.744L44.157,3.441a1.329,1.329,0,0,0-1.878,0L23.94,21.78l5.321,5.32a6.341,6.341,0,0,1,.925-1.179,6.285,6.285,0,0,1,4.446-1.842Z" transform="translate(622 988)" fill="#004a9f" stroke="rgba(0,0,0,0)" stroke-miterlimit="10" stroke-width="1"/>
  </g>
</svg>
