<?xml version="1.0" encoding="utf-8"?>
<!-- Generator: Adobe Illustrator 18.1.1, SVG Export Plug-In . SVG Version: 6.00 Build 0)  -->
<svg version="1.1" id="Layer_1" xmlns="http://www.w3.org/2000/svg" xmlns:xlink="http://www.w3.org/1999/xlink" x="0px" y="0px"
	 width="66px" height="65px" viewBox="-272 364 66 65" enable-background="new -272 364 66 65" xml:space="preserve">
<g>
	<g>
		<path fill="#002F64" stroke="#002F64" stroke-miterlimit="10" d="M-244.6,397.6c-0.2-0.2-0.5-0.3-0.8-0.3c-0.3,0-0.6,0.1-0.8,0.3
			s-0.3,0.5-0.3,0.8c0,0.3,0.1,0.6,0.3,0.8c0.2,0.2,0.5,0.3,0.8,0.3c0.3,0,0.6-0.1,0.8-0.3s0.3-0.5,0.3-0.8
			C-244.3,398.2-244.4,397.8-244.6,397.6z"/>
	</g>
</g>
<g>
	<g>
		<path fill="#002F64" stroke="#002F64" stroke-miterlimit="10" d="M-215.3,367.4h-32.1c-0.6,0-1.1,0.5-1.1,1.1
			c0,0.6,0.5,1.1,1.1,1.1h32.1c1.9,0,3.4,1.6,3.4,3.4v20.7c0,1.9-1.6,3.4-3.4,3.4h-25.6c-0.6,0-1.1,0.5-1.1,1.1
			c0,0.6,0.5,1.1,1.1,1.1h25.6c3.2,0,5.7-2.6,5.7-5.7v-20.7C-209.5,370-212.1,367.4-215.3,367.4z"/>
	</g>
</g>
<g>
	<g>
		<path fill="#002F64" stroke="#002F64" stroke-miterlimit="10" d="M-215.3,371.9h-32.2c-0.6,0-1.1,0.5-1.1,1.1v2.2
			c0,0.6,0.5,1.1,1.1,1.1c0.6,0,1.1-0.5,1.1-1.1v-1h29.9v18.4h-19l5-5l2.3,2.3c0.4,0.4,1.1,0.4,1.7,0l5.1-5.1c0,0.6,0.5,1.1,1.1,1.1
			s1.1-0.5,1.1-1.1v-2.8c0-0.6-0.5-1.1-1.1-1.1h-2.8c-0.6,0-1.1,0.5-1.1,1.1c0,0.6,0.5,1.1,1.1,1.1l0,0l-4.4,4.4l-2.3-2.3
			c-0.4-0.4-1.1-0.4-1.7,0l-7.4,7.4h-6.2c-0.6,0-1.1,0.5-1.1,1.1c0,0.6,0.5,1.1,1.1,1.1h29.7c0.6,0,1.1-0.5,1.1-1.1v-20.7
			C-214.2,372.5-214.7,371.9-215.3,371.9z"/>
	</g>
</g>
<g>
	<g>
		<path fill="#002F64" stroke="#002F64" stroke-miterlimit="10" d="M-239.4,378.6h-12.8c0.9-1,1.5-2.5,1.5-4v-0.9
			c0-3.4-2.8-6.2-6.2-6.2c-3.4,0-6.2,2.8-6.2,6.2v0.9c0,1.6,0.5,2.9,1.5,4h-0.3c-3.4,0-6.3,2.8-6.3,6.3v12c0,3.1,2.3,5.7,5.2,6.2
			v22.1c0,0.6,0.5,1.1,1.1,1.1h11c0.6,0,1.1-0.5,1.1-1.1v-11.1c0-0.6-0.5-1.1-1.1-1.1c-0.6,0-1.1,0.5-1.1,1.1v10h-3.2v-19.4
			c0-0.6-0.5-1.1-1.1-1.1c-0.6,0-1.1,0.5-1.1,1.1v19.4h-3.2v-24.4l0,0h8.7l0,0v5.5c0,0.6,0.5,1.1,1.1,1.1c0.6,0,1.1-0.5,1.1-1.1v-19
			h15.6c0.6,0,1.1-0.5,1.1-1.1C-233.2,381.4-236,378.6-239.4,378.6z M-261,373.6c0-2.2,1.8-4,4-4c2.2,0,4,1.8,4,4v0.9
			c0,2.2-1.8,4-4,4c-2.2,0-4-1.8-4-4V373.6L-261,373.6z M-251,383.7L-251,383.7C-251.1,383.7-251.1,383.7-251,383.7
			c-0.7,0-1.2,0.5-1.2,1.1v12.4l0,0h-8.7l0,0v-12.4c0-0.6-0.5-1.1-1.1-1.1c-0.6,0-1.1,0.5-1.1,1.1v15.8c-1.7-0.5-2.9-2-2.9-3.8v-12
			c0-2.2,1.8-4,4-4h4v2.6c0,0.6,0.5,1.1,1.1,1.1c0.6,0,1.1-0.5,1.1-1.1v-2.6h16.4c1.8,0,3.3,1.2,3.8,2.8H-251L-251,383.7z"/>
	</g>
</g>
<g>
	<g>
		<path fill="#002F64" stroke="#002F64" stroke-miterlimit="10" d="M-250.2,408.7c-0.2-0.2-0.5-0.3-0.8-0.3s-0.6,0.1-0.8,0.3
			c-0.2,0.2-0.3,0.5-0.3,0.8c0,0.3,0.1,0.6,0.3,0.8c0.2,0.2,0.5,0.3,0.8,0.3s0.6-0.1,0.8-0.3c0.2-0.2,0.3-0.5,0.3-0.8
			C-249.9,409.2-250,408.9-250.2,408.7z"/>
	</g>
</g>
</svg>
