<?xml version="1.0" encoding="utf-8"?>
<!-- Generator: Adobe Illustrator 18.1.1, SVG Export Plug-In . SVG Version: 6.00 Build 0)  -->
<svg version="1.1" id="Layer_1" xmlns="http://www.w3.org/2000/svg" xmlns:xlink="http://www.w3.org/1999/xlink" x="0px" y="0px"
	 width="70px" height="70px" viewBox="-270 362 70 70" enable-background="new -270 362 70 70" xml:space="preserve">
<g transform="translate(128 128) scale(0.72 0.72)">
	<g transform="translate(-175.05 -175.05000000000004) scale(3.89 3.89)">
		<path fill="#002F64" stroke="#002F64" stroke-miterlimit="10" d="M-79.5,149.4h-10.3c-0.1,0-0.3-0.1-0.3-0.3v-4.7
			c0-1.9,1.6-3.5,3.5-3.5h3.9c1.9,0,3.5,1.6,3.5,3.5v4.7C-79.2,149.3-79.3,149.4-79.5,149.4z M-89.5,148.9h9.8v-4.4
			c0-1.6-1.3-2.9-2.9-2.9h-3.9c-1.6,0-2.9,1.3-2.9,2.9L-89.5,148.9L-89.5,148.9z"/>
		<path fill="#002F64" stroke="#002F64" stroke-miterlimit="10" d="M-87.1,149.4c-0.1,0-0.3-0.1-0.3-0.3v-4c0-0.1,0.1-0.3,0.3-0.3
			s0.3,0.1,0.3,0.3v4C-86.9,149.3-87,149.4-87.1,149.4z"/>
		<path fill="#002F64" stroke="#002F64" stroke-miterlimit="10" d="M-82.2,149.4c-0.1,0-0.3-0.1-0.3-0.3v-4c0-0.1,0.1-0.3,0.3-0.3
			s0.3,0.1,0.3,0.3v4C-81.9,149.3-82,149.4-82.2,149.4z"/>
		<path fill="#002F64" stroke="#002F64" stroke-miterlimit="10" d="M-84.5,139.9h-0.3c-1.7,0-3-1.3-3-3v-1.3c0-1.7,1.3-3,3-3h0.3
			c1.7,0,3,1.3,3,3v1.3C-81.5,138.5-82.9,139.9-84.5,139.9z M-84.8,133.1c-1.4,0-2.5,1.1-2.5,2.5v1.3c0,1.4,1.1,2.5,2.5,2.5h0.3
			c1.4,0,2.5-1.1,2.5-2.5v-1.3c0-1.4-1.1-2.5-2.5-2.5H-84.8z"/>
		<path fill="#002F64" stroke="#002F64" stroke-miterlimit="10" d="M-72.8,146.3h-5c-0.1,0-0.3-0.1-0.3-0.3c0-0.1,0.1-0.3,0.3-0.3
			h4.7v-3.5c0-1.3-1-2.3-2.3-2.3h-3.1c-0.6,0-1.1,0.2-1.5,0.6c-0.1,0.1-0.3,0.1-0.4,0s-0.1-0.3,0-0.4c0.5-0.4,1.2-0.7,1.9-0.7h3.1
			c1.6,0,2.9,1.3,2.9,2.9v3.8C-72.6,146.2-72.7,146.3-72.8,146.3z"/>
		<path fill="#002F64" stroke="#002F64" stroke-miterlimit="10" d="M-75,146.3c-0.1,0-0.3-0.1-0.3-0.3v-3.2c0-0.1,0.1-0.3,0.3-0.3
			c0.1,0,0.3,0.1,0.3,0.3v3.2C-74.7,146.2-74.8,146.3-75,146.3z"/>
		<path fill="#002F64" stroke="#002F64" stroke-miterlimit="10" d="M-76.9,138.6h-0.2c-1.4,0-2.5-1.1-2.5-2.5v-1
			c0-1.4,1.1-2.5,2.5-2.5h0.2c1.4,0,2.5,1.1,2.5,2.5v1C-74.4,137.5-75.5,138.6-76.9,138.6z M-77.1,133.1c-1.1,0-1.9,0.9-1.9,1.9v1
			c0,1.1,0.9,1.9,1.9,1.9h0.2c1.1,0,1.9-0.9,1.9-1.9v-1c0-1.1-0.9-1.9-1.9-1.9H-77.1z"/>
		<path fill="#002F64" stroke="#002F64" stroke-miterlimit="10" d="M-91.5,146.3h-5c-0.1,0-0.3-0.1-0.3-0.3v-3.8
			c0-1.6,1.3-2.9,2.9-2.9h3.1c0.7,0,1.3,0.2,1.9,0.7c0.1,0.1,0.1,0.3,0,0.4c-0.1,0.1-0.3,0.1-0.4,0c-0.4-0.4-1-0.6-1.5-0.6h-3.1
			c-1.3,0-2.3,1-2.3,2.3v3.5h4.7c0.1,0,0.3,0.1,0.3,0.3C-91.2,146.2-91.3,146.3-91.5,146.3z"/>
		<path fill="#002F64" stroke="#002F64" stroke-miterlimit="10" d="M-94.3,146.3c-0.1,0-0.3-0.1-0.3-0.3v-3.2c0-0.1,0.1-0.3,0.3-0.3
			s0.3,0.1,0.3,0.3v3.2C-94,146.2-94.2,146.3-94.3,146.3z"/>
		<path fill="#002F64" stroke="#002F64" stroke-miterlimit="10" d="M-92.2,138.6h-0.2c-1.4,0-2.5-1.1-2.5-2.5v-1
			c0-1.4,1.1-2.5,2.5-2.5h0.2c1.4,0,2.5,1.1,2.5,2.5v1C-89.7,137.5-90.8,138.6-92.2,138.6z M-92.4,133.1c-1.1,0-1.9,0.9-1.9,1.9v1
			c0,1.1,0.9,1.9,1.9,1.9h0.2c1.1,0,1.9-0.9,1.9-1.9v-1c0-1.1-0.9-1.9-1.9-1.9C-92.2,133.1-92.4,133.1-92.4,133.1z"/>
	</g>
</g>
</svg>
