<svg xmlns="http://www.w3.org/2000/svg" width="53.998" height="53" viewBox="0 0 53.998 53">
  <g id="User_Management_" data-name="User Management " transform="translate(-588 -1143)">
    <g id="Group_311" data-name="Group 311" transform="translate(588 1143)">
      <circle id="Ellipse_20" data-name="Ellipse 20" cx="6.625" cy="6.625" r="6.625" transform="translate(3.311)" fill="#5fc2ff"/>
      <path id="Path_401" data-name="Path 401" d="M18.357,7.985A3.3,3.3,0,0,0,15.061,5H13.249a1.668,1.668,0,0,0-1.173.484l-2.14,2.14L7.8,5.484A1.668,1.668,0,0,0,6.624,5H4.812a3.3,3.3,0,0,0-3.3,2.981L.009,23.053a1.655,1.655,0,0,0,1.646,1.822H3.467L4.825,38.456a3.306,3.306,0,0,0,3.3,2.981h3.627a3.3,3.3,0,0,0,3.3-2.981l1.358-13.581h1.812a1.655,1.655,0,0,0,1.65-1.822Z" transform="translate(0 11.563)" fill="#5fc2ff"/>
      <path id="Path_402" data-name="Path 402" d="M37.746,15.85h-4.17a14.772,14.772,0,0,0-2.7-4.707l2.077-3.611a1.657,1.657,0,0,0-.61-2.259L26.583,1.96a1.657,1.657,0,0,0-2.262.613L22.257,6.167a14.72,14.72,0,0,0-5.452,0l-2.067-3.6a1.661,1.661,0,0,0-2.262-.609L6.712,5.273A1.654,1.654,0,0,0,6.1,7.532l2.074,3.611a15.815,15.815,0,0,0-1.017,1.451,6.438,6.438,0,0,1,.9,2.6L9.564,30.262a4.985,4.985,0,0,1-1.252,3.819l-.01.013A4.955,4.955,0,0,1,6,35.5a1.624,1.624,0,0,0,.706.865l5.764,3.313a1.653,1.653,0,0,0,.825.219,1.607,1.607,0,0,0,.431-.06,1.645,1.645,0,0,0,1-.772l2.064-3.594a14.791,14.791,0,0,0,5.452,0l2.064,3.594a1.66,1.66,0,0,0,2.262.61l5.764-3.312a1.662,1.662,0,0,0,.61-2.262L30.87,30.488a14.454,14.454,0,0,0,2.706-4.7h4.17A1.657,1.657,0,0,0,39.4,24.131V17.506A1.657,1.657,0,0,0,37.746,15.85ZM19.528,27.443a6.625,6.625,0,1,1,6.625-6.625A6.632,6.632,0,0,1,19.528,27.443Z" transform="translate(13.596 4.025)" fill="none" stroke="#004a9f" stroke-width="2"/>
    </g>
  </g>
</svg>
