<svg xmlns="http://www.w3.org/2000/svg" width="81.777" height="69" viewBox="0 0 81.777 69">
  <g id="User_Management_" data-name="User Management " transform="translate(-3.9 -12.6)">
    <path id="Path_584" data-name="Path 584" d="M83.951,79.613H67.676a1.9,1.9,0,0,1-1.9-1.9,1.964,1.964,0,0,1,1.9-1.9H81.954a96.524,96.524,0,0,0-.7-11.782c-.8-1.4-3.395-2.6-8.187-4.593-5.092-2.1-7.988-4.393-7.988-9.685a5.117,5.117,0,0,1,1.1-3.2,5.5,5.5,0,0,0,1.1-3,3.177,3.177,0,0,1,1.7-2.4s.1.8.2-1.5c0-.2,0-.3-.1-.4a1.983,1.983,0,0,1-.7-1.8s.4-2.3.5-4.094a6.084,6.084,0,0,0-1.6-4.293,6.176,6.176,0,0,0-4.793-1.8,6.176,6.176,0,0,0-4.793,1.8,5.92,5.92,0,0,0-1.5,4.293c.1,1.8.5,4.094.5,4.094a1.983,1.983,0,0,1-.7,1.8,2.031,2.031,0,0,0-.1.5,3.494,3.494,0,0,0,.3,1.4,2.948,2.948,0,0,1,1.7,2.3,5.908,5.908,0,0,0,1.1,3,4.583,4.583,0,0,1,1.1,3.2c0,3.295-.6,4.194-3.2,6.091a1.939,1.939,0,1,1-2.2-3.2c1.6-1.1,1.6-1.1,1.6-2.9,0-.4,0-.4-.3-.8a8.616,8.616,0,0,1-1.9-4.493c-1.3-.8-1.8-2.1-2-4.493a5.981,5.981,0,0,1,.6-2.7c-.1-.9-.3-2.3-.4-3.495A9.806,9.806,0,0,1,54.9,26.4a10.08,10.08,0,0,1,7.688-3.1,10.453,10.453,0,0,1,7.688,3,10.562,10.562,0,0,1,2.6,7.289c-.1,1.2-.3,2.6-.4,3.495a4.531,4.531,0,0,1,.6,2.6c-.2,2.5-.7,3.794-2,4.593a9.073,9.073,0,0,1-1.9,4.493,1.006,1.006,0,0,0-.3.9c0,2.6.5,3.994,5.591,6.091,5.791,2.4,8.587,3.894,10.084,6.39.3.4,1.1,1.8,1.2,15.476a1.971,1.971,0,0,1-.6,1.4C85.049,79.414,84.55,79.613,83.951,79.613Z" transform="translate(-0.071 -0.013)" fill="#39b4ff"/>
    <path id="Path_585" data-name="Path 585" d="M54.625,79.6H7.8a1.9,1.9,0,0,1-1.9-1.9V65.022c0-4.393,4.293-6.19,6.69-7.089,7.588-3.2,10.883-5.192,10.883-8.886a1.714,1.714,0,0,0-.6-1.5c-.8-1-1.8-2.4-2.4-5.991-1.4-.8-2.4-2-2.6-5.591a5.765,5.765,0,0,1,.9-3.395c-.2-1.2-.5-3.2-.6-4.892a12.745,12.745,0,0,1,3.2-9.186A12.918,12.918,0,0,1,31.161,14.6a12.711,12.711,0,0,1,9.785,3.894,12.621,12.621,0,0,1,3.2,9.186c-.1,1.7-.4,3.694-.6,4.892a5.415,5.415,0,0,1,.9,3.295c-.2,3.694-1.2,4.992-2.6,5.791a11.325,11.325,0,0,1-2.4,5.991,1.824,1.824,0,0,0-.6,1.5c0,3.994,1.2,5.891,7.888,8.687h0c6.79,2.9,9.885,6.091,9.885,10.484V77.8A2.133,2.133,0,0,1,54.625,79.6Z" transform="translate(0)" fill="none" stroke="#002f64" stroke-width="4"/>
  </g>
</svg>
