<?xml version="1.0" encoding="utf-8"?>
<!-- Generator: Adobe Illustrator 18.1.1, SVG Export Plug-In . SVG Version: 6.00 Build 0)  -->
<svg version="1.1" id="Layer_1" xmlns="http://www.w3.org/2000/svg" xmlns:xlink="http://www.w3.org/1999/xlink" x="0px" y="0px"
	 width="60px" height="48.1px" viewBox="-275 372.9 60 48.1" enable-background="new -275 372.9 60 48.1" xml:space="preserve">
<g id="Vaccination">
	<path fill="#002F64" stroke="#002F64" stroke-width="0.5" stroke-miterlimit="10" d="M-231.9,407l-10.6-2.3l-2.7-3.7
		c2.6-1.5,4.3-4.2,4.5-7.2h0.8c1.3,0,2.3-1,2.3-2.3v-1.6c0-1.3-1-2.3-2.3-2.3h-0.8v-2c1.9-1.3,3.1-3.5,3.1-5.8v-4.7
		c0-0.4-0.3-0.8-0.8-0.8h-17c-3.9,0-7,3.1-7,7v1.6c0.1,1.8,1.4,3.4,3.2,3.8v0.9h-0.8c-1.3,0-2.3,1-2.3,2.3v1.6c0,1.3,1,2.3,2.3,2.3
		h0.8c0.3,3,1.9,5.7,4.5,7.2l-2.7,3.7L-268,407c-0.4,0.1-0.6,0.4-0.6,0.8v9.3c0,0.4,0.3,0.7,0.6,0.8l17.8,3.1c0.1,0,0.2,0,0.3,0
		l17.8-3.1c0.4-0.1,0.6-0.4,0.6-0.8v-9.4C-231.3,407.3-231.6,407-231.9,407L-231.9,407z M-259.2,392.2h-0.8c-0.4,0-0.8-0.3-0.8-0.8
		v-1.5c0-0.4,0.3-0.8,0.8-0.8h0.8V392.2z M-239.9,389.1c0.4,0,0.8,0.3,0.8,0.8v1.6c0,0.4-0.3,0.8-0.8,0.8h-0.8v-3.2H-239.9z
		 M-259.2,384.5v0.6c-0.9-0.3-1.5-1.2-1.6-2.2v-1.6c0-3,2.4-5.4,5.4-5.4h16.3v3.9c0,1.6-0.7,3-1.8,4.1c-0.1-0.1-0.2-0.2-0.3-0.2
		l-11.6-3.1c-0.2,0-0.4,0-0.6,0.1l-5.4,3.1C-259.1,383.9-259.2,384.2-259.2,384.5L-259.2,384.5z M-257.7,393v-8.1l4.8-2.7l10.7,2.9
		v7.9c0,4.3-3.5,7.8-7.8,7.8C-254.3,400.8-257.7,397.3-257.7,393z M-253.3,401.7c2.1,0.8,4.5,0.8,6.7,0l2.7,3.7l-0.6,0.7
		c-2.4,3-6.8,3.4-9.8,1c-0.4-0.3-0.7-0.6-1-1l-0.6-0.7L-253.3,401.7z M-257.7,418l-4.6-0.8v-3.3h4.7v4.1H-257.7z M-232.9,416.4
		l-17.1,3l-6.2-1.1v-5.1c0-0.4-0.3-0.8-0.8-0.8h-6.2c-0.4,0-0.8,0.3-0.8,0.8v3.8l-3.1-0.5v-8l9.8-2.1l0.7,0.8c3,3.6,8.3,4.2,12,1.2
		c0.4-0.4,0.9-0.8,1.2-1.2l0.7-0.8l9.8,2.1V416.4z"/>
	<path fill="#002F64" stroke="#002F64" stroke-width="0.5" stroke-miterlimit="10" d="M-223.6,385.7l-2-1.2l0.8-1.3l1.3,0.8l0.8-1.3
		l-4-2.3l-0.8,1.3l1.3,0.8l-0.8,1.3l-2-1.2c-0.2-0.1-0.4-0.1-0.6-0.1c-0.2,0.1-0.4,0.2-0.5,0.4l-6.2,10.7c-0.2,0.4-0.1,0.8,0.3,1.1
		l0,0l0.7,0.4l-1.2,2c-0.1,0.2-0.1,0.4-0.1,0.6c0.1,0.2,0.2,0.4,0.4,0.5l0.7,0.4l-1.9,3.4l1.3,0.8l1.9-3.4l0.7,0.4
		c0.4,0.2,0.8,0.1,1.1-0.3l1.2-2l0.7,0.4c0.1,0.1,0.3,0.1,0.4,0.1c0.1,0,0.1,0,0.2,0c0.2-0.1,0.4-0.2,0.5-0.4l6.1-10.8
		C-223.1,386.4-223.2,385.9-223.6,385.7L-223.6,385.7L-223.6,385.7z M-233.4,398l-1.3-0.8l0.8-1.3l1.3,0.8L-233.4,398z M-225.8,388
		l-2-1.2l-0.8,1.3l2,1.2l-0.8,1.4l-2-1.2l-0.8,1.3l2,1.2l-0.8,1.3l-2-1.2l-0.8,1.3l2,1.2l-0.8,1.3l-4-2.3l5.4-9.4l4,2.3L-225.8,388z
		"/>
	<path fill="#002F64" stroke="#002F64" stroke-width="0.5" stroke-miterlimit="10" d="M-231.6,401l-1.1,1.1l3.1,3.1
		c0.1,0.1,0.3,0.2,0.5,0.2h7v-1.6h-6.7L-231.6,401z"/>
	<path fill="#002F64" stroke="#002F64" stroke-width="0.5" stroke-miterlimit="10" d="M-229.8,406.9h1.6v1.6h-1.6V406.9z"/>
	<path fill="#002F64" stroke="#002F64" stroke-width="0.5" stroke-miterlimit="10" d="M-226.7,406.9h4.7v1.6h-4.7
		C-226.7,408.5-226.7,406.9-226.7,406.9z"/>
	<path fill="#002F64" stroke="#002F64" stroke-width="0.5" stroke-miterlimit="10" d="M-229.8,410h7.8v1.6h-7.8
		C-229.8,411.6-229.8,410-229.8,410z"/>
	<path fill="#002F64" stroke="#002F64" stroke-width="0.5" stroke-miterlimit="10" d="M-243.3,389l-0.9-1.3c-1.1,0.8-2.6,0.8-3.8,0
		l-0.9,1.3C-247.2,390.1-245,390.1-243.3,389z"/>
	<path fill="#002F64" stroke="#002F64" stroke-width="0.5" stroke-miterlimit="10" d="M-255.7,387.7l-0.9,1.3c1.7,1.1,3.8,1.1,5.5,0
		l-0.8-1.3C-253.1,388.4-254.6,388.4-255.7,387.7z"/>
	<path fill="#002F64" stroke="#002F64" stroke-width="0.5" stroke-miterlimit="10" d="M-226.7,400.7h4.7v1.6h-4.7
		C-226.7,402.3-226.7,400.7-226.7,400.7z"/>
</g>
</svg>
